<?xml version="1.0" standalone="no"?><!DOCTYPE svg PUBLIC "-//W3C//DTD SVG 1.1//EN" "http://www.w3.org/Graphics/SVG/1.1/DTD/svg11.dtd"><svg t="1640918809432" class="icon" viewBox="0 0 1024 1024" version="1.1" xmlns="http://www.w3.org/2000/svg" p-id="9088" xmlns:xlink="http://www.w3.org/1999/xlink" width="200" height="200"><defs><style type="text/css"></style></defs><path d="M890.780444 156.245333L538.979556 38.968889a85.333333 85.333333 0 0 0-53.959112 0L133.233778 156.245333A28.444444 28.444444 0 0 0 113.777778 183.196444V625.777778c0 24.846222 14.193778 56.291556 43.093333 92.842666 28.302222 35.768889 67.669333 72.632889 110.961778 107.761778 86.485333 70.158222 184.931556 130.375111 231.438222 157.582222a24.988444 24.988444 0 0 0 25.457778 0c46.506667-27.207111 144.952889-87.424 231.438222-157.582222 43.292444-35.128889 82.659556-71.992889 110.961778-107.761778C896.028444 682.069333 910.222222 650.638222 910.222222 625.777778V183.182222c0-12.231111-7.822222-23.082667-19.441778-26.965333zM547.982222 11.975111l351.786667 117.262222A56.860444 56.860444 0 0 1 938.666667 183.196444V625.777778c0 138.439111-305.706667 327.822222-399.573334 382.72a53.432889 53.432889 0 0 1-54.186666 0C391.04 953.6 85.333333 764.231111 85.333333 625.777778V183.210667a56.888889 56.888889 0 0 1 38.897778-53.959111L476.017778 11.989333a113.777778 113.777778 0 0 1 71.964444 0z" fill="#408CFF" p-id="9089"></path><path d="M739.555556 455.111111c0 125.667556-101.873778 227.555556-227.555556 227.555556s-227.555556-101.888-227.555556-227.555556c0-125.681778 101.873778-227.555556 227.555556-227.555555s227.555556 101.873778 227.555556 227.555555z" fill="#408CFF" p-id="9090"></path><path d="M547.982222 11.989333l351.786667 117.262223A56.860444 56.860444 0 0 1 938.666667 183.196444V625.777778c0 34.616889-19.114667 72.405333-49.237334 110.492444-30.122667 38.072889-71.267556 76.444444-115.342222 112.213334-88.177778 71.509333-188.060444 132.579556-234.993778 160.028444a53.404444 53.404444 0 0 1-54.186666 0c-46.933333-27.448889-146.830222-88.519111-234.993778-160.042667-44.074667-35.754667-85.219556-74.126222-115.342222-112.213333C104.433778 698.197333 85.333333 660.394667 85.333333 625.777778V183.210667a56.888889 56.888889 0 0 1 38.897778-53.959111L476.017778 11.989333a113.777778 113.777778 0 0 1 71.964444 0z m342.784 144.256L538.993778 38.968889a85.333333 85.333333 0 0 0-53.959111 0L133.233778 156.245333A28.444444 28.444444 0 0 0 113.777778 183.224889V625.777778c0 24.846222 14.193778 56.291556 43.093333 92.842666 28.302222 35.768889 67.669333 72.632889 110.961778 107.761778 86.485333 70.158222 184.931556 130.375111 231.438222 157.582222a24.988444 24.988444 0 0 0 25.457778 0c46.506667-27.207111 144.952889-87.424 231.438222-157.582222 43.292444-35.128889 82.659556-71.992889 110.961778-107.761778C896.028444 682.069333 910.222222 650.638222 910.222222 625.777778V183.182222c0-12.231111-7.822222-23.082667-19.441778-26.965333zM512 654.222222c109.966222 0 199.111111-89.144889 199.111111-199.111111s-89.144889-199.111111-199.111111-199.111111-199.111111 89.144889-199.111111 199.111111 89.144889 199.111111 199.111111 199.111111z m0 28.444445c125.681778 0 227.555556-101.888 227.555556-227.555556 0-125.681778-101.873778-227.555556-227.555556-227.555555s-227.555556 101.873778-227.555556 227.555555c0 125.667556 101.873778 227.555556 227.555556 227.555556z" fill="#152C6B" p-id="9091"></path><path d="M512 455.111111m-199.111111 0a199.111111 199.111111 0 1 0 398.222222 0 199.111111 199.111111 0 1 0-398.222222 0Z" fill="#408CFF" p-id="9092"></path><path d="M482.744889 458.936889l93.112889-94.236445c25.016889-25.315556 37.518222-37.973333 41.813333-37.575111 3.697778 0.327111 6.826667 2.844444 7.978667 6.4 1.351111 4.167111-8.035556 19.342222-26.780445 49.706667l-91.022222 147.399111c-8.32 13.468444-12.472889 20.209778-17.806222 22.528a18.289778 18.289778 0 0 1-14.577778 0c-5.333333-2.318222-9.486222-9.059556-17.806222-22.528l-54.158222-87.694222c-2.275556-3.669333-3.399111-5.504-4.039111-7.168a18.858667 18.858667 0 0 1 6.016-21.617778c1.393778-1.080889 3.299556-2.048 7.125333-3.982222 2.602667-1.308444 3.911111-1.976889 5.162667-2.389333 5.745778-1.934222 12.074667-0.896 16.924444 2.773333 1.052444 0.810667 2.090667 1.848889 4.138667 3.925333l43.918222 44.458667z" fill="#FFFFFF" p-id="9093"></path></svg>