<?xml version="1.0" standalone="no"?><!DOCTYPE svg PUBLIC "-//W3C//DTD SVG 1.1//EN" "http://www.w3.org/Graphics/SVG/1.1/DTD/svg11.dtd"><svg t="1641448495746" class="icon" viewBox="0 0 1024 1024" version="1.1" xmlns="http://www.w3.org/2000/svg" p-id="2174" xmlns:xlink="http://www.w3.org/1999/xlink" width="200" height="200"><defs><style type="text/css"></style></defs><path d="M234.352 518.784h1.904-1.92zM544.32 408.16c39.936 0 57.04 43.728 57.04 83.68 0 45.632-19.008 85.568-57.04 85.568-38.048 0-57.056-39.936-57.056-83.68 0-43.728 17.12-85.568 57.056-85.568z m220.592-195.888c83.68 0 152.144 68.48 152.144 152.144v304.272c0 83.68-68.48 152.144-152.144 152.144H259.072c-83.68 0-152.144-68.48-152.144-152.144V364.416c0-83.68 68.48-152.144 152.144-152.144h505.856z m-496.352 317.6h-1.904v-144.544h-32.32v144.544c0 38.032-13.312 47.536-34.24 47.536-7.6 0-15.2-1.904-20.912-3.808l-3.808 26.624c7.616 1.92 19.024 3.808 28.528 3.808 38.032 0 64.656-17.12 64.656-74.16z m85.584 74.16c49.44 0 76.064-26.624 79.872-62.752 0-30.432-17.12-49.44-51.36-64.656-28.512-13.312-39.92-20.928-39.92-39.936 0-13.312 9.504-28.528 36.128-28.528 17.12 0 30.432 5.696 38.032 9.504l7.616-26.624c-9.52-3.808-24.736-9.504-45.648-9.504-43.744 0-70.368 26.624-70.368 60.848 0 30.432 20.928 49.44 53.248 62.752 24.72 9.52 36.144 20.928 36.144 39.936 0 19.024-13.312 32.336-39.936 32.336-19.024 0-36.144-5.712-47.552-13.312l-7.6 26.624c9.504 7.6 30.416 13.312 51.344 13.312z m190.176 0c51.344 0 91.28-38.032 91.28-112.208 0-62.752-32.32-110.288-89.392-110.288-55.136 0-93.184 43.728-93.184 112.192 0 66.56 36.144 110.304 91.296 110.304z m281.44-1.904h-1.888v-214.88H793.44v79.856c0 34.24 1.904 62.768 3.808 91.28-7.616-22.816-20.928-49.44-34.24-72.256l-57.056-100.8h-36.128v218.704h30.432v-81.76c0-38.048 0-66.56-1.904-93.2h1.904a640.112 640.112 0 0 0 36.128 72.272l57.056 100.8h32.32z" fill="#6C63FF" p-id="2175"></path></svg>