<?xml version="1.0" encoding="UTF-8"?>
<svg xmlns="http://www.w3.org/2000/svg" xmlns:xlink="http://www.w3.org/1999/xlink" width="600px" height="517px" viewBox="0 0 600 517" version="1.1">
<defs>
<filter id="alpha" filterUnits="objectBoundingBox" x="0%" y="0%" width="100%" height="100%">
  <feColorMatrix type="matrix" in="SourceGraphic" values="0 0 0 0 1 0 0 0 0 1 0 0 0 0 1 0 0 0 1 0"/>
</filter>
<mask id="mask0">
  <g filter="url(#alpha)">
<rect x="0" y="0" width="600" height="517" style="fill:rgb(0%,0%,0%);fill-opacity:0.101961;stroke:none;"/>
  </g>
</mask>
<clipPath id="clip1">
  <rect x="0" y="0" width="600" height="517"/>
</clipPath>
<g id="surface5" clip-path="url(#clip1)">
<path style=" stroke:none;fill-rule:nonzero;fill:rgb(0%,0%,0%);fill-opacity:1;" d="M 272.785156 260.789062 C 272.785156 260.789062 278.769531 251.382812 276.605469 237.015625 C 274.4375 222.652344 262.53125 214.605469 262.53125 214.605469 C 262.53125 214.605469 254.835938 220.59375 262.53125 235.988281 C 262.53125 235.988281 253.128906 244.539062 260.820312 258.222656 "/>
</g>
<mask id="mask1">
  <g filter="url(#alpha)">
<rect x="0" y="0" width="600" height="517" style="fill:rgb(0%,0%,0%);fill-opacity:0.101961;stroke:none;"/>
  </g>
</mask>
<clipPath id="clip2">
  <rect x="0" y="0" width="600" height="517"/>
</clipPath>
<g id="surface8" clip-path="url(#clip2)">
<path style=" stroke:none;fill-rule:nonzero;fill:rgb(0%,0%,0%);fill-opacity:1;" d="M 252.699219 213.324219 L 248 206.054688 C 248 206.054688 225.777344 202.632812 228.339844 210.332031 C 230.90625 218.027344 241.160156 214.605469 241.160156 214.605469 L 247.144531 220.59375 Z M 252.699219 213.324219 "/>
</g>
</defs>
<g id="surface1">
<path style=" stroke:none;fill-rule:nonzero;fill:rgb(42.352941%,38.823529%,100%);fill-opacity:1;" d="M 148.808594 166.027344 C 148.808594 166.027344 84.667969 188.128906 72.367188 208.535156 C 60.066406 228.9375 148.808594 166.027344 148.808594 166.027344 Z M 148.808594 166.027344 "/>
<path style=" stroke:none;fill-rule:nonzero;fill:rgb(24.705882%,23.921569%,33.72549%);fill-opacity:1;" d="M 37.984375 236.777344 C 37.082031 236.847656 36.195312 236.519531 35.550781 235.878906 C 33.554688 234.082031 35.1875 230.683594 36.585938 228.28125 C 55.351562 196.09375 149.707031 162.175781 153.710938 160.746094 L 162.339844 157.671875 L 154.953125 163.089844 C 154.679688 163.289062 127.230469 183.394531 99.128906 202.332031 C 55.445312 231.777344 42.476562 236.777344 37.984375 236.777344 Z M 145.328125 166.761719 C 120.550781 176.359375 53.785156 204.097656 38.898438 229.628906 C 36.917969 233.027344 37.335938 233.882812 37.339844 233.890625 C 37.742188 234.324219 42.8125 237.039062 97.308594 200.332031 C 116.304688 187.535156 135.046875 174.171875 145.328125 166.761719 Z M 145.328125 166.761719 "/>
<path style=" stroke:none;fill-rule:nonzero;fill:rgb(42.352941%,38.823529%,100%);fill-opacity:1;" d="M 147.417969 143.945312 C 147.417969 143.945312 88.308594 137.867188 70.378906 148.257812 C 52.449219 158.644531 147.417969 143.945312 147.417969 143.945312 Z M 147.417969 143.945312 "/>
<path style=" stroke:none;fill-rule:nonzero;fill:rgb(24.705882%,23.921569%,33.72549%);fill-opacity:1;" d="M 66.871094 153.882812 C 46.183594 153.882812 44.761719 150.566406 44.109375 149.046875 C 42.8125 146.011719 46.429688 143.152344 47.617188 142.214844 C 73.273438 121.945312 151.203125 142.429688 154.507812 143.308594 L 160.84375 145 L 154.351562 145.929688 C 154.089844 145.964844 127.980469 149.679688 101.632812 152.007812 C 86.265625 153.363281 75.058594 153.882812 66.871094 153.882812 Z M 85.003906 136.023438 C 70.429688 136.023438 57.097656 138.136719 49.277344 144.316406 C 46.917969 146.179688 46.332031 147.4375 46.570312 147.992188 C 47.171875 149.390625 52.894531 153.621094 101.394531 149.339844 C 119.46875 147.746094 137.429688 145.492188 146.964844 144.230469 C 134.746094 141.417969 108.289062 136.023438 85.003906 136.023438 Z M 85.003906 136.023438 "/>
<path style=" stroke:none;fill-rule:nonzero;fill:rgb(42.352941%,38.823529%,100%);fill-opacity:1;" d="M 164.335938 133.53125 C 164.335938 133.53125 134.601562 62.101562 141.808594 55.03125 C 149.011719 47.960938 164.335938 133.53125 164.335938 133.53125 Z M 164.335938 133.53125 "/>
<path style=" stroke:none;fill-rule:nonzero;fill:rgb(24.705882%,23.921569%,33.72549%);fill-opacity:1;" d="M 165.980469 139.8125 L 162.28125 130.363281 C 162.191406 130.132812 153.148438 106.945312 145.691406 83.078125 C 130.339844 33.917969 136.632812 29.722656 138.699219 28.34375 C 139.738281 27.597656 141.105469 27.480469 142.253906 28.042969 C 153.847656 33.449219 163.765625 119.886719 164.859375 129.726562 Z M 140.734375 30.371094 C 140.535156 30.378906 140.34375 30.449219 140.183594 30.570312 C 132.796875 35.5 147.773438 84.023438 160.941406 119.34375 C 156.425781 82.925781 148.109375 33.726562 141.121094 30.46875 C 141.003906 30.40625 140.871094 30.375 140.734375 30.371094 Z M 140.734375 30.371094 "/>
<path style=" stroke:none;fill-rule:nonzero;fill:rgb(42.352941%,38.823529%,100%);fill-opacity:1;" d="M 175.574219 149.238281 C 175.574219 149.238281 191.53125 77.039062 208.246094 77.039062 C 224.964844 77.039062 175.574219 149.238281 175.574219 149.238281 Z M 175.574219 149.238281 "/>
<path style=" stroke:none;fill-rule:nonzero;fill:rgb(24.705882%,23.921569%,33.72549%);fill-opacity:1;" d="M 171.363281 154.21875 L 172.941406 148.277344 C 174.097656 143.917969 201.652344 41.507812 231.773438 41.507812 C 235.902344 41.507812 237.683594 43.445312 238.453125 45.070312 C 246.484375 62.089844 182.582031 140.578125 175.269531 149.46875 Z M 231.773438 44.183594 C 207.730469 44.183594 183.832031 120.214844 177.28125 142.75 C 198.84375 115.945312 241.824219 58.484375 236.035156 46.214844 C 235.796875 45.710938 235.074219 44.183594 231.773438 44.183594 Z M 231.773438 44.183594 "/>
<path style=" stroke:none;fill-rule:nonzero;fill:rgb(42.352941%,38.823529%,100%);fill-opacity:1;" d="M 184.9375 149.957031 C 184.9375 149.957031 239.804688 115.269531 352.207031 125.859375 C 464.613281 136.445312 184.9375 149.957031 184.9375 149.957031 Z M 184.9375 149.957031 "/>
<path style=" stroke:none;fill-rule:nonzero;fill:rgb(24.705882%,23.921569%,33.72549%);fill-opacity:1;" d="M 181.195312 151.40625 L 184.070312 148.941406 C 184.652344 148.441406 198.636719 136.613281 226.660156 127.101562 C 252.449219 118.34375 295.4375 110.097656 353.78125 120.523438 C 378.429688 124.929688 381.632812 128.210938 381.417969 131.101562 C 381.207031 133.957031 380.710938 140.644531 282.222656 146.84375 C 234.09375 149.875 185.464844 151.28125 184.976562 151.296875 Z M 300.832031 118.332031 C 237.457031 118.332031 199.988281 140.863281 189.125 148.488281 C 201.988281 148.078125 242.199219 146.679688 282.058594 144.171875 C 373.578125 138.410156 378.660156 132.105469 378.746094 130.902344 C 378.757812 130.773438 378.691406 127.695312 353.3125 123.160156 C 335.992188 120.003906 318.433594 118.386719 300.832031 118.332031 Z M 300.832031 118.332031 "/>
<path style=" stroke:none;fill-rule:nonzero;fill:rgb(42.352941%,38.823529%,100%);fill-opacity:1;" d="M 219.730469 154.027344 C 219.730469 154.027344 315.832031 152.742188 321.234375 163.011719 C 326.632812 173.277344 219.730469 154.027344 219.730469 154.027344 Z M 219.730469 154.027344 "/>
<path style=" stroke:none;fill-rule:nonzero;fill:rgb(24.705882%,23.921569%,33.72549%);fill-opacity:1;" d="M 333.539062 180.261719 C 302.863281 180.261719 229.128906 158.222656 219.34375 155.257812 L 211.324219 152.824219 L 219.699219 152.636719 C 231.992188 152.363281 340 150.5625 346.792969 172.320312 C 347.597656 174.898438 346.664062 176.550781 345.742188 177.484375 C 343.808594 179.4375 339.480469 180.261719 333.539062 180.261719 Z M 228.496094 155.191406 C 273.574219 168.410156 336.167969 183.347656 343.839844 175.597656 C 344.257812 175.179688 344.675781 174.519531 344.242188 173.121094 C 339.414062 157.664062 265.75 154.9375 228.496094 155.191406 Z M 228.496094 155.191406 "/>
<path style=" stroke:none;fill-rule:nonzero;fill:rgb(42.352941%,38.823529%,100%);fill-opacity:1;" d="M 200.996094 164.6875 C 200.996094 164.6875 259.042969 191.53125 247.699219 199.792969 C 236.359375 208.050781 200.996094 164.6875 200.996094 164.6875 Z M 200.996094 164.6875 "/>
<path style=" stroke:none;fill-rule:nonzero;fill:rgb(24.705882%,23.921569%,33.72549%);fill-opacity:1;" d="M 283.867188 232.269531 C 255.789062 232.269531 198.617188 164.695312 195.957031 161.53125 L 192.195312 157.054688 L 197.53125 159.449219 C 201.421875 161.195312 292.898438 202.453125 294.902344 223.117188 C 295.167969 225.859375 293.964844 228.253906 291.425781 230.046875 C 289.203125 231.566406 286.558594 232.34375 283.867188 232.269531 Z M 201.945312 164.40625 C 224.023438 189.75 273.144531 239.6875 289.878906 227.859375 C 291.664062 226.601562 292.410156 225.175781 292.238281 223.375 C 290.796875 208.515625 231.019531 177.878906 201.945312 164.40625 Z M 201.945312 164.40625 "/>
<path style=" stroke:none;fill-rule:nonzero;fill:rgb(42.352941%,38.823529%,100%);fill-opacity:1;" d="M 297.34375 196.820312 C 297.34375 196.820312 345.515625 216.902344 334.8125 230.292969 C 324.105469 243.683594 297.34375 196.820312 297.34375 196.820312 Z M 297.34375 196.820312 "/>
<path style=" stroke:none;fill-rule:nonzero;fill:rgb(42.352941%,38.823529%,100%);fill-opacity:1;" d="M 207.6875 180.753906 C 207.6875 180.753906 308.050781 290.542969 298.683594 297.238281 C 289.316406 303.933594 207.6875 180.753906 207.6875 180.753906 Z M 207.6875 180.753906 "/>
<path style=" stroke:none;fill-rule:nonzero;fill:rgb(42.352941%,38.823529%,100%);fill-opacity:1;" d="M 188.953125 172.71875 C 188.953125 172.71875 231.207031 243.136719 222.585938 249.980469 C 213.960938 256.828125 188.953125 172.71875 188.953125 172.71875 Z M 188.953125 172.71875 "/>
<path style=" stroke:none;fill-rule:nonzero;fill:rgb(24.705882%,23.921569%,33.72549%);fill-opacity:1;" d="M 236.78125 276.359375 C 236.253906 276.355469 235.730469 276.265625 235.230469 276.097656 C 219.742188 271.007812 188.519531 179.542969 185.011719 169.132812 L 181.890625 159.871094 L 187.382812 167.949219 C 187.546875 168.191406 203.972656 192.378906 218.546875 217.402344 C 245.488281 263.660156 243.257812 272.757812 239.230469 275.574219 C 238.515625 276.085938 237.660156 276.359375 236.78125 276.359375 Z M 190.949219 178.136719 C 202.339844 210.484375 225.265625 270.003906 236.066406 273.554688 C 236.605469 273.78125 237.21875 273.714844 237.699219 273.378906 C 239.910156 271.832031 242.246094 263.410156 216.238281 218.761719 C 207.011719 202.917969 197.039062 187.410156 190.949219 178.136719 Z M 190.949219 178.136719 "/>
<path style=" stroke:none;fill-rule:nonzero;fill:rgb(42.352941%,38.823529%,100%);fill-opacity:1;" d="M 171.078125 170.042969 C 171.078125 170.042969 133.046875 282.320312 156.382812 281.164062 C 179.722656 280.003906 171.078125 170.042969 171.078125 170.042969 Z M 171.078125 170.042969 "/>
<path style=" stroke:none;fill-rule:nonzero;fill:rgb(24.705882%,23.921569%,33.72549%);fill-opacity:1;" d="M 146.917969 299.925781 C 142.824219 299.925781 139.671875 298.324219 137.550781 295.160156 C 122.496094 272.710938 167.09375 173.695312 169 169.488281 L 171.035156 165.003906 L 171.550781 169.902344 C 171.972656 173.910156 181.628906 268.402344 159.75 293.644531 C 156.292969 297.632812 152.175781 299.742188 147.519531 299.914062 C 147.316406 299.921875 147.117188 299.925781 146.917969 299.925781 Z M 169.359375 175.3125 C 160.542969 195.597656 127.324219 275.101562 139.773438 293.667969 C 141.46875 296.199219 143.972656 297.375 147.421875 297.242188 C 151.363281 297.09375 154.734375 295.34375 157.730469 291.890625 C 176.019531 270.789062 171.078125 195.703125 169.359375 175.3125 Z M 169.359375 175.3125 "/>
<path style=" stroke:none;fill-rule:nonzero;fill:rgb(42.352941%,38.823529%,100%);fill-opacity:1;" d="M 157.941406 175.625 C 157.941406 175.625 94.105469 248.679688 99.949219 256.371094 C 105.789062 264.066406 157.941406 175.625 157.941406 175.625 Z M 157.941406 175.625 "/>
<path style=" stroke:none;fill-rule:nonzero;fill:rgb(24.705882%,23.921569%,33.72549%);fill-opacity:1;" d="M 80.742188 283.003906 C 79.898438 283.019531 79.074219 282.746094 78.402344 282.230469 C 77.484375 281.480469 76.929688 280.371094 76.886719 279.183594 C 75.28125 261.035156 160.253906 166.46875 163.871094 162.453125 L 172.425781 152.953125 L 166.023438 164.019531 C 163.296875 168.734375 99.011719 279.53125 81.699219 282.90625 C 81.382812 282.96875 81.066406 283.003906 80.742188 283.003906 Z M 156.835938 174.394531 C 128.679688 206.386719 78.4375 266.351562 79.550781 278.949219 C 79.53125 279.394531 79.714844 279.824219 80.046875 280.117188 C 80.382812 280.34375 80.800781 280.40625 81.1875 280.277344 C 93.152344 277.945312 134.941406 211.253906 156.835938 174.394531 Z M 156.835938 174.394531 "/>
<path style=" stroke:none;fill-rule:nonzero;fill:rgb(42.352941%,38.823529%,100%);fill-opacity:1;" d="M 138.78125 126.429688 C 138.78125 126.429688 83.128906 60.652344 31.664062 67.027344 C -19.800781 73.402344 138.78125 126.429688 138.78125 126.429688 Z M 138.78125 126.429688 "/>
<path style=" stroke:none;fill-rule:nonzero;fill:rgb(24.705882%,23.921569%,33.72549%);fill-opacity:1;" d="M 146.199219 129.503906 L 141.820312 128.503906 C 141.46875 128.421875 106.292969 120.351562 71.519531 110.050781 C 0.304688 88.964844 0.0742188 79.269531 0 76.085938 C -0.0898438 72.242188 3.820312 69.265625 11.957031 66.996094 C 42.15625 58.5625 76.253906 75.175781 99.535156 90.601562 C 115.167969 101.054688 129.75 113 143.082031 126.265625 Z M 29.242188 67.382812 C 23.644531 67.355469 18.074219 68.09375 12.675781 69.574219 C 6.171875 71.390625 2.621094 73.679688 2.675781 76.019531 C 2.980469 88.875 81.957031 111.800781 137.804688 124.828125 C 124.601562 112.15625 74.722656 67.382812 29.242188 67.382812 Z M 29.242188 67.382812 "/>
<path style=" stroke:none;fill-rule:nonzero;fill:rgb(42.352941%,38.823529%,100%);fill-opacity:1;" d="M 95.285156 121.839844 C 95.285156 121.839844 21.683594 116.484375 27.039062 129.875 C 32.390625 143.265625 95.285156 121.839844 95.285156 121.839844 Z M 95.285156 121.839844 "/>
<path style=" stroke:none;fill-rule:nonzero;fill:rgb(42.352941%,38.823529%,100%);fill-opacity:1;" d="M 114.015625 72.300781 C 114.015625 72.300781 110.003906 53.554688 103.3125 57.574219 C 96.621094 61.589844 114.015625 72.300781 114.015625 72.300781 Z M 114.015625 72.300781 "/>
<path style=" stroke:none;fill-rule:nonzero;fill:rgb(42.352941%,38.823529%,100%);fill-opacity:1;" d="M 181.816406 85.566406 C 181.816406 85.566406 200.179688 8.359375 191.855469 8.078125 C 183.535156 7.792969 181.816406 85.566406 181.816406 85.566406 Z M 181.816406 85.566406 "/>
<path style=" stroke:none;fill-rule:nonzero;fill:rgb(24.705882%,23.921569%,33.72549%);fill-opacity:1;" d="M 178.398438 102.65625 L 178.25 92.40625 C 178.199219 89.113281 177.179688 11.632812 187.246094 1.40625 C 188.023438 0.539062 189.125 0.0273438 190.292969 0 C 191.425781 0.00390625 192.492188 0.550781 193.160156 1.46875 C 200.90625 11.398438 182.957031 84.417969 180.882812 92.710938 Z M 190.292969 2.679688 C 190.160156 2.679688 189.753906 2.679688 189.152344 3.289062 C 182.503906 10.039062 180.960938 54.957031 180.871094 81.375 C 188.242188 49.898438 195.753906 9.144531 191.050781 3.117188 C 190.890625 2.851562 190.601562 2.683594 190.292969 2.679688 Z M 190.292969 2.679688 "/>
<path style=" stroke:none;fill-rule:nonzero;fill:rgb(42.352941%,38.823529%,100%);fill-opacity:1;" d="M 266.566406 96.402344 C 266.566406 96.402344 274.59375 76.316406 282.625 81.675781 C 290.652344 87.03125 266.566406 96.402344 266.566406 96.402344 Z M 266.566406 96.402344 "/>
<path style=" stroke:none;fill-rule:nonzero;fill:rgb(42.352941%,38.823529%,100%);fill-opacity:1;" d="M 190.292969 274.476562 C 190.292969 274.476562 179.585938 353.472656 199.660156 352.132812 C 219.730469 350.796875 190.292969 274.476562 190.292969 274.476562 Z M 190.292969 274.476562 "/>
<path style=" stroke:none;fill-rule:nonzero;fill:rgb(100%,72.54902%,72.54902%);fill-opacity:1;" d="M 246.289062 256.511719 C 246.289062 256.511719 236.03125 239.410156 236.03125 227.433594 C 236.03125 227.433594 218.082031 208.621094 223.210938 203.488281 C 228.339844 198.359375 239.453125 218.027344 239.453125 218.027344 C 239.453125 218.027344 218.9375 194.9375 224.921875 191.515625 C 230.90625 188.09375 250.5625 213.75 250.5625 213.75 L 257.402344 210.332031 C 257.402344 210.332031 242.878906 174.488281 253.128906 173.554688 C 257.828125 173.128906 268.511719 207.765625 268.511719 207.765625 L 279.625 235.988281 C 279.625 235.988281 283.898438 246.25 282.1875 252.238281 C 281.148438 255.898438 280.289062 259.609375 279.625 263.355469 Z M 246.289062 256.511719 "/>
<use xlink:href="#surface5" mask="url(#mask0)"/>
<path style=" stroke:none;fill-rule:nonzero;fill:rgb(100%,72.54902%,72.54902%);fill-opacity:1;" d="M 276.207031 260.789062 C 276.207031 260.789062 282.1875 251.382812 280.023438 237.015625 C 277.859375 222.652344 265.949219 214.605469 265.949219 214.605469 C 265.949219 214.605469 258.253906 220.59375 265.949219 235.988281 C 265.949219 235.988281 256.546875 244.539062 264.238281 258.222656 "/>
<use xlink:href="#surface8" mask="url(#mask1)"/>
<path style=" stroke:none;fill-rule:nonzero;fill:rgb(100%,72.54902%,72.54902%);fill-opacity:1;" d="M 256.546875 212.898438 L 249.707031 203.488281 C 249.707031 203.488281 227.484375 200.066406 230.050781 207.765625 C 232.613281 215.460938 242.871094 212.042969 242.871094 212.042969 L 248.855469 218.027344 Z M 256.546875 212.898438 "/>
<path style=" stroke:none;fill-rule:nonzero;fill:rgb(100%,72.54902%,72.54902%);fill-opacity:1;" d="M 415.097656 325.359375 L 410.824219 359.566406 L 477.496094 363.84375 L 477.496094 322.792969 Z M 415.097656 325.359375 "/>
<path style=" stroke:none;fill-rule:nonzero;fill:rgb(81.176471%,80%,87.843137%);fill-opacity:1;" d="M 599.71875 516.925781 L 545.652344 408.730469 C 542.425781 398.03125 532.335938 380.601562 501 369.402344 L 477.496094 349.507812 L 459.972656 348.875 L 389.882812 338.613281 C 389.882812 338.613281 336.035156 335.191406 300.992188 356.574219 L 291.589844 352.296875 C 291.589844 352.296875 276.207031 297.5625 283.042969 258.222656 L 243.726562 254.800781 C 243.726562 254.800781 222.355469 348.019531 232.613281 376.242188 C 242.871094 404.464844 280.480469 424.992188 280.480469 424.992188 L 313.8125 458.34375 L 326.632812 516.5 L 526.640625 516.5 L 529.824219 501.242188 L 545.445312 516.5 Z M 599.71875 516.925781 "/>
<path style=" stroke:none;fill-rule:nonzero;fill:rgb(81.176471%,80%,87.843137%);fill-opacity:1;" d="M 524.125 322.796875 C 461.15625 339.8125 399.261719 341.011719 338.679688 323.058594 C 331.558594 320.949219 326.6875 314.691406 326.6875 307.589844 L 326.6875 130.511719 C 326.6875 122.589844 332.714844 115.832031 340.925781 114.542969 C 398.078125 105.574219 458.621094 106.269531 521.945312 114.875 C 530.3125 116.015625 536.523438 122.851562 536.523438 130.898438 L 536.523438 307.214844 C 536.523438 314.464844 531.453125 320.816406 524.125 322.796875 Z M 524.125 322.796875 "/>
<path style=" stroke:none;fill-rule:nonzero;fill:rgb(24.705882%,23.921569%,33.72549%);fill-opacity:1;" d="M 394.257812 201.621094 C 394.257812 201.621094 379.777344 180.441406 388.6875 174.867188 C 397.601562 169.292969 410.972656 184.902344 410.972656 184.902344 C 410.972656 184.902344 427.683594 170.410156 436.597656 175.984375 C 445.511719 181.554688 427.683594 201.621094 427.683594 201.621094 C 427.683594 201.621094 441.054688 204.964844 442.167969 213.882812 C 443.28125 222.804688 447.738281 246.214844 428.796875 247.328125 C 418.652344 247.925781 412.980469 245.003906 409.902344 242.160156 C 407.585938 240.082031 404.089844 240.042969 401.726562 242.0625 C 395.300781 247.476562 383.734375 253.71875 375.320312 238.410156 C 371.976562 215 394.257812 201.621094 394.257812 201.621094 Z M 394.257812 201.621094 "/>
<path style=" stroke:none;fill-rule:nonzero;fill:rgb(24.705882%,23.921569%,33.72549%);fill-opacity:1;" d="M 501.214844 203.851562 C 501.214844 203.851562 515.699219 182.671875 506.785156 177.097656 C 497.875 171.523438 484.503906 187.128906 484.503906 187.128906 C 484.503906 187.128906 467.792969 172.636719 458.878906 178.210938 C 449.964844 183.785156 467.792969 203.851562 467.792969 203.851562 C 467.792969 203.851562 454.421875 207.195312 453.308594 216.113281 C 452.195312 225.03125 447.738281 248.441406 466.679688 249.558594 C 476.824219 250.15625 482.496094 247.234375 485.574219 244.390625 C 487.890625 242.3125 491.386719 242.269531 493.75 244.292969 C 500.175781 249.707031 511.742188 255.949219 520.15625 240.640625 C 523.5 217.230469 501.214844 203.851562 501.214844 203.851562 Z M 501.214844 203.851562 "/>
<path style=" stroke:none;fill-rule:nonzero;fill:rgb(24.705882%,23.921569%,33.72549%);fill-opacity:1;" d="M 376.675781 261.738281 C 376.675781 261.738281 397.574219 278.574219 442.140625 277.515625 C 486.707031 276.453125 501.121094 274.632812 510.648438 264.121094 C 520.171875 253.613281 522.996094 265.75 520.039062 273.707031 C 517.082031 281.664062 513.28125 295.246094 491.078125 297.445312 C 476.464844 298.894531 444.871094 299.238281 424.992188 299.304688 C 409.539062 299.429688 394.261719 296.03125 380.320312 289.359375 C 380.132812 289.269531 379.949219 289.179688 379.769531 289.089844 C 371.140625 284.828125 365.679688 276.035156 365.675781 266.40625 C 365.679688 262.65625 366.335938 260.632812 368.777344 259.894531 C 373.175781 258.5625 376.675781 261.738281 376.675781 261.738281 Z M 376.675781 261.738281 "/>
<path style=" stroke:none;fill-rule:nonzero;fill:rgb(24.705882%,23.921569%,33.72549%);fill-opacity:1;" d="M 440.609375 338.875 C 406.546875 338.894531 372.675781 333.753906 340.152344 323.628906 C 331.890625 321.097656 326.257812 313.457031 326.273438 304.8125 L 326.273438 97.363281 C 326.246094 87.714844 333.234375 79.476562 342.753906 77.9375 C 404.132812 67.8125 472.097656 67.945312 544.761719 78.328125 C 554.425781 79.753906 561.597656 88.039062 561.632812 97.816406 L 561.632812 304.375 C 561.597656 313.179688 555.75 320.90625 547.289062 323.324219 C 511.707031 333.429688 476.527344 338.660156 442.734375 338.867188 C 442.027344 338.875 441.316406 338.875 440.609375 338.875 Z M 438.238281 71.894531 C 406.339844 71.789062 374.484375 74.289062 342.988281 79.371094 C 334.171875 80.796875 327.703125 88.425781 327.726562 97.363281 L 327.726562 304.8125 C 327.710938 312.820312 332.929688 319.894531 340.582031 322.238281 C 405.519531 342.464844 474.933594 342.359375 546.890625 321.925781 L 547.089844 322.625 L 546.890625 321.925781 C 554.730469 319.6875 560.148438 312.53125 560.179688 304.375 L 560.179688 97.816406 C 560.148438 88.761719 553.507812 81.089844 544.554688 79.765625 C 509.347656 74.632812 473.820312 72.003906 438.238281 71.894531 Z M 438.238281 71.894531 "/>
<path style=" stroke:none;fill-rule:nonzero;fill:rgb(24.705882%,23.921569%,33.72549%);fill-opacity:1;" d="M 433.777344 102.652344 C 417.773438 102.652344 404.074219 101.933594 392.859375 100.960938 C 357.589844 97.902344 338.585938 91.722656 338.394531 91.660156 L 338.851562 90.28125 C 339.039062 90.34375 357.929688 96.476562 393.054688 99.519531 C 425.472656 102.328125 478.746094 103 548.429688 90.253906 L 548.6875 91.6875 C 502.910156 100.058594 464.183594 102.652344 433.777344 102.652344 Z M 433.777344 102.652344 "/>
</g>
</svg>
