<?xml version="1.0" encoding="UTF-8"?>
<svg xmlns="http://www.w3.org/2000/svg" xmlns:xlink="http://www.w3.org/1999/xlink" width="192px" height="120px" viewBox="0 0 192 120" version="1.1">
<defs>
<filter id="alpha" filterUnits="objectBoundingBox" x="0%" y="0%" width="100%" height="100%">
  <feColorMatrix type="matrix" in="SourceGraphic" values="0 0 0 0 1 0 0 0 0 1 0 0 0 0 1 0 0 0 1 0"/>
</filter>
<mask id="mask0">
  <g filter="url(#alpha)">
<rect x="0" y="0" width="192" height="120" style="fill:rgb(0%,0%,0%);fill-opacity:0.101961;stroke:none;"/>
  </g>
</mask>
<clipPath id="clip1">
  <rect x="0" y="0" width="192" height="120"/>
</clipPath>
<g id="surface5" clip-path="url(#clip1)">
<path style=" stroke:none;fill-rule:nonzero;fill:rgb(0%,0%,0%);fill-opacity:1;" d="M 59.320312 89.503906 L 54.507812 94.121094 L 47.320312 103.558594 L 46.78125 102.242188 L 45.261719 91.167969 L 45.640625 91.167969 L 49.566406 80.644531 Z M 59.320312 89.503906 "/>
</g>
</defs>
<g id="surface1">
<path style=" stroke:none;fill-rule:nonzero;fill:rgb(100%,72.54902%,72.54902%);fill-opacity:1;" d="M 42.164062 66.894531 C 42.167969 65.894531 41.789062 64.96875 41.175781 64.503906 C 40.566406 64.039062 39.828125 64.109375 39.265625 64.6875 C 38.703125 65.265625 38.410156 66.253906 38.507812 67.25 L 33.226562 77.324219 C 32.765625 78.664062 32.902344 80.277344 33.574219 81.417969 L 33.988281 82.121094 L 35.886719 81.566406 L 38.039062 78.800781 L 37.789062 75.660156 L 40.445312 69.570312 L 40.445312 69.566406 C 41.410156 69.476562 42.164062 68.308594 42.164062 66.894531 Z M 42.164062 66.894531 "/>
<path style=" stroke:none;fill-rule:nonzero;fill:rgb(100%,72.156863%,72.156863%);fill-opacity:1;" d="M 5.660156 116.148438 L 4.796875 111.484375 L 16.730469 104.421875 L 18.003906 111.304688 Z M 5.660156 116.148438 "/>
<path style=" stroke:none;fill-rule:nonzero;fill:rgb(18.431373%,18.039216%,25.490196%);fill-opacity:1;" d="M 2.777344 118.554688 L 0 103.515625 L 0.128906 103.464844 C 2.347656 102.59375 4.628906 104.507812 5.226562 107.742188 L 6.925781 116.925781 Z M 2.777344 118.554688 "/>
<path style=" stroke:none;fill-rule:nonzero;fill:rgb(100%,72.156863%,72.156863%);fill-opacity:1;" d="M 22.097656 115.402344 L 19.417969 112.5625 L 25.660156 96.144531 L 29.617188 100.335938 Z M 22.097656 115.402344 "/>
<path style=" stroke:none;fill-rule:nonzero;fill:rgb(18.431373%,18.039216%,25.490196%);fill-opacity:1;" d="M 20.890625 119.914062 L 12.25 110.753906 L 12.328125 110.59375 C 13.679688 107.886719 16.28125 107.289062 18.140625 109.257812 L 23.417969 114.851562 Z M 20.890625 119.914062 "/>
<path style=" stroke:none;fill-rule:nonzero;fill:rgb(18.431373%,18.039216%,25.490196%);fill-opacity:1;" d="M 44.878906 92.457031 L 38.136719 82.910156 C 36.917969 81.1875 35.015625 81.03125 33.675781 82.546875 L 20.941406 103.164062 L 22.082031 105.75 L 34.242188 93.75 L 42.472656 109.441406 L 50.328125 103.71875 Z M 44.878906 92.457031 "/>
<path style=" stroke:none;fill-rule:nonzero;fill:rgb(100%,72.54902%,72.54902%);fill-opacity:1;" d="M 41.96875 94.488281 L 37.027344 93.9375 L 33.449219 92.671875 C 33.035156 91.730469 32.265625 91.261719 31.515625 91.5 C 30.765625 91.734375 30.195312 92.625 30.085938 93.730469 C 29.972656 94.835938 30.34375 95.925781 31.015625 96.464844 C 31.6875 97.003906 32.519531 96.875 33.101562 96.148438 L 33.101562 96.152344 L 35.253906 97.441406 L 44.5 102.058594 L 45.640625 100.765625 Z M 41.96875 94.488281 "/>
<path style=" stroke:none;fill-rule:nonzero;fill:rgb(18.431373%,18.039216%,25.490196%);fill-opacity:1;" d="M 53.875 114.425781 L 51.085938 117.007812 L 47.792969 117.007812 L 32.46875 108.703125 L 10.046875 114.609375 L 9.414062 107.59375 L 29.933594 94.488281 L 47.921875 103.164062 Z M 53.875 114.425781 "/>
<path style=" stroke:none;fill-rule:nonzero;fill:rgb(100%,72.54902%,72.54902%);fill-opacity:1;" d="M 52.859375 62.371094 C 52.859375 66.347656 50.648438 69.570312 47.921875 69.570312 C 45.191406 69.570312 42.980469 66.347656 42.980469 62.371094 C 42.980469 58.394531 45.191406 55.171875 47.921875 55.171875 C 50.648438 55.171875 52.859375 58.394531 52.859375 62.371094 Z M 52.859375 62.371094 "/>
<path style=" stroke:none;fill-rule:nonzero;fill:rgb(80%,80%,80%);fill-opacity:1;" d="M 60.703125 91.113281 C 60.703125 95.457031 60.230469 99.777344 59.308594 103.90625 L 58.941406 105.566406 L 57.167969 117.378906 L 55.265625 118.117188 L 53.875 115.53125 L 51.085938 112.578125 L 49.058594 107.78125 L 47.320312 103.558594 L 46.78125 102.242188 L 44.878906 88.398438 L 37.660156 82.492188 L 35.253906 81.9375 L 35.761719 79.90625 L 37.914062 75.660156 L 40.066406 75.292969 L 40.699219 74.554688 L 41.207031 74.921875 L 44 76.492188 L 53.054688 70.914062 L 54.378906 71.230469 L 58.9375 76.769531 C 60.105469 81.359375 60.703125 86.21875 60.703125 91.113281 Z M 60.703125 91.113281 "/>
<use xlink:href="#surface5" mask="url(#mask0)"/>
<path style=" stroke:none;fill-rule:nonzero;fill:rgb(80%,80%,80%);fill-opacity:1;" d="M 49.566406 79.539062 L 45.640625 90.058594 L 43.359375 93.75 L 41.332031 94.488281 L 46.78125 103.164062 L 54.507812 93.011719 L 59.320312 88.398438 Z M 49.566406 79.539062 "/>
<path style=" stroke:none;fill-rule:nonzero;fill:rgb(18.431373%,18.039216%,25.490196%);fill-opacity:1;" d="M 44.078125 57.019531 L 43.542969 57.316406 C 43.199219 56.980469 43.113281 56.304688 43.34375 55.804688 C 43.347656 55.800781 43.347656 55.792969 43.351562 55.789062 L 42.363281 55.71875 C 43.648438 53.226562 45.601562 51.65625 47.734375 51.40625 C 49.867188 51.15625 51.96875 52.25 53.511719 54.410156 C 53.558594 54.183594 54.046875 54.625 54.25 55.070312 C 54.316406 54.703125 54.777344 56.480469 54.9375 57.738281 C 55.015625 57.316406 55.304688 57.992188 55.050781 58.640625 C 55.210938 58.609375 55.285156 59.207031 55.160156 59.542969 C 55.335938 59.421875 55.304688 60.136719 55.113281 60.617188 C 55.367188 60.582031 55.09375 68.121094 51.324219 67.570312 C 51.0625 65.816406 51.136719 65.921875 50.828125 63.664062 C 50.683594 63.441406 50.527344 63.238281 50.367188 63.039062 L 49.519531 61.945312 C 48.53125 60.671875 47.628906 59.101562 46.3125 58.625 C 45.410156 58.300781 44.835938 58.226562 45.328125 56.738281 C 44.882812 57.011719 44.46875 57.414062 44.019531 57.664062 C 44.023438 57.457031 44.085938 57.226562 44.078125 57.019531 Z M 44.078125 57.019531 "/>
<path style=" stroke:none;fill-rule:nonzero;fill:rgb(100%,72.54902%,72.54902%);fill-opacity:1;" d="M 51.277344 63.199219 C 51.277344 63.914062 50.878906 64.492188 50.390625 64.492188 C 49.898438 64.492188 49.503906 63.914062 49.503906 63.199219 C 49.503906 62.488281 49.898438 61.910156 50.390625 61.910156 C 50.878906 61.910156 51.277344 62.488281 51.277344 63.199219 Z M 51.277344 63.199219 "/>
<path style=" stroke:none;fill-rule:nonzero;fill:rgb(90.196078%,90.196078%,90.196078%);fill-opacity:1;" d="M 8.773438 38.605469 L 9.042969 32.683594 L 13.105469 33.078125 L 12.835938 39 Z M 8.773438 38.605469 "/>
<path style=" stroke:none;fill-rule:nonzero;fill:rgb(80%,80%,80%);fill-opacity:1;" d="M 6.421875 35.828125 L 11.355469 36.304688 L 11.027344 43.496094 L 6.09375 43.015625 Z M 11.128906 36.597656 L 6.621094 36.160156 L 6.324219 42.726562 L 10.828125 43.164062 Z M 11.128906 36.597656 "/>
<path style=" stroke:none;fill-rule:nonzero;fill:rgb(90.196078%,90.196078%,90.196078%);fill-opacity:1;" d="M 28.023438 16.371094 L 32.003906 15.125 L 32.859375 20.925781 L 28.878906 22.175781 Z M 28.023438 16.371094 "/>
<path style=" stroke:none;fill-rule:nonzero;fill:rgb(80%,80%,80%);fill-opacity:1;" d="M 29.207031 12.316406 L 30.246094 19.359375 L 25.414062 20.875 L 24.375 13.828125 Z M 29.992188 19.121094 L 29.042969 12.6875 L 24.628906 14.070312 L 25.578125 20.503906 Z M 29.992188 19.121094 "/>
<path style=" stroke:none;fill-rule:nonzero;fill:rgb(90.196078%,90.196078%,90.196078%);fill-opacity:1;" d="M 24.847656 47.042969 L 27.820312 42.988281 L 30.605469 47.320312 L 27.632812 51.375 Z M 24.847656 47.042969 "/>
<path style=" stroke:none;fill-rule:nonzero;fill:rgb(80%,80%,80%);fill-opacity:1;" d="M 30.816406 42.382812 L 27.207031 47.308594 L 23.828125 42.046875 L 27.4375 37.121094 Z M 27.21875 46.863281 L 30.511719 42.367188 L 27.425781 37.566406 L 24.132812 42.0625 Z M 27.21875 46.863281 "/>
<path style=" stroke:none;fill-rule:nonzero;fill:rgb(24.705882%,23.921569%,33.72549%);fill-opacity:1;" d="M 181.5 0 L 61.027344 0 C 59.195312 0 57.710938 2.164062 57.710938 4.832031 L 57.710938 102.660156 C 57.710938 105.328125 59.195312 107.492188 61.027344 107.492188 L 181.5 107.492188 C 183.332031 107.492188 184.816406 105.328125 184.816406 102.660156 L 184.816406 4.832031 C 184.816406 2.164062 183.332031 0 181.5 0 Z M 181.5 0 "/>
<path style=" stroke:none;fill-rule:nonzero;fill:rgb(100%,100%,100%);fill-opacity:1;" d="M 62.15625 8.539062 L 180.371094 8.539062 L 180.371094 105.726562 L 62.15625 105.726562 Z M 62.15625 8.539062 "/>
<path style=" stroke:none;fill-rule:nonzero;fill:rgb(100%,100%,100%);fill-opacity:1;" d="M 122.375 4.121094 C 122.375 5.097656 121.832031 5.890625 121.164062 5.890625 C 120.492188 5.890625 119.949219 5.097656 119.949219 4.121094 C 119.949219 3.148438 120.492188 2.355469 121.164062 2.355469 C 121.832031 2.355469 122.375 3.148438 122.375 4.121094 Z M 122.375 4.121094 "/>
<path style=" stroke:none;fill-rule:nonzero;fill:rgb(94.901961%,94.901961%,94.901961%);fill-opacity:1;" d="M 146.5625 105.726562 L 62.15625 105.726562 L 62.15625 8.539062 Z M 146.5625 105.726562 "/>
<path style=" stroke:none;fill-rule:nonzero;fill:rgb(42.352941%,38.823529%,100%);fill-opacity:1;" d="M 92.019531 81.890625 C 92.019531 91.039062 86.929688 98.453125 80.65625 98.453125 C 74.378906 98.453125 69.292969 91.039062 69.292969 81.890625 C 69.292969 72.746094 74.378906 65.332031 80.65625 65.332031 C 86.929688 65.332031 92.019531 72.746094 92.019531 81.890625 Z M 92.019531 81.890625 "/>
<path style=" stroke:none;fill-rule:nonzero;fill:rgb(24.705882%,23.921569%,33.72549%);fill-opacity:1;" d="M 83.183594 94.339844 C 75.378906 94.339844 69.050781 85.117188 69.050781 73.738281 C 69.050781 62.363281 75.378906 53.140625 83.183594 53.140625 C 90.992188 53.140625 97.320312 62.363281 97.320312 73.738281 C 97.320312 85.117188 90.992188 94.339844 83.183594 94.339844 Z M 83.183594 53.410156 C 75.480469 53.410156 69.234375 62.511719 69.234375 73.738281 C 69.234375 84.96875 75.480469 94.070312 83.183594 94.070312 C 90.886719 94.070312 97.132812 84.96875 97.132812 73.738281 C 97.132812 62.511719 90.886719 53.410156 83.183594 53.410156 Z M 83.183594 53.410156 "/>
<path style=" stroke:none;fill-rule:nonzero;fill:rgb(24.705882%,23.921569%,33.72549%);fill-opacity:1;" d="M 141.960938 59.03125 L 153.003906 59.03125 L 153.003906 62.394531 L 141.960938 62.394531 Z M 141.960938 59.03125 "/>
<path style=" stroke:none;fill-rule:nonzero;fill:rgb(24.705882%,23.921569%,33.72549%);fill-opacity:1;" d="M 131.515625 40.8125 L 163.453125 40.8125 L 163.453125 42.253906 L 131.515625 42.253906 Z M 131.515625 40.8125 "/>
<path style=" stroke:none;fill-rule:nonzero;fill:rgb(24.705882%,23.921569%,33.72549%);fill-opacity:1;" d="M 131.515625 46.476562 L 163.453125 46.476562 L 163.453125 47.917969 L 131.515625 47.917969 Z M 131.515625 46.476562 "/>
<path style=" stroke:none;fill-rule:nonzero;fill:rgb(24.705882%,23.921569%,33.72549%);fill-opacity:1;" d="M 131.515625 52.136719 L 163.453125 52.136719 L 163.453125 53.578125 L 131.515625 53.578125 Z M 131.515625 52.136719 "/>
<path style=" stroke:none;fill-rule:nonzero;fill:rgb(42.352941%,38.823529%,100%);fill-opacity:1;" d="M 167.394531 14.355469 L 172.007812 14.355469 L 172.007812 21.082031 L 167.394531 21.082031 Z M 167.394531 14.355469 "/>
<path style=" stroke:none;fill-rule:nonzero;fill:rgb(80%,80%,80%);fill-opacity:1;" d="M 174.148438 24.203125 L 168.546875 24.203125 L 168.546875 16.039062 L 174.148438 16.039062 Z M 168.789062 23.847656 L 173.90625 23.847656 L 173.90625 16.394531 L 168.789062 16.394531 Z M 168.789062 23.847656 "/>
<path style=" stroke:none;fill-rule:nonzero;fill:rgb(24.705882%,23.921569%,33.72549%);fill-opacity:1;" d="M 188.136719 103.957031 L 176.597656 103.957031 L 176.597656 102.746094 C 176.597656 102.613281 176.523438 102.507812 176.433594 102.507812 L 172.480469 102.507812 C 172.386719 102.507812 172.3125 102.613281 172.3125 102.746094 L 172.3125 103.957031 L 169.839844 103.957031 L 169.839844 102.746094 C 169.839844 102.613281 169.769531 102.507812 169.675781 102.507812 L 165.722656 102.507812 C 165.628906 102.507812 165.554688 102.613281 165.554688 102.746094 L 165.554688 103.957031 L 163.085938 103.957031 L 163.085938 102.746094 C 163.085938 102.613281 163.011719 102.507812 162.917969 102.507812 L 158.964844 102.507812 C 158.871094 102.507812 158.800781 102.613281 158.800781 102.746094 L 158.800781 103.957031 L 156.328125 103.957031 L 156.328125 102.746094 C 156.328125 102.613281 156.253906 102.507812 156.164062 102.507812 L 152.207031 102.507812 C 152.117188 102.507812 152.042969 102.613281 152.042969 102.746094 L 152.042969 103.957031 L 149.570312 103.957031 L 149.570312 102.746094 C 149.570312 102.613281 149.496094 102.507812 149.40625 102.507812 L 145.449219 102.507812 C 145.359375 102.507812 145.285156 102.613281 145.285156 102.746094 L 145.285156 103.957031 L 142.8125 103.957031 L 142.8125 102.746094 C 142.8125 102.613281 142.738281 102.507812 142.648438 102.507812 L 138.691406 102.507812 C 138.601562 102.507812 138.527344 102.613281 138.527344 102.746094 L 138.527344 103.957031 L 136.054688 103.957031 L 136.054688 102.746094 C 136.054688 102.613281 135.980469 102.507812 135.890625 102.507812 L 104.90625 102.507812 C 104.816406 102.507812 104.742188 102.613281 104.742188 102.746094 L 104.742188 103.957031 L 102.269531 103.957031 L 102.269531 102.746094 C 102.269531 102.613281 102.195312 102.507812 102.105469 102.507812 L 98.148438 102.507812 C 98.058594 102.507812 97.984375 102.613281 97.984375 102.746094 L 97.984375 103.957031 L 95.511719 103.957031 L 95.511719 102.746094 C 95.511719 102.613281 95.4375 102.507812 95.347656 102.507812 L 91.390625 102.507812 C 91.300781 102.507812 91.226562 102.613281 91.226562 102.746094 L 91.226562 103.957031 L 88.753906 103.957031 L 88.753906 102.746094 C 88.753906 102.613281 88.679688 102.507812 88.589844 102.507812 L 84.632812 102.507812 C 84.542969 102.507812 84.46875 102.613281 84.46875 102.746094 L 84.46875 103.957031 L 81.996094 103.957031 L 81.996094 102.746094 C 81.996094 102.613281 81.921875 102.507812 81.832031 102.507812 L 77.875 102.507812 C 77.785156 102.507812 77.710938 102.613281 77.710938 102.746094 L 77.710938 103.957031 L 75.238281 103.957031 L 75.238281 102.746094 C 75.238281 102.613281 75.164062 102.507812 75.074219 102.507812 L 71.121094 102.507812 C 71.027344 102.507812 70.953125 102.613281 70.953125 102.746094 L 70.953125 103.957031 L 68.480469 103.957031 L 68.480469 102.746094 C 68.480469 102.613281 68.410156 102.507812 68.316406 102.507812 L 64.363281 102.507812 C 64.269531 102.507812 64.195312 102.613281 64.195312 102.746094 L 64.195312 103.957031 L 56.617188 103.957031 C 54.429688 103.957031 52.660156 106.539062 52.660156 109.722656 L 52.660156 112.328125 C 52.660156 115.511719 54.429688 118.09375 56.617188 118.09375 L 188.136719 118.09375 C 190.320312 118.09375 192.089844 115.511719 192.089844 112.328125 L 192.089844 109.722656 C 192.089844 106.539062 190.320312 103.957031 188.136719 103.957031 Z M 188.136719 103.957031 "/>
</g>
</svg>
