<?xml version="1.0" encoding="UTF-8"?>
<svg xmlns="http://www.w3.org/2000/svg" xmlns:xlink="http://www.w3.org/1999/xlink" width="280px" height="120px" viewBox="0 0 279 120" version="1.1">
<defs>
<filter id="alpha" filterUnits="objectBoundingBox" x="0%" y="0%" width="100%" height="100%">
  <feColorMatrix type="matrix" in="SourceGraphic" values="0 0 0 0 1 0 0 0 0 1 0 0 0 0 1 0 0 0 1 0"/>
</filter>
<mask id="mask0">
  <g filter="url(#alpha)">
<rect x="0" y="0" width="279" height="120" style="fill:rgb(0%,0%,0%);fill-opacity:0.101961;stroke:none;"/>
  </g>
</mask>
<clipPath id="clip1">
  <rect x="0" y="0" width="279" height="120"/>
</clipPath>
<g id="surface5" clip-path="url(#clip1)">
<path style=" stroke:none;fill-rule:nonzero;fill:rgb(0%,0%,0%);fill-opacity:1;" d="M 86.199219 89.503906 L 79.203125 94.121094 L 68.765625 103.558594 L 67.976562 102.242188 L 65.769531 91.167969 L 66.320312 91.167969 L 72.027344 80.644531 Z M 86.199219 89.503906 "/>
</g>
</defs>
<g id="surface1">
<path style=" stroke:none;fill-rule:nonzero;fill:rgb(100%,72.54902%,72.54902%);fill-opacity:1;" d="M 61.269531 66.894531 C 61.273438 65.894531 60.722656 64.96875 59.835938 64.503906 C 58.949219 64.039062 57.878906 64.109375 57.058594 64.6875 C 56.242188 65.265625 55.816406 66.253906 55.953125 67.25 L 48.285156 77.324219 C 47.613281 78.664062 47.8125 80.277344 48.785156 81.417969 L 49.386719 82.121094 L 52.148438 81.566406 L 55.277344 78.800781 L 54.910156 75.660156 L 58.773438 69.570312 L 58.769531 69.566406 C 60.175781 69.476562 61.265625 68.308594 61.269531 66.894531 Z M 61.269531 66.894531 "/>
<path style=" stroke:none;fill-rule:nonzero;fill:rgb(100%,72.156863%,72.156863%);fill-opacity:1;" d="M 8.226562 116.148438 L 6.972656 111.484375 L 24.3125 104.421875 L 26.160156 111.304688 Z M 8.226562 116.148438 "/>
<path style=" stroke:none;fill-rule:nonzero;fill:rgb(18.431373%,18.039216%,25.490196%);fill-opacity:1;" d="M 4.035156 118.554688 L 0 103.515625 L 0.191406 103.464844 C 3.414062 102.59375 6.730469 104.507812 7.597656 107.742188 L 10.0625 116.925781 Z M 4.035156 118.554688 "/>
<path style=" stroke:none;fill-rule:nonzero;fill:rgb(100%,72.156863%,72.156863%);fill-opacity:1;" d="M 32.109375 115.402344 L 28.214844 112.5625 L 37.289062 96.144531 L 43.035156 100.335938 Z M 32.109375 115.402344 "/>
<path style=" stroke:none;fill-rule:nonzero;fill:rgb(18.431373%,18.039216%,25.490196%);fill-opacity:1;" d="M 30.359375 119.914062 L 17.800781 110.753906 L 17.914062 110.59375 C 19.878906 107.886719 23.660156 107.289062 26.359375 109.257812 L 34.027344 114.851562 Z M 30.359375 119.914062 "/>
<path style=" stroke:none;fill-rule:nonzero;fill:rgb(18.431373%,18.039216%,25.490196%);fill-opacity:1;" d="M 65.214844 92.457031 L 55.414062 82.910156 C 53.648438 81.1875 50.882812 81.03125 48.9375 82.546875 L 30.429688 103.164062 L 32.085938 105.75 L 49.757812 93.75 L 61.71875 109.441406 L 73.128906 103.71875 Z M 65.214844 92.457031 "/>
<path style=" stroke:none;fill-rule:nonzero;fill:rgb(100%,72.54902%,72.54902%);fill-opacity:1;" d="M 60.984375 94.488281 L 53.804688 93.9375 L 48.605469 92.671875 C 48.003906 91.730469 46.886719 91.261719 45.796875 91.5 C 44.707031 91.734375 43.878906 92.625 43.714844 93.730469 C 43.554688 94.835938 44.097656 95.925781 45.074219 96.464844 C 46.046875 97.003906 47.253906 96.875 48.101562 96.148438 L 48.101562 96.152344 L 51.230469 97.441406 L 64.664062 102.058594 L 66.320312 100.765625 Z M 60.984375 94.488281 "/>
<path style=" stroke:none;fill-rule:nonzero;fill:rgb(18.431373%,18.039216%,25.490196%);fill-opacity:1;" d="M 78.285156 114.425781 L 74.234375 117.007812 L 69.449219 117.007812 L 47.179688 108.703125 L 14.601562 114.609375 L 13.683594 107.59375 L 43.5 94.488281 L 69.632812 103.164062 Z M 78.285156 114.425781 "/>
<path style=" stroke:none;fill-rule:nonzero;fill:rgb(100%,72.54902%,72.54902%);fill-opacity:1;" d="M 76.8125 62.371094 C 76.8125 66.347656 73.597656 69.570312 69.632812 69.570312 C 65.667969 69.570312 62.457031 66.347656 62.457031 62.371094 C 62.457031 58.394531 65.667969 55.171875 69.632812 55.171875 C 73.597656 55.171875 76.8125 58.394531 76.8125 62.371094 Z M 76.8125 62.371094 "/>
<path style=" stroke:none;fill-rule:nonzero;fill:rgb(80%,80%,80%);fill-opacity:1;" d="M 88.207031 91.113281 C 88.207031 95.457031 87.523438 99.777344 86.183594 103.90625 L 85.644531 105.566406 L 83.070312 117.378906 L 80.308594 118.117188 L 78.285156 115.53125 L 74.234375 112.578125 L 71.289062 107.78125 L 68.765625 103.558594 L 67.976562 102.242188 L 65.214844 88.398438 L 54.726562 82.492188 L 51.230469 81.9375 L 51.964844 79.90625 L 55.09375 75.660156 L 58.222656 75.292969 L 59.144531 74.554688 L 59.878906 74.921875 L 63.9375 76.492188 L 77.09375 70.914062 L 79.019531 71.230469 L 85.644531 76.769531 C 87.339844 81.359375 88.207031 86.21875 88.207031 91.113281 Z M 88.207031 91.113281 "/>
<use xlink:href="#surface5" mask="url(#mask0)"/>
<path style=" stroke:none;fill-rule:nonzero;fill:rgb(80%,80%,80%);fill-opacity:1;" d="M 72.027344 79.539062 L 66.320312 90.058594 L 63.007812 93.75 L 60.0625 94.488281 L 67.976562 103.164062 L 79.203125 93.011719 L 86.199219 88.398438 Z M 72.027344 79.539062 "/>
<path style=" stroke:none;fill-rule:nonzero;fill:rgb(18.431373%,18.039216%,25.490196%);fill-opacity:1;" d="M 64.050781 57.019531 L 63.273438 57.316406 C 62.777344 56.980469 62.648438 56.304688 62.984375 55.804688 C 62.988281 55.800781 62.992188 55.792969 62.996094 55.789062 L 61.558594 55.71875 C 63.425781 53.226562 66.265625 51.65625 69.363281 51.40625 C 72.464844 51.15625 75.519531 52.25 77.761719 54.410156 C 77.824219 54.183594 78.539062 54.625 78.828125 55.070312 C 78.925781 54.703125 79.597656 56.480469 79.832031 57.738281 C 79.941406 57.316406 80.363281 57.992188 79.996094 58.640625 C 80.226562 58.609375 80.335938 59.207031 80.152344 59.542969 C 80.410156 59.421875 80.367188 60.136719 80.089844 60.617188 C 80.453125 60.582031 80.058594 68.121094 74.582031 67.570312 C 74.199219 65.816406 74.308594 65.921875 73.859375 63.664062 C 73.648438 63.441406 73.421875 63.238281 73.191406 63.039062 L 71.957031 61.945312 C 70.519531 60.671875 69.214844 59.101562 67.300781 58.625 C 65.984375 58.300781 65.152344 58.226562 65.871094 56.738281 C 65.222656 57.011719 64.617188 57.414062 63.964844 57.664062 C 63.972656 57.457031 64.0625 57.226562 64.050781 57.019531 Z M 64.050781 57.019531 "/>
<path style=" stroke:none;fill-rule:nonzero;fill:rgb(100%,72.54902%,72.54902%);fill-opacity:1;" d="M 74.511719 63.199219 C 74.511719 63.914062 73.933594 64.492188 73.222656 64.492188 C 72.511719 64.492188 71.933594 63.914062 71.933594 63.199219 C 71.933594 62.488281 72.511719 61.910156 73.222656 61.910156 C 73.933594 61.910156 74.511719 62.488281 74.511719 63.199219 Z M 74.511719 63.199219 "/>
<path style=" stroke:none;fill-rule:nonzero;fill:rgb(90.196078%,90.196078%,90.196078%);fill-opacity:1;" d="M 12.75 38.605469 L 13.140625 32.683594 L 19.046875 33.078125 L 18.652344 39 Z M 12.75 38.605469 "/>
<path style=" stroke:none;fill-rule:nonzero;fill:rgb(80%,80%,80%);fill-opacity:1;" d="M 9.332031 35.828125 L 16.5 36.304688 L 16.023438 43.496094 L 8.855469 43.015625 Z M 16.167969 36.597656 L 9.625 36.160156 L 9.1875 42.726562 L 15.734375 43.164062 Z M 16.167969 36.597656 "/>
<path style=" stroke:none;fill-rule:nonzero;fill:rgb(90.196078%,90.196078%,90.196078%);fill-opacity:1;" d="M 40.71875 16.371094 L 46.503906 15.125 L 47.746094 20.925781 L 41.960938 22.175781 Z M 40.71875 16.371094 "/>
<path style=" stroke:none;fill-rule:nonzero;fill:rgb(80%,80%,80%);fill-opacity:1;" d="M 42.445312 12.316406 L 43.953125 19.359375 L 36.929688 20.875 L 35.421875 13.828125 Z M 43.582031 19.121094 L 42.203125 12.6875 L 35.789062 14.070312 L 37.167969 20.503906 Z M 43.582031 19.121094 "/>
<path style=" stroke:none;fill-rule:nonzero;fill:rgb(90.196078%,90.196078%,90.196078%);fill-opacity:1;" d="M 36.109375 47.042969 L 40.425781 42.988281 L 44.472656 47.320312 L 40.152344 51.375 Z M 36.109375 47.042969 "/>
<path style=" stroke:none;fill-rule:nonzero;fill:rgb(80%,80%,80%);fill-opacity:1;" d="M 44.78125 42.382812 L 39.539062 47.308594 L 34.625 42.046875 L 39.871094 37.121094 Z M 39.550781 46.863281 L 44.339844 42.367188 L 39.855469 37.566406 L 35.066406 42.0625 Z M 39.550781 46.863281 "/>
<path style=" stroke:none;fill-rule:nonzero;fill:rgb(24.705882%,23.921569%,33.72549%);fill-opacity:1;" d="M 263.742188 0 L 88.679688 0 C 86.019531 0 83.863281 2.164062 83.863281 4.832031 L 83.863281 102.660156 C 83.863281 105.328125 86.019531 107.492188 88.679688 107.492188 L 263.742188 107.492188 C 266.40625 107.492188 268.5625 105.328125 268.5625 102.660156 L 268.5625 4.832031 C 268.5625 2.164062 266.40625 0 263.742188 0 Z M 263.742188 0 "/>
<path style=" stroke:none;fill-rule:nonzero;fill:rgb(100%,100%,100%);fill-opacity:1;" d="M 90.324219 8.539062 L 262.101562 8.539062 L 262.101562 105.726562 L 90.324219 105.726562 Z M 90.324219 8.539062 "/>
<path style=" stroke:none;fill-rule:nonzero;fill:rgb(100%,100%,100%);fill-opacity:1;" d="M 177.828125 4.121094 C 177.828125 5.097656 177.039062 5.890625 176.066406 5.890625 C 175.09375 5.890625 174.304688 5.097656 174.304688 4.121094 C 174.304688 3.148438 175.09375 2.355469 176.066406 2.355469 C 177.039062 2.355469 177.828125 3.148438 177.828125 4.121094 Z M 177.828125 4.121094 "/>
<path style=" stroke:none;fill-rule:nonzero;fill:rgb(94.901961%,94.901961%,94.901961%);fill-opacity:1;" d="M 212.976562 105.726562 L 90.324219 105.726562 L 90.324219 8.539062 Z M 212.976562 105.726562 "/>
<path style=" stroke:none;fill-rule:nonzero;fill:rgb(42.352941%,38.823529%,100%);fill-opacity:1;" d="M 133.714844 81.890625 C 133.714844 91.039062 126.320312 98.453125 117.203125 98.453125 C 108.082031 98.453125 100.691406 91.039062 100.691406 81.890625 C 100.691406 72.746094 108.082031 65.332031 117.203125 65.332031 C 126.320312 65.332031 133.714844 72.746094 133.714844 81.890625 Z M 133.714844 81.890625 "/>
<path style=" stroke:none;fill-rule:nonzero;fill:rgb(24.705882%,23.921569%,33.72549%);fill-opacity:1;" d="M 120.878906 94.339844 C 109.535156 94.339844 100.339844 85.117188 100.339844 73.738281 C 100.339844 62.363281 109.535156 53.140625 120.878906 53.140625 C 132.21875 53.140625 141.417969 62.363281 141.417969 73.738281 C 141.417969 85.117188 132.21875 94.339844 120.878906 94.339844 Z M 120.878906 53.410156 C 109.683594 53.410156 100.605469 62.511719 100.605469 73.738281 C 100.605469 84.96875 109.683594 94.070312 120.878906 94.070312 C 132.070312 94.070312 141.148438 84.96875 141.148438 73.738281 C 141.148438 62.511719 132.070312 53.410156 120.878906 53.410156 Z M 120.878906 53.410156 "/>
<path style=" stroke:none;fill-rule:nonzero;fill:rgb(24.705882%,23.921569%,33.72549%);fill-opacity:1;" d="M 206.289062 59.03125 L 222.335938 59.03125 L 222.335938 62.394531 L 206.289062 62.394531 Z M 206.289062 59.03125 "/>
<path style=" stroke:none;fill-rule:nonzero;fill:rgb(24.705882%,23.921569%,33.72549%);fill-opacity:1;" d="M 191.109375 40.8125 L 237.515625 40.8125 L 237.515625 42.253906 L 191.109375 42.253906 Z M 191.109375 40.8125 "/>
<path style=" stroke:none;fill-rule:nonzero;fill:rgb(24.705882%,23.921569%,33.72549%);fill-opacity:1;" d="M 191.109375 46.476562 L 237.515625 46.476562 L 237.515625 47.917969 L 191.109375 47.917969 Z M 191.109375 46.476562 "/>
<path style=" stroke:none;fill-rule:nonzero;fill:rgb(24.705882%,23.921569%,33.72549%);fill-opacity:1;" d="M 191.109375 52.136719 L 237.515625 52.136719 L 237.515625 53.578125 L 191.109375 53.578125 Z M 191.109375 52.136719 "/>
<path style=" stroke:none;fill-rule:nonzero;fill:rgb(42.352941%,38.823529%,100%);fill-opacity:1;" d="M 243.242188 14.355469 L 249.949219 14.355469 L 249.949219 21.082031 L 243.242188 21.082031 Z M 243.242188 14.355469 "/>
<path style=" stroke:none;fill-rule:nonzero;fill:rgb(80%,80%,80%);fill-opacity:1;" d="M 253.0625 24.203125 L 244.917969 24.203125 L 244.917969 16.039062 L 253.0625 16.039062 Z M 245.273438 23.847656 L 252.707031 23.847656 L 252.707031 16.394531 L 245.273438 16.394531 Z M 245.273438 23.847656 "/>
<path style=" stroke:none;fill-rule:nonzero;fill:rgb(24.705882%,23.921569%,33.72549%);fill-opacity:1;" d="M 273.382812 103.957031 L 256.621094 103.957031 L 256.621094 102.746094 C 256.621094 102.613281 256.511719 102.507812 256.378906 102.507812 L 250.632812 102.507812 C 250.5 102.507812 250.394531 102.613281 250.394531 102.746094 L 250.394531 103.957031 L 246.800781 103.957031 L 246.800781 102.746094 C 246.800781 102.613281 246.695312 102.507812 246.5625 102.507812 L 240.8125 102.507812 C 240.679688 102.507812 240.574219 102.613281 240.574219 102.746094 L 240.574219 103.957031 L 236.980469 103.957031 L 236.980469 102.746094 C 236.980469 102.613281 236.875 102.507812 236.742188 102.507812 L 230.996094 102.507812 C 230.863281 102.507812 230.753906 102.613281 230.753906 102.746094 L 230.753906 103.957031 L 227.164062 103.957031 L 227.164062 102.746094 C 227.164062 102.613281 227.054688 102.507812 226.921875 102.507812 L 221.175781 102.507812 C 221.042969 102.507812 220.9375 102.613281 220.9375 102.746094 L 220.9375 103.957031 L 217.34375 103.957031 L 217.34375 102.746094 C 217.34375 102.613281 217.238281 102.507812 217.105469 102.507812 L 211.355469 102.507812 C 211.222656 102.507812 211.117188 102.613281 211.117188 102.746094 L 211.117188 103.957031 L 207.523438 103.957031 L 207.523438 102.746094 C 207.523438 102.613281 207.417969 102.507812 207.285156 102.507812 L 201.535156 102.507812 C 201.40625 102.507812 201.296875 102.613281 201.296875 102.746094 L 201.296875 103.957031 L 197.707031 103.957031 L 197.707031 102.746094 C 197.707031 102.613281 197.597656 102.507812 197.464844 102.507812 L 152.441406 102.507812 C 152.308594 102.507812 152.203125 102.613281 152.203125 102.746094 L 152.203125 103.957031 L 148.609375 103.957031 L 148.609375 102.746094 C 148.609375 102.613281 148.503906 102.507812 148.371094 102.507812 L 142.621094 102.507812 C 142.488281 102.507812 142.382812 102.613281 142.382812 102.746094 L 142.382812 103.957031 L 138.789062 103.957031 L 138.789062 102.746094 C 138.789062 102.613281 138.683594 102.507812 138.550781 102.507812 L 132.804688 102.507812 C 132.671875 102.507812 132.5625 102.613281 132.5625 102.746094 L 132.5625 103.957031 L 128.972656 103.957031 L 128.972656 102.746094 C 128.972656 102.613281 128.863281 102.507812 128.730469 102.507812 L 122.984375 102.507812 C 122.851562 102.507812 122.746094 102.613281 122.746094 102.746094 L 122.746094 103.957031 L 119.152344 103.957031 L 119.152344 102.746094 C 119.152344 102.613281 119.042969 102.507812 118.914062 102.507812 L 113.164062 102.507812 C 113.03125 102.507812 112.925781 102.613281 112.925781 102.746094 L 112.925781 103.957031 L 109.332031 103.957031 L 109.332031 102.746094 C 109.332031 102.613281 109.226562 102.507812 109.09375 102.507812 L 103.34375 102.507812 C 103.214844 102.507812 103.105469 102.613281 103.105469 102.746094 L 103.105469 103.957031 L 99.511719 103.957031 L 99.511719 102.746094 C 99.511719 102.613281 99.40625 102.507812 99.273438 102.507812 L 93.527344 102.507812 C 93.394531 102.507812 93.285156 102.613281 93.285156 102.746094 L 93.285156 103.957031 L 82.269531 103.957031 C 79.09375 103.957031 76.523438 106.539062 76.523438 109.722656 L 76.523438 112.328125 C 76.523438 115.511719 79.09375 118.09375 82.269531 118.09375 L 273.382812 118.09375 C 276.558594 118.09375 279.132812 115.511719 279.132812 112.328125 L 279.132812 109.722656 C 279.132812 106.539062 276.558594 103.957031 273.382812 103.957031 Z M 273.382812 103.957031 "/>
</g>
</svg>
