<?xml version="1.0" encoding="UTF-8"?>
<svg xmlns="http://www.w3.org/2000/svg" xmlns:xlink="http://www.w3.org/1999/xlink" width="190px" height="85px" viewBox="0 0 189 85" version="1.1">
<g id="surface1">
<path style=" stroke:none;fill-rule:nonzero;fill:rgb(90.196078%,90.196078%,90.196078%);fill-opacity:1;" d="M 89.679688 84.585938 L 129.859375 84.585938 C 131.445312 84.585938 131.449219 82.113281 129.859375 82.113281 L 89.679688 82.113281 C 88.089844 82.113281 88.089844 84.585938 89.679688 84.585938 Z M 89.679688 84.585938 "/>
<path style=" stroke:none;fill-rule:nonzero;fill:rgb(42.352941%,38.823529%,100%);fill-opacity:1;" d="M 78.828125 30.789062 L 38.785156 30.789062 C 37.902344 30.789062 37.1875 31.503906 37.1875 32.390625 L 37.1875 40.378906 C 39.183594 40.425781 40.480469 42.082031 40.796875 44.09375 L 40.796875 51.335938 L 40.949219 51.335938 C 40.996094 51.335938 41.039062 51.375 41.039062 51.425781 L 41.039062 55.28125 C 41.039062 55.332031 40.996094 55.371094 40.949219 55.371094 L 40.796875 55.371094 L 40.796875 78.667969 C 40.796875 79.179688 40.789062 80.113281 40.789062 80.113281 L 78.828125 80.113281 C 79.710938 80.109375 80.425781 79.394531 80.425781 78.507812 L 80.425781 32.390625 C 80.425781 31.503906 79.710938 30.789062 78.828125 30.789062 Z M 78.828125 30.789062 "/>
<path style=" stroke:none;fill-rule:nonzero;fill:rgb(42.352941%,38.823529%,100%);fill-opacity:1;" d="M 153.234375 4.5 L 153.234375 48.21875 L 83.195312 48.21875 L 83.195312 28.96875 C 83.191406 27.148438 81.722656 25.675781 79.914062 25.671875 L 66.777344 25.671875 L 66.777344 4.5 Z M 153.234375 4.5 "/>
<path style=" stroke:none;fill-rule:nonzero;fill:rgb(24.705882%,23.921569%,33.72549%);fill-opacity:1;" d="M 157.558594 54.378906 L 83.273438 54.378906 L 83.273438 54.074219 L 157.253906 54.074219 L 157.253906 2.589844 C 157.253906 1.328125 156.234375 0.304688 154.980469 0.304688 L 64.125 0.304688 C 62.867188 0.304688 61.851562 1.328125 61.847656 2.589844 L 61.847656 25.476562 L 61.546875 25.476562 L 61.546875 2.589844 C 61.546875 1.160156 62.699219 0 64.125 0 L 154.980469 0 C 156.402344 0 157.554688 1.160156 157.558594 2.589844 Z M 157.558594 54.378906 "/>
<path style=" stroke:none;fill-rule:nonzero;fill:rgb(24.705882%,23.921569%,33.72549%);fill-opacity:1;" d="M 150.519531 63.671875 L 83.273438 63.671875 L 83.273438 63.367188 L 150.519531 63.367188 C 154.238281 63.363281 157.25 60.335938 157.253906 56.601562 L 157.253906 54.378906 L 83.273438 54.378906 L 83.273438 54.074219 L 157.558594 54.074219 L 157.558594 56.601562 C 157.554688 60.503906 154.40625 63.667969 150.519531 63.671875 Z M 150.519531 63.671875 "/>
<path style=" stroke:none;fill-rule:nonzero;fill:rgb(24.705882%,23.921569%,33.72549%);fill-opacity:1;" d="M 130.5625 78.601562 C 126.8125 74.984375 124.347656 70.269531 123.554688 63.671875 L 95.925781 63.671875 C 95.644531 69.84375 93.195312 74.472656 88.773438 78.582031 L 88.308594 78.601562 C 92.867188 74.449219 95.378906 69.789062 95.628906 63.511719 L 95.632812 63.367188 L 123.824219 63.367188 L 123.839844 63.5 C 124.617188 70.210938 127.136719 74.957031 130.976562 78.574219 Z M 130.5625 78.601562 "/>
<path style=" stroke:none;fill-rule:nonzero;fill:rgb(24.705882%,23.921569%,33.72549%);fill-opacity:1;" d="M 79.839844 84.902344 L 37.277344 84.902344 L 37.277344 84.597656 L 79.839844 84.597656 C 81.652344 84.59375 83.121094 83.121094 83.121094 81.300781 L 83.121094 29.039062 C 83.121094 27.21875 81.652344 25.746094 79.839844 25.742188 L 37.277344 25.742188 C 35.464844 25.746094 34 27.21875 33.996094 29.039062 L 33.996094 40.316406 L 33.691406 40.316406 L 33.691406 29.039062 C 33.695312 27.050781 35.300781 25.441406 37.277344 25.4375 L 79.839844 25.4375 C 81.816406 25.441406 83.421875 27.050781 83.425781 29.039062 L 83.425781 81.300781 C 83.421875 83.289062 81.816406 84.898438 79.839844 84.902344 Z M 79.839844 84.902344 "/>
<path style=" stroke:none;fill-rule:nonzero;fill:rgb(24.705882%,23.921569%,33.72549%);fill-opacity:1;" d="M 58.558594 29.292969 C 57.992188 29.292969 57.53125 28.832031 57.53125 28.257812 C 57.53125 27.6875 57.992188 27.226562 58.558594 27.226562 C 59.125 27.226562 59.585938 27.6875 59.585938 28.257812 C 59.585938 28.828125 59.125 29.292969 58.558594 29.292969 Z M 58.558594 27.464844 C 58.121094 27.464844 57.769531 27.820312 57.769531 28.257812 C 57.769531 28.699219 58.121094 29.054688 58.558594 29.054688 C 58.996094 29.054688 59.347656 28.699219 59.347656 28.257812 C 59.347656 27.820312 58.996094 27.464844 58.558594 27.464844 Z M 58.558594 27.464844 "/>
<path style=" stroke:none;fill-rule:nonzero;fill:rgb(24.705882%,23.921569%,33.72549%);fill-opacity:1;" d="M 58.558594 83.734375 C 57.832031 83.734375 57.246094 83.144531 57.246094 82.417969 C 57.246094 81.6875 57.832031 81.097656 58.558594 81.097656 C 59.285156 81.097656 59.871094 81.6875 59.871094 82.417969 C 59.871094 83.144531 59.285156 83.734375 58.558594 83.734375 Z M 58.558594 81.402344 C 58 81.402344 57.550781 81.855469 57.550781 82.417969 C 57.550781 82.976562 58 83.429688 58.558594 83.429688 C 59.117188 83.429688 59.566406 82.976562 59.566406 82.417969 C 59.566406 81.855469 59.117188 81.402344 58.558594 81.402344 Z M 58.558594 81.402344 "/>
<path style=" stroke:none;fill-rule:nonzero;fill:rgb(24.705882%,23.921569%,33.72549%);fill-opacity:1;" d="M 36.851562 84.988281 L 22.761719 84.988281 C 20.554688 84.988281 18.765625 83.191406 18.761719 80.972656 L 18.761719 44.335938 C 18.765625 42.117188 20.554688 40.320312 22.761719 40.316406 L 36.851562 40.316406 C 39.058594 40.320312 40.847656 42.117188 40.851562 44.335938 L 40.851562 50.890625 C 41 50.953125 41.09375 51.097656 41.09375 51.257812 L 41.09375 55.523438 C 41.09375 55.683594 41 55.828125 40.851562 55.890625 L 40.851562 80.972656 C 40.847656 83.191406 39.058594 84.988281 36.851562 84.988281 Z M 22.761719 40.621094 C 20.722656 40.625 19.066406 42.285156 19.066406 44.335938 L 19.066406 80.972656 C 19.066406 83.023438 20.722656 84.683594 22.761719 84.683594 L 36.851562 84.683594 C 38.890625 84.683594 40.546875 83.023438 40.546875 80.972656 L 40.546875 55.613281 L 40.699219 55.613281 C 40.75 55.613281 40.789062 55.574219 40.789062 55.523438 L 40.789062 51.257812 C 40.789062 51.207031 40.75 51.164062 40.699219 51.164062 L 40.546875 51.164062 L 40.546875 44.335938 C 40.546875 42.285156 38.890625 40.625 36.851562 40.621094 Z M 22.761719 40.621094 "/>
<path style=" stroke:none;fill-rule:nonzero;fill:rgb(42.352941%,38.823529%,100%);fill-opacity:1;" d="M 37.007812 41.476562 L 35.167969 41.476562 C 35.339844 41.898438 35.289062 42.378906 35.035156 42.757812 C 34.78125 43.136719 34.359375 43.363281 33.902344 43.363281 L 25.832031 43.363281 C 25.378906 43.363281 24.953125 43.136719 24.699219 42.757812 C 24.445312 42.378906 24.394531 41.898438 24.566406 41.476562 L 22.851562 41.476562 C 21.261719 41.476562 19.976562 42.769531 19.976562 44.363281 L 19.976562 80.945312 C 19.976562 82.539062 21.261719 83.832031 22.851562 83.832031 L 37.007812 83.832031 C 38.59375 83.832031 39.878906 82.539062 39.878906 80.945312 L 39.878906 44.363281 C 39.878906 42.769531 38.59375 41.476562 37.007812 41.476562 Z M 37.007812 41.476562 "/>
<path style=" stroke:none;fill-rule:nonzero;fill:rgb(24.705882%,23.921569%,33.72549%);fill-opacity:1;" d="M 188.839844 84.929688 L 0.179688 84.929688 C 0.117188 84.929688 0.0546875 84.894531 0.0234375 84.839844 C -0.0078125 84.785156 -0.0078125 84.714844 0.0234375 84.660156 C 0.0546875 84.601562 0.117188 84.566406 0.179688 84.566406 L 188.839844 84.566406 C 188.90625 84.566406 188.964844 84.601562 189 84.660156 C 189.03125 84.714844 189.03125 84.785156 189 84.839844 C 188.964844 84.894531 188.90625 84.929688 188.839844 84.929688 Z M 188.839844 84.929688 "/>
<path style=" stroke:none;fill-rule:nonzero;fill:rgb(24.705882%,23.921569%,33.72549%);fill-opacity:1;" d="M 130.65625 84.84375 L 88.640625 84.84375 C 86.878906 84.847656 85.453125 83.414062 85.453125 81.644531 C 85.453125 79.878906 86.878906 78.445312 88.640625 78.449219 L 130.65625 78.449219 C 132.414062 78.449219 133.839844 79.878906 133.839844 81.644531 C 133.839844 83.410156 132.414062 84.84375 130.65625 84.84375 Z M 88.640625 78.753906 C 87.050781 78.753906 85.757812 80.046875 85.757812 81.644531 C 85.757812 83.246094 87.050781 84.539062 88.640625 84.539062 L 130.65625 84.539062 C 132.246094 84.539062 133.539062 83.246094 133.539062 81.644531 C 133.539062 80.046875 132.246094 78.753906 130.65625 78.753906 Z M 88.640625 78.753906 "/>
<path style=" stroke:none;fill-rule:nonzero;fill:rgb(100%,72.156863%,72.156863%);fill-opacity:1;" d="M 161.164062 60.488281 L 162.339844 62.960938 L 172.386719 59.578125 L 170.652344 55.929688 Z M 161.164062 60.488281 "/>
<path style=" stroke:none;fill-rule:nonzero;fill:rgb(18.431373%,18.039216%,25.490196%);fill-opacity:1;" d="M 162.324219 68.824219 L 158.625 61.058594 L 161.613281 59.621094 L 163.992188 64.617188 C 164.722656 66.148438 164.078125 67.980469 162.550781 68.710938 Z M 162.324219 68.824219 "/>
<path style=" stroke:none;fill-rule:nonzero;fill:rgb(100%,72.156863%,72.156863%);fill-opacity:1;" d="M 158.792969 82.554688 L 161.519531 82.460938 L 161.632812 71.804688 L 158.4375 71.996094 Z M 158.792969 82.554688 "/>
<path style=" stroke:none;fill-rule:nonzero;fill:rgb(18.431373%,18.039216%,25.490196%);fill-opacity:1;" d="M 166.808594 84.96875 L 158.238281 84.96875 L 158.238281 81.644531 L 163.75 81.644531 C 165.4375 81.644531 166.808594 83.019531 166.808594 84.714844 Z M 166.808594 84.96875 "/>
<path style=" stroke:none;fill-rule:nonzero;fill:rgb(18.431373%,18.039216%,25.490196%);fill-opacity:1;" d="M 159.019531 80.953125 C 158.546875 80.953125 158.136719 80.628906 158.027344 80.171875 C 156.53125 74.148438 150.976562 43.792969 155.890625 37.832031 L 155.933594 37.777344 L 155.996094 37.761719 C 156.34375 37.675781 162.84375 35.652344 166.660156 38.808594 L 166.703125 38.84375 L 168.824219 45.015625 L 174.550781 53.546875 C 175.183594 54.492188 175.40625 55.652344 175.175781 56.769531 C 174.941406 57.882812 174.269531 58.851562 173.308594 59.460938 L 165.792969 64.222656 C 165.421875 64.449219 164.949219 64.414062 164.613281 64.140625 C 164.472656 64.023438 164.367188 63.875 164.304688 63.707031 L 162.726562 59.742188 C 162.53125 59.246094 162.742188 58.679688 163.21875 58.4375 L 166.742188 56.667969 C 166.933594 56.5625 167.074219 56.371094 167.117188 56.152344 C 167.136719 55.953125 167.058594 55.757812 166.90625 55.628906 L 162.816406 52.089844 C 162.632812 51.929688 162.367188 51.894531 162.148438 52 C 161.925781 52.105469 161.789062 52.335938 161.800781 52.582031 L 162.8125 79.445312 C 162.832031 79.964844 162.460938 80.417969 161.945312 80.5 L 159.183594 80.941406 C 159.128906 80.949219 159.074219 80.953125 159.019531 80.953125 Z M 159.019531 80.953125 "/>
<path style=" stroke:none;fill-rule:nonzero;fill:rgb(24.705882%,23.921569%,33.72549%);fill-opacity:1;" d="M 166.070312 39.902344 C 166.046875 39.902344 166.023438 39.902344 166 39.902344 L 155.804688 39.140625 C 155.519531 39.121094 155.257812 38.96875 155.101562 38.726562 C 154.941406 38.484375 154.90625 38.183594 155 37.910156 C 155.628906 36.09375 155.707031 34.132812 155.222656 32.273438 C 154.558594 29.644531 154.542969 24.757812 154.59375 22.078125 C 154.617188 21.136719 155.355469 20.371094 156.292969 20.320312 L 156.292969 20.316406 L 156.5 20.320312 C 158.160156 20.34375 161.207031 20.460938 163.699219 20.984375 C 165.433594 21.34375 166.683594 22.859375 166.710938 24.632812 C 166.769531 27.121094 166.777344 30.488281 166.496094 32.402344 C 166.257812 34.019531 166.695312 37.117188 166.980469 38.824219 C 167.023438 39.09375 166.949219 39.367188 166.773438 39.574219 C 166.597656 39.78125 166.339844 39.902344 166.070312 39.902344 Z M 166.070312 39.902344 "/>
<path style=" stroke:none;fill-rule:nonzero;fill:rgb(100%,72.156863%,72.156863%);fill-opacity:1;" d="M 169.707031 49.660156 C 169.15625 49.398438 168.753906 48.902344 168.601562 48.308594 C 168.449219 47.714844 168.570312 47.085938 168.925781 46.589844 L 164.21875 26.203125 L 167.777344 26.203125 L 171.929688 46.1875 C 172.742188 46.855469 172.921875 48.03125 172.355469 48.914062 C 171.789062 49.800781 170.652344 50.121094 169.707031 49.660156 Z M 169.707031 49.660156 "/>
<path style=" stroke:none;fill-rule:nonzero;fill:rgb(100%,72.156863%,72.156863%);fill-opacity:1;" d="M 147.410156 28.410156 L 153.046875 23.054688 L 155.171875 26.042969 L 149.863281 30.730469 L 156.824219 36.285156 C 156.875 36.28125 156.925781 36.277344 156.976562 36.277344 C 158.167969 36.273438 159.152344 37.21875 159.207031 38.414062 C 159.257812 39.613281 158.363281 40.640625 157.175781 40.746094 C 155.988281 40.851562 154.925781 40 154.769531 38.8125 L 154.746094 38.835938 L 147.5 32.527344 C 146.910156 32.015625 146.5625 31.273438 146.546875 30.488281 C 146.53125 29.703125 146.84375 28.949219 147.410156 28.410156 Z M 147.410156 28.410156 "/>
<path style=" stroke:none;fill-rule:nonzero;fill:rgb(24.705882%,23.921569%,33.72549%);fill-opacity:1;" d="M 164.59375 27.507812 C 164.234375 27.507812 163.910156 27.304688 163.757812 26.980469 C 163.308594 26.027344 163 25.015625 162.839844 23.976562 C 162.597656 22.273438 163.773438 21.261719 164.972656 21.042969 C 166.136719 20.828125 167.554688 21.339844 167.917969 22.976562 C 167.949219 23.117188 167.972656 23.257812 167.988281 23.398438 C 168.132812 24.636719 168.269531 25.601562 168.394531 26.265625 C 168.445312 26.527344 168.378906 26.800781 168.210938 27.007812 C 168.046875 27.21875 167.800781 27.347656 167.53125 27.363281 L 164.640625 27.507812 C 164.625 27.507812 164.609375 27.507812 164.59375 27.507812 Z M 164.59375 27.507812 "/>
<path style=" stroke:none;fill-rule:nonzero;fill:rgb(18.431373%,18.039216%,25.490196%);fill-opacity:1;" d="M 166.71875 12.375 C 166.71875 15.792969 163.960938 18.5625 160.554688 18.5625 C 157.152344 18.5625 154.394531 15.792969 154.394531 12.375 C 154.394531 8.957031 157.152344 6.183594 160.554688 6.183594 C 163.960938 6.183594 166.71875 8.957031 166.71875 12.375 Z M 166.71875 12.375 "/>
<path style=" stroke:none;fill-rule:nonzero;fill:rgb(100%,72.156863%,72.156863%);fill-opacity:1;" d="M 165.640625 13.980469 C 165.640625 16.78125 163.378906 19.046875 160.59375 19.046875 C 157.808594 19.046875 155.546875 16.78125 155.546875 13.980469 C 155.546875 11.183594 157.808594 8.914062 160.59375 8.914062 C 163.378906 8.914062 165.640625 11.183594 165.640625 13.980469 Z M 165.640625 13.980469 "/>
<path style=" stroke:none;fill-rule:nonzero;fill:rgb(24.705882%,23.921569%,33.72549%);fill-opacity:1;" d="M 151.636719 25.042969 C 151.375 24.800781 151.273438 24.429688 151.378906 24.089844 C 151.6875 23.082031 152.140625 22.125 152.722656 21.25 C 153.6875 19.828125 155.238281 19.882812 156.269531 20.53125 C 157.273438 21.164062 157.972656 22.507812 157.136719 23.960938 C 157.066406 24.082031 156.992188 24.203125 156.910156 24.316406 C 156.179688 25.328125 155.632812 26.132812 155.277344 26.707031 C 155.136719 26.933594 154.90625 27.089844 154.644531 27.132812 C 154.378906 27.175781 154.109375 27.101562 153.90625 26.929688 L 151.671875 25.074219 C 151.660156 25.0625 151.648438 25.050781 151.636719 25.042969 Z M 151.636719 25.042969 "/>
<path style=" stroke:none;fill-rule:nonzero;fill:rgb(18.431373%,18.039216%,25.490196%);fill-opacity:1;" d="M 159.359375 6.847656 C 158.117188 6.105469 157.851562 4.253906 158.589844 3.007812 C 159.328125 1.761719 160.820312 1.109375 162.265625 1.070312 C 164.328125 1.007812 166.316406 2.039062 167.761719 3.519531 C 169.203125 5 170.15625 6.894531 170.882812 8.832031 C 171.609375 10.769531 172.128906 12.78125 172.84375 14.726562 C 173.210938 15.722656 173.664062 16.746094 174.503906 17.394531 C 175.34375 18.042969 176.675781 18.160156 177.394531 17.378906 C 177.390625 18.628906 176.4375 19.765625 175.253906 20.152344 C 174.070312 20.539062 172.730469 20.246094 171.691406 19.554688 C 169.890625 18.355469 169.023438 16.167969 168.527344 14.058594 C 168.027344 11.949219 167.785156 9.734375 166.785156 7.8125 C 166.371094 7.015625 165.804688 6.257812 165.003906 5.851562 C 164.207031 5.445312 163.144531 5.472656 162.5 6.097656 C 162.203125 6.386719 162.011719 6.785156 161.675781 7.023438 C 161.242188 7.296875 160.707031 7.351562 160.230469 7.175781 C 159.757812 7 159.316406 6.75 158.921875 6.433594 "/>
<path style=" stroke:none;fill-rule:nonzero;fill:rgb(18.431373%,18.039216%,25.490196%);fill-opacity:1;" d="M 155.324219 10.558594 C 156.304688 11.882812 157.785156 12.75 159.421875 12.957031 C 161.054688 13.160156 162.699219 12.6875 163.976562 11.640625 C 164.46875 11.242188 164.921875 10.691406 164.890625 10.058594 C 164.859375 9.40625 164.332031 8.898438 163.792969 8.539062 C 162.375 7.601562 160.667969 7.210938 158.984375 7.429688 C 158.023438 7.558594 157.0625 7.910156 156.378906 8.605469 C 155.699219 9.296875 155.363281 10.375 155.710938 11.28125 "/>
</g>
</svg>
