<?xml version="1.0" encoding="UTF-8"?>
<svg xmlns="http://www.w3.org/2000/svg" xmlns:xlink="http://www.w3.org/1999/xlink" width="1019px" height="437px" viewBox="0 0 764 328" version="1.1">
<defs>
<filter id="alpha" filterUnits="objectBoundingBox" x="0%" y="0%" width="100%" height="100%">
  <feColorMatrix type="matrix" in="SourceGraphic" values="0 0 0 0 1 0 0 0 0 1 0 0 0 0 1 0 0 0 1 0"/>
</filter>
<mask id="mask0">
  <g filter="url(#alpha)">
<rect x="0" y="0" width="764" height="328" style="fill:rgb(0%,0%,0%);fill-opacity:0.101961;stroke:none;"/>
  </g>
</mask>
<clipPath id="clip1">
  <rect x="0" y="0" width="764" height="328"/>
</clipPath>
<g id="surface5" clip-path="url(#clip1)">
<path style=" stroke:none;fill-rule:nonzero;fill:rgb(0%,0%,0%);fill-opacity:1;" d="M 236.042969 244.648438 L 216.890625 257.261719 L 188.304688 283.0625 L 186.144531 279.460938 L 180.097656 249.1875 L 181.609375 249.1875 L 197.234375 220.429688 Z M 236.042969 244.648438 "/>
</g>
</defs>
<g id="surface1">
<path style=" stroke:none;fill-rule:nonzero;fill:rgb(100%,72.54902%,72.54902%);fill-opacity:1;" d="M 167.773438 182.851562 C 167.792969 180.109375 166.277344 177.585938 163.851562 176.3125 C 161.421875 175.042969 158.492188 175.238281 156.25 176.816406 C 154.011719 178.394531 152.84375 181.097656 153.222656 183.8125 L 132.21875 211.347656 C 130.386719 215.015625 130.929688 219.425781 133.59375 222.542969 L 135.242188 224.464844 L 142.800781 222.953125 L 151.371094 215.382812 L 150.363281 206.808594 L 160.945312 190.15625 L 160.933594 190.144531 C 164.777344 189.898438 167.769531 186.707031 167.773438 182.851562 Z M 167.773438 182.851562 "/>
<path style=" stroke:none;fill-rule:nonzero;fill:rgb(100%,72.156863%,72.156863%);fill-opacity:1;" d="M 22.523438 317.46875 L 19.09375 304.71875 L 66.578125 285.417969 L 71.636719 304.230469 Z M 22.523438 317.46875 "/>
<path style=" stroke:none;fill-rule:nonzero;fill:rgb(18.431373%,18.039216%,25.490196%);fill-opacity:1;" d="M 11.054688 324.046875 L 0 282.941406 L 0.519531 282.804688 C 9.34375 280.425781 18.425781 285.65625 20.804688 294.492188 L 20.804688 294.496094 L 27.554688 319.597656 Z M 11.054688 324.046875 "/>
<path style=" stroke:none;fill-rule:nonzero;fill:rgb(100%,72.156863%,72.156863%);fill-opacity:1;" d="M 87.929688 315.429688 L 77.265625 307.667969 L 102.105469 262.792969 L 117.84375 274.25 Z M 87.929688 315.429688 "/>
<path style=" stroke:none;fill-rule:nonzero;fill:rgb(18.431373%,18.039216%,25.490196%);fill-opacity:1;" d="M 83.132812 327.761719 L 48.742188 302.726562 L 49.058594 302.289062 C 54.4375 294.890625 64.785156 293.253906 72.179688 298.632812 L 93.183594 313.925781 Z M 83.132812 327.761719 "/>
<path style=" stroke:none;fill-rule:nonzero;fill:rgb(18.431373%,18.039216%,25.490196%);fill-opacity:1;" d="M 178.585938 252.722656 L 151.75 226.621094 C 146.90625 221.910156 139.339844 221.488281 134.003906 225.628906 L 83.328125 281.984375 L 87.867188 289.046875 L 136.25 256.253906 L 169.007812 299.140625 L 200.257812 283.5 Z M 178.585938 252.722656 "/>
<path style=" stroke:none;fill-rule:nonzero;fill:rgb(100%,72.54902%,72.54902%);fill-opacity:1;" d="M 166.992188 258.269531 L 147.335938 256.757812 L 133.101562 253.300781 C 131.457031 250.730469 128.386719 249.453125 125.40625 250.097656 C 122.421875 250.742188 120.152344 253.171875 119.710938 256.195312 C 119.269531 259.214844 120.75 262.195312 123.425781 263.667969 C 126.097656 265.140625 129.402344 264.792969 131.714844 262.800781 L 131.714844 262.8125 L 140.28125 266.34375 L 177.074219 278.957031 L 181.609375 275.425781 Z M 166.992188 258.269531 "/>
<path style=" stroke:none;fill-rule:nonzero;fill:rgb(18.431373%,18.039216%,25.490196%);fill-opacity:1;" d="M 214.371094 312.761719 L 203.28125 319.828125 L 190.175781 319.828125 L 129.195312 297.121094 L 39.984375 313.265625 L 37.464844 294.09375 L 119.113281 258.269531 L 190.683594 281.984375 Z M 214.371094 312.761719 "/>
<path style=" stroke:none;fill-rule:nonzero;fill:rgb(100%,72.54902%,72.54902%);fill-opacity:1;" d="M 210.339844 170.480469 C 210.339844 181.347656 201.539062 190.15625 190.683594 190.15625 C 179.828125 190.15625 171.027344 181.347656 171.027344 170.480469 C 171.027344 159.613281 179.828125 150.800781 190.683594 150.800781 C 201.539062 150.800781 210.339844 159.613281 210.339844 170.480469 Z M 210.339844 170.480469 "/>
<path style=" stroke:none;fill-rule:nonzero;fill:rgb(80%,80%,80%);fill-opacity:1;" d="M 241.539062 249.042969 C 241.539062 260.917969 239.671875 272.71875 236 284.011719 L 234.53125 288.542969 L 227.472656 320.835938 L 219.914062 322.851562 L 214.371094 315.789062 L 203.28125 307.714844 L 195.21875 294.597656 L 188.304688 283.066406 L 186.144531 279.460938 L 178.585938 241.621094 L 149.859375 225.476562 L 140.28125 223.960938 L 142.296875 218.410156 L 150.867188 206.808594 L 159.433594 205.796875 L 161.953125 203.78125 L 163.96875 204.789062 L 175.082031 209.074219 L 211.113281 193.835938 L 216.386719 194.699219 L 234.53125 209.835938 C 239.167969 222.382812 241.542969 235.660156 241.539062 249.042969 Z M 241.539062 249.042969 "/>
<use xlink:href="#surface5" mask="url(#mask0)"/>
<path style=" stroke:none;fill-rule:nonzero;fill:rgb(80%,80%,80%);fill-opacity:1;" d="M 197.234375 217.402344 L 181.609375 246.160156 L 172.539062 256.253906 L 164.472656 258.269531 L 186.144531 281.984375 L 216.890625 254.234375 L 236.042969 241.621094 Z M 197.234375 217.402344 "/>
<path style=" stroke:none;fill-rule:nonzero;fill:rgb(18.431373%,18.039216%,25.490196%);fill-opacity:1;" d="M 175.394531 155.847656 L 173.265625 156.667969 C 171.902344 155.746094 171.546875 153.894531 172.46875 152.535156 C 172.480469 152.519531 172.492188 152.5 172.503906 152.484375 L 168.566406 152.300781 C 173.679688 145.488281 181.460938 141.195312 189.945312 140.507812 C 198.429688 139.824219 206.800781 142.8125 212.933594 148.71875 C 213.113281 148.101562 215.066406 149.304688 215.863281 150.523438 C 216.132812 149.519531 217.964844 154.378906 218.609375 157.8125 C 218.910156 156.667969 220.0625 158.515625 219.054688 160.289062 C 219.695312 160.195312 219.984375 161.832031 219.488281 162.746094 C 220.1875 162.417969 220.070312 164.375 219.308594 165.683594 C 220.308594 165.59375 219.226562 186.195312 204.230469 184.695312 C 203.1875 179.894531 203.480469 180.191406 202.25 174.015625 C 201.679688 173.410156 201.050781 172.855469 200.425781 172.300781 L 197.042969 169.3125 C 193.109375 165.835938 189.53125 161.546875 184.289062 160.246094 C 180.6875 159.351562 178.410156 159.152344 180.371094 155.089844 C 178.601562 155.828125 176.945312 156.929688 175.152344 157.621094 C 175.179688 157.050781 175.429688 156.417969 175.394531 155.847656 Z M 175.394531 155.847656 "/>
<path style=" stroke:none;fill-rule:nonzero;fill:rgb(100%,72.54902%,72.54902%);fill-opacity:1;" d="M 204.039062 172.75 C 204.039062 174.699219 202.457031 176.28125 200.511719 176.28125 C 198.5625 176.28125 196.980469 174.699219 196.980469 172.75 C 196.980469 170.800781 198.5625 169.21875 200.511719 169.21875 C 202.457031 169.21875 204.039062 170.800781 204.039062 172.75 Z M 204.039062 172.75 "/>
<path style=" stroke:none;fill-rule:nonzero;fill:rgb(90.196078%,90.196078%,90.196078%);fill-opacity:1;" d="M 34.910156 105.519531 L 35.988281 89.335938 L 52.152344 90.414062 L 51.078125 106.597656 Z M 34.910156 105.519531 "/>
<path style=" stroke:none;fill-rule:nonzero;fill:rgb(80%,80%,80%);fill-opacity:1;" d="M 25.554688 97.929688 L 45.1875 99.238281 L 43.878906 118.890625 L 24.25 117.582031 Z M 44.277344 100.035156 L 26.351562 98.839844 L 25.160156 116.78125 L 43.082031 117.976562 Z M 44.277344 100.035156 "/>
<path style=" stroke:none;fill-rule:nonzero;fill:rgb(90.196078%,90.196078%,90.196078%);fill-opacity:1;" d="M 111.503906 44.75 L 127.347656 41.34375 L 130.75 57.203125 L 114.910156 60.609375 Z M 111.503906 44.75 "/>
<path style=" stroke:none;fill-rule:nonzero;fill:rgb(80%,80%,80%);fill-opacity:1;" d="M 116.226562 33.664062 L 120.359375 52.917969 L 101.125 57.058594 L 96.992188 37.800781 Z M 119.34375 52.261719 L 115.570312 34.679688 L 98.007812 38.457031 L 101.78125 56.039062 Z M 119.34375 52.261719 "/>
<path style=" stroke:none;fill-rule:nonzero;fill:rgb(90.196078%,90.196078%,90.196078%);fill-opacity:1;" d="M 98.875 128.589844 L 110.699219 117.5 L 121.777344 129.339844 L 109.953125 140.425781 Z M 98.875 128.589844 "/>
<path style=" stroke:none;fill-rule:nonzero;fill:rgb(80%,80%,80%);fill-opacity:1;" d="M 122.628906 115.839844 L 108.269531 129.304688 L 94.820312 114.929688 L 109.175781 101.464844 Z M 108.308594 128.09375 L 121.417969 115.800781 L 109.136719 102.675781 L 96.027344 114.96875 Z M 108.308594 128.09375 "/>
<path style=" stroke:none;fill-rule:nonzero;fill:rgb(24.705882%,23.921569%,33.72549%);fill-opacity:1;" d="M 722.222656 0 L 242.839844 0 C 235.554688 0 229.648438 5.914062 229.648438 13.207031 L 229.648438 280.601562 C 229.648438 287.898438 235.554688 293.8125 242.839844 293.8125 L 722.222656 293.8125 C 729.507812 293.8125 735.417969 287.898438 735.417969 280.601562 L 735.417969 13.207031 C 735.417969 5.914062 729.507812 0 722.222656 0 Z M 722.222656 0 "/>
<path style=" stroke:none;fill-rule:nonzero;fill:rgb(100%,100%,100%);fill-opacity:1;" d="M 247.335938 23.34375 L 717.726562 23.34375 L 717.726562 288.980469 L 247.335938 288.980469 Z M 247.335938 23.34375 "/>
<path style=" stroke:none;fill-rule:nonzero;fill:rgb(100%,100%,100%);fill-opacity:1;" d="M 486.953125 11.269531 C 486.953125 13.9375 484.792969 16.097656 482.128906 16.097656 C 479.464844 16.097656 477.304688 13.9375 477.304688 11.269531 C 477.304688 8.601562 479.464844 6.441406 482.128906 6.441406 C 484.792969 6.441406 486.953125 8.601562 486.953125 11.269531 Z M 486.953125 11.269531 "/>
<path style=" stroke:none;fill-rule:nonzero;fill:rgb(94.901961%,94.901961%,94.901961%);fill-opacity:1;" d="M 583.203125 288.980469 L 247.335938 288.980469 L 247.335938 23.34375 Z M 583.203125 288.980469 "/>
<path style=" stroke:none;fill-rule:nonzero;fill:rgb(42.352941%,38.823529%,100%);fill-opacity:1;" d="M 366.152344 223.839844 C 366.152344 248.835938 345.910156 269.101562 320.9375 269.101562 C 295.964844 269.101562 275.722656 248.835938 275.722656 223.839844 C 275.722656 198.839844 295.964844 178.574219 320.9375 178.574219 C 345.910156 178.574219 366.152344 198.839844 366.152344 223.839844 Z M 366.152344 223.839844 "/>
<path style=" stroke:none;fill-rule:nonzero;fill:rgb(24.705882%,23.921569%,33.72549%);fill-opacity:1;" d="M 331.003906 257.859375 C 299.941406 257.859375 274.761719 232.652344 274.761719 201.554688 C 274.761719 170.457031 299.941406 145.25 331.003906 145.25 C 362.066406 145.25 387.246094 170.457031 387.246094 201.554688 C 387.246094 232.652344 362.066406 257.859375 331.003906 257.859375 Z M 331.003906 145.984375 C 300.347656 145.984375 275.496094 170.863281 275.496094 201.554688 C 275.496094 232.246094 300.347656 257.125 331.003906 257.125 C 361.660156 257.125 386.511719 232.246094 386.511719 201.554688 C 386.511719 170.863281 361.660156 145.984375 331.003906 145.984375 Z M 331.003906 145.984375 "/>
<path style=" stroke:none;fill-rule:nonzero;fill:rgb(24.705882%,23.921569%,33.72549%);fill-opacity:1;" d="M 564.894531 161.351562 L 608.832031 161.351562 L 608.832031 170.542969 L 564.894531 170.542969 Z M 564.894531 161.351562 "/>
<path style=" stroke:none;fill-rule:nonzero;fill:rgb(24.705882%,23.921569%,33.72549%);fill-opacity:1;" d="M 523.320312 111.554688 L 650.402344 111.554688 L 650.402344 115.496094 L 523.320312 115.496094 Z M 523.320312 111.554688 "/>
<path style=" stroke:none;fill-rule:nonzero;fill:rgb(24.705882%,23.921569%,33.72549%);fill-opacity:1;" d="M 523.320312 127.03125 L 650.402344 127.03125 L 650.402344 130.96875 L 523.320312 130.96875 Z M 523.320312 127.03125 "/>
<path style=" stroke:none;fill-rule:nonzero;fill:rgb(24.705882%,23.921569%,33.72549%);fill-opacity:1;" d="M 523.320312 142.507812 L 650.402344 142.507812 L 650.402344 146.445312 L 523.320312 146.445312 Z M 523.320312 142.507812 "/>
<path style=" stroke:none;fill-rule:nonzero;fill:rgb(42.352941%,38.823529%,100%);fill-opacity:1;" d="M 666.082031 39.242188 L 684.445312 39.242188 L 684.445312 57.625 L 666.082031 57.625 Z M 666.082031 39.242188 "/>
<path style=" stroke:none;fill-rule:nonzero;fill:rgb(80%,80%,80%);fill-opacity:1;" d="M 692.972656 66.160156 L 670.671875 66.160156 L 670.671875 43.835938 L 692.972656 43.835938 Z M 671.644531 65.1875 L 692.003906 65.1875 L 692.003906 44.808594 L 671.644531 44.808594 Z M 671.644531 65.1875 "/>
<path style=" stroke:none;fill-rule:nonzero;fill:rgb(24.705882%,23.921569%,33.72549%);fill-opacity:1;" d="M 748.625 284.152344 L 702.714844 284.152344 L 702.714844 280.839844 C 702.714844 280.476562 702.421875 280.183594 702.0625 280.183594 L 686.320312 280.183594 C 685.957031 280.183594 685.664062 280.476562 685.664062 280.839844 L 685.664062 284.152344 L 675.828125 284.152344 L 675.828125 280.839844 C 675.828125 280.476562 675.535156 280.183594 675.171875 280.183594 L 659.433594 280.183594 C 659.070312 280.183594 658.777344 280.476562 658.777344 280.839844 L 658.777344 284.152344 L 648.941406 284.152344 L 648.941406 280.839844 C 648.941406 280.476562 648.644531 280.183594 648.285156 280.183594 L 632.542969 280.183594 C 632.183594 280.183594 631.886719 280.476562 631.886719 280.839844 L 631.886719 284.152344 L 622.050781 284.152344 L 622.050781 280.839844 C 622.050781 280.476562 621.757812 280.183594 621.394531 280.183594 L 605.65625 280.183594 C 605.292969 280.183594 605 280.476562 605 280.839844 L 605 284.152344 L 595.164062 284.152344 L 595.164062 280.839844 C 595.164062 280.476562 594.871094 280.183594 594.507812 280.183594 L 578.769531 280.183594 C 578.40625 280.183594 578.113281 280.476562 578.113281 280.839844 L 578.113281 284.152344 L 568.273438 284.152344 L 568.273438 280.839844 C 568.273438 280.476562 567.980469 280.183594 567.617188 280.183594 L 551.878906 280.183594 C 551.515625 280.183594 551.222656 280.476562 551.222656 280.839844 L 551.222656 284.152344 L 541.386719 284.152344 L 541.386719 280.839844 C 541.386719 280.476562 541.09375 280.183594 540.730469 280.183594 L 417.4375 280.183594 C 417.074219 280.183594 416.78125 280.476562 416.78125 280.839844 L 416.78125 284.152344 L 406.945312 284.152344 L 406.945312 280.839844 C 406.945312 280.476562 406.652344 280.183594 406.289062 280.183594 L 390.550781 280.183594 C 390.1875 280.183594 389.894531 280.476562 389.894531 280.839844 L 389.894531 284.152344 L 380.054688 284.152344 L 380.054688 280.839844 C 380.054688 280.476562 379.761719 280.183594 379.402344 280.183594 L 363.660156 280.183594 C 363.296875 280.183594 363.003906 280.476562 363.003906 280.839844 L 363.003906 284.152344 L 353.167969 284.152344 L 353.167969 280.839844 C 353.167969 280.476562 352.875 280.183594 352.511719 280.183594 L 336.773438 280.183594 C 336.410156 280.183594 336.117188 280.476562 336.117188 280.839844 L 336.117188 284.152344 L 326.28125 284.152344 L 326.28125 280.839844 C 326.28125 280.476562 325.984375 280.183594 325.625 280.183594 L 309.882812 280.183594 C 309.523438 280.183594 309.226562 280.476562 309.226562 280.839844 L 309.226562 284.152344 L 299.390625 284.152344 L 299.390625 280.839844 C 299.390625 280.476562 299.097656 280.183594 298.734375 280.183594 L 282.996094 280.183594 C 282.632812 280.183594 282.339844 280.476562 282.339844 280.839844 L 282.339844 284.152344 L 272.503906 284.152344 L 272.503906 280.839844 C 272.503906 280.476562 272.210938 280.183594 271.847656 280.183594 L 256.105469 280.183594 C 255.746094 280.183594 255.453125 280.476562 255.453125 280.839844 L 255.453125 284.152344 L 225.285156 284.152344 C 216.589844 284.152344 209.542969 291.207031 209.542969 299.90625 L 209.542969 307.03125 C 209.542969 315.734375 216.589844 322.789062 225.285156 322.789062 L 748.625 322.789062 C 757.316406 322.789062 764.363281 315.734375 764.363281 307.03125 L 764.363281 299.90625 C 764.363281 291.207031 757.316406 284.152344 748.625 284.152344 Z M 748.625 284.152344 "/>
</g>
</svg>
