<?xml version="1.0" encoding="UTF-8"?>
<svg xmlns="http://www.w3.org/2000/svg" xmlns:xlink="http://www.w3.org/1999/xlink" width="605px" height="570px" viewBox="0 0 604 570" version="1.1">
<defs>
<filter id="alpha" filterUnits="objectBoundingBox" x="0%" y="0%" width="100%" height="100%">
  <feColorMatrix type="matrix" in="SourceGraphic" values="0 0 0 0 1 0 0 0 0 1 0 0 0 0 1 0 0 0 1 0"/>
</filter>
<mask id="mask0">
  <g filter="url(#alpha)">
<rect x="0" y="0" width="604" height="570" style="fill:rgb(0%,0%,0%);fill-opacity:0.101961;stroke:none;"/>
  </g>
</mask>
<clipPath id="clip1">
  <rect x="0" y="0" width="604" height="570"/>
</clipPath>
<g id="surface5" clip-path="url(#clip1)">
<path style=" stroke:none;fill-rule:nonzero;fill:rgb(0%,0%,0%);fill-opacity:1;" d="M 438.621094 323.300781 L 438.621094 480.683594 L 464.910156 523.585938 L 466.523438 323.300781 Z M 438.621094 323.300781 "/>
</g>
<mask id="mask1">
  <g filter="url(#alpha)">
<rect x="0" y="0" width="604" height="570" style="fill:rgb(0%,0%,0%);fill-opacity:0.101961;stroke:none;"/>
  </g>
</mask>
<clipPath id="clip2">
  <rect x="0" y="0" width="604" height="570"/>
</clipPath>
<g id="surface8" clip-path="url(#clip2)">
<path style=" stroke:none;fill-rule:nonzero;fill:rgb(0%,0%,0%);fill-opacity:1;" d="M 188.222656 319.101562 L 188.222656 476.484375 L 161.933594 519.390625 L 160.320312 319.101562 Z M 188.222656 319.101562 "/>
</g>
<mask id="mask2">
  <g filter="url(#alpha)">
<rect x="0" y="0" width="604" height="570" style="fill:rgb(0%,0%,0%);fill-opacity:0.101961;stroke:none;"/>
  </g>
</mask>
<clipPath id="clip3">
  <rect x="0" y="0" width="604" height="570"/>
</clipPath>
<g id="surface11" clip-path="url(#clip3)">
<path style=" stroke:none;fill-rule:nonzero;fill:rgb(0%,0%,0%);fill-opacity:1;" d="M 604.160156 315.953125 L 604.160156 325.398438 L 40.496094 325.398438 L 40.496094 311.757812 Z M 604.160156 315.953125 "/>
</g>
<mask id="mask3">
  <g filter="url(#alpha)">
<rect x="0" y="0" width="604" height="570" style="fill:rgb(0%,0%,0%);fill-opacity:0.101961;stroke:none;"/>
  </g>
</mask>
<clipPath id="clip4">
  <rect x="0" y="0" width="604" height="570"/>
</clipPath>
<g id="surface14" clip-path="url(#clip4)">
<path style=" stroke:none;fill-rule:nonzero;fill:rgb(0%,0%,0%);fill-opacity:1;" d="M 464.65625 301.890625 C 454.785156 305.679688 445.984375 305.960938 436.953125 299.679688 C 433.539062 297.152344 429.40625 295.789062 425.160156 295.789062 C 428.550781 293.992188 439.792969 289.5625 459.726562 295.976562 C 461.195312 296.441406 462.507812 297.300781 463.515625 298.464844 C 464.421875 299.359375 464.84375 300.632812 464.65625 301.890625 Z M 464.65625 301.890625 "/>
</g>
<mask id="mask4">
  <g filter="url(#alpha)">
<rect x="0" y="0" width="604" height="570" style="fill:rgb(0%,0%,0%);fill-opacity:0.101961;stroke:none;"/>
  </g>
</mask>
<clipPath id="clip5">
  <rect x="0" y="0" width="604" height="570"/>
</clipPath>
<g id="surface17" clip-path="url(#clip5)">
<path style=" stroke:none;fill-rule:nonzero;fill:rgb(0%,0%,0%);fill-opacity:1;" d="M 408.996094 304.527344 L 408.996094 307.21875 L 264.367188 307.21875 L 264.367188 305.066406 L 264.566406 304.527344 Z M 408.996094 304.527344 "/>
</g>
</defs>
<g id="surface1">
<path style=" stroke:none;fill-rule:nonzero;fill:rgb(90.196078%,90.196078%,90.196078%);fill-opacity:1;" d="M 438.621094 323.300781 L 438.621094 480.683594 L 464.910156 523.585938 L 466.910156 526.847656 L 570.632812 526.847656 L 572.730469 323.300781 Z M 438.621094 323.300781 "/>
<use xlink:href="#surface5" mask="url(#mask0)"/>
<path style=" stroke:none;fill-rule:nonzero;fill:rgb(90.196078%,90.196078%,90.196078%);fill-opacity:1;" d="M 188.222656 319.101562 L 188.222656 476.484375 L 161.933594 519.390625 L 159.933594 522.652344 L 56.210938 522.652344 L 54.117188 319.101562 Z M 188.222656 319.101562 "/>
<use xlink:href="#surface8" mask="url(#mask1)"/>
<path style=" stroke:none;fill-rule:nonzero;fill:rgb(90.196078%,90.196078%,90.196078%);fill-opacity:1;" d="M 604.160156 315.953125 L 604.160156 325.398438 L 40.496094 325.398438 L 40.496094 311.757812 L 92.882812 284.476562 L 558.0625 284.476562 Z M 604.160156 315.953125 "/>
<use xlink:href="#surface11" mask="url(#mask2)"/>
<path style=" stroke:none;fill-rule:nonzero;fill:rgb(24.705882%,23.921569%,33.72549%);fill-opacity:1;" d="M 121.167969 363.167969 L 96.023438 363.167969 L 85.546875 355.824219 L 132.695312 355.824219 Z M 121.167969 363.167969 "/>
<path style=" stroke:none;fill-rule:nonzero;fill:rgb(24.705882%,23.921569%,33.72549%);fill-opacity:1;" d="M 121.167969 393.597656 L 96.023438 393.597656 L 85.546875 386.253906 L 132.695312 386.253906 Z M 121.167969 393.597656 "/>
<path style=" stroke:none;fill-rule:nonzero;fill:rgb(24.705882%,23.921569%,33.72549%);fill-opacity:1;" d="M 121.167969 436.617188 L 96.023438 436.617188 L 85.546875 429.269531 L 132.695312 429.269531 Z M 121.167969 436.617188 "/>
<path style=" stroke:none;fill-rule:nonzero;fill:rgb(24.705882%,23.921569%,33.72549%);fill-opacity:1;" d="M 121.167969 479.632812 L 96.023438 479.632812 L 85.546875 472.289062 L 132.695312 472.289062 Z M 121.167969 479.632812 "/>
<path style=" stroke:none;fill-rule:nonzero;fill:rgb(24.705882%,23.921569%,33.72549%);fill-opacity:1;" d="M 505.675781 367.367188 L 530.820312 367.367188 L 541.296875 360.019531 L 494.152344 360.019531 Z M 505.675781 367.367188 "/>
<path style=" stroke:none;fill-rule:nonzero;fill:rgb(24.705882%,23.921569%,33.72549%);fill-opacity:1;" d="M 505.675781 397.792969 L 530.820312 397.792969 L 541.296875 390.449219 L 494.152344 390.449219 Z M 505.675781 397.792969 "/>
<path style=" stroke:none;fill-rule:nonzero;fill:rgb(24.705882%,23.921569%,33.72549%);fill-opacity:1;" d="M 505.675781 440.8125 L 530.820312 440.8125 L 541.296875 433.46875 L 494.152344 433.46875 Z M 505.675781 440.8125 "/>
<path style=" stroke:none;fill-rule:nonzero;fill:rgb(24.705882%,23.921569%,33.72549%);fill-opacity:1;" d="M 505.675781 483.832031 L 530.820312 483.832031 L 541.296875 476.484375 L 494.152344 476.484375 Z M 505.675781 483.832031 "/>
<path style=" stroke:none;fill-rule:nonzero;fill:rgb(24.705882%,23.921569%,33.72549%);fill-opacity:1;" d="M 522.796875 102.476562 L 311.113281 102.476562 C 306.691406 102.476562 303.109375 106.066406 303.109375 110.496094 L 303.109375 253.300781 C 303.109375 257.726562 306.691406 261.316406 311.113281 261.316406 L 391.472656 261.316406 L 388.460938 280.566406 C 388.460938 280.566406 371.253906 289.71875 383.351562 289.988281 C 395.449219 290.257812 452.441406 289.988281 452.441406 289.988281 C 452.441406 289.988281 463.464844 289.988281 445.988281 280.296875 L 443.15625 261.316406 L 522.796875 261.316406 C 527.21875 261.316406 530.804688 257.726562 530.804688 253.300781 L 530.804688 110.496094 C 530.804688 106.066406 527.21875 102.476562 522.796875 102.476562 Z M 522.796875 102.476562 "/>
<path style=" stroke:none;fill-rule:nonzero;fill:rgb(94.901961%,94.901961%,94.901961%);fill-opacity:1;" d="M 310.769531 110.957031 L 523.144531 110.957031 L 523.144531 229.953125 L 310.769531 229.953125 Z M 310.769531 110.957031 "/>
<path style=" stroke:none;fill-rule:nonzero;fill:rgb(94.901961%,94.901961%,94.901961%);fill-opacity:1;" d="M 418.300781 107.1875 C 418.300781 107.933594 417.699219 108.535156 416.957031 108.535156 C 416.214844 108.535156 415.613281 107.933594 415.613281 107.1875 C 415.613281 106.445312 416.214844 105.84375 416.957031 105.84375 C 417.699219 105.84375 418.300781 106.445312 418.300781 107.1875 Z M 418.300781 107.1875 "/>
<path style=" stroke:none;fill-rule:nonzero;fill:rgb(94.901961%,94.901961%,94.901961%);fill-opacity:1;" d="M 422.0625 250.414062 C 422.0625 253.238281 419.777344 255.527344 416.957031 255.527344 C 414.136719 255.527344 411.847656 253.238281 411.847656 250.414062 C 411.847656 247.589844 414.136719 245.296875 416.957031 245.296875 C 419.777344 245.296875 422.0625 247.589844 422.0625 250.414062 Z M 422.0625 250.414062 "/>
<path style=" stroke:none;fill-rule:nonzero;fill:rgb(24.705882%,23.921569%,33.72549%);fill-opacity:1;" d="M 408.996094 304.527344 L 408.996094 307.21875 L 264.367188 307.21875 L 264.367188 305.066406 L 264.566406 304.527344 L 268.132812 294.835938 L 406.039062 294.835938 Z M 408.996094 304.527344 "/>
<path style=" stroke:none;fill-rule:nonzero;fill:rgb(24.705882%,23.921569%,33.72549%);fill-opacity:1;" d="M 464.65625 301.890625 C 464.390625 303.019531 463.398438 304.207031 461.148438 305.335938 C 453.085938 309.371094 436.6875 304.257812 436.6875 304.257812 C 436.6875 304.257812 424.050781 302.101562 424.050781 296.449219 C 424.40625 296.207031 424.777344 295.984375 425.160156 295.789062 C 428.550781 293.992188 439.792969 289.5625 459.726562 295.976562 C 461.195312 296.441406 462.507812 297.300781 463.515625 298.464844 C 464.421875 299.359375 464.84375 300.632812 464.65625 301.890625 Z M 464.65625 301.890625 "/>
<use xlink:href="#surface14" mask="url(#mask3)"/>
<path style=" stroke:none;fill-rule:nonzero;fill:rgb(94.901961%,94.901961%,94.901961%);fill-opacity:1;" d="M 455.773438 298.605469 C 455.773438 298.007812 454.207031 297.527344 452.277344 297.527344 C 450.347656 297.527344 448.785156 298.007812 448.785156 298.605469 C 448.785156 299.199219 450.347656 299.679688 452.277344 299.679688 C 454.207031 299.679688 455.773438 299.199219 455.773438 298.605469 Z M 455.773438 298.605469 "/>
<use xlink:href="#surface17" mask="url(#mask4)"/>
<path style=" stroke:none;fill-rule:nonzero;fill:rgb(18.431373%,18.039216%,25.490196%);fill-opacity:1;" d="M 80.414062 0 C 78.949219 -0.121094 77.476562 0.207031 76.199219 0.941406 C 74.945312 1.804688 74.15625 3.308594 73.351562 4.710938 C 70.265625 10.136719 66.089844 14.859375 61.089844 18.582031 C 57.445312 21.253906 52.8125 24.589844 53.4375 29.515625 C 53.765625 31.144531 54.363281 32.703125 55.210938 34.132812 C 58.574219 40.925781 67.746094 46.179688 66.84375 53.933594 C 70.183594 48.332031 65.714844 45.566406 69.054688 39.964844 C 70.644531 37.300781 73.40625 34.289062 75.808594 35.964844 C 76.613281 36.527344 77.140625 37.53125 77.976562 38.023438 C 79.976562 39.195312 82.101562 36.953125 83.867188 35.363281 C 89.964844 29.882812 98.636719 31.316406 106.222656 33.027344 C 109.804688 33.832031 113.738281 34.890625 115.855469 38.316406 C 118.640625 42.824219 113.210938 47.695312 111.839844 52.789062 C 111.613281 53.671875 111.828125 54.609375 112.421875 55.296875 C 113.015625 55.988281 113.910156 56.339844 114.816406 56.246094 C 117.089844 56.019531 119.789062 55.835938 119.921875 54.835938 C 122.785156 54.9375 126.296875 54.613281 127.523438 51.625 C 127.898438 50.445312 128.097656 49.214844 128.113281 47.972656 C 128.5625 42.957031 130.6875 38.378906 132.097656 33.605469 C 133.503906 28.828125 134.117188 23.234375 131.742188 19 C 130.890625 17.59375 129.84375 16.316406 128.625 15.210938 C 115.136719 2.136719 97.402344 -0.0195312 80.414062 0 Z M 80.414062 0 "/>
<path style=" stroke:none;fill-rule:nonzero;fill:rgb(100%,72.156863%,72.156863%);fill-opacity:1;" d="M 69.777344 63.726562 C 69.777344 63.726562 72.710938 88.207031 61.953125 90.167969 C 51.195312 92.125 71.730469 125.421875 71.730469 125.421875 L 120.628906 131.296875 L 108.890625 92.125 C 108.890625 92.125 101.070312 89.1875 105.957031 69.601562 C 110.847656 50.015625 69.777344 63.726562 69.777344 63.726562 Z M 69.777344 63.726562 "/>
<path style=" stroke:none;fill-rule:nonzero;fill:rgb(100%,72.156863%,72.156863%);fill-opacity:1;" d="M 39.949219 484.34375 L 43.863281 538.207031 L 64.398438 538.207031 L 58.53125 484.34375 Z M 39.949219 484.34375 "/>
<path style=" stroke:none;fill-rule:nonzero;fill:rgb(100%,72.156863%,72.156863%);fill-opacity:1;" d="M 190.546875 382.496094 L 193.480469 427.542969 L 215.972656 417.75 L 207.171875 380.535156 Z M 190.546875 382.496094 "/>
<path style=" stroke:none;fill-rule:nonzero;fill:rgb(18.431373%,18.039216%,25.490196%);fill-opacity:1;" d="M 25.28125 278.6875 C 25.28125 278.6875 26.261719 335.488281 32.128906 354.09375 C 37.996094 372.703125 37.015625 373.679688 36.039062 376.621094 C 35.0625 379.558594 34.082031 377.597656 34.082031 382.496094 C 34.082031 387.390625 32.128906 464.757812 34.082031 471.613281 C 36.039062 478.46875 28.214844 490.222656 34.082031 491.199219 C 39.949219 492.179688 67.332031 491.199219 68.308594 485.324219 C 69.289062 479.449219 60.488281 477.488281 64.398438 473.574219 C 68.308594 469.65625 74.175781 389.351562 74.175781 389.351562 L 87.867188 333.53125 L 113.292969 304.148438 L 167.078125 304.148438 L 183.703125 368.785156 C 183.703125 368.785156 176.855469 387.390625 181.746094 387.390625 C 186.636719 387.390625 215.972656 393.269531 215.972656 371.722656 C 215.972656 350.179688 206.195312 286.523438 204.238281 284.5625 C 202.28125 282.605469 205.214844 275.75 202.28125 272.8125 C 199.347656 269.875 165.121094 249.308594 152.410156 245.390625 C 139.695312 241.472656 121.863281 236.808594 121.863281 236.808594 Z M 25.28125 278.6875 "/>
<path style=" stroke:none;fill-rule:nonzero;fill:rgb(18.431373%,18.039216%,25.490196%);fill-opacity:1;" d="M 215.972656 409.917969 C 215.972656 409.917969 201.304688 405.019531 194.457031 419.710938 C 187.613281 434.398438 190.546875 438.316406 190.546875 438.316406 C 190.546875 438.316406 213.039062 446.152344 216.949219 442.234375 C 218.652344 440.53125 224.054688 439.9375 229.617188 439.8125 C 238.089844 439.621094 240.34375 427.617188 232.34375 424.824219 C 232.105469 424.742188 231.863281 424.667969 231.617188 424.605469 C 223.796875 422.648438 215.972656 409.917969 215.972656 409.917969 Z M 215.972656 409.917969 "/>
<path style=" stroke:none;fill-rule:nonzero;fill:rgb(100%,72.156863%,72.156863%);fill-opacity:1;" d="M 121.117188 50.503906 C 121.117188 66.730469 107.980469 79.882812 91.78125 79.882812 C 75.578125 79.882812 62.441406 66.730469 62.441406 50.503906 C 62.441406 34.277344 75.578125 21.125 91.78125 21.125 C 107.980469 21.125 121.117188 34.277344 121.117188 50.503906 Z M 121.117188 50.503906 "/>
<path style=" stroke:none;fill-rule:nonzero;fill:rgb(42.352941%,38.823529%,100%);fill-opacity:1;" d="M 53.640625 102.410156 C 53.640625 102.410156 101.558594 112.203125 113.292969 96.53125 C 125.027344 80.863281 129.917969 140.601562 129.917969 140.601562 L 135.785156 203.277344 L 126.984375 237.554688 C 126.984375 237.554688 81.023438 274.769531 66.355469 277.707031 C 51.683594 280.644531 29.195312 282.605469 29.195312 282.605469 C 29.195312 282.605469 36.039062 173.898438 36.039062 171.941406 C 36.039062 169.980469 53.640625 102.410156 53.640625 102.410156 Z M 53.640625 102.410156 "/>
<path style=" stroke:none;fill-rule:nonzero;fill:rgb(18.431373%,18.039216%,25.490196%);fill-opacity:1;" d="M 68.214844 84.042969 C 68.214844 84.042969 57.554688 77.925781 54.621094 83.800781 C 51.683594 89.675781 24.304688 104.367188 21.371094 104.367188 C 18.4375 104.367188 27.238281 185.652344 23.328125 195.445312 C 19.414062 205.238281 0.835938 276.726562 11.589844 282.605469 C 22.347656 288.480469 14.523438 276.726562 25.28125 291.417969 C 36.039062 306.109375 88.84375 306.109375 91.78125 300.230469 C 94.714844 294.355469 68.308594 250.285156 73.199219 209.15625 C 78.089844 168.023438 85.910156 111.222656 79.066406 103.386719 C 72.222656 95.554688 68.214844 84.042969 68.214844 84.042969 Z M 68.214844 84.042969 "/>
<path style=" stroke:none;fill-rule:nonzero;fill:rgb(18.431373%,18.039216%,25.490196%);fill-opacity:1;" d="M 103.515625 90.65625 L 104.875 85.960938 C 104.875 85.960938 145.5625 99.46875 147.519531 108.285156 C 149.476562 117.097656 148.496094 178.796875 141.652344 183.691406 C 134.808594 188.589844 125.027344 196.425781 131.875 208.175781 C 138.71875 219.925781 146.542969 232.660156 152.410156 233.636719 C 158.277344 234.617188 169.035156 241.472656 166.101562 248.328125 C 163.164062 255.183594 127.960938 242.453125 127.960938 242.453125 C 127.960938 242.453125 104.492188 224.824219 105.46875 197.402344 C 106.449219 169.980469 103.515625 90.65625 103.515625 90.65625 Z M 103.515625 90.65625 "/>
<path style=" stroke:none;fill-rule:nonzero;fill:rgb(100%,72.156863%,72.156863%);fill-opacity:1;" d="M 137.742188 206.21875 L 114.269531 250.285156 C 114.269531 250.285156 80.042969 285.542969 99.601562 289.460938 C 119.160156 293.378906 129.917969 257.140625 129.917969 257.140625 L 155.34375 220.90625 Z M 137.742188 206.21875 "/>
<path style=" stroke:none;fill-rule:nonzero;fill:rgb(18.431373%,18.039216%,25.490196%);fill-opacity:1;" d="M 81.84375 7.6875 C 80.664062 7.597656 79.476562 7.828125 78.414062 8.355469 C 77.453125 9.058594 76.660156 9.96875 76.09375 11.015625 C 73.484375 14.945312 70.085938 18.285156 66.113281 20.820312 C 63.144531 22.710938 59.375 25.066406 59.882812 28.550781 C 60.15625 29.71875 60.648438 30.824219 61.328125 31.8125 C 64.074219 36.664062 65.167969 42.277344 64.441406 47.804688 L 72.597656 35.933594 C 73.890625 34.050781 76.140625 31.921875 78.09375 33.105469 C 78.75 33.503906 79.179688 34.214844 79.859375 34.5625 C 81.488281 35.390625 83.214844 33.804688 84.65625 32.683594 C 89.617188 28.808594 96.675781 29.824219 102.851562 31.03125 C 105.769531 31.597656 108.96875 32.347656 110.695312 34.769531 C 113.558594 38.796875 110.566406 44.613281 112.238281 49.265625 C 113.183594 48.605469 113.820312 47.585938 114.003906 46.445312 C 116.335938 46.515625 119.195312 46.289062 120.191406 44.175781 C 120.496094 43.347656 120.65625 42.476562 120.671875 41.59375 C 121.039062 38.050781 122.769531 34.8125 123.914062 31.4375 C 125.0625 28.0625 125.5625 24.109375 123.625 21.117188 C 122.917969 20.101562 122.0625 19.199219 121.089844 18.4375 C 110.109375 9.199219 95.671875 7.671875 81.84375 7.6875 Z M 81.84375 7.6875 "/>
<path style=" stroke:none;fill-rule:nonzero;fill:rgb(18.431373%,18.039216%,25.490196%);fill-opacity:1;" d="M 137.742188 104.367188 L 146.851562 106.789062 C 146.851562 106.789062 168.054688 161.167969 163.164062 198.382812 C 158.277344 235.597656 155.34375 227.761719 155.34375 227.761719 C 155.34375 227.761719 147.519531 210.132812 129.917969 214.050781 Z M 137.742188 104.367188 "/>
<path style=" stroke:none;fill-rule:nonzero;fill:rgb(18.431373%,18.039216%,25.490196%);fill-opacity:1;" d="M 41.304688 531.089844 C 38.949219 534.300781 39.421875 538.886719 37.332031 542.277344 C 35.519531 545.21875 32.109375 546.757812 29.84375 549.363281 C 29.121094 550.230469 28.476562 551.15625 27.917969 552.136719 C 25.816406 555.660156 24.109375 560.175781 26.179688 563.71875 C 27.84375 566.570312 31.34375 567.683594 34.550781 568.445312 C 38.605469 569.402344 42.820312 570.171875 46.921875 569.4375 C 51.023438 568.703125 55.035156 566.1875 56.496094 562.28125 C 56.785156 561.300781 57.125 560.332031 57.519531 559.386719 C 59.746094 555.003906 66.71875 554.957031 68.996094 550.601562 C 70.585938 547.550781 69.125 543.867188 67.660156 540.753906 L 63.191406 531.242188 C 61.707031 528.085938 55.695312 529.902344 52.558594 529.144531 C 48.472656 528.160156 44.246094 527.074219 41.304688 531.089844 Z M 41.304688 531.089844 "/>
<path style=" stroke:none;fill-rule:nonzero;fill:rgb(100%,72.156863%,72.156863%);fill-opacity:1;" d="M 8.65625 225.804688 L 49.730469 289.460938 C 49.730469 289.460938 75.15625 321.777344 82.976562 307.085938 C 90.800781 292.398438 55.597656 267.914062 55.597656 267.914062 L 29.195312 218.949219 Z M 8.65625 225.804688 "/>
<path style=" stroke:none;fill-rule:nonzero;fill:rgb(18.431373%,18.039216%,25.490196%);fill-opacity:1;" d="M 29.195312 106.324219 L 21.371094 104.367188 C 21.371094 104.367188 5.722656 109.265625 1.8125 129.828125 C -2.097656 150.394531 0.835938 232.660156 5.722656 233.636719 C 10.613281 234.617188 29.875 219.316406 32.957031 222.558594 C 36.039062 225.804688 26.261719 209.15625 29.195312 200.339844 C 32.128906 191.527344 29.195312 106.324219 29.195312 106.324219 Z M 29.195312 106.324219 "/>
<path style=" stroke:none;fill-rule:nonzero;fill:rgb(42.352941%,38.823529%,100%);fill-opacity:1;" d="M 371.582031 150.039062 L 396.855469 150.039062 L 396.855469 156.132812 L 371.582031 156.132812 Z M 371.582031 150.039062 "/>
<path style=" stroke:none;fill-rule:nonzero;fill:rgb(42.352941%,38.823529%,100%);fill-opacity:1;" d="M 475.488281 150.039062 L 484.382812 150.039062 L 484.382812 156.132812 L 475.488281 156.132812 Z M 475.488281 150.039062 "/>
<path style=" stroke:none;fill-rule:nonzero;fill:rgb(42.352941%,38.823529%,100%);fill-opacity:1;" d="M 493.273438 150.039062 L 502.167969 150.039062 L 502.167969 156.132812 L 493.273438 156.132812 Z M 493.273438 150.039062 "/>
<path style=" stroke:none;fill-rule:nonzero;fill:rgb(42.352941%,38.823529%,100%);fill-opacity:1;" d="M 405.75 150.039062 L 466.128906 150.039062 L 466.128906 156.132812 L 405.75 156.132812 Z M 405.75 150.039062 "/>
<path style=" stroke:none;fill-rule:nonzero;fill:rgb(42.352941%,38.823529%,100%);fill-opacity:1;" d="M 339.753906 189.414062 L 365.027344 189.414062 L 365.027344 195.507812 L 339.753906 195.507812 Z M 339.753906 189.414062 "/>
<path style=" stroke:none;fill-rule:nonzero;fill:rgb(42.352941%,38.823529%,100%);fill-opacity:1;" d="M 443.660156 189.414062 L 452.554688 189.414062 L 452.554688 195.507812 L 443.660156 195.507812 Z M 443.660156 189.414062 "/>
<path style=" stroke:none;fill-rule:nonzero;fill:rgb(42.352941%,38.823529%,100%);fill-opacity:1;" d="M 461.445312 189.414062 L 470.339844 189.414062 L 470.339844 195.507812 L 461.445312 195.507812 Z M 461.445312 189.414062 "/>
<path style=" stroke:none;fill-rule:nonzero;fill:rgb(42.352941%,38.823529%,100%);fill-opacity:1;" d="M 373.921875 189.414062 L 434.300781 189.414062 L 434.300781 195.507812 L 373.921875 195.507812 Z M 373.921875 189.414062 "/>
<path style=" stroke:none;fill-rule:nonzero;fill:rgb(42.352941%,38.823529%,100%);fill-opacity:1;" d="M 444.128906 163.632812 L 469.402344 163.632812 L 469.402344 169.726562 L 444.128906 169.726562 Z M 444.128906 163.632812 "/>
<path style=" stroke:none;fill-rule:nonzero;fill:rgb(42.352941%,38.823529%,100%);fill-opacity:1;" d="M 478.296875 163.632812 L 503.570312 163.632812 L 503.570312 169.726562 L 478.296875 169.726562 Z M 478.296875 163.632812 "/>
<path style=" stroke:none;fill-rule:nonzero;fill:rgb(42.352941%,38.823529%,100%);fill-opacity:1;" d="M 339.753906 163.632812 L 348.644531 163.632812 L 348.644531 169.726562 L 339.753906 169.726562 Z M 339.753906 163.632812 "/>
<path style=" stroke:none;fill-rule:nonzero;fill:rgb(42.352941%,38.823529%,100%);fill-opacity:1;" d="M 357.539062 163.632812 L 366.433594 163.632812 L 366.433594 169.726562 L 357.539062 169.726562 Z M 357.539062 163.632812 "/>
<path style=" stroke:none;fill-rule:nonzero;fill:rgb(42.352941%,38.823529%,100%);fill-opacity:1;" d="M 375.324219 163.632812 L 435.703125 163.632812 L 435.703125 169.726562 L 375.324219 169.726562 Z M 375.324219 163.632812 "/>
<path style=" stroke:none;fill-rule:nonzero;fill:rgb(42.352941%,38.823529%,100%);fill-opacity:1;" d="M 391.707031 176.757812 L 416.980469 176.757812 L 416.980469 182.851562 L 391.707031 182.851562 Z M 391.707031 176.757812 "/>
<path style=" stroke:none;fill-rule:nonzero;fill:rgb(42.352941%,38.823529%,100%);fill-opacity:1;" d="M 357.539062 176.757812 L 382.8125 176.757812 L 382.8125 182.851562 L 357.539062 182.851562 Z M 357.539062 176.757812 "/>
<path style=" stroke:none;fill-rule:nonzero;fill:rgb(42.352941%,38.823529%,100%);fill-opacity:1;" d="M 339.753906 176.757812 L 348.644531 176.757812 L 348.644531 182.851562 L 339.753906 182.851562 Z M 339.753906 176.757812 "/>
<path style=" stroke:none;fill-rule:nonzero;fill:rgb(42.352941%,38.823529%,100%);fill-opacity:1;" d="M 494.679688 176.757812 L 503.570312 176.757812 L 503.570312 182.851562 L 494.679688 182.851562 Z M 494.679688 176.757812 "/>
<path style=" stroke:none;fill-rule:nonzero;fill:rgb(42.352941%,38.823529%,100%);fill-opacity:1;" d="M 425.40625 176.757812 L 485.785156 176.757812 L 485.785156 182.851562 L 425.40625 182.851562 Z M 425.40625 176.757812 "/>
</g>
</svg>
