<?xml version="1.0" encoding="UTF-8"?>
<svg xmlns="http://www.w3.org/2000/svg" xmlns:xlink="http://www.w3.org/1999/xlink" width="1019px" height="437px" viewBox="0 0 254 109" version="1.1">
<defs>
<filter id="alpha" filterUnits="objectBoundingBox" x="0%" y="0%" width="100%" height="100%">
  <feColorMatrix type="matrix" in="SourceGraphic" values="0 0 0 0 1 0 0 0 0 1 0 0 0 0 1 0 0 0 1 0"/>
</filter>
<mask id="mask0">
  <g filter="url(#alpha)">
<rect x="0" y="0" width="254" height="109" style="fill:rgb(0%,0%,0%);fill-opacity:0.101961;stroke:none;"/>
  </g>
</mask>
<clipPath id="clip1">
  <rect x="0" y="0" width="254" height="109"/>
</clipPath>
<g id="surface5" clip-path="url(#clip1)">
<path style=" stroke:none;fill-rule:nonzero;fill:rgb(0%,0%,0%);fill-opacity:1;" d="M 78.472656 81.300781 L 72.105469 85.492188 L 62.601562 94.066406 L 61.886719 92.871094 L 59.875 82.808594 L 60.378906 82.808594 L 65.574219 73.253906 Z M 78.472656 81.300781 "/>
</g>
</defs>
<g id="surface1">
<path style=" stroke:none;fill-rule:nonzero;fill:rgb(100%,72.54902%,72.54902%);fill-opacity:1;" d="M 55.777344 60.765625 C 55.785156 59.851562 55.28125 59.015625 54.472656 58.59375 C 53.667969 58.167969 52.691406 58.234375 51.949219 58.757812 C 51.203125 59.285156 50.8125 60.179688 50.941406 61.082031 L 43.957031 70.234375 C 43.347656 71.453125 43.527344 72.917969 44.414062 73.953125 L 44.960938 74.59375 L 47.476562 74.089844 L 50.324219 71.574219 L 49.988281 68.726562 L 53.507812 63.191406 L 53.503906 63.1875 C 54.78125 63.105469 55.777344 62.046875 55.777344 60.765625 Z M 55.777344 60.765625 "/>
<path style=" stroke:none;fill-rule:nonzero;fill:rgb(100%,72.156863%,72.156863%);fill-opacity:1;" d="M 7.488281 105.5 L 6.347656 101.265625 L 22.132812 94.847656 L 23.816406 101.101562 Z M 7.488281 105.5 "/>
<path style=" stroke:none;fill-rule:nonzero;fill:rgb(18.431373%,18.039216%,25.490196%);fill-opacity:1;" d="M 3.675781 107.6875 L 0 94.027344 L 0.171875 93.980469 C 3.105469 93.191406 6.125 94.929688 6.917969 97.863281 L 6.917969 97.867188 L 9.160156 106.207031 Z M 3.675781 107.6875 "/>
<path style=" stroke:none;fill-rule:nonzero;fill:rgb(100%,72.156863%,72.156863%);fill-opacity:1;" d="M 29.234375 104.824219 L 25.6875 102.242188 L 33.945312 87.328125 L 39.179688 91.136719 Z M 29.234375 104.824219 "/>
<path style=" stroke:none;fill-rule:nonzero;fill:rgb(18.431373%,18.039216%,25.490196%);fill-opacity:1;" d="M 27.636719 108.921875 L 16.207031 100.601562 L 16.308594 100.457031 C 18.097656 97.996094 21.539062 97.453125 23.996094 99.242188 L 30.980469 104.324219 Z M 27.636719 108.921875 "/>
<path style=" stroke:none;fill-rule:nonzero;fill:rgb(18.431373%,18.039216%,25.490196%);fill-opacity:1;" d="M 59.371094 83.984375 L 50.449219 75.308594 C 48.839844 73.746094 46.324219 73.605469 44.550781 74.980469 L 27.703125 93.707031 L 29.210938 96.054688 L 45.296875 85.15625 L 56.1875 99.410156 L 66.578125 94.210938 Z M 59.371094 83.984375 "/>
<path style=" stroke:none;fill-rule:nonzero;fill:rgb(100%,72.54902%,72.54902%);fill-opacity:1;" d="M 55.519531 85.828125 L 48.984375 85.324219 L 44.25 84.175781 C 43.703125 83.320312 42.683594 82.898438 41.691406 83.113281 C 40.699219 83.324219 39.945312 84.132812 39.800781 85.136719 C 39.652344 86.140625 40.144531 87.132812 41.035156 87.621094 C 41.921875 88.109375 43.019531 87.996094 43.789062 87.332031 L 43.789062 87.335938 L 46.636719 88.511719 L 58.871094 92.703125 L 60.378906 91.527344 Z M 55.519531 85.828125 "/>
<path style=" stroke:none;fill-rule:nonzero;fill:rgb(18.431373%,18.039216%,25.490196%);fill-opacity:1;" d="M 71.269531 103.9375 L 67.582031 106.285156 L 63.226562 106.285156 L 42.953125 98.738281 L 13.292969 104.105469 L 12.457031 97.730469 L 39.601562 85.828125 L 63.394531 93.707031 Z M 71.269531 103.9375 "/>
<path style=" stroke:none;fill-rule:nonzero;fill:rgb(100%,72.54902%,72.54902%);fill-opacity:1;" d="M 69.929688 56.652344 C 69.929688 60.265625 67.003906 63.191406 63.394531 63.191406 C 59.785156 63.191406 56.859375 60.265625 56.859375 56.652344 C 56.859375 53.042969 59.785156 50.113281 63.394531 50.113281 C 67.003906 50.113281 69.929688 53.042969 69.929688 56.652344 Z M 69.929688 56.652344 "/>
<path style=" stroke:none;fill-rule:nonzero;fill:rgb(80%,80%,80%);fill-opacity:1;" d="M 80.304688 82.761719 C 80.300781 86.707031 79.679688 90.628906 78.460938 94.382812 L 77.972656 95.886719 L 75.625 106.617188 L 73.113281 107.289062 L 71.269531 104.941406 L 67.582031 102.257812 L 64.902344 97.898438 L 62.601562 94.066406 L 61.886719 92.871094 L 59.371094 80.292969 L 49.820312 74.929688 L 46.636719 74.425781 L 47.308594 72.582031 L 50.15625 68.726562 L 53.003906 68.390625 L 53.84375 67.71875 L 54.511719 68.054688 L 58.207031 69.480469 L 70.1875 64.414062 L 71.941406 64.703125 L 77.972656 69.730469 C 79.515625 73.902344 80.304688 78.3125 80.304688 82.761719 Z M 80.304688 82.761719 "/>
<use xlink:href="#surface5" mask="url(#mask0)"/>
<path style=" stroke:none;fill-rule:nonzero;fill:rgb(80%,80%,80%);fill-opacity:1;" d="M 65.574219 72.246094 L 60.378906 81.804688 L 57.363281 85.15625 L 54.679688 85.828125 L 61.886719 93.707031 L 72.105469 84.488281 L 78.472656 80.292969 Z M 65.574219 72.246094 "/>
<path style=" stroke:none;fill-rule:nonzero;fill:rgb(18.431373%,18.039216%,25.490196%);fill-opacity:1;" d="M 58.3125 51.792969 L 57.601562 52.0625 C 57.152344 51.757812 57.03125 51.140625 57.339844 50.691406 C 57.34375 50.683594 57.347656 50.679688 57.351562 50.671875 L 56.042969 50.613281 C 57.742188 48.347656 60.328125 46.921875 63.148438 46.695312 C 65.96875 46.464844 68.753906 47.460938 70.792969 49.421875 C 70.851562 49.21875 71.5 49.617188 71.765625 50.023438 C 71.855469 49.6875 72.464844 51.300781 72.679688 52.445312 C 72.777344 52.0625 73.164062 52.675781 72.828125 53.265625 C 73.039062 53.234375 73.136719 53.78125 72.972656 54.082031 C 73.203125 53.972656 73.164062 54.625 72.910156 55.058594 C 73.246094 55.03125 72.882812 61.875 67.898438 61.378906 C 67.550781 59.78125 67.648438 59.878906 67.242188 57.828125 C 67.050781 57.625 66.84375 57.441406 66.632812 57.257812 L 65.507812 56.265625 C 64.203125 55.109375 63.011719 53.683594 61.269531 53.253906 C 60.070312 52.957031 59.3125 52.890625 59.96875 51.539062 C 59.378906 51.785156 58.828125 52.152344 58.230469 52.378906 C 58.238281 52.191406 58.324219 51.980469 58.3125 51.792969 Z M 58.3125 51.792969 "/>
<path style=" stroke:none;fill-rule:nonzero;fill:rgb(100%,72.54902%,72.54902%);fill-opacity:1;" d="M 67.835938 57.40625 C 67.835938 58.054688 67.308594 58.582031 66.660156 58.582031 C 66.015625 58.582031 65.488281 58.054688 65.488281 57.40625 C 65.488281 56.757812 66.015625 56.234375 66.660156 56.234375 C 67.308594 56.234375 67.835938 56.757812 67.835938 57.40625 Z M 67.835938 57.40625 "/>
<path style=" stroke:none;fill-rule:nonzero;fill:rgb(90.196078%,90.196078%,90.196078%);fill-opacity:1;" d="M 11.605469 35.066406 L 11.964844 29.6875 L 17.339844 30.046875 L 16.980469 35.425781 Z M 11.605469 35.066406 "/>
<path style=" stroke:none;fill-rule:nonzero;fill:rgb(80%,80%,80%);fill-opacity:1;" d="M 8.496094 32.542969 L 15.023438 32.976562 L 14.589844 39.507812 L 8.0625 39.074219 Z M 14.71875 33.242188 L 8.761719 32.847656 L 8.363281 38.808594 L 14.324219 39.207031 Z M 14.71875 33.242188 "/>
<path style=" stroke:none;fill-rule:nonzero;fill:rgb(90.196078%,90.196078%,90.196078%);fill-opacity:1;" d="M 37.070312 14.871094 L 42.335938 13.738281 L 43.46875 19.007812 L 38.203125 20.140625 Z M 37.070312 14.871094 "/>
<path style=" stroke:none;fill-rule:nonzero;fill:rgb(80%,80%,80%);fill-opacity:1;" d="M 38.640625 11.1875 L 40.015625 17.585938 L 33.621094 18.960938 L 32.246094 12.5625 Z M 39.675781 17.367188 L 38.421875 11.523438 L 32.582031 12.78125 L 33.839844 18.621094 Z M 39.675781 17.367188 "/>
<path style=" stroke:none;fill-rule:nonzero;fill:rgb(90.196078%,90.196078%,90.196078%);fill-opacity:1;" d="M 32.871094 42.730469 L 36.804688 39.046875 L 40.484375 42.980469 L 36.554688 46.667969 Z M 32.871094 42.730469 "/>
<path style=" stroke:none;fill-rule:nonzero;fill:rgb(80%,80%,80%);fill-opacity:1;" d="M 40.769531 38.496094 L 35.996094 42.96875 L 31.523438 38.195312 L 36.296875 33.71875 Z M 36.007812 42.566406 L 40.367188 38.484375 L 36.285156 34.121094 L 31.925781 38.207031 Z M 36.007812 42.566406 "/>
<path style=" stroke:none;fill-rule:nonzero;fill:rgb(24.705882%,23.921569%,33.72549%);fill-opacity:1;" d="M 240.109375 0 L 80.734375 0 C 78.3125 0 76.347656 1.964844 76.347656 4.390625 L 76.347656 93.25 C 76.347656 95.671875 78.3125 97.636719 80.734375 97.636719 L 240.109375 97.636719 C 242.53125 97.636719 244.496094 95.671875 244.496094 93.25 L 244.496094 4.390625 C 244.496094 1.964844 242.53125 0 240.109375 0 Z M 240.109375 0 "/>
<path style=" stroke:none;fill-rule:nonzero;fill:rgb(100%,100%,100%);fill-opacity:1;" d="M 82.230469 7.757812 L 238.617188 7.757812 L 238.617188 96.035156 L 82.230469 96.035156 Z M 82.230469 7.757812 "/>
<path style=" stroke:none;fill-rule:nonzero;fill:rgb(100%,100%,100%);fill-opacity:1;" d="M 161.894531 3.746094 C 161.894531 4.632812 161.175781 5.351562 160.289062 5.351562 C 159.402344 5.351562 158.683594 4.632812 158.683594 3.746094 C 158.683594 2.859375 159.402344 2.140625 160.289062 2.140625 C 161.175781 2.140625 161.894531 2.859375 161.894531 3.746094 Z M 161.894531 3.746094 "/>
<path style=" stroke:none;fill-rule:nonzero;fill:rgb(94.901961%,94.901961%,94.901961%);fill-opacity:1;" d="M 193.890625 96.035156 L 82.230469 96.035156 L 82.230469 7.757812 Z M 193.890625 96.035156 "/>
<path style=" stroke:none;fill-rule:nonzero;fill:rgb(42.352941%,38.823529%,100%);fill-opacity:1;" d="M 121.730469 74.386719 C 121.730469 82.691406 115 89.425781 106.699219 89.425781 C 98.398438 89.425781 91.667969 82.691406 91.667969 74.386719 C 91.667969 66.078125 98.398438 59.34375 106.699219 59.34375 C 115 59.34375 121.730469 66.078125 121.730469 74.386719 Z M 121.730469 74.386719 "/>
<path style=" stroke:none;fill-rule:nonzero;fill:rgb(24.705882%,23.921569%,33.72549%);fill-opacity:1;" d="M 110.046875 85.691406 C 99.71875 85.691406 91.347656 77.3125 91.347656 66.980469 C 91.347656 56.644531 99.71875 48.269531 110.046875 48.269531 C 120.371094 48.269531 128.746094 56.644531 128.746094 66.980469 C 128.746094 77.3125 120.371094 85.691406 110.046875 85.691406 Z M 110.046875 48.511719 C 99.855469 48.511719 91.589844 56.78125 91.589844 66.980469 C 91.589844 77.179688 99.855469 85.445312 110.046875 85.445312 C 120.238281 85.445312 128.5 77.179688 128.5 66.980469 C 128.5 56.78125 120.238281 48.511719 110.046875 48.511719 Z M 110.046875 48.511719 "/>
<path style=" stroke:none;fill-rule:nonzero;fill:rgb(24.705882%,23.921569%,33.72549%);fill-opacity:1;" d="M 187.804688 53.621094 L 202.414062 53.621094 L 202.414062 56.675781 L 187.804688 56.675781 Z M 187.804688 53.621094 "/>
<path style=" stroke:none;fill-rule:nonzero;fill:rgb(24.705882%,23.921569%,33.72549%);fill-opacity:1;" d="M 173.984375 37.070312 L 216.234375 37.070312 L 216.234375 38.378906 L 173.984375 38.378906 Z M 173.984375 37.070312 "/>
<path style=" stroke:none;fill-rule:nonzero;fill:rgb(24.705882%,23.921569%,33.72549%);fill-opacity:1;" d="M 173.984375 42.214844 L 216.234375 42.214844 L 216.234375 43.523438 L 173.984375 43.523438 Z M 173.984375 42.214844 "/>
<path style=" stroke:none;fill-rule:nonzero;fill:rgb(24.705882%,23.921569%,33.72549%);fill-opacity:1;" d="M 173.984375 47.359375 L 216.234375 47.359375 L 216.234375 48.667969 L 173.984375 48.667969 Z M 173.984375 47.359375 "/>
<path style=" stroke:none;fill-rule:nonzero;fill:rgb(42.352941%,38.823529%,100%);fill-opacity:1;" d="M 221.445312 13.039062 L 227.550781 13.039062 L 227.550781 19.148438 L 221.445312 19.148438 Z M 221.445312 13.039062 "/>
<path style=" stroke:none;fill-rule:nonzero;fill:rgb(80%,80%,80%);fill-opacity:1;" d="M 230.386719 21.984375 L 222.972656 21.984375 L 222.972656 14.566406 L 230.386719 14.566406 Z M 223.296875 21.664062 L 230.0625 21.664062 L 230.0625 14.890625 L 223.296875 14.890625 Z M 223.296875 21.664062 "/>
<path style=" stroke:none;fill-rule:nonzero;fill:rgb(24.705882%,23.921569%,33.72549%);fill-opacity:1;" d="M 248.886719 94.429688 L 233.625 94.429688 L 233.625 93.328125 C 233.625 93.207031 233.527344 93.109375 233.40625 93.109375 L 228.175781 93.109375 C 228.054688 93.109375 227.957031 93.207031 227.957031 93.328125 L 227.957031 94.429688 L 224.6875 94.429688 L 224.6875 93.328125 C 224.6875 93.207031 224.589844 93.109375 224.46875 93.109375 L 219.234375 93.109375 C 219.113281 93.109375 219.015625 93.207031 219.015625 93.328125 L 219.015625 94.429688 L 215.746094 94.429688 L 215.746094 93.328125 C 215.746094 93.207031 215.648438 93.109375 215.527344 93.109375 L 210.296875 93.109375 C 210.175781 93.109375 210.078125 93.207031 210.078125 93.328125 L 210.078125 94.429688 L 206.808594 94.429688 L 206.808594 93.328125 C 206.808594 93.207031 206.710938 93.109375 206.589844 93.109375 L 201.355469 93.109375 C 201.238281 93.109375 201.140625 93.207031 201.140625 93.328125 L 201.140625 94.429688 L 197.867188 94.429688 L 197.867188 93.328125 C 197.867188 93.207031 197.769531 93.109375 197.648438 93.109375 L 192.417969 93.109375 C 192.296875 93.109375 192.199219 93.207031 192.199219 93.328125 L 192.199219 94.429688 L 188.929688 94.429688 L 188.929688 93.328125 C 188.929688 93.207031 188.832031 93.109375 188.710938 93.109375 L 183.476562 93.109375 C 183.359375 93.109375 183.261719 93.207031 183.261719 93.328125 L 183.261719 94.429688 L 179.988281 94.429688 L 179.988281 93.328125 C 179.988281 93.207031 179.890625 93.109375 179.773438 93.109375 L 138.78125 93.109375 C 138.660156 93.109375 138.5625 93.207031 138.5625 93.328125 L 138.5625 94.429688 L 135.292969 94.429688 L 135.292969 93.328125 C 135.292969 93.207031 135.195312 93.109375 135.074219 93.109375 L 129.84375 93.109375 C 129.722656 93.109375 129.625 93.207031 129.625 93.328125 L 129.625 94.429688 L 126.355469 94.429688 L 126.355469 93.328125 C 126.355469 93.207031 126.257812 93.109375 126.136719 93.109375 L 120.902344 93.109375 C 120.78125 93.109375 120.683594 93.207031 120.683594 93.328125 L 120.683594 94.429688 L 117.414062 94.429688 L 117.414062 93.328125 C 117.414062 93.207031 117.316406 93.109375 117.195312 93.109375 L 111.964844 93.109375 C 111.84375 93.109375 111.746094 93.207031 111.746094 93.328125 L 111.746094 94.429688 L 108.476562 94.429688 L 108.476562 93.328125 C 108.476562 93.207031 108.378906 93.109375 108.257812 93.109375 L 103.023438 93.109375 C 102.902344 93.109375 102.804688 93.207031 102.804688 93.328125 L 102.804688 94.429688 L 99.535156 94.429688 L 99.535156 93.328125 C 99.535156 93.207031 99.4375 93.109375 99.316406 93.109375 L 94.085938 93.109375 C 93.964844 93.109375 93.867188 93.207031 93.867188 93.328125 L 93.867188 94.429688 L 90.597656 94.429688 L 90.597656 93.328125 C 90.597656 93.207031 90.5 93.109375 90.378906 93.109375 L 85.144531 93.109375 C 85.023438 93.109375 84.925781 93.207031 84.925781 93.328125 L 84.925781 94.429688 L 74.898438 94.429688 C 72.007812 94.429688 69.664062 96.773438 69.664062 99.664062 L 69.664062 102.03125 C 69.664062 104.925781 72.007812 107.269531 74.898438 107.269531 L 248.886719 107.269531 C 251.777344 107.269531 254.121094 104.925781 254.121094 102.03125 L 254.121094 99.664062 C 254.121094 96.773438 251.777344 94.429688 248.886719 94.429688 Z M 248.886719 94.429688 "/>
</g>
</svg>
