<?xml version="1.0" encoding="UTF-8"?>
<svg xmlns="http://www.w3.org/2000/svg" xmlns:xlink="http://www.w3.org/1999/xlink" width="622px" height="618px" viewBox="0 0 467 464" version="1.1">
<g id="surface1">
<path style=" stroke:none;fill-rule:nonzero;fill:rgb(90.196078%,90.196078%,90.196078%);fill-opacity:1;" d="M 447.058594 240.109375 L 447.058594 458.59375 C 447.054688 461.496094 444.703125 463.847656 441.804688 463.851562 L 24.355469 463.851562 C 22.941406 463.851562 21.589844 463.28125 20.601562 462.265625 L 20.601562 240.109375 Z M 447.058594 240.109375 "/>
<path style=" stroke:none;fill-rule:nonzero;fill:rgb(24.705882%,23.921569%,33.72549%);fill-opacity:1;" d="M 309.285156 17.863281 C 308.867188 17.609375 308.445312 17.359375 308.023438 17.121094 L 264.148438 17.121094 C 263.832031 17.617188 263.53125 18.117188 263.238281 18.621094 L 310.546875 18.621094 C 310.128906 18.367188 309.707031 18.117188 309.285156 17.863281 Z M 19.101562 166.125 L 19.101562 177.3125 C 19.289062 177.328125 19.484375 177.328125 19.671875 177.335938 L 19.296875 198.839844 L 19.101562 198.734375 L 19.101562 200.851562 L 19.257812 200.933594 L 19.101562 209.949219 L 19.101562 241.035156 L 20.601562 241.035156 L 20.601562 161.058594 C 20.183594 162.679688 19.679688 164.367188 19.101562 166.125 Z M 309.285156 17.863281 C 308.867188 17.609375 308.445312 17.359375 308.023438 17.121094 L 264.148438 17.121094 C 263.832031 17.617188 263.53125 18.117188 263.238281 18.621094 L 310.546875 18.621094 C 310.128906 18.367188 309.707031 18.117188 309.285156 17.863281 Z M 441.804688 17.121094 L 24.355469 17.121094 C 21.453125 17.125 19.105469 19.472656 19.101562 22.375 L 19.101562 458.59375 C 19.105469 461.496094 21.457031 463.84375 24.355469 463.851562 L 441.804688 463.851562 C 444.703125 463.847656 447.054688 461.496094 447.058594 458.59375 L 447.058594 22.375 C 447.054688 19.472656 444.703125 17.125 441.804688 17.121094 Z M 445.558594 458.59375 C 445.554688 460.667969 443.875 462.347656 441.804688 462.351562 L 24.355469 462.351562 C 22.28125 462.347656 20.601562 460.667969 20.601562 458.59375 L 20.601562 22.375 C 20.605469 20.304688 22.285156 18.625 24.355469 18.621094 L 441.804688 18.621094 C 443.875 18.625 445.554688 20.304688 445.558594 22.375 Z M 445.558594 458.59375 "/>
<path style=" stroke:none;fill-rule:nonzero;fill:rgb(100%,39.607843%,51.764706%);fill-opacity:1;" d="M 354.574219 25.316406 C 354.582031 31.628906 352.203125 37.710938 347.910156 42.339844 C 347.578125 42.691406 347.234375 43.035156 346.886719 43.367188 C 333.945312 33.398438 320.367188 24.28125 306.238281 16.074219 C 306.410156 15.632812 306.597656 15.1875 306.800781 14.761719 C 309.214844 9.546875 313.355469 5.324219 318.523438 2.808594 L 318.53125 2.808594 C 330.089844 6.269531 341.429688 10.4375 352.480469 15.285156 C 353.863281 18.449219 354.578125 21.863281 354.574219 25.316406 Z M 354.574219 25.316406 "/>
<path style=" stroke:none;fill-rule:nonzero;fill:rgb(90.196078%,90.196078%,90.196078%);fill-opacity:1;" d="M 374.898438 76.304688 L 374.875 76.566406 C 358.394531 75.429688 341.917969 74.292969 325.445312 73.15625 C 313.539062 72.335938 301.222656 71.402344 290.707031 65.769531 C 286.714844 63.632812 282.824219 60.78125 278.296875 60.582031 C 272.679688 60.332031 267.777344 64.261719 263.925781 68.359375 C 241.148438 92.621094 234.554688 129.714844 209 151.023438 C 225.117188 111.28125 244.359375 72.878906 266.542969 36.175781 C 270.640625 29.394531 275.503906 22.152344 283.109375 19.941406 C 290.367188 17.828125 297.796875 20.914062 304.476562 24.871094 C 305.910156 25.722656 307.308594 26.613281 308.65625 27.496094 C 318.953125 34.238281 329.082031 41.234375 339.042969 48.492188 C 351.269531 57.394531 363.222656 66.664062 374.898438 76.304688 Z M 374.898438 76.304688 "/>
<path style=" stroke:none;fill-rule:nonzero;fill:rgb(90.196078%,90.196078%,90.196078%);fill-opacity:1;" d="M 428.191406 127.757812 C 410.578125 102.898438 390.113281 80.183594 367.21875 60.082031 C 360.636719 54.296875 353.859375 48.722656 346.886719 43.363281 C 333.941406 33.398438 320.359375 24.28125 306.234375 16.070312 C 301.601562 13.382812 296.914062 10.800781 292.171875 8.324219 C 288.488281 6.410156 284.566406 4.65625 280.316406 4.929688 C 277.34375 5.183594 274.503906 6.277344 272.125 8.078125 C 266.90625 11.890625 263.449219 17.847656 260.601562 23.523438 C 258.109375 28.5 255.789062 33.574219 253.417969 38.621094 C 252.410156 40.769531 251.40625 42.910156 250.363281 45.042969 C 246.730469 52.503906 243.011719 59.925781 239.210938 67.304688 C 234.308594 76.816406 229.265625 86.253906 224.082031 95.625 C 213.191406 115.316406 201.699219 134.652344 189.605469 153.632812 C 171.828125 181.53125 152.8125 208.585938 132.550781 234.792969 C 130.066406 238 129.042969 238.742188 126.523438 241.925781 C 125.941406 242.671875 124.902344 241.625 125.480469 240.886719 C 146.5 214.320312 164.796875 189.222656 183.25 160.804688 C 197.160156 139.378906 210.308594 117.476562 222.691406 95.097656 C 226.667969 87.921875 230.558594 80.699219 234.367188 73.433594 C 240.53125 61.671875 246.480469 49.796875 252.21875 37.8125 C 253.734375 34.65625 255.230469 31.492188 256.714844 28.3125 C 261.421875 18.226562 268.277344 3.226562 281.519531 3.429688 C 285.414062 3.488281 289.03125 5.0625 292.441406 6.808594 C 295.914062 8.597656 299.328125 10.496094 302.730469 12.421875 C 304.09375 13.191406 305.449219 13.96875 306.800781 14.761719 C 312.148438 17.871094 317.417969 21.109375 322.609375 24.476562 C 331.269531 30.09375 339.703125 36.046875 347.90625 42.335938 C 351.800781 45.320312 355.636719 48.375 359.414062 51.496094 C 383.117188 71.105469 404.429688 93.441406 422.910156 118.03125 C 425.140625 120.996094 427.324219 123.992188 429.460938 127.019531 C 430.007812 127.792969 428.730469 128.527344 428.191406 127.757812 Z M 428.191406 127.757812 "/>
<path style=" stroke:none;fill-rule:nonzero;fill:rgb(90.196078%,90.196078%,90.196078%);fill-opacity:1;" d="M 388.835938 34.363281 C 381.875 38.328125 376.183594 44.183594 370.839844 50.101562 C 370.066406 50.957031 369.296875 51.816406 368.53125 52.675781 C 367.894531 53.382812 366.867188 52.339844 367.488281 51.625 C 373.472656 44.9375 379.621094 38.097656 387.421875 33.492188 C 387.894531 33.777344 388.371094 34.070312 388.835938 34.363281 Z M 388.835938 34.363281 "/>
<path style=" stroke:none;fill-rule:nonzero;fill:rgb(90.196078%,90.196078%,90.196078%);fill-opacity:1;" d="M 199.816406 122.664062 L 180.085938 115.445312 L 170.289062 111.863281 C 167.125 110.589844 163.894531 109.476562 160.617188 108.53125 C 157.75 107.714844 154.707031 107.75 151.863281 108.644531 C 149.328125 109.582031 147.003906 111.023438 145.035156 112.875 C 143.023438 114.730469 141.152344 116.726562 139.4375 118.855469 C 137.304688 121.421875 135.203125 124.011719 133.089844 126.589844 C 124.378906 137.246094 115.722656 147.945312 107.125 158.691406 C 98.527344 169.4375 89.988281 180.230469 81.507812 191.070312 C 73.003906 201.933594 64.558594 212.84375 56.171875 223.796875 C 55.144531 225.140625 54.117188 226.484375 53.09375 227.824219 C 52.527344 228.566406 51.25 227.835938 51.824219 227.082031 C 60.269531 216.019531 68.777344 205 77.34375 194.023438 C 85.929688 183.023438 94.578125 172.070312 103.285156 161.160156 C 111.988281 150.253906 120.753906 139.394531 129.578125 128.582031 C 131.773438 125.886719 133.976562 123.195312 136.183594 120.507812 C 138.042969 118.242188 139.882812 115.949219 141.921875 113.839844 C 145.667969 109.964844 150.347656 106.542969 155.949219 106.449219 C 159.242188 106.394531 162.429688 107.441406 165.488281 108.546875 C 168.785156 109.742188 172.078125 110.957031 175.371094 112.160156 L 195.242188 119.429688 L 200.207031 121.246094 C 201.089844 121.566406 200.707031 122.988281 199.816406 122.664062 Z M 199.816406 122.664062 "/>
<path style=" stroke:none;fill-rule:nonzero;fill:rgb(90.196078%,90.196078%,90.196078%);fill-opacity:1;" d="M 407.972656 47.203125 C 396.710938 49.621094 385.554688 52.464844 374.503906 55.738281 C 381.605469 51.582031 387.160156 45.054688 394.480469 41.292969 C 395.472656 40.785156 396.496094 40.335938 397.542969 39.949219 C 401.074219 42.285156 404.550781 44.703125 407.972656 47.203125 Z M 407.972656 47.203125 "/>
<path style=" stroke:none;fill-rule:nonzero;fill:rgb(90.196078%,90.196078%,90.196078%);fill-opacity:1;" d="M 145.777344 122.734375 C 147.722656 120.371094 149.820312 117.894531 152.726562 116.933594 L 155.4375 117.042969 C 134.792969 153.527344 106.90625 185.40625 73.496094 210.722656 C 97.589844 181.394531 121.683594 152.0625 145.777344 122.734375 Z M 145.777344 122.734375 "/>
<path style=" stroke:none;fill-rule:nonzero;fill:rgb(24.705882%,23.921569%,33.72549%);fill-opacity:1;" d="M 403.929688 159.953125 C 403.929688 160.609375 403.949219 161.261719 403.992188 161.90625 C 404.230469 165.625 405.171875 169.269531 406.761719 172.640625 C 406.777344 172.667969 406.789062 172.695312 406.800781 172.722656 C 406.875 172.878906 406.953125 173.035156 407.03125 173.1875 C 407.503906 174.140625 408.03125 175.070312 408.605469 175.964844 C 413.933594 184.320312 423.078125 189.464844 432.988281 189.6875 L 432.691406 206.597656 L 428.855469 204.578125 L 428.171875 205.882812 L 432.664062 208.246094 L 432.113281 239.660156 L 432.109375 240.078125 L 435.074219 240.738281 L 435.066406 240.316406 L 434.132812 189.6875 C 442.066406 189.574219 449.621094 186.289062 455.109375 180.5625 C 455.296875 180.367188 455.484375 180.167969 455.664062 179.972656 L 455.683594 179.949219 C 457.949219 177.480469 459.78125 174.644531 461.101562 171.566406 C 461.074219 171.597656 461.042969 171.628906 461.011719 171.664062 C 473.269531 140.867188 466.136719 126.589844 446.910156 133.332031 C 446.808594 133.28125 446.703125 133.230469 446.597656 133.179688 C 432.65625 126.464844 415.890625 131.554688 408.03125 144.886719 C 407.851562 145.191406 407.675781 145.503906 407.507812 145.816406 C 405.152344 150.15625 403.925781 155.015625 403.929688 159.953125 Z M 403.929688 159.953125 "/>
<path style=" stroke:none;fill-rule:nonzero;fill:rgb(90.196078%,90.196078%,90.196078%);fill-opacity:1;" d="M 154.734375 12.597656 L 154.703125 12.960938 C 144.589844 12.261719 134.480469 11.5625 124.371094 10.863281 C 130.835938 8.320312 137.375 6 144.050781 3.902344 C 147.632812 6.773438 151.191406 9.671875 154.734375 12.597656 Z M 154.734375 12.597656 "/>
<path style=" stroke:none;fill-rule:nonzero;fill:rgb(90.196078%,90.196078%,90.196078%);fill-opacity:1;" d="M 228.824219 82.265625 C 228.648438 82.589844 228.320312 82.796875 227.953125 82.824219 C 227.585938 82.847656 227.230469 82.683594 227.015625 82.386719 C 206.011719 52.734375 182.011719 25.328125 155.386719 0.601562 C 156.144531 0.390625 156.910156 0.1875 157.671875 0 C 180.382812 21.203125 201.1875 44.355469 219.851562 69.195312 C 222.878906 73.210938 225.839844 77.273438 228.734375 81.378906 C 228.9375 81.632812 228.972656 81.980469 228.824219 82.265625 Z M 228.824219 82.265625 "/>
<path style=" stroke:none;fill-rule:nonzero;fill:rgb(90.196078%,90.196078%,90.196078%);fill-opacity:1;" d="M 405.953125 350.953125 C 405.953125 352.429688 404.234375 353.625 402.109375 353.625 C 399.976562 353.625 398.257812 352.429688 398.257812 350.953125 C 398.257812 349.472656 399.976562 348.273438 402.109375 348.273438 C 404.234375 348.273438 405.953125 349.472656 405.953125 350.953125 Z M 405.953125 350.953125 "/>
<path style=" stroke:none;fill-rule:nonzero;fill:rgb(80%,80%,80%);fill-opacity:1;" d="M 304.714844 378.390625 C 304.707031 378.46875 304.695312 378.546875 304.6875 378.625 C 297.285156 381.875 287.160156 383.875 275.988281 383.875 C 263.78125 383.875 252.820312 381.488281 245.300781 377.695312 C 240.765625 375.410156 237.484375 372.609375 235.941406 369.519531 C 235.296875 368.273438 234.957031 366.890625 234.949219 365.488281 C 234.949219 365.128906 234.96875 364.773438 235.015625 364.421875 C 235.101562 363.757812 235.261719 363.109375 235.496094 362.484375 C 236.183594 360.742188 237.246094 359.171875 238.605469 357.886719 C 238.914062 357.589844 239.238281 357.289062 239.578125 357 C 242.695312 354.488281 246.226562 352.542969 250.015625 351.253906 C 244.320312 354.097656 240.574219 357.75 239.726562 361.773438 C 239.710938 361.84375 239.699219 361.917969 239.6875 361.984375 C 239.589844 362.492188 239.542969 363.003906 239.542969 363.515625 C 239.542969 363.566406 239.542969 363.621094 239.546875 363.671875 C 239.546875 363.671875 239.550781 363.675781 239.546875 363.675781 C 239.605469 366.886719 241.503906 369.902344 244.792969 372.519531 C 251.824219 378.121094 265.21875 381.90625 280.585938 381.90625 C 288.761719 381.984375 296.902344 380.800781 304.714844 378.390625 Z M 304.714844 378.390625 "/>
<path style=" stroke:none;fill-rule:nonzero;fill:rgb(80%,80%,80%);fill-opacity:1;" d="M 225.128906 331.839844 C 225.121094 331.917969 225.113281 331.996094 225.101562 332.074219 C 217.699219 335.324219 207.578125 337.324219 196.402344 337.324219 C 184.195312 337.324219 173.234375 334.9375 165.71875 331.144531 C 161.179688 328.859375 157.898438 326.058594 156.355469 322.96875 C 155.710938 321.722656 155.371094 320.339844 155.363281 318.9375 C 155.363281 318.582031 155.386719 318.222656 155.429688 317.871094 C 155.515625 317.207031 155.675781 316.558594 155.910156 315.933594 C 156.597656 314.191406 157.660156 312.621094 159.023438 311.335938 C 159.328125 311.039062 159.652344 310.738281 159.992188 310.449219 C 163.109375 307.9375 166.640625 305.992188 170.429688 304.703125 C 164.734375 307.550781 160.988281 311.199219 160.140625 315.222656 C 160.125 315.296875 160.113281 315.367188 160.101562 315.4375 C 160.007812 315.941406 159.957031 316.453125 159.957031 316.964844 C 159.957031 317.015625 159.957031 317.070312 159.960938 317.121094 C 159.960938 317.121094 159.964844 317.125 159.960938 317.125 C 160.019531 320.335938 161.917969 323.351562 165.207031 325.96875 C 172.238281 331.570312 185.632812 335.355469 201 335.355469 C 209.175781 335.4375 217.316406 334.25 225.128906 331.839844 Z M 225.128906 331.839844 "/>
<path style=" stroke:none;fill-rule:nonzero;fill:rgb(80%,80%,80%);fill-opacity:1;" d="M 220.945312 343.8125 C 220.9375 343.910156 220.921875 344 220.910156 344.097656 C 211.882812 348.058594 199.535156 350.503906 185.902344 350.503906 C 171.011719 350.503906 157.640625 347.589844 148.472656 342.964844 C 142.9375 340.175781 138.933594 336.761719 137.054688 332.992188 C 136.269531 331.46875 135.851562 329.785156 135.84375 328.070312 C 135.839844 327.636719 135.871094 327.203125 135.925781 326.769531 C 136.03125 325.964844 136.226562 325.171875 136.511719 324.40625 C 137.347656 322.28125 138.644531 320.367188 140.304688 318.800781 C 140.679688 318.4375 141.074219 318.074219 141.488281 317.71875 C 144.640625 315.011719 148.992188 312.628906 154.222656 310.710938 C 147.273438 314.179688 142.703125 318.636719 141.671875 323.542969 C 141.648438 323.628906 141.636719 323.71875 141.625 323.800781 C 141.503906 324.417969 141.445312 325.042969 141.449219 325.667969 C 141.449219 325.730469 141.449219 325.796875 141.453125 325.859375 C 141.453125 325.859375 141.457031 325.863281 141.453125 325.863281 C 141.523438 329.78125 143.835938 333.457031 147.847656 336.652344 C 156.429688 343.484375 172.765625 348.101562 191.511719 348.101562 C 202.511719 348.101562 212.683594 346.503906 220.945312 343.8125 Z M 220.945312 343.8125 "/>
<path style=" stroke:none;fill-rule:nonzero;fill:rgb(80%,80%,80%);fill-opacity:1;" d="M 312.652344 392.425781 C 312.640625 392.542969 312.625 392.652344 312.609375 392.769531 C 301.773438 397.527344 286.949219 400.457031 270.585938 400.457031 C 252.714844 400.457031 236.660156 396.960938 225.65625 391.410156 C 219.011719 388.058594 214.207031 383.960938 211.949219 379.4375 C 211.007812 377.613281 210.507812 375.585938 210.496094 373.53125 C 210.492188 373.007812 210.527344 372.488281 210.59375 371.972656 C 210.71875 371 210.953125 370.050781 211.296875 369.132812 C 212.300781 366.582031 213.855469 364.285156 215.851562 362.40625 C 216.300781 361.96875 216.773438 361.53125 217.269531 361.101562 C 221.058594 357.855469 226.277344 354.996094 232.558594 352.691406 C 224.214844 356.855469 218.730469 362.203125 217.492188 368.09375 C 217.464844 368.199219 217.449219 368.304688 217.433594 368.40625 C 217.292969 369.144531 217.222656 369.894531 217.222656 370.648438 C 217.222656 370.722656 217.222656 370.800781 217.230469 370.875 C 217.230469 370.875 217.234375 370.878906 217.230469 370.878906 C 217.3125 375.582031 220.09375 379.996094 224.90625 383.832031 C 235.207031 392.03125 254.816406 397.574219 277.320312 397.574219 C 290.523438 397.574219 302.730469 395.660156 312.652344 392.425781 Z M 312.652344 392.425781 "/>
<path style=" stroke:none;fill-rule:nonzero;fill:rgb(80%,80%,80%);fill-opacity:1;" d="M 131.277344 373.886719 C 131.273438 373.964844 131.261719 374.039062 131.25 374.121094 C 123.847656 377.367188 113.726562 379.371094 102.550781 379.371094 C 90.34375 379.371094 79.382812 376.984375 71.867188 373.191406 C 67.328125 370.902344 64.046875 368.105469 62.507812 365.015625 C 61.863281 363.769531 61.523438 362.386719 61.511719 360.980469 C 61.511719 360.625 61.535156 360.269531 61.582031 359.914062 C 61.667969 359.253906 61.828125 358.605469 62.058594 357.976562 C 62.746094 356.234375 63.808594 354.667969 65.171875 353.382812 C 65.476562 353.082031 65.800781 352.785156 66.140625 352.492188 C 69.257812 349.984375 72.792969 348.039062 76.582031 346.75 C 70.882812 349.59375 67.136719 353.246094 66.292969 357.269531 C 66.273438 357.339844 66.261719 357.414062 66.253906 357.480469 C 66.15625 357.984375 66.105469 358.5 66.109375 359.011719 C 66.109375 359.0625 66.109375 359.117188 66.113281 359.167969 C 66.113281 359.167969 66.117188 359.171875 66.113281 359.171875 C 66.167969 362.382812 68.066406 365.398438 71.355469 368.015625 C 78.390625 373.617188 91.78125 377.402344 107.148438 377.402344 C 115.324219 377.480469 123.464844 376.296875 131.277344 373.886719 Z M 131.277344 373.886719 "/>
<path style=" stroke:none;fill-rule:nonzero;fill:rgb(80%,80%,80%);fill-opacity:1;" d="M 139.214844 387.921875 C 139.203125 388.039062 139.1875 388.148438 139.171875 388.265625 C 128.335938 393.019531 113.511719 395.953125 97.148438 395.953125 C 79.277344 395.953125 63.226562 392.457031 52.21875 386.902344 C 45.574219 383.554688 40.769531 379.457031 38.515625 374.933594 C 37.570312 373.105469 37.070312 371.082031 37.058594 369.027344 C 37.058594 368.503906 37.089844 367.984375 37.160156 367.464844 C 37.285156 366.496094 37.519531 365.542969 37.859375 364.628906 C 38.867188 362.078125 40.421875 359.78125 42.417969 357.898438 C 42.863281 357.460938 43.339844 357.023438 43.835938 356.597656 C 47.621094 353.347656 52.84375 350.492188 59.121094 348.1875 C 50.78125 352.351562 45.296875 357.699219 44.054688 363.589844 C 44.03125 363.695312 44.015625 363.800781 44 363.902344 C 43.855469 364.640625 43.785156 365.390625 43.789062 366.140625 C 43.789062 366.214844 43.789062 366.296875 43.792969 366.367188 C 43.792969 366.367188 43.796875 366.375 43.792969 366.375 C 43.878906 371.078125 46.65625 375.492188 51.472656 379.324219 C 61.769531 387.527344 81.382812 393.070312 103.882812 393.070312 C 117.089844 393.070312 129.296875 391.152344 139.214844 387.921875 Z M 139.214844 387.921875 "/>
<path style=" stroke:none;fill-rule:nonzero;fill:rgb(80%,80%,80%);fill-opacity:1;" d="M 382.480469 313.683594 C 381.507812 314.164062 380.507812 314.597656 379.484375 314.972656 C 379 315.160156 378.503906 315.332031 377.984375 315.5 C 372.46875 317.210938 366.722656 318.050781 360.949219 317.992188 C 344.980469 317.992188 332.035156 312.195312 332.035156 305.039062 C 332.035156 300.992188 336.171875 297.390625 342.652344 295.007812 C 338.066406 297.308594 335.273438 300.332031 335.273438 303.652344 C 335.273438 310.804688 348.222656 316.601562 364.183594 316.601562 C 368.832031 316.660156 373.472656 316.125 377.984375 315.011719 C 378.488281 314.882812 378.992188 314.75 379.484375 314.613281 C 380.492188 314.328125 381.492188 314.019531 382.480469 313.683594 Z M 382.480469 313.683594 "/>
<path style=" stroke:none;fill-rule:nonzero;fill:rgb(80%,80%,80%);fill-opacity:1;" d="M 385.191406 325.890625 C 383.394531 327.304688 381.488281 328.574219 379.484375 329.683594 C 379 329.953125 378.496094 330.222656 377.984375 330.492188 C 372.328125 333.359375 366.316406 335.460938 360.109375 336.746094 C 340.667969 340.914062 323.410156 337.226562 321.539062 328.527344 C 320.488281 323.601562 324.582031 318.125 331.847656 313.546875 C 326.863281 317.535156 324.257812 321.949219 325.121094 325.988281 C 326.984375 334.695312 344.25 338.382812 363.6875 334.214844 C 368.609375 333.230469 373.40625 331.691406 377.984375 329.636719 C 378.488281 329.417969 378.992188 329.195312 379.484375 328.953125 C 381.429688 328.023438 383.339844 327 385.191406 325.890625 Z M 385.191406 325.890625 "/>
<path style=" stroke:none;fill-rule:nonzero;fill:rgb(100%,100%,100%);fill-opacity:1;" d="M 181.800781 381.710938 C 181.800781 380.234375 180.074219 379.035156 177.949219 379.035156 C 175.820312 379.035156 174.097656 380.234375 174.097656 381.710938 C 174.097656 383.191406 175.820312 384.390625 177.949219 384.390625 C 180.074219 384.390625 181.800781 383.191406 181.800781 381.710938 Z M 181.800781 381.710938 "/>
<path style=" stroke:none;fill-rule:nonzero;fill:rgb(24.705882%,23.921569%,33.72549%);fill-opacity:1;" d="M 206.242188 387.738281 C 206.242188 386.261719 204.515625 385.0625 202.390625 385.0625 C 200.265625 385.0625 198.539062 386.261719 198.539062 387.738281 C 198.539062 389.21875 200.265625 390.417969 202.390625 390.417969 C 204.515625 390.417969 206.242188 389.21875 206.242188 387.738281 Z M 206.242188 387.738281 "/>
<path style=" stroke:none;fill-rule:nonzero;fill:rgb(100%,39.607843%,51.764706%);fill-opacity:1;" d="M 172.089844 400.796875 C 172.089844 399.316406 170.363281 398.117188 168.238281 398.117188 C 166.113281 398.117188 164.386719 399.316406 164.386719 400.796875 C 164.386719 402.277344 166.113281 403.476562 168.238281 403.476562 C 170.363281 403.476562 172.089844 402.277344 172.089844 400.796875 Z M 172.089844 400.796875 "/>
<path style=" stroke:none;fill-rule:nonzero;fill:rgb(100%,100%,100%);fill-opacity:1;" d="M 267.390625 298.371094 C 267.390625 296.894531 265.667969 295.695312 263.539062 295.695312 C 261.414062 295.695312 259.691406 296.894531 259.691406 298.371094 C 259.691406 299.851562 261.414062 301.050781 263.539062 301.050781 C 265.667969 301.050781 267.390625 299.851562 267.390625 298.371094 Z M 267.390625 298.371094 "/>
<path style=" stroke:none;fill-rule:nonzero;fill:rgb(24.705882%,23.921569%,33.72549%);fill-opacity:1;" d="M 291.832031 304.398438 C 291.832031 302.921875 290.109375 301.722656 287.980469 301.722656 C 285.855469 301.722656 284.132812 302.921875 284.132812 304.398438 C 284.132812 305.878906 285.855469 307.078125 287.980469 307.078125 C 290.109375 307.078125 291.832031 305.878906 291.832031 304.398438 Z M 291.832031 304.398438 "/>
<path style=" stroke:none;fill-rule:nonzero;fill:rgb(100%,39.607843%,51.764706%);fill-opacity:1;" d="M 257.679688 317.457031 C 257.679688 315.976562 255.957031 314.777344 253.832031 314.777344 C 251.703125 314.777344 249.980469 315.976562 249.980469 317.457031 C 249.980469 318.9375 251.703125 320.136719 253.832031 320.136719 C 255.957031 320.136719 257.679688 318.9375 257.679688 317.457031 Z M 257.679688 317.457031 "/>
<path style=" stroke:none;fill-rule:nonzero;fill:rgb(100%,100%,100%);fill-opacity:1;" d="M 381.511719 344.921875 C 381.511719 345.945312 380.695312 346.832031 379.484375 347.28125 C 379.003906 347.464844 378.5 347.566406 377.984375 347.589844 C 377.878906 347.601562 377.769531 347.605469 377.660156 347.605469 C 375.539062 347.605469 373.808594 346.402344 373.808594 344.921875 C 373.808594 343.445312 375.539062 342.242188 377.660156 342.242188 C 377.769531 342.238281 377.878906 342.246094 377.984375 342.257812 C 378.5 342.277344 379.003906 342.382812 379.484375 342.566406 C 380.695312 343.015625 381.511719 343.902344 381.511719 344.921875 Z M 381.511719 344.921875 "/>
<path style=" stroke:none;fill-rule:nonzero;fill:rgb(24.705882%,23.921569%,33.72549%);fill-opacity:1;" d="M 405.953125 350.953125 C 405.953125 352.429688 404.234375 353.625 402.109375 353.625 C 399.976562 353.625 398.257812 352.429688 398.257812 350.953125 C 398.257812 349.472656 399.976562 348.273438 402.109375 348.273438 C 404.234375 348.273438 405.953125 349.472656 405.953125 350.953125 Z M 405.953125 350.953125 "/>
<path style=" stroke:none;fill-rule:nonzero;fill:rgb(100%,39.607843%,51.764706%);fill-opacity:1;" d="M 371.804688 364.007812 C 371.804688 362.527344 370.078125 361.328125 367.953125 361.328125 C 365.824219 361.328125 364.101562 362.527344 364.101562 364.007812 C 364.101562 365.488281 365.824219 366.6875 367.953125 366.6875 C 370.078125 366.6875 371.804688 365.488281 371.804688 364.007812 Z M 371.804688 364.007812 "/>
<path style=" stroke:none;fill-rule:nonzero;fill:rgb(100%,100%,100%);fill-opacity:1;" d="M 78.9375 302.125 C 78.9375 300.648438 77.214844 299.449219 75.089844 299.449219 C 72.960938 299.449219 71.238281 300.648438 71.238281 302.125 C 71.238281 303.605469 72.960938 304.804688 75.089844 304.804688 C 77.214844 304.804688 78.9375 303.605469 78.9375 302.125 Z M 78.9375 302.125 "/>
<path style=" stroke:none;fill-rule:nonzero;fill:rgb(24.705882%,23.921569%,33.72549%);fill-opacity:1;" d="M 103.382812 308.152344 C 103.382812 306.675781 101.65625 305.476562 99.53125 305.476562 C 97.402344 305.476562 95.679688 306.675781 95.679688 308.152344 C 95.679688 309.632812 97.402344 310.832031 99.53125 310.832031 C 101.65625 310.832031 103.382812 309.632812 103.382812 308.152344 Z M 103.382812 308.152344 "/>
<path style=" stroke:none;fill-rule:nonzero;fill:rgb(100%,39.607843%,51.764706%);fill-opacity:1;" d="M 69.230469 321.210938 C 69.230469 319.734375 67.503906 318.535156 65.378906 318.535156 C 63.25 318.535156 61.527344 319.734375 61.527344 321.210938 C 61.527344 322.691406 63.25 323.890625 65.378906 323.890625 C 67.503906 323.890625 69.230469 322.691406 69.230469 321.210938 Z M 69.230469 321.210938 "/>
<path style=" stroke:none;fill-rule:nonzero;fill:rgb(42.352941%,38.823529%,100%);fill-opacity:1;" d="M 150.40625 359.625 C 141.777344 359.09375 133.144531 358.664062 124.507812 358.28125 C 118.6875 358.023438 112.863281 357.808594 107.050781 357.417969 C 105.011719 357.277344 102.96875 357.113281 100.941406 356.855469 C 100.410156 356.777344 99.875 356.691406 99.347656 356.582031 C 99.421875 356.488281 99.5 356.390625 99.578125 356.292969 C 99.996094 355.789062 100.425781 355.292969 100.859375 354.804688 C 103.164062 352.214844 105.601562 349.742188 108.003906 347.246094 C 111.390625 343.726562 114.753906 340.183594 118.035156 336.5625 C 122.296875 331.855469 126.425781 327.03125 130.417969 322.085938 C 131.546875 320.683594 132.664062 319.273438 133.773438 317.851562 C 134.546875 316.855469 135.316406 315.859375 136.082031 314.859375 C 136.371094 314.484375 136.660156 314.105469 136.945312 313.726562 C 137.082031 313.550781 137.214844 313.375 137.347656 313.199219 C 137.480469 313.023438 138.050781 312.273438 137.636719 312.808594 C 137.882812 312.492188 138.128906 312.171875 138.371094 311.855469 C 138.539062 311.640625 138.703125 311.421875 138.867188 311.207031 C 139.246094 310.703125 139.617188 310.199219 139.980469 309.691406 C 140.640625 308.769531 141.277344 307.835938 141.890625 306.882812 C 143.050781 305.085938 144.117188 303.226562 145.089844 301.320312 C 148.710938 294.183594 151.082031 286.292969 151.035156 278.238281 C 151.066406 271.476562 149.199219 264.839844 145.644531 259.085938 C 142.203125 253.636719 137.21875 249.332031 131.328125 246.71875 C 127.898438 245.238281 124.273438 244.261719 120.566406 243.820312 C 116.957031 243.421875 113.3125 243.507812 109.726562 244.066406 C 101.492188 245.210938 93.59375 248.726562 86.6875 253.269531 C 84.484375 254.714844 82.378906 256.296875 80.3125 257.929688 C 79.4375 258.804688 78.945312 259.992188 78.945312 261.230469 C 78.953125 262.464844 79.445312 263.648438 80.3125 264.527344 C 81.1875 265.402344 82.375 265.890625 83.613281 265.894531 C 84.832031 265.824219 85.996094 265.34375 86.910156 264.527344 C 87.007812 264.453125 87.105469 264.378906 87.199219 264.300781 C 87.492188 264.082031 87.785156 263.859375 88.078125 263.644531 C 88.699219 263.183594 89.328125 262.734375 89.960938 262.296875 C 91.21875 261.425781 92.503906 260.59375 93.8125 259.808594 C 96.074219 258.449219 98.417969 257.242188 100.835938 256.1875 C 104.328125 254.746094 107.980469 253.726562 111.710938 253.144531 C 114.480469 252.820312 117.273438 252.800781 120.042969 253.09375 C 122.484375 253.460938 124.878906 254.109375 127.171875 255.027344 C 128.21875 255.503906 129.238281 256.039062 130.222656 256.632812 C 130.828125 257 131.417969 257.390625 131.992188 257.804688 C 132.074219 257.863281 132.253906 257.996094 132.40625 258.109375 C 132.554688 258.230469 132.699219 258.351562 132.839844 258.472656 C 133.890625 259.359375 134.875 260.328125 135.78125 261.363281 C 135.996094 261.605469 136.203125 261.855469 136.410156 262.105469 C 136.441406 262.144531 136.46875 262.179688 136.5 262.21875 C 136.894531 262.753906 137.273438 263.300781 137.628906 263.863281 C 138.359375 265.015625 139.003906 266.21875 139.566406 267.464844 C 140.476562 269.75 141.121094 272.136719 141.484375 274.574219 C 141.777344 277.335938 141.761719 280.121094 141.4375 282.878906 C 140.863281 286.570312 139.855469 290.179688 138.429688 293.632812 C 136.769531 297.386719 134.746094 300.972656 132.382812 304.332031 C 132.050781 304.804688 131.714844 305.273438 131.375 305.738281 C 131.214844 305.953125 131.054688 306.171875 130.890625 306.386719 C 130.828125 306.46875 130.621094 306.746094 130.503906 306.894531 C 130.253906 307.21875 130.003906 307.539062 129.757812 307.867188 C 129.625 308.042969 129.492188 308.222656 129.355469 308.398438 C 129.046875 308.808594 128.734375 309.21875 128.421875 309.628906 C 128.15625 309.976562 127.894531 310.320312 127.628906 310.667969 L 127.617188 310.679688 C 127.511719 310.816406 127.410156 310.949219 127.304688 311.085938 C 126.742188 311.804688 126.179688 312.523438 125.613281 313.242188 C 121.550781 318.375 117.335938 323.382812 112.964844 328.265625 C 109.570312 332.0625 106.082031 335.78125 102.550781 339.457031 C 100.015625 342.097656 97.441406 344.707031 94.972656 347.414062 C 93.109375 349.285156 91.480469 351.375 90.128906 353.644531 C 88.8125 356.109375 88.292969 359.078125 89.914062 361.558594 C 91.460938 363.921875 94.164062 365.007812 96.828125 365.5625 C 100.300781 366.207031 103.8125 366.609375 107.335938 366.769531 C 112.40625 367.101562 117.484375 367.300781 122.558594 367.527344 C 129.75 367.84375 136.945312 368.179688 144.132812 368.585938 C 146.222656 368.703125 148.316406 368.828125 150.40625 368.957031 C 152.976562 368.941406 155.058594 366.863281 155.074219 364.292969 C 155.015625 361.738281 152.960938 359.683594 150.40625 359.625 Z M 150.40625 359.625 "/>
<path style=" stroke:none;fill-rule:nonzero;fill:rgb(42.352941%,38.823529%,100%);fill-opacity:1;" d="M 235.4375 267.734375 C 235.308594 261.859375 234.828125 255.996094 234.003906 250.179688 C 233.277344 244.832031 232.222656 239.539062 230.851562 234.320312 C 229.480469 229.160156 227.71875 224.109375 225.578125 219.214844 C 223.933594 215.304688 221.828125 211.605469 219.308594 208.191406 C 216.808594 204.90625 213.941406 201.8125 210.253906 199.828125 C 208.671875 198.949219 206.960938 198.316406 205.1875 197.953125 C 204.945312 197.90625 204.707031 197.871094 204.460938 197.847656 C 204.292969 197.824219 204.121094 197.800781 203.949219 197.78125 C 198.714844 197.261719 193.429688 197.996094 188.535156 199.917969 C 183.664062 201.894531 179.308594 204.953125 175.792969 208.863281 C 172.34375 212.777344 169.554688 217.226562 167.535156 222.039062 C 165.292969 227.289062 163.667969 232.785156 162.691406 238.414062 C 161.648438 244.417969 161.160156 250.503906 161.226562 256.597656 C 161.316406 262.714844 161.933594 268.808594 163.066406 274.820312 C 163.074219 274.851562 163.074219 274.871094 163.082031 274.902344 C 164.085938 280.363281 165.636719 285.707031 167.707031 290.855469 C 169.675781 295.945312 172.3125 300.75 175.554688 305.136719 C 178.710938 309.453125 182.6875 313.101562 187.257812 315.875 C 189.492188 317.175781 191.875 318.199219 194.351562 318.929688 C 196.523438 319.640625 198.742188 320.199219 200.992188 320.605469 C 203.34375 321.003906 205.738281 321.089844 208.117188 320.867188 C 210.65625 320.578125 213.140625 319.914062 215.488281 318.894531 C 219.519531 317.144531 222.726562 314.085938 225.355469 310.632812 C 227.988281 307.003906 230.023438 302.972656 231.382812 298.695312 C 232.96875 293.789062 234.054688 288.738281 234.625 283.613281 C 234.988281 280.691406 235.230469 277.761719 235.355469 274.820312 C 235.460938 272.460938 235.488281 270.101562 235.4375 267.734375 Z M 225.886719 277.417969 C 225.746094 279.542969 225.542969 281.667969 225.265625 283.792969 C 224.691406 287.996094 223.730469 292.140625 222.394531 296.164062 C 222.09375 297.050781 221.765625 297.921875 221.410156 298.785156 C 220.421875 301.117188 219.171875 303.335938 217.695312 305.394531 L 217.679688 305.414062 C 217.53125 305.601562 217.378906 305.785156 217.230469 305.964844 C 216.839844 306.421875 216.433594 306.863281 216.015625 307.292969 C 215.585938 307.71875 215.144531 308.132812 214.683594 308.523438 C 214.574219 308.621094 214.453125 308.71875 214.332031 308.816406 C 214.273438 308.863281 214.210938 308.898438 214.160156 308.945312 C 212.292969 310.347656 210.09375 311.246094 207.777344 311.558594 C 206.175781 311.714844 204.5625 311.699219 202.964844 311.519531 C 201.542969 311.289062 200.140625 310.957031 198.769531 310.527344 C 197.347656 310.09375 195.921875 309.671875 194.546875 309.132812 C 193.039062 308.457031 191.59375 307.648438 190.222656 306.722656 C 189.855469 306.472656 189.496094 306.210938 189.136719 305.949219 L 188.773438 305.65625 C 188.023438 305.03125 187.304688 304.378906 186.605469 303.695312 C 185.90625 303.011719 185.238281 302.308594 184.59375 301.5625 C 184.253906 301.179688 183.917969 300.78125 183.59375 300.386719 C 183.496094 300.257812 183.390625 300.128906 183.292969 300.011719 C 182.046875 298.34375 180.90625 296.601562 179.878906 294.792969 C 178.75 292.800781 177.730469 290.75 176.820312 288.648438 C 175.003906 284.171875 173.582031 279.546875 172.574219 274.820312 C 172.398438 274.046875 172.242188 273.273438 172.097656 272.492188 C 171.8125 271.011719 171.582031 269.527344 171.371094 268.039062 C 170.53125 261.539062 170.339844 254.972656 170.800781 248.4375 C 170.921875 246.726562 171.101562 245.011719 171.320312 243.308594 C 171.960938 238.617188 173.054688 234 174.578125 229.515625 C 174.953125 228.40625 175.371094 227.308594 175.824219 226.226562 C 177.203125 223 178.949219 219.941406 181.019531 217.105469 C 181.042969 217.074219 181.078125 217.023438 181.125 216.96875 L 181.144531 216.933594 C 181.4375 216.566406 181.738281 216.210938 182.046875 215.859375 C 182.601562 215.214844 183.171875 214.597656 183.773438 213.996094 C 184.398438 213.382812 185.035156 212.796875 185.703125 212.234375 C 185.855469 212.105469 186.148438 211.878906 186.355469 211.722656 C 186.539062 211.585938 186.71875 211.445312 186.90625 211.316406 C 189.980469 209.078125 193.574219 207.652344 197.347656 207.171875 C 199.320312 206.960938 201.304688 206.925781 203.28125 207.074219 C 203.785156 207.191406 204.28125 207.335938 204.765625 207.511719 C 205.753906 207.980469 206.699219 208.539062 207.582031 209.183594 C 207.617188 209.214844 207.652344 209.242188 207.6875 209.265625 C 207.949219 209.492188 208.21875 209.726562 208.476562 209.957031 C 209.023438 210.460938 209.550781 210.992188 210.050781 211.535156 C 210.546875 212.074219 211.019531 212.636719 211.480469 213.207031 C 211.539062 213.292969 211.597656 213.367188 211.652344 213.441406 C 211.898438 213.773438 212.132812 214.109375 212.363281 214.449219 C 213.371094 215.921875 214.296875 217.449219 215.144531 219.019531 C 216.050781 220.703125 216.871094 222.4375 217.636719 224.199219 C 220.507812 231.300781 222.625 238.679688 223.957031 246.222656 C 224.347656 248.316406 224.6875 250.425781 224.976562 252.535156 C 225.964844 259.921875 226.3125 267.375 226.015625 274.820312 C 225.984375 275.683594 225.941406 276.554688 225.886719 277.417969 Z M 225.886719 277.417969 "/>
<path style=" stroke:none;fill-rule:nonzero;fill:rgb(42.352941%,38.823529%,100%);fill-opacity:1;" d="M 319.429688 358.875 C 310.800781 358.34375 302.167969 357.914062 293.53125 357.53125 C 287.710938 357.269531 281.886719 357.058594 276.074219 356.664062 C 274.03125 356.527344 271.992188 356.363281 269.964844 356.105469 C 269.429688 356.027344 268.898438 355.941406 268.367188 355.832031 C 268.445312 355.734375 268.523438 355.640625 268.601562 355.542969 C 269.019531 355.039062 269.449219 354.542969 269.882812 354.054688 C 272.183594 351.464844 274.625 348.992188 277.027344 346.496094 C 280.414062 342.976562 283.777344 339.433594 287.054688 335.8125 C 291.320312 331.105469 295.449219 326.28125 299.441406 321.335938 C 300.570312 319.933594 301.6875 318.519531 302.792969 317.101562 C 303.566406 316.105469 304.339844 315.109375 305.105469 314.109375 C 305.394531 313.730469 305.679688 313.355469 305.96875 312.976562 C 306.101562 312.800781 306.234375 312.625 306.371094 312.445312 C 306.5 312.273438 307.074219 311.523438 306.65625 312.058594 C 306.902344 311.742188 307.148438 311.421875 307.394531 311.105469 C 307.5625 310.886719 307.726562 310.671875 307.890625 310.453125 C 308.269531 309.953125 308.640625 309.449219 309.003906 308.9375 C 309.660156 308.019531 310.296875 307.082031 310.910156 306.132812 C 312.074219 304.335938 313.140625 302.476562 314.113281 300.570312 C 317.734375 293.433594 320.105469 285.542969 320.058594 277.488281 C 320.085938 270.722656 318.21875 264.089844 314.667969 258.332031 C 311.222656 252.886719 306.242188 248.582031 300.347656 245.96875 C 296.921875 244.488281 293.296875 243.511719 289.589844 243.066406 C 285.980469 242.671875 282.335938 242.757812 278.746094 243.316406 C 270.511719 244.457031 262.617188 247.976562 255.707031 252.519531 C 253.507812 253.964844 251.402344 255.546875 249.335938 257.179688 C 248.457031 258.054688 247.96875 259.242188 247.96875 260.480469 C 247.976562 261.714844 248.464844 262.898438 249.335938 263.777344 C 250.210938 264.652344 251.398438 265.140625 252.632812 265.144531 C 253.855469 265.074219 255.019531 264.59375 255.933594 263.777344 C 256.027344 263.703125 256.125 263.625 256.222656 263.550781 C 256.511719 263.328125 256.804688 263.109375 257.101562 262.890625 C 257.722656 262.433594 258.347656 261.984375 258.984375 261.542969 C 260.242188 260.675781 261.523438 259.84375 262.835938 259.054688 C 265.097656 257.699219 267.441406 256.492188 269.855469 255.433594 C 273.351562 253.996094 277 252.972656 280.734375 252.394531 C 283.5 252.066406 286.292969 252.050781 289.0625 252.34375 C 291.507812 252.710938 293.898438 253.359375 296.191406 254.277344 C 297.238281 254.75 298.257812 255.289062 299.242188 255.882812 C 299.847656 256.25 300.4375 256.640625 301.015625 257.054688 C 301.09375 257.109375 301.273438 257.246094 301.429688 257.359375 C 301.574219 257.480469 301.71875 257.597656 301.863281 257.722656 C 302.914062 258.609375 303.894531 259.578125 304.804688 260.613281 C 305.015625 260.855469 305.226562 261.101562 305.429688 261.355469 C 305.460938 261.390625 305.492188 261.429688 305.523438 261.46875 C 305.917969 262.003906 306.292969 262.550781 306.652344 263.113281 C 307.378906 264.265625 308.027344 265.46875 308.585938 266.710938 C 309.5 269 310.140625 271.386719 310.507812 273.824219 C 310.796875 276.585938 310.78125 279.371094 310.457031 282.128906 C 309.886719 285.820312 308.878906 289.429688 307.453125 292.882812 C 305.792969 296.636719 303.765625 300.222656 301.40625 303.582031 C 301.074219 304.054688 300.738281 304.523438 300.398438 304.984375 C 300.238281 305.203125 300.078125 305.421875 299.914062 305.636719 C 299.851562 305.71875 299.640625 305.996094 299.527344 306.144531 C 299.273438 306.46875 299.027344 306.789062 298.78125 307.113281 C 298.648438 307.292969 298.511719 307.46875 298.378906 307.648438 C 298.066406 308.058594 297.757812 308.46875 297.445312 308.878906 C 297.179688 309.226562 296.914062 309.570312 296.648438 309.917969 L 296.640625 309.929688 C 296.535156 310.0625 296.429688 310.199219 296.324219 310.332031 C 295.765625 311.054688 295.203125 311.773438 294.632812 312.488281 C 290.570312 317.625 286.355469 322.632812 281.988281 327.511719 C 278.589844 331.3125 275.101562 335.03125 271.574219 338.707031 C 269.035156 341.347656 266.460938 343.957031 263.996094 346.664062 C 262.128906 348.535156 260.503906 350.625 259.148438 352.890625 C 257.835938 355.359375 257.3125 358.328125 258.9375 360.808594 C 260.484375 363.171875 263.1875 364.257812 265.851562 364.8125 C 269.320312 365.457031 272.832031 365.859375 276.359375 366.015625 C 281.429688 366.351562 286.507812 366.550781 291.582031 366.777344 C 298.773438 367.09375 305.964844 367.429688 313.152344 367.835938 C 315.246094 367.953125 317.335938 368.078125 319.429688 368.207031 C 322 368.191406 324.078125 366.109375 324.09375 363.539062 C 324.039062 360.988281 321.980469 358.933594 319.429688 358.875 Z M 319.429688 358.875 "/>
<path style=" stroke:none;fill-rule:nonzero;fill:rgb(42.352941%,38.823529%,100%);fill-opacity:1;" d="M 423.484375 300.84375 C 423.46875 303.414062 421.390625 305.492188 418.820312 305.503906 C 416.726562 305.378906 414.640625 305.257812 412.542969 305.136719 C 405.359375 304.730469 398.167969 304.394531 390.972656 304.078125 C 387.144531 303.90625 383.308594 303.75 379.484375 303.539062 C 378.984375 303.515625 378.480469 303.484375 377.984375 303.457031 C 377.234375 303.417969 376.492188 303.367188 375.746094 303.320312 C 372.222656 303.164062 368.710938 302.757812 365.242188 302.113281 C 362.578125 301.554688 359.875 300.476562 358.328125 298.109375 C 356.707031 295.632812 357.226562 292.660156 358.539062 290.1875 C 359.894531 287.921875 361.523438 285.832031 363.390625 283.964844 C 365.851562 281.253906 368.425781 278.648438 370.964844 276.007812 C 371.339844 275.617188 371.722656 275.21875 372.089844 274.820312 C 374.082031 272.746094 376.046875 270.65625 377.984375 268.542969 C 378.488281 267.996094 378.992188 267.453125 379.484375 266.90625 C 380.117188 266.207031 380.746094 265.511719 381.378906 264.8125 C 385.746094 259.929688 389.960938 254.921875 394.023438 249.789062 C 394.59375 249.074219 395.15625 248.355469 395.71875 247.632812 C 395.824219 247.5 395.929688 247.363281 396.027344 247.226562 L 396.042969 247.21875 C 396.304688 246.875 396.566406 246.523438 396.835938 246.175781 C 397.144531 245.769531 397.460938 245.359375 397.769531 244.945312 C 397.902344 244.773438 398.039062 244.59375 398.171875 244.414062 C 398.414062 244.089844 398.660156 243.765625 398.917969 243.445312 C 399.03125 243.292969 399.238281 243.023438 399.308594 242.933594 C 399.464844 242.722656 399.628906 242.503906 399.789062 242.289062 C 400.125 241.820312 400.464844 241.355469 400.792969 240.882812 C 403.15625 237.523438 405.183594 233.941406 406.84375 230.183594 C 408.269531 226.730469 409.277344 223.117188 409.847656 219.425781 C 410.171875 216.667969 410.1875 213.882812 409.894531 211.121094 C 409.53125 208.6875 408.890625 206.300781 407.980469 204.011719 C 407.417969 202.769531 406.769531 201.566406 406.042969 200.414062 C 405.683594 199.851562 405.304688 199.304688 404.910156 198.769531 L 404.816406 198.65625 C 404.617188 198.402344 404.40625 198.15625 404.195312 197.914062 C 403.289062 196.878906 402.304688 195.914062 401.253906 195.023438 C 401.109375 194.894531 400.964844 194.777344 400.816406 194.664062 C 400.667969 194.542969 400.484375 194.410156 400.402344 194.355469 C 399.824219 193.941406 399.238281 193.550781 398.632812 193.183594 C 398.324219 192.996094 398.007812 192.816406 397.691406 192.644531 C 397.003906 192.261719 396.296875 191.902344 395.582031 191.578125 C 393.289062 190.660156 390.894531 190.011719 388.449219 189.648438 C 385.683594 189.355469 382.890625 189.371094 380.125 189.691406 C 379.914062 189.722656 379.695312 189.761719 379.484375 189.804688 C 378.984375 189.882812 378.480469 189.972656 377.984375 190.082031 C 374.992188 190.679688 372.066406 191.570312 369.246094 192.734375 C 366.832031 193.792969 364.484375 195.003906 362.226562 196.359375 C 360.910156 197.148438 359.628906 197.976562 358.375 198.847656 C 357.734375 199.289062 357.113281 199.730469 356.488281 200.191406 C 356.195312 200.40625 355.902344 200.632812 355.609375 200.851562 C 355.511719 200.925781 355.414062 201 355.324219 201.074219 C 354.410156 201.894531 353.246094 202.375 352.023438 202.441406 C 350.785156 202.441406 349.597656 201.953125 348.726562 201.074219 C 347.855469 200.199219 347.363281 199.015625 347.359375 197.78125 C 347.355469 196.542969 347.847656 195.355469 348.726562 194.484375 C 350.789062 192.847656 352.898438 191.269531 355.101562 189.820312 C 361.960938 185.308594 369.808594 181.800781 377.984375 180.636719 C 378.039062 180.632812 378.082031 180.625 378.136719 180.617188 C 378.585938 180.546875 379.035156 180.480469 379.484375 180.429688 C 382.636719 180.042969 385.820312 180.023438 388.976562 180.367188 C 392.550781 180.796875 396.050781 181.71875 399.367188 183.117188 C 399.496094 183.160156 399.617188 183.214844 399.742188 183.265625 C 405.632812 185.882812 410.613281 190.183594 414.054688 195.632812 C 417.609375 201.386719 419.476562 208.023438 419.445312 214.785156 C 419.496094 222.839844 417.125 230.734375 413.503906 237.871094 C 412.53125 239.78125 411.460938 241.636719 410.300781 243.4375 C 409.691406 244.382812 409.054688 245.320312 408.390625 246.238281 C 408.03125 246.746094 407.65625 247.257812 407.28125 247.753906 L 406.785156 248.40625 C 406.582031 248.660156 406.386719 248.917969 406.199219 249.171875 L 406.191406 249.179688 C 406.179688 249.191406 406.171875 249.203125 406.164062 249.21875 L 406.183594 249.195312 C 406.164062 249.226562 406.109375 249.285156 406.050781 249.359375 C 405.953125 249.496094 405.808594 249.675781 405.757812 249.75 C 405.628906 249.921875 405.496094 250.101562 405.359375 250.277344 C 405.074219 250.652344 404.78125 251.035156 404.496094 251.410156 C 403.730469 252.410156 402.960938 253.40625 402.183594 254.398438 C 401.078125 255.824219 399.960938 257.234375 398.828125 258.632812 C 394.839844 263.582031 390.714844 268.40625 386.445312 273.117188 C 385.929688 273.6875 385.410156 274.257812 384.882812 274.820312 C 383.105469 276.765625 381.304688 278.6875 379.484375 280.59375 C 378.984375 281.121094 378.488281 281.636719 377.984375 282.164062 C 377.464844 282.710938 376.941406 283.25 376.414062 283.800781 C 374.011719 286.292969 371.574219 288.761719 369.277344 291.351562 C 368.839844 291.839844 368.410156 292.335938 367.992188 292.847656 C 367.910156 292.9375 367.832031 293.035156 367.757812 293.132812 C 368.285156 293.246094 368.824219 293.328125 369.351562 293.410156 C 371.386719 293.664062 373.421875 293.832031 375.460938 293.964844 C 376.304688 294.027344 377.144531 294.078125 377.984375 294.125 C 378.488281 294.152344 378.984375 294.183594 379.484375 294.207031 C 383.960938 294.460938 388.445312 294.632812 392.917969 294.828125 C 401.558594 295.210938 410.195312 295.640625 418.820312 296.171875 C 421.375 296.230469 423.429688 298.289062 423.484375 300.84375 Z M 423.484375 300.84375 "/>
<path style=" stroke:none;fill-rule:nonzero;fill:rgb(24.705882%,23.921569%,33.72549%);fill-opacity:1;" d="M 95.839844 154.421875 C 95.878906 154.382812 95.914062 154.34375 95.953125 154.300781 C 94.277344 158.214844 91.949219 161.816406 89.066406 164.953125 L 89.046875 164.984375 C 88.8125 165.238281 88.578125 165.488281 88.339844 165.734375 C 81.359375 173.015625 71.753906 177.195312 61.671875 177.34375 L 62.84375 241.035156 L 62.855469 241.703125 L 62.863281 242.242188 L 61.144531 241.859375 L 59.644531 241.523438 L 59.097656 241.402344 L 59.101562 241.035156 L 59.101562 240.867188 L 59.644531 209.949219 L 59.800781 200.933594 L 59.644531 200.851562 L 54.09375 197.929688 L 54.957031 196.269531 L 59.644531 198.734375 L 59.839844 198.839844 L 60.214844 177.335938 C 60.027344 177.328125 59.832031 177.328125 59.644531 177.3125 C 58.152344 177.261719 56.664062 177.117188 55.191406 176.878906 C 43.09375 174.976562 32.667969 167.332031 27.214844 156.363281 C 27.121094 156.167969 27.023438 155.96875 26.925781 155.773438 C 26.910156 155.734375 26.890625 155.699219 26.871094 155.667969 C 24.851562 151.378906 23.65625 146.746094 23.351562 142.015625 C 23.296875 141.199219 23.273438 140.371094 23.273438 139.539062 C 23.269531 133.261719 24.835938 127.082031 27.824219 121.566406 C 28.035156 121.167969 28.261719 120.769531 28.484375 120.386719 C 35.023438 109.28125 46.765625 102.269531 59.644531 101.78125 C 60.140625 101.75 60.640625 101.742188 61.144531 101.742188 C 66.816406 101.742188 72.414062 103.027344 77.519531 105.496094 C 77.648438 105.566406 77.785156 105.625 77.910156 105.691406 C 102.355469 97.117188 111.417969 115.273438 95.839844 154.421875 Z M 95.839844 154.421875 "/>
<path style=" stroke:none;fill-rule:nonzero;fill:rgb(24.705882%,23.921569%,33.72549%);fill-opacity:1;" d="M 61.144531 161.058594 C 60.726562 162.679688 60.222656 164.367188 59.644531 166.125 C 58.914062 168.363281 58.0625 170.707031 57.082031 173.160156 C 57.105469 173.128906 57.144531 173.101562 57.167969 173.070312 C 56.605469 174.386719 55.945312 175.660156 55.191406 176.878906 C 54.199219 178.511719 53.046875 180.042969 51.753906 181.449219 L 51.730469 181.472656 C 51.550781 181.667969 51.363281 181.871094 51.175781 182.066406 C 45.6875 187.789062 38.132812 191.074219 30.203125 191.1875 L 31.121094 241.035156 L 31.136719 241.820312 L 31.144531 242.242188 L 28.175781 241.582031 L 28.183594 241.160156 L 28.183594 241.035156 L 28.734375 209.746094 L 24.234375 207.382812 L 24.925781 206.082031 L 28.761719 208.101562 L 29.054688 191.1875 C 19.148438 190.96875 10.003906 185.824219 4.671875 177.46875 C 4.097656 176.570312 3.574219 175.644531 3.101562 174.691406 C 3.019531 174.535156 2.941406 174.375 2.867188 174.226562 C 2.859375 174.195312 2.847656 174.167969 2.832031 174.144531 C 1.238281 170.773438 0.300781 167.128906 0.0585938 163.40625 C 0.015625 162.761719 0 162.109375 0 161.457031 C -0.0078125 156.519531 1.222656 151.660156 3.574219 147.316406 C 3.746094 147.003906 3.917969 146.695312 4.097656 146.386719 C 11.957031 133.050781 28.722656 127.960938 42.667969 134.679688 C 42.765625 134.734375 42.871094 134.777344 42.976562 134.832031 C 50.574219 132.167969 56.289062 132.789062 59.644531 136.410156 C 60.226562 137.035156 60.734375 137.730469 61.144531 138.480469 C 63.734375 143.121094 63.886719 150.742188 61.144531 161.058594 Z M 61.144531 161.058594 "/>
</g>
</svg>
