<?xml version="1.0" encoding="UTF-8"?>
<svg xmlns="http://www.w3.org/2000/svg" xmlns:xlink="http://www.w3.org/1999/xlink" width="648px" height="558px" viewBox="0 0 665 573" version="1.1">
<defs>
<filter id="alpha" filterUnits="objectBoundingBox" x="0%" y="0%" width="100%" height="100%">
  <feColorMatrix type="matrix" in="SourceGraphic" values="0 0 0 0 1 0 0 0 0 1 0 0 0 0 1 0 0 0 1 0"/>
</filter>
<mask id="mask0">
  <g filter="url(#alpha)">
<rect x="0" y="0" width="665" height="573" style="fill:rgb(0%,0%,0%);fill-opacity:0.101961;stroke:none;"/>
  </g>
</mask>
<clipPath id="clip1">
  <rect x="0" y="0" width="665" height="573"/>
</clipPath>
<g id="surface5" clip-path="url(#clip1)">
<path style=" stroke:none;fill-rule:nonzero;fill:rgb(0%,0%,0%);fill-opacity:1;" d="M 302.339844 289.035156 C 302.339844 289.035156 308.96875 278.609375 306.570312 262.691406 C 304.167969 246.769531 290.96875 237.851562 290.96875 237.851562 C 290.96875 237.851562 282.445312 244.488281 290.96875 261.550781 C 290.96875 261.550781 280.550781 271.027344 289.074219 286.191406 "/>
</g>
<mask id="mask1">
  <g filter="url(#alpha)">
<rect x="0" y="0" width="665" height="573" style="fill:rgb(0%,0%,0%);fill-opacity:0.101961;stroke:none;"/>
  </g>
</mask>
<clipPath id="clip2">
  <rect x="0" y="0" width="665" height="573"/>
</clipPath>
<g id="surface8" clip-path="url(#clip2)">
<path style=" stroke:none;fill-rule:nonzero;fill:rgb(0%,0%,0%);fill-opacity:1;" d="M 280.074219 236.429688 L 274.867188 228.375 C 274.867188 228.375 250.234375 224.582031 253.078125 233.113281 C 255.917969 241.644531 267.285156 237.851562 267.285156 237.851562 L 273.917969 244.488281 Z M 280.074219 236.429688 "/>
</g>
</defs>
<g id="surface1">
<path style=" stroke:none;fill-rule:nonzero;fill:rgb(42.352941%,38.823529%,100%);fill-opacity:1;" d="M 164.929688 184.007812 C 164.929688 184.007812 93.839844 208.507812 80.207031 231.121094 C 66.574219 253.734375 164.929688 184.007812 164.929688 184.007812 Z M 164.929688 184.007812 "/>
<path style=" stroke:none;fill-rule:nonzero;fill:rgb(24.705882%,23.921569%,33.72549%);fill-opacity:1;" d="M 42.101562 262.425781 C 41.097656 262.5 40.113281 262.136719 39.402344 261.429688 C 37.191406 259.4375 39 255.667969 40.550781 253.007812 C 61.347656 217.332031 165.925781 179.742188 170.363281 178.160156 L 179.929688 174.75 L 171.738281 180.753906 C 171.4375 180.976562 141.011719 203.257812 109.871094 224.25 C 61.449219 256.882812 47.078125 262.425781 42.101562 262.425781 Z M 161.070312 184.828125 C 133.609375 195.460938 59.609375 226.203125 43.113281 254.503906 C 40.917969 258.269531 41.382812 259.214844 41.386719 259.222656 C 41.832031 259.703125 47.453125 262.714844 107.851562 222.03125 C 128.90625 207.847656 149.675781 193.039062 161.070312 184.828125 Z M 161.070312 184.828125 "/>
<path style=" stroke:none;fill-rule:nonzero;fill:rgb(42.352941%,38.823529%,100%);fill-opacity:1;" d="M 163.390625 159.539062 C 163.390625 159.539062 97.878906 152.800781 78.003906 164.316406 C 58.128906 175.832031 163.390625 159.539062 163.390625 159.539062 Z M 163.390625 159.539062 "/>
<path style=" stroke:none;fill-rule:nonzero;fill:rgb(24.705882%,23.921569%,33.72549%);fill-opacity:1;" d="M 74.117188 170.550781 C 51.183594 170.550781 49.609375 166.875 48.890625 165.191406 C 47.449219 161.828125 51.457031 158.660156 52.777344 157.617188 C 81.210938 135.152344 167.582031 157.855469 171.246094 158.832031 L 178.269531 160.707031 L 171.074219 161.734375 C 170.78125 161.777344 141.84375 165.894531 112.640625 168.472656 C 95.609375 169.976562 83.191406 170.550781 74.117188 170.550781 Z M 94.210938 150.757812 C 78.0625 150.757812 63.285156 153.097656 54.617188 159.945312 C 52 162.011719 51.351562 163.40625 51.617188 164.023438 C 52.28125 165.574219 58.625 170.261719 112.382812 165.515625 C 132.410156 163.746094 152.316406 161.253906 162.886719 159.855469 C 149.34375 156.734375 120.019531 150.757812 94.210938 150.757812 Z M 94.210938 150.757812 "/>
<path style=" stroke:none;fill-rule:nonzero;fill:rgb(42.352941%,38.823529%,100%);fill-opacity:1;" d="M 182.136719 147.996094 C 182.136719 147.996094 149.183594 68.828125 157.167969 60.992188 C 165.152344 53.15625 182.136719 147.996094 182.136719 147.996094 Z M 182.136719 147.996094 "/>
<path style=" stroke:none;fill-rule:nonzero;fill:rgb(24.705882%,23.921569%,33.72549%);fill-opacity:1;" d="M 183.960938 154.957031 L 179.863281 144.484375 C 179.761719 144.226562 169.738281 118.53125 161.476562 92.078125 C 144.460938 37.59375 151.433594 32.941406 153.726562 31.410156 C 154.878906 30.585938 156.390625 30.457031 157.664062 31.078125 C 170.515625 37.070312 181.507812 132.875 182.71875 143.777344 Z M 155.980469 33.660156 C 155.761719 33.667969 155.546875 33.746094 155.371094 33.882812 C 147.183594 39.34375 163.78125 93.125 178.375 132.269531 C 173.371094 91.90625 164.152344 37.378906 156.410156 33.769531 C 156.277344 33.699219 156.132812 33.664062 155.980469 33.660156 Z M 155.980469 33.660156 "/>
<path style=" stroke:none;fill-rule:nonzero;fill:rgb(42.352941%,38.823529%,100%);fill-opacity:1;" d="M 194.59375 165.402344 C 194.59375 165.402344 212.277344 85.382812 230.808594 85.382812 C 249.335938 85.382812 194.59375 165.402344 194.59375 165.402344 Z M 194.59375 165.402344 "/>
<path style=" stroke:none;fill-rule:nonzero;fill:rgb(24.705882%,23.921569%,33.72549%);fill-opacity:1;" d="M 189.925781 170.925781 L 191.675781 164.335938 C 192.960938 159.503906 223.5 46.003906 256.882812 46.003906 C 261.460938 46.003906 263.433594 48.152344 264.285156 49.953125 C 273.1875 68.816406 202.359375 155.804688 194.253906 165.660156 Z M 256.882812 48.96875 C 230.238281 48.96875 203.75 133.238281 196.484375 158.210938 C 220.386719 128.503906 268.019531 64.820312 261.605469 51.21875 C 261.339844 50.664062 260.542969 48.96875 256.882812 48.96875 Z M 256.882812 48.96875 "/>
<path style=" stroke:none;fill-rule:nonzero;fill:rgb(42.352941%,38.823529%,100%);fill-opacity:1;" d="M 204.972656 166.203125 C 204.972656 166.203125 265.78125 127.753906 390.363281 139.492188 C 514.945312 151.226562 204.972656 166.203125 204.972656 166.203125 Z M 204.972656 166.203125 "/>
<path style=" stroke:none;fill-rule:nonzero;fill:rgb(24.705882%,23.921569%,33.72549%);fill-opacity:1;" d="M 200.828125 167.804688 L 204.011719 165.074219 C 204.65625 164.523438 220.15625 151.410156 251.214844 140.867188 C 279.796875 131.164062 327.441406 122.023438 392.109375 133.578125 C 419.429688 138.460938 422.976562 142.097656 422.738281 145.300781 C 422.503906 148.464844 421.953125 155.878906 312.796875 162.75 C 259.453125 166.105469 205.554688 167.667969 205.015625 167.683594 Z M 333.421875 131.148438 C 263.179688 131.148438 221.65625 156.121094 209.613281 164.574219 C 223.867188 164.117188 268.4375 162.570312 312.617188 159.785156 C 414.046875 153.402344 419.679688 146.417969 419.777344 145.082031 C 419.789062 144.9375 419.714844 141.523438 391.585938 136.5 C 372.394531 133.003906 352.929688 131.210938 333.421875 131.148438 Z M 333.421875 131.148438 "/>
<path style=" stroke:none;fill-rule:nonzero;fill:rgb(42.352941%,38.823529%,100%);fill-opacity:1;" d="M 243.535156 170.710938 C 243.535156 170.710938 350.050781 169.289062 356.03125 180.667969 C 362.015625 192.046875 243.535156 170.710938 243.535156 170.710938 Z M 243.535156 170.710938 "/>
<path style=" stroke:none;fill-rule:nonzero;fill:rgb(24.705882%,23.921569%,33.72549%);fill-opacity:1;" d="M 369.671875 199.789062 C 335.675781 199.789062 253.953125 175.363281 243.105469 172.074219 L 234.214844 169.378906 L 243.503906 169.171875 C 257.125 168.863281 376.832031 166.871094 384.363281 190.984375 C 385.253906 193.84375 384.222656 195.675781 383.195312 196.710938 C 381.050781 198.871094 376.257812 199.789062 369.671875 199.789062 Z M 253.25 172 C 303.210938 186.652344 372.585938 203.207031 381.089844 194.621094 C 381.550781 194.15625 382.015625 193.421875 381.535156 191.871094 C 376.183594 174.738281 294.539062 171.722656 253.25 172 Z M 253.25 172 "/>
<path style=" stroke:none;fill-rule:nonzero;fill:rgb(42.352941%,38.823529%,100%);fill-opacity:1;" d="M 222.773438 182.523438 C 222.773438 182.523438 287.105469 212.277344 274.535156 221.433594 C 261.964844 230.585938 222.773438 182.523438 222.773438 182.523438 Z M 222.773438 182.523438 "/>
<path style=" stroke:none;fill-rule:nonzero;fill:rgb(24.705882%,23.921569%,33.72549%);fill-opacity:1;" d="M 314.621094 257.429688 C 283.5 257.429688 220.132812 182.53125 217.1875 179.027344 L 213.015625 174.066406 L 218.929688 176.71875 C 223.242188 178.652344 324.628906 224.378906 326.847656 247.285156 C 327.144531 250.320312 325.8125 252.976562 322.996094 254.964844 C 320.53125 256.648438 317.601562 257.511719 314.621094 257.429688 Z M 223.824219 182.214844 C 248.292969 210.304688 302.734375 265.648438 321.285156 252.542969 C 323.261719 251.148438 324.089844 249.566406 323.898438 247.570312 C 322.300781 231.101562 256.046875 197.148438 223.824219 182.214844 Z M 223.824219 182.214844 "/>
<path style=" stroke:none;fill-rule:nonzero;fill:rgb(42.352941%,38.823529%,100%);fill-opacity:1;" d="M 329.554688 218.140625 C 329.554688 218.140625 382.949219 240.398438 371.082031 255.238281 C 359.21875 270.078125 329.554688 218.140625 329.554688 218.140625 Z M 329.554688 218.140625 "/>
<path style=" stroke:none;fill-rule:nonzero;fill:rgb(42.352941%,38.823529%,100%);fill-opacity:1;" d="M 230.1875 200.332031 C 230.1875 200.332031 341.421875 322.015625 331.039062 329.433594 C 320.65625 336.855469 230.1875 200.332031 230.1875 200.332031 Z M 230.1875 200.332031 "/>
<path style=" stroke:none;fill-rule:nonzero;fill:rgb(42.352941%,38.823529%,100%);fill-opacity:1;" d="M 209.421875 191.429688 C 209.421875 191.429688 256.257812 269.46875 246.699219 277.058594 C 237.140625 284.644531 209.421875 191.429688 209.421875 191.429688 Z M 209.421875 191.429688 "/>
<path style=" stroke:none;fill-rule:nonzero;fill:rgb(24.705882%,23.921569%,33.72549%);fill-opacity:1;" d="M 262.433594 306.292969 C 261.847656 306.289062 261.269531 306.191406 260.714844 306.003906 C 243.546875 300.359375 208.941406 198.992188 205.050781 187.449219 L 201.59375 177.1875 L 207.683594 186.140625 C 207.867188 186.410156 226.066406 213.21875 242.222656 240.949219 C 272.082031 292.21875 269.609375 302.300781 265.148438 305.425781 C 264.355469 305.988281 263.40625 306.292969 262.433594 306.292969 Z M 211.636719 197.433594 C 224.257812 233.285156 249.667969 299.25 261.640625 303.183594 C 262.234375 303.4375 262.917969 303.363281 263.449219 302.992188 C 265.898438 301.277344 268.488281 291.941406 239.664062 242.457031 C 229.441406 224.898438 218.386719 207.710938 211.636719 197.433594 Z M 211.636719 197.433594 "/>
<path style=" stroke:none;fill-rule:nonzero;fill:rgb(42.352941%,38.823529%,100%);fill-opacity:1;" d="M 189.609375 188.460938 C 189.609375 188.460938 147.460938 312.902344 173.328125 311.617188 C 199.191406 310.335938 189.609375 188.460938 189.609375 188.460938 Z M 189.609375 188.460938 "/>
<path style=" stroke:none;fill-rule:nonzero;fill:rgb(24.705882%,23.921569%,33.72549%);fill-opacity:1;" d="M 162.835938 332.414062 C 158.296875 332.414062 154.804688 330.640625 152.453125 327.132812 C 135.765625 302.25 185.195312 192.507812 187.308594 187.847656 L 189.5625 182.875 L 190.132812 188.304688 C 190.601562 192.75 201.308594 297.472656 177.058594 325.449219 C 173.222656 329.871094 168.664062 332.210938 163.503906 332.402344 C 163.277344 332.410156 163.054688 332.414062 162.835938 332.414062 Z M 187.707031 194.304688 C 177.933594 216.785156 141.117188 304.902344 154.917969 325.480469 C 156.796875 328.285156 159.570312 329.585938 163.390625 329.4375 C 167.761719 329.273438 171.496094 327.335938 174.816406 323.503906 C 195.089844 300.117188 189.613281 216.898438 187.707031 194.304688 Z M 187.707031 194.304688 "/>
<path style=" stroke:none;fill-rule:nonzero;fill:rgb(42.352941%,38.823529%,100%);fill-opacity:1;" d="M 175.054688 194.644531 C 175.054688 194.644531 104.300781 275.613281 110.777344 284.140625 C 117.25 292.667969 175.054688 194.644531 175.054688 194.644531 Z M 175.054688 194.644531 "/>
<path style=" stroke:none;fill-rule:nonzero;fill:rgb(24.705882%,23.921569%,33.72549%);fill-opacity:1;" d="M 89.492188 313.660156 C 88.554688 313.671875 87.640625 313.371094 86.898438 312.800781 C 85.878906 311.96875 85.265625 310.738281 85.214844 309.425781 C 83.4375 289.3125 177.617188 184.5 181.625 180.046875 L 191.105469 169.523438 L 184.011719 181.785156 C 180.988281 187.011719 109.738281 309.808594 90.550781 313.550781 C 90.203125 313.621094 89.847656 313.65625 89.492188 313.660156 Z M 173.824219 193.28125 C 142.621094 228.742188 86.933594 295.199219 88.167969 309.164062 C 88.148438 309.65625 88.347656 310.132812 88.71875 310.457031 C 89.089844 310.710938 89.554688 310.777344 89.980469 310.636719 C 103.242188 308.054688 149.5625 234.136719 173.824219 193.28125 Z M 173.824219 193.28125 "/>
<path style=" stroke:none;fill-rule:nonzero;fill:rgb(42.352941%,38.823529%,100%);fill-opacity:1;" d="M 153.816406 140.125 C 153.816406 140.125 92.132812 67.222656 35.09375 74.289062 C -21.945312 81.351562 153.816406 140.125 153.816406 140.125 Z M 153.816406 140.125 "/>
<path style=" stroke:none;fill-rule:nonzero;fill:rgb(24.705882%,23.921569%,33.72549%);fill-opacity:1;" d="M 162.039062 143.53125 L 157.183594 142.421875 C 156.792969 142.332031 117.808594 133.386719 79.265625 121.972656 C 0.339844 98.601562 0.0859375 87.855469 0 84.324219 C -0.0976562 80.066406 4.234375 76.769531 13.253906 74.25 C 46.722656 64.902344 84.515625 83.316406 110.316406 100.414062 C 127.644531 112 143.808594 125.238281 158.582031 139.945312 Z M 32.410156 74.683594 C 26.207031 74.652344 20.03125 75.46875 14.050781 77.109375 C 6.839844 79.125 2.90625 81.660156 2.964844 84.253906 C 3.304688 98.503906 90.832031 123.910156 152.734375 138.347656 C 138.101562 124.300781 82.820312 74.683594 32.410156 74.683594 Z M 32.410156 74.683594 "/>
<path style=" stroke:none;fill-rule:nonzero;fill:rgb(42.352941%,38.823529%,100%);fill-opacity:1;" d="M 105.605469 135.039062 C 105.605469 135.039062 24.035156 129.101562 29.96875 143.941406 C 35.898438 158.78125 105.605469 135.039062 105.605469 135.039062 Z M 105.605469 135.039062 "/>
<path style=" stroke:none;fill-rule:nonzero;fill:rgb(42.352941%,38.823529%,100%);fill-opacity:1;" d="M 126.371094 80.132812 C 126.371094 80.132812 121.921875 59.359375 114.503906 63.808594 C 107.089844 68.261719 126.371094 80.132812 126.371094 80.132812 Z M 126.371094 80.132812 "/>
<path style=" stroke:none;fill-rule:nonzero;fill:rgb(42.352941%,38.823529%,100%);fill-opacity:1;" d="M 201.511719 94.832031 C 201.511719 94.832031 221.863281 9.265625 212.640625 8.953125 C 203.417969 8.640625 201.511719 94.832031 201.511719 94.832031 Z M 201.511719 94.832031 "/>
<path style=" stroke:none;fill-rule:nonzero;fill:rgb(24.705882%,23.921569%,33.72549%);fill-opacity:1;" d="M 197.726562 113.777344 L 197.558594 102.414062 C 197.503906 98.765625 196.375 12.890625 207.53125 1.558594 C 208.394531 0.597656 209.613281 0.03125 210.90625 0 C 212.164062 0.00390625 213.34375 0.609375 214.085938 1.628906 C 222.671875 12.632812 202.777344 93.558594 200.480469 102.753906 Z M 210.90625 2.96875 C 210.757812 2.96875 210.308594 2.96875 209.644531 3.644531 C 202.277344 11.125 200.566406 60.910156 200.464844 90.1875 C 208.632812 55.300781 216.960938 10.132812 211.746094 3.453125 C 211.570312 3.160156 211.253906 2.972656 210.90625 2.96875 Z M 210.90625 2.96875 "/>
<path style=" stroke:none;fill-rule:nonzero;fill:rgb(42.352941%,38.823529%,100%);fill-opacity:1;" d="M 295.445312 106.84375 C 295.445312 106.84375 304.34375 84.585938 313.242188 90.519531 C 322.140625 96.457031 295.445312 106.84375 295.445312 106.84375 Z M 295.445312 106.84375 "/>
<path style=" stroke:none;fill-rule:nonzero;fill:rgb(42.352941%,38.823529%,100%);fill-opacity:1;" d="M 210.90625 304.207031 C 210.90625 304.207031 199.042969 391.761719 221.289062 390.277344 C 243.535156 388.792969 210.90625 304.207031 210.90625 304.207031 Z M 210.90625 304.207031 "/>
<path style=" stroke:none;fill-rule:nonzero;fill:rgb(100%,72.54902%,72.54902%);fill-opacity:1;" d="M 272.972656 284.296875 C 272.972656 284.296875 261.601562 265.339844 261.601562 252.070312 C 261.601562 252.070312 241.710938 231.21875 247.394531 225.53125 C 253.078125 219.84375 265.390625 241.644531 265.390625 241.644531 C 265.390625 241.644531 242.65625 216.050781 249.289062 212.261719 C 255.917969 208.46875 277.707031 236.90625 277.707031 236.90625 L 285.285156 233.113281 C 285.285156 233.113281 269.1875 193.390625 280.550781 192.355469 C 285.761719 191.882812 297.601562 230.269531 297.601562 230.269531 L 309.917969 261.550781 C 309.917969 261.550781 314.652344 272.921875 312.757812 279.558594 C 311.605469 283.613281 310.65625 287.726562 309.917969 291.878906 Z M 272.972656 284.296875 "/>
<use xlink:href="#surface5" mask="url(#mask0)"/>
<path style=" stroke:none;fill-rule:nonzero;fill:rgb(100%,72.54902%,72.54902%);fill-opacity:1;" d="M 306.128906 289.035156 C 306.128906 289.035156 312.757812 278.609375 310.359375 262.691406 C 307.957031 246.769531 294.757812 237.851562 294.757812 237.851562 C 294.757812 237.851562 286.234375 244.488281 294.757812 261.550781 C 294.757812 261.550781 284.339844 271.027344 292.863281 286.191406 "/>
<use xlink:href="#surface8" mask="url(#mask1)"/>
<path style=" stroke:none;fill-rule:nonzero;fill:rgb(100%,72.54902%,72.54902%);fill-opacity:1;" d="M 284.339844 235.957031 L 276.761719 225.53125 C 276.761719 225.53125 252.128906 221.738281 254.972656 230.269531 C 257.8125 238.800781 269.179688 235.007812 269.179688 235.007812 L 275.8125 241.644531 Z M 284.339844 235.957031 "/>
<path style=" stroke:none;fill-rule:nonzero;fill:rgb(100%,72.54902%,72.54902%);fill-opacity:1;" d="M 460.066406 360.597656 L 455.332031 398.511719 L 529.222656 403.253906 L 529.222656 357.757812 Z M 460.066406 360.597656 "/>
<path style=" stroke:none;fill-rule:nonzero;fill:rgb(81.176471%,80%,87.843137%);fill-opacity:1;" d="M 664.691406 572.917969 L 604.765625 453.003906 C 601.1875 441.144531 590.007812 421.824219 555.273438 409.414062 L 529.222656 387.363281 L 509.800781 386.664062 L 432.121094 375.292969 C 432.121094 375.292969 372.441406 371.5 333.601562 395.195312 L 323.179688 390.457031 C 323.179688 390.457031 306.128906 329.792969 313.707031 286.191406 L 270.128906 282.402344 C 270.128906 282.402344 246.445312 385.71875 257.8125 416.996094 C 269.179688 448.277344 310.863281 471.023438 310.863281 471.023438 L 347.808594 507.992188 L 362.019531 572.445312 L 583.695312 572.445312 L 587.222656 555.535156 L 604.535156 572.445312 Z M 664.691406 572.917969 "/>
<path style=" stroke:none;fill-rule:nonzero;fill:rgb(81.176471%,80%,87.843137%);fill-opacity:1;" d="M 580.90625 357.761719 C 511.113281 376.617188 442.515625 377.949219 375.367188 358.050781 C 367.476562 355.710938 362.078125 348.777344 362.078125 340.90625 L 362.078125 144.648438 C 362.078125 135.867188 368.757812 128.375 377.859375 126.949219 C 441.199219 117.007812 508.304688 117.777344 578.488281 127.320312 C 587.761719 128.582031 594.644531 136.15625 594.644531 145.074219 L 594.644531 340.492188 C 594.644531 348.527344 589.027344 355.566406 580.90625 357.761719 Z M 580.90625 357.761719 "/>
<path style=" stroke:none;fill-rule:nonzero;fill:rgb(24.705882%,23.921569%,33.72549%);fill-opacity:1;" d="M 436.972656 223.460938 C 436.972656 223.460938 420.917969 199.988281 430.796875 193.808594 C 440.675781 187.632812 455.492188 204.929688 455.492188 204.929688 C 455.492188 204.929688 474.015625 188.867188 483.894531 195.042969 C 493.773438 201.222656 474.015625 223.460938 474.015625 223.460938 C 474.015625 223.460938 488.835938 227.167969 490.070312 237.050781 C 491.304688 246.9375 496.242188 272.882812 475.25 274.117188 C 464.003906 274.78125 457.722656 271.542969 454.308594 268.390625 C 451.742188 266.089844 447.867188 266.042969 445.246094 268.285156 C 438.125 274.285156 425.304688 281.199219 415.980469 264.234375 C 412.273438 238.289062 436.972656 223.460938 436.972656 223.460938 Z M 436.972656 223.460938 "/>
<path style=" stroke:none;fill-rule:nonzero;fill:rgb(24.705882%,23.921569%,33.72549%);fill-opacity:1;" d="M 555.515625 225.933594 C 555.515625 225.933594 571.566406 202.457031 561.6875 196.28125 C 551.808594 190.101562 536.992188 207.398438 536.992188 207.398438 C 536.992188 207.398438 518.46875 191.335938 508.589844 197.515625 C 498.710938 203.691406 518.46875 225.933594 518.46875 225.933594 C 518.46875 225.933594 503.652344 229.640625 502.417969 239.523438 C 501.183594 249.40625 496.242188 275.351562 517.234375 276.589844 C 528.480469 277.25 534.765625 274.011719 538.175781 270.863281 C 540.746094 268.558594 544.621094 268.511719 547.242188 270.753906 C 554.359375 276.753906 567.179688 283.671875 576.507812 266.703125 C 580.210938 240.757812 555.515625 225.933594 555.515625 225.933594 Z M 555.515625 225.933594 "/>
<path style=" stroke:none;fill-rule:nonzero;fill:rgb(24.705882%,23.921569%,33.72549%);fill-opacity:1;" d="M 417.480469 290.089844 C 417.480469 290.089844 440.644531 308.75 490.042969 307.574219 C 539.4375 306.398438 555.410156 304.378906 565.96875 292.730469 C 576.527344 281.082031 579.65625 294.535156 576.375 303.355469 C 573.097656 312.175781 568.886719 327.222656 544.28125 329.664062 C 528.082031 331.269531 493.066406 331.648438 471.03125 331.722656 C 453.90625 331.863281 436.972656 328.09375 421.519531 320.703125 C 421.316406 320.601562 421.113281 320.503906 420.910156 320.402344 C 411.347656 315.679688 405.292969 305.933594 405.292969 295.265625 C 405.292969 291.109375 406.023438 288.863281 408.726562 288.042969 C 413.601562 286.570312 417.480469 290.089844 417.480469 290.089844 Z M 417.480469 290.089844 "/>
<path style=" stroke:none;fill-rule:nonzero;fill:rgb(24.705882%,23.921569%,33.72549%);fill-opacity:1;" d="M 488.339844 375.582031 C 450.585938 375.601562 413.050781 369.902344 377 358.683594 C 367.84375 355.875 361.601562 347.410156 361.621094 337.828125 L 361.621094 107.910156 C 361.589844 97.214844 369.332031 88.085938 379.882812 86.378906 C 447.914062 75.160156 523.242188 75.304688 603.777344 86.8125 C 614.488281 88.394531 622.4375 97.574219 622.476562 108.410156 L 622.476562 337.34375 C 622.4375 347.105469 615.957031 355.664062 606.578125 358.347656 C 567.140625 369.546875 528.152344 375.339844 490.699219 375.574219 C 489.914062 375.578125 489.125 375.582031 488.339844 375.582031 Z M 485.714844 79.683594 C 450.359375 79.566406 415.050781 82.335938 380.148438 87.96875 C 370.375 89.550781 363.203125 98.003906 363.230469 107.910156 L 363.230469 337.828125 C 363.214844 346.703125 369 354.546875 377.480469 357.144531 C 449.453125 379.558594 526.382812 379.445312 606.136719 356.796875 L 606.355469 357.574219 L 606.136719 356.796875 C 614.824219 354.3125 620.828125 346.382812 620.867188 337.34375 L 620.867188 108.410156 C 620.832031 98.375 613.46875 89.871094 603.546875 88.40625 C 564.523438 82.71875 525.148438 79.800781 485.714844 79.683594 Z M 485.714844 79.683594 "/>
<path style=" stroke:none;fill-rule:nonzero;fill:rgb(24.705882%,23.921569%,33.72549%);fill-opacity:1;" d="M 480.769531 113.773438 C 463.03125 113.773438 447.851562 112.976562 435.421875 111.898438 C 396.328125 108.503906 375.265625 101.660156 375.054688 101.589844 L 375.558594 100.058594 C 375.765625 100.128906 396.707031 106.925781 435.636719 110.300781 C 471.566406 113.414062 530.613281 114.15625 607.839844 100.03125 L 608.128906 101.617188 C 557.394531 110.898438 514.472656 113.773438 480.769531 113.773438 Z M 480.769531 113.773438 "/>
</g>
</svg>
