<?xml version="1.0" encoding="UTF-8"?>
<svg xmlns="http://www.w3.org/2000/svg" xmlns:xlink="http://www.w3.org/1999/xlink" width="418px" height="360px" viewBox="0 0 418 360" version="1.1">
<defs>
<filter id="alpha" filterUnits="objectBoundingBox" x="0%" y="0%" width="100%" height="100%">
  <feColorMatrix type="matrix" in="SourceGraphic" values="0 0 0 0 1 0 0 0 0 1 0 0 0 0 1 0 0 0 1 0"/>
</filter>
<mask id="mask0">
  <g filter="url(#alpha)">
<rect x="0" y="0" width="418" height="360" style="fill:rgb(0%,0%,0%);fill-opacity:0.101961;stroke:none;"/>
  </g>
</mask>
<clipPath id="clip1">
  <rect x="0" y="0" width="418" height="360"/>
</clipPath>
<g id="surface5" clip-path="url(#clip1)">
<path style=" stroke:none;fill-rule:nonzero;fill:rgb(0%,0%,0%);fill-opacity:1;" d="M 190.042969 181.59375 C 190.042969 181.59375 194.210938 175.042969 192.699219 165.039062 C 191.191406 155.039062 182.894531 149.4375 182.894531 149.4375 C 182.894531 149.4375 177.535156 153.605469 182.894531 164.324219 C 182.894531 164.324219 176.34375 170.277344 181.703125 179.808594 "/>
</g>
<mask id="mask1">
  <g filter="url(#alpha)">
<rect x="0" y="0" width="418" height="360" style="fill:rgb(0%,0%,0%);fill-opacity:0.101961;stroke:none;"/>
  </g>
</mask>
<clipPath id="clip2">
  <rect x="0" y="0" width="418" height="360"/>
</clipPath>
<g id="surface8" clip-path="url(#clip2)">
<path style=" stroke:none;fill-rule:nonzero;fill:rgb(0%,0%,0%);fill-opacity:1;" d="M 176.046875 148.542969 L 172.773438 143.480469 C 172.773438 143.480469 157.289062 141.097656 159.078125 146.457031 C 160.863281 151.816406 168.007812 149.4375 168.007812 149.4375 L 172.175781 153.605469 Z M 176.046875 148.542969 "/>
</g>
</defs>
<g id="surface1">
<path style=" stroke:none;fill-rule:nonzero;fill:rgb(42.352941%,38.823529%,100%);fill-opacity:1;" d="M 103.671875 115.609375 C 103.671875 115.609375 58.984375 131 50.414062 145.207031 C 41.847656 159.414062 103.671875 115.609375 103.671875 115.609375 Z M 103.671875 115.609375 "/>
<path style=" stroke:none;fill-rule:nonzero;fill:rgb(24.705882%,23.921569%,33.72549%);fill-opacity:1;" d="M 26.460938 164.875 C 25.832031 164.921875 25.214844 164.695312 24.765625 164.25 C 23.378906 162.996094 24.511719 160.628906 25.488281 158.957031 C 38.5625 136.542969 104.296875 112.925781 107.085938 111.933594 L 113.097656 109.792969 L 107.949219 113.5625 C 107.761719 113.703125 88.636719 127.699219 69.0625 140.890625 C 38.625 161.394531 29.589844 164.875 26.460938 164.875 Z M 101.246094 116.121094 C 83.984375 122.804688 37.46875 142.117188 27.101562 159.898438 C 25.71875 162.265625 26.011719 162.859375 26.015625 162.863281 C 26.292969 163.164062 29.828125 165.054688 67.792969 139.496094 C 81.027344 130.585938 94.082031 121.28125 101.246094 116.121094 Z M 101.246094 116.121094 "/>
<path style=" stroke:none;fill-rule:nonzero;fill:rgb(42.352941%,38.823529%,100%);fill-opacity:1;" d="M 102.703125 100.234375 C 102.703125 100.234375 61.523438 96 49.03125 103.234375 C 36.539062 110.46875 102.703125 100.234375 102.703125 100.234375 Z M 102.703125 100.234375 "/>
<path style=" stroke:none;fill-rule:nonzero;fill:rgb(24.705882%,23.921569%,33.72549%);fill-opacity:1;" d="M 46.585938 107.152344 C 32.171875 107.152344 31.183594 104.84375 30.730469 103.785156 C 29.824219 101.671875 32.34375 99.679688 33.175781 99.027344 C 51.046875 84.914062 105.335938 99.175781 107.640625 99.789062 L 112.054688 100.96875 L 107.53125 101.613281 C 107.347656 101.640625 89.160156 104.226562 70.804688 105.847656 C 60.097656 106.792969 52.292969 107.152344 46.585938 107.152344 Z M 59.21875 94.714844 C 49.066406 94.714844 39.777344 96.1875 34.332031 100.488281 C 32.6875 101.789062 32.277344 102.664062 32.445312 103.050781 C 32.863281 104.023438 36.851562 106.972656 70.640625 103.988281 C 83.230469 102.878906 95.742188 101.3125 102.386719 100.429688 C 93.871094 98.472656 75.441406 94.714844 59.21875 94.714844 Z M 59.21875 94.714844 "/>
<path style=" stroke:none;fill-rule:nonzero;fill:rgb(42.352941%,38.823529%,100%);fill-opacity:1;" d="M 114.488281 92.980469 C 114.488281 92.980469 93.773438 43.242188 98.792969 38.320312 C 103.8125 33.394531 114.488281 92.980469 114.488281 92.980469 Z M 114.488281 92.980469 "/>
<path style=" stroke:none;fill-rule:nonzero;fill:rgb(24.705882%,23.921569%,33.72549%);fill-opacity:1;" d="M 115.632812 97.355469 L 113.058594 90.773438 C 112.992188 90.613281 106.691406 74.46875 101.5 57.847656 C 90.804688 23.617188 95.1875 20.695312 96.628906 19.734375 C 97.351562 19.214844 98.300781 19.136719 99.101562 19.527344 C 107.183594 23.292969 114.089844 83.480469 114.851562 90.332031 Z M 98.046875 21.148438 C 97.90625 21.152344 97.773438 21.203125 97.660156 21.285156 C 92.515625 24.71875 102.949219 58.507812 112.121094 83.101562 C 108.976562 57.742188 103.183594 23.484375 98.316406 21.214844 C 98.230469 21.171875 98.140625 21.148438 98.046875 21.148438 Z M 98.046875 21.148438 "/>
<path style=" stroke:none;fill-rule:nonzero;fill:rgb(42.352941%,38.823529%,100%);fill-opacity:1;" d="M 122.316406 103.917969 C 122.316406 103.917969 133.433594 53.644531 145.078125 53.644531 C 156.726562 53.644531 122.316406 103.917969 122.316406 103.917969 Z M 122.316406 103.917969 "/>
<path style=" stroke:none;fill-rule:nonzero;fill:rgb(24.705882%,23.921569%,33.72549%);fill-opacity:1;" d="M 119.382812 107.386719 L 120.480469 103.25 C 121.289062 100.210938 140.484375 28.902344 161.46875 28.902344 C 164.347656 28.902344 165.585938 30.25 166.121094 31.382812 C 171.71875 43.234375 127.199219 97.886719 122.101562 104.078125 Z M 161.46875 30.765625 C 144.71875 30.765625 128.070312 83.710938 123.503906 99.402344 C 138.527344 80.734375 168.46875 40.726562 164.4375 32.179688 C 164.269531 31.832031 163.769531 30.765625 161.46875 30.765625 Z M 161.46875 30.765625 "/>
<path style=" stroke:none;fill-rule:nonzero;fill:rgb(42.352941%,38.823529%,100%);fill-opacity:1;" d="M 128.839844 104.417969 C 128.839844 104.417969 167.0625 80.265625 245.371094 87.636719 C 323.679688 95.011719 128.839844 104.417969 128.839844 104.417969 Z M 128.839844 104.417969 "/>
<path style=" stroke:none;fill-rule:nonzero;fill:rgb(24.705882%,23.921569%,33.72549%);fill-opacity:1;" d="M 126.234375 105.425781 L 128.234375 103.710938 C 128.640625 103.363281 138.382812 95.128906 157.90625 88.503906 C 175.871094 82.40625 205.820312 76.664062 246.46875 83.921875 C 263.640625 86.992188 265.871094 89.277344 265.722656 91.289062 C 265.574219 93.277344 265.226562 97.933594 196.613281 102.25 C 163.085938 104.359375 129.207031 105.34375 128.867188 105.351562 Z M 209.578125 82.398438 C 165.429688 82.398438 139.324219 98.085938 131.757812 103.398438 C 140.71875 103.109375 168.730469 102.136719 196.5 100.390625 C 260.257812 96.378906 263.800781 91.988281 263.859375 91.148438 C 263.867188 91.0625 263.820312 88.917969 246.140625 85.757812 C 234.074219 83.5625 221.839844 82.4375 209.578125 82.398438 Z M 209.578125 82.398438 "/>
<path style=" stroke:none;fill-rule:nonzero;fill:rgb(42.352941%,38.823529%,100%);fill-opacity:1;" d="M 153.078125 107.253906 C 153.078125 107.253906 220.03125 106.359375 223.792969 113.507812 C 227.554688 120.65625 153.078125 107.253906 153.078125 107.253906 Z M 153.078125 107.253906 "/>
<path style=" stroke:none;fill-rule:nonzero;fill:rgb(24.705882%,23.921569%,33.72549%);fill-opacity:1;" d="M 232.367188 125.523438 C 210.996094 125.523438 159.628906 110.175781 152.808594 108.109375 L 147.222656 106.417969 L 153.058594 106.285156 C 161.621094 106.09375 236.867188 104.839844 241.601562 119.992188 C 242.160156 121.785156 241.511719 122.9375 240.867188 123.585938 C 239.519531 124.945312 236.503906 125.523438 232.367188 125.523438 Z M 159.1875 108.0625 C 190.589844 117.269531 234.195312 127.667969 239.542969 122.273438 C 239.832031 121.980469 240.125 121.523438 239.820312 120.546875 C 236.457031 109.785156 185.140625 107.886719 159.1875 108.0625 Z M 159.1875 108.0625 "/>
<path style=" stroke:none;fill-rule:nonzero;fill:rgb(42.352941%,38.823529%,100%);fill-opacity:1;" d="M 140.027344 114.675781 C 140.027344 114.675781 180.46875 133.367188 172.566406 139.121094 C 164.664062 144.871094 140.027344 114.675781 140.027344 114.675781 Z M 140.027344 114.675781 "/>
<path style=" stroke:none;fill-rule:nonzero;fill:rgb(24.705882%,23.921569%,33.72549%);fill-opacity:1;" d="M 197.761719 161.734375 C 178.199219 161.734375 138.371094 114.679688 136.515625 112.476562 L 133.894531 109.363281 L 137.613281 111.027344 C 140.324219 112.242188 204.054688 140.972656 205.449219 155.363281 C 205.632812 157.269531 204.796875 158.9375 203.027344 160.1875 C 201.476562 161.246094 199.636719 161.785156 197.761719 161.734375 Z M 140.691406 114.480469 C 156.070312 132.128906 190.289062 166.898438 201.949219 158.664062 C 203.191406 157.789062 203.714844 156.796875 203.59375 155.542969 C 202.589844 145.195312 160.945312 123.863281 140.691406 114.480469 Z M 140.691406 114.480469 "/>
<path style=" stroke:none;fill-rule:nonzero;fill:rgb(42.352941%,38.823529%,100%);fill-opacity:1;" d="M 207.148438 137.050781 C 207.148438 137.050781 240.710938 151.035156 233.253906 160.359375 C 225.792969 169.683594 207.148438 137.050781 207.148438 137.050781 Z M 207.148438 137.050781 "/>
<path style=" stroke:none;fill-rule:nonzero;fill:rgb(42.352941%,38.823529%,100%);fill-opacity:1;" d="M 144.6875 125.863281 C 144.6875 125.863281 214.609375 202.3125 208.082031 206.976562 C 201.554688 211.636719 144.6875 125.863281 144.6875 125.863281 Z M 144.6875 125.863281 "/>
<path style=" stroke:none;fill-rule:nonzero;fill:rgb(42.352941%,38.823529%,100%);fill-opacity:1;" d="M 131.636719 120.269531 C 131.636719 120.269531 161.074219 169.300781 155.066406 174.066406 C 149.058594 178.835938 131.636719 120.269531 131.636719 120.269531 Z M 131.636719 120.269531 "/>
<path style=" stroke:none;fill-rule:nonzero;fill:rgb(24.705882%,23.921569%,33.72549%);fill-opacity:1;" d="M 164.957031 192.433594 C 164.589844 192.433594 164.226562 192.371094 163.878906 192.253906 C 153.085938 188.707031 131.335938 125.019531 128.890625 117.769531 L 126.714844 111.320312 L 130.542969 116.949219 C 130.660156 117.117188 142.101562 133.957031 152.253906 151.382812 C 171.023438 183.59375 169.46875 189.925781 166.664062 191.890625 C 166.167969 192.246094 165.570312 192.4375 164.957031 192.433594 Z M 133.027344 124.042969 C 140.960938 146.566406 156.933594 188.011719 164.460938 190.484375 C 164.835938 190.640625 165.261719 190.59375 165.597656 190.363281 C 167.136719 189.285156 168.765625 183.417969 150.648438 152.328125 C 144.21875 141.296875 137.269531 130.496094 133.027344 124.042969 Z M 133.027344 124.042969 "/>
<path style=" stroke:none;fill-rule:nonzero;fill:rgb(42.352941%,38.823529%,100%);fill-opacity:1;" d="M 119.183594 118.40625 C 119.183594 118.40625 92.691406 196.585938 108.949219 195.78125 C 125.207031 194.976562 119.183594 118.40625 119.183594 118.40625 Z M 119.183594 118.40625 "/>
<path style=" stroke:none;fill-rule:nonzero;fill:rgb(24.705882%,23.921569%,33.72549%);fill-opacity:1;" d="M 102.351562 208.847656 C 99.5 208.847656 97.304688 207.730469 95.828125 205.527344 C 85.339844 189.894531 116.410156 120.945312 117.738281 118.019531 L 119.15625 114.894531 L 119.511719 118.308594 C 119.808594 121.097656 126.535156 186.894531 111.292969 204.472656 C 108.882812 207.25 106.015625 208.71875 102.773438 208.839844 C 102.632812 208.84375 102.492188 208.847656 102.351562 208.847656 Z M 117.988281 122.074219 C 111.84375 136.199219 88.703125 191.5625 97.375 204.488281 C 98.558594 206.253906 100.300781 207.070312 102.703125 206.976562 C 105.449219 206.875 107.796875 205.65625 109.886719 203.25 C 122.625 188.554688 119.183594 136.273438 117.988281 122.074219 Z M 117.988281 122.074219 "/>
<path style=" stroke:none;fill-rule:nonzero;fill:rgb(42.352941%,38.823529%,100%);fill-opacity:1;" d="M 110.035156 122.289062 C 110.035156 122.289062 65.5625 173.160156 69.632812 178.519531 C 73.699219 183.875 110.035156 122.289062 110.035156 122.289062 Z M 110.035156 122.289062 "/>
<path style=" stroke:none;fill-rule:nonzero;fill:rgb(24.705882%,23.921569%,33.72549%);fill-opacity:1;" d="M 56.25 197.0625 C 55.664062 197.074219 55.089844 196.882812 54.621094 196.523438 C 53.980469 196 53.59375 195.230469 53.5625 194.402344 C 52.445312 181.765625 111.644531 115.914062 114.164062 113.117188 L 120.125 106.507812 L 115.664062 114.210938 C 113.761719 117.492188 68.976562 194.644531 56.917969 196.996094 C 56.699219 197.039062 56.476562 197.0625 56.25 197.0625 Z M 109.261719 121.433594 C 89.648438 143.710938 54.644531 185.464844 55.421875 194.238281 C 55.40625 194.546875 55.535156 194.847656 55.765625 195.050781 C 56 195.210938 56.292969 195.253906 56.558594 195.164062 C 64.894531 193.542969 94.011719 147.101562 109.261719 121.433594 Z M 109.261719 121.433594 "/>
<path style=" stroke:none;fill-rule:nonzero;fill:rgb(42.352941%,38.823529%,100%);fill-opacity:1;" d="M 96.683594 88.035156 C 96.683594 88.035156 57.914062 42.234375 22.058594 46.671875 C -13.792969 51.113281 96.683594 88.035156 96.683594 88.035156 Z M 96.683594 88.035156 "/>
<path style=" stroke:none;fill-rule:nonzero;fill:rgb(24.705882%,23.921569%,33.72549%);fill-opacity:1;" d="M 101.851562 90.175781 L 98.800781 89.480469 C 98.558594 89.421875 74.050781 83.804688 49.824219 76.632812 C 0.214844 61.949219 0.0546875 55.199219 0 52.980469 C -0.0625 50.304688 2.664062 48.234375 8.332031 46.648438 C 29.371094 40.777344 53.125 52.34375 69.34375 63.085938 C 80.234375 70.367188 90.394531 78.683594 99.679688 87.921875 Z M 20.371094 46.921875 C 16.472656 46.902344 12.589844 47.414062 8.832031 48.445312 C 4.300781 49.710938 1.828125 51.304688 1.863281 52.9375 C 2.078125 61.886719 57.09375 77.847656 96.003906 86.917969 C 86.804688 78.097656 52.058594 46.921875 20.371094 46.921875 Z M 20.371094 46.921875 "/>
<path style=" stroke:none;fill-rule:nonzero;fill:rgb(42.352941%,38.823529%,100%);fill-opacity:1;" d="M 66.378906 84.839844 C 66.378906 84.839844 15.105469 81.113281 18.835938 90.433594 C 22.566406 99.757812 66.378906 84.839844 66.378906 84.839844 Z M 66.378906 84.839844 "/>
<path style=" stroke:none;fill-rule:nonzero;fill:rgb(42.352941%,38.823529%,100%);fill-opacity:1;" d="M 79.433594 50.34375 C 79.433594 50.34375 76.636719 37.292969 71.972656 40.089844 C 67.3125 42.886719 79.433594 50.34375 79.433594 50.34375 Z M 79.433594 50.34375 "/>
<path style=" stroke:none;fill-rule:nonzero;fill:rgb(42.352941%,38.823529%,100%);fill-opacity:1;" d="M 126.664062 59.582031 C 126.664062 59.582031 139.457031 5.820312 133.660156 5.625 C 127.863281 5.425781 126.664062 59.582031 126.664062 59.582031 Z M 126.664062 59.582031 "/>
<path style=" stroke:none;fill-rule:nonzero;fill:rgb(24.705882%,23.921569%,33.72549%);fill-opacity:1;" d="M 124.285156 71.484375 L 124.179688 64.34375 C 124.144531 62.050781 123.433594 8.097656 130.449219 0.980469 C 130.992188 0.375 131.757812 0.0195312 132.570312 0 C 133.359375 0.00390625 134.101562 0.382812 134.566406 1.023438 C 139.964844 7.9375 127.460938 58.78125 126.015625 64.554688 Z M 132.570312 1.863281 C 132.476562 1.863281 132.195312 1.863281 131.777344 2.289062 C 127.144531 6.992188 126.070312 38.269531 126.007812 56.664062 C 131.140625 34.746094 136.375 6.367188 133.097656 2.171875 C 132.988281 1.984375 132.785156 1.867188 132.570312 1.863281 Z M 132.570312 1.863281 "/>
<path style=" stroke:none;fill-rule:nonzero;fill:rgb(42.352941%,38.823529%,100%);fill-opacity:1;" d="M 185.707031 67.128906 C 185.707031 67.128906 191.300781 53.140625 196.894531 56.871094 C 202.488281 60.601562 185.707031 67.128906 185.707031 67.128906 Z M 185.707031 67.128906 "/>
<path style=" stroke:none;fill-rule:nonzero;fill:rgb(42.352941%,38.823529%,100%);fill-opacity:1;" d="M 132.570312 191.125 C 132.570312 191.125 125.113281 246.132812 139.097656 245.199219 C 153.078125 244.269531 132.570312 191.125 132.570312 191.125 Z M 132.570312 191.125 "/>
<path style=" stroke:none;fill-rule:nonzero;fill:rgb(100%,72.54902%,72.54902%);fill-opacity:1;" d="M 171.582031 178.617188 C 171.582031 178.617188 164.4375 166.707031 164.4375 158.367188 C 164.4375 158.367188 151.929688 145.269531 155.503906 141.695312 C 159.078125 138.121094 166.816406 151.816406 166.816406 151.816406 C 166.816406 151.816406 152.527344 135.738281 156.695312 133.355469 C 160.863281 130.976562 174.558594 148.839844 174.558594 148.839844 L 179.324219 146.457031 C 179.324219 146.457031 169.203125 121.5 176.34375 120.851562 C 179.621094 120.554688 187.0625 144.671875 187.0625 144.671875 L 194.804688 164.324219 C 194.804688 164.324219 197.78125 171.46875 196.589844 175.640625 C 195.867188 178.1875 195.269531 180.769531 194.804688 183.378906 Z M 171.582031 178.617188 "/>
<use xlink:href="#surface5" mask="url(#mask0)"/>
<path style=" stroke:none;fill-rule:nonzero;fill:rgb(100%,72.54902%,72.54902%);fill-opacity:1;" d="M 192.421875 181.59375 C 192.421875 181.59375 196.589844 175.042969 195.082031 165.039062 C 193.574219 155.039062 185.277344 149.4375 185.277344 149.4375 C 185.277344 149.4375 179.917969 153.605469 185.277344 164.324219 C 185.277344 164.324219 178.726562 170.277344 184.085938 179.808594 "/>
<use xlink:href="#surface8" mask="url(#mask1)"/>
<path style=" stroke:none;fill-rule:nonzero;fill:rgb(100%,72.54902%,72.54902%);fill-opacity:1;" d="M 178.726562 148.246094 L 173.964844 141.695312 C 173.964844 141.695312 158.480469 139.3125 160.269531 144.671875 C 162.054688 150.03125 169.199219 147.648438 169.199219 147.648438 L 173.367188 151.816406 Z M 178.726562 148.246094 "/>
<path style=" stroke:none;fill-rule:nonzero;fill:rgb(100%,72.54902%,72.54902%);fill-opacity:1;" d="M 289.1875 226.554688 L 286.207031 250.375 L 332.65625 253.351562 L 332.65625 224.769531 Z M 289.1875 226.554688 "/>
<path style=" stroke:none;fill-rule:nonzero;fill:rgb(81.176471%,80%,87.843137%);fill-opacity:1;" d="M 417.804688 359.949219 L 380.140625 284.609375 C 377.890625 277.160156 370.863281 265.023438 349.03125 257.222656 L 332.652344 243.371094 L 320.449219 242.929688 L 271.621094 235.785156 C 271.621094 235.785156 234.105469 233.402344 209.691406 248.289062 L 203.140625 245.3125 C 203.140625 245.3125 192.421875 207.199219 197.1875 179.808594 L 169.796875 177.425781 C 169.796875 177.425781 154.910156 242.335938 162.054688 261.988281 C 169.199219 281.640625 195.398438 295.933594 195.398438 295.933594 L 218.625 319.15625 L 227.554688 359.652344 L 366.894531 359.652344 L 369.109375 349.027344 L 379.992188 359.652344 Z M 417.804688 359.949219 "/>
<path style=" stroke:none;fill-rule:nonzero;fill:rgb(81.176471%,80%,87.843137%);fill-opacity:1;" d="M 365.140625 224.769531 C 321.269531 236.617188 278.152344 237.457031 235.945312 224.953125 C 230.984375 223.484375 227.59375 219.128906 227.59375 214.183594 L 227.59375 90.878906 C 227.59375 85.363281 231.789062 80.65625 237.511719 79.757812 C 277.328125 73.511719 319.503906 73.996094 363.621094 79.992188 C 369.449219 80.785156 373.777344 85.542969 373.777344 91.148438 L 373.777344 213.921875 C 373.777344 218.96875 370.246094 223.394531 365.140625 224.769531 Z M 365.140625 224.769531 "/>
<path style=" stroke:none;fill-rule:nonzero;fill:rgb(24.705882%,23.921569%,33.72549%);fill-opacity:1;" d="M 274.667969 140.394531 C 274.667969 140.394531 264.578125 125.644531 270.785156 121.765625 C 276.996094 117.882812 286.308594 128.75 286.308594 128.75 C 286.308594 128.75 297.953125 118.660156 304.164062 122.539062 C 310.371094 126.421875 297.953125 140.394531 297.953125 140.394531 C 297.953125 140.394531 307.265625 142.722656 308.042969 148.933594 C 308.820312 155.144531 311.925781 171.445312 298.730469 172.21875 C 291.660156 172.636719 287.710938 170.601562 285.566406 168.621094 C 283.953125 167.175781 281.515625 167.148438 279.867188 168.554688 C 275.394531 172.324219 267.335938 176.671875 261.472656 166.011719 C 259.144531 149.710938 274.667969 140.394531 274.667969 140.394531 Z M 274.667969 140.394531 "/>
<path style=" stroke:none;fill-rule:nonzero;fill:rgb(24.705882%,23.921569%,33.72549%);fill-opacity:1;" d="M 349.179688 141.945312 C 349.179688 141.945312 359.269531 127.199219 353.0625 123.316406 C 346.851562 119.4375 337.539062 130.304688 337.539062 130.304688 C 337.539062 130.304688 325.894531 120.210938 319.6875 124.09375 C 313.476562 127.976562 325.894531 141.945312 325.894531 141.945312 C 325.894531 141.945312 316.582031 144.277344 315.804688 150.484375 C 315.027344 156.695312 311.925781 172.996094 325.121094 173.773438 C 332.1875 174.1875 336.136719 172.152344 338.28125 170.175781 C 339.898438 168.726562 342.332031 168.699219 343.980469 170.109375 C 348.453125 173.878906 356.511719 178.222656 362.375 167.5625 C 364.703125 151.261719 349.179688 141.945312 349.179688 141.945312 Z M 349.179688 141.945312 "/>
<path style=" stroke:none;fill-rule:nonzero;fill:rgb(24.705882%,23.921569%,33.72549%);fill-opacity:1;" d="M 262.417969 182.253906 C 262.417969 182.253906 276.976562 193.980469 308.027344 193.242188 C 339.074219 192.5 349.113281 191.234375 355.75 183.914062 C 362.386719 176.597656 364.355469 185.050781 362.292969 190.589844 C 360.234375 196.128906 357.585938 205.585938 342.117188 207.117188 C 331.9375 208.128906 309.929688 208.367188 296.078125 208.414062 C 285.3125 208.5 274.667969 206.132812 264.957031 201.488281 C 264.828125 201.425781 264.699219 201.363281 264.570312 201.300781 C 258.5625 198.332031 254.757812 192.210938 254.753906 185.507812 C 254.753906 182.894531 255.214844 181.484375 256.914062 180.96875 C 259.976562 180.042969 262.417969 182.253906 262.417969 182.253906 Z M 262.417969 182.253906 "/>
<path style=" stroke:none;fill-rule:nonzero;fill:rgb(24.705882%,23.921569%,33.72549%);fill-opacity:1;" d="M 306.957031 235.96875 C 283.226562 235.980469 259.632812 232.398438 236.972656 225.351562 C 231.21875 223.585938 227.292969 218.265625 227.304688 212.25 L 227.304688 67.796875 C 227.285156 61.078125 232.152344 55.34375 238.785156 54.269531 C 281.546875 47.222656 328.894531 47.3125 379.515625 54.539062 C 386.25 55.535156 391.246094 61.304688 391.273438 68.109375 L 391.273438 211.941406 C 391.246094 218.074219 387.171875 223.453125 381.277344 225.140625 C 356.488281 232.175781 331.980469 235.816406 308.4375 235.964844 C 307.945312 235.964844 307.449219 235.96875 306.957031 235.96875 Z M 305.308594 50.0625 C 283.082031 49.988281 260.890625 51.730469 238.949219 55.269531 C 232.808594 56.261719 228.296875 61.574219 228.316406 67.796875 L 228.316406 212.25 C 228.304688 217.824219 231.941406 222.75 237.273438 224.382812 C 282.511719 238.46875 330.871094 238.394531 381 224.167969 L 381.136719 224.652344 L 381 224.167969 C 386.460938 222.605469 390.234375 217.625 390.257812 211.941406 L 390.257812 68.109375 C 390.238281 61.804688 385.609375 56.464844 379.371094 55.542969 C 354.84375 51.96875 330.09375 50.136719 305.308594 50.0625 Z M 305.308594 50.0625 "/>
<path style=" stroke:none;fill-rule:nonzero;fill:rgb(24.705882%,23.921569%,33.72549%);fill-opacity:1;" d="M 302.199219 71.480469 C 291.046875 71.480469 281.507812 70.980469 273.691406 70.300781 C 249.121094 68.171875 235.878906 63.867188 235.75 63.824219 L 236.066406 62.863281 C 236.195312 62.90625 249.359375 67.179688 273.828125 69.296875 C 296.414062 71.253906 333.527344 71.722656 382.070312 62.847656 L 382.253906 63.84375 C 350.359375 69.671875 323.382812 71.480469 302.199219 71.480469 Z M 302.199219 71.480469 "/>
</g>
</svg>
