<?xml version="1.0" encoding="UTF-8"?>
<svg xmlns="http://www.w3.org/2000/svg" xmlns:xlink="http://www.w3.org/1999/xlink" width="920px" height="412px" viewBox="0 0 690 309" version="1.1">
<g id="surface1">
<path style=" stroke:none;fill-rule:nonzero;fill:rgb(90.196078%,90.196078%,90.196078%);fill-opacity:1;" d="M 327.394531 307.5 L 474.089844 307.5 C 479.878906 307.5 479.886719 298.5 474.089844 298.5 L 327.394531 298.5 C 321.605469 298.5 321.59375 307.5 327.394531 307.5 Z M 327.394531 307.5 "/>
<path style=" stroke:none;fill-rule:nonzero;fill:rgb(42.352941%,38.823529%,100%);fill-opacity:1;" d="M 287.789062 111.921875 L 141.589844 111.921875 C 138.375 111.925781 135.769531 114.53125 135.765625 117.75 L 135.765625 146.792969 C 143.058594 146.964844 147.789062 152.980469 148.9375 160.289062 L 148.9375 186.617188 L 149.492188 186.617188 C 149.675781 186.617188 149.824219 186.765625 149.824219 186.949219 L 149.824219 200.960938 C 149.824219 201.144531 149.675781 201.292969 149.492188 201.292969 L 148.9375 201.292969 L 148.9375 285.976562 C 148.9375 287.835938 148.917969 291.230469 148.917969 291.230469 L 287.789062 291.230469 C 291.003906 291.226562 293.609375 288.621094 293.613281 285.402344 L 293.613281 117.75 C 293.609375 114.53125 291.003906 111.925781 287.789062 111.921875 Z M 287.789062 111.921875 "/>
<path style=" stroke:none;fill-rule:nonzero;fill:rgb(42.352941%,38.823529%,100%);fill-opacity:1;" d="M 559.425781 16.359375 L 559.425781 175.28125 L 303.726562 175.28125 L 303.726562 105.3125 C 303.71875 98.695312 298.359375 93.335938 291.742188 93.328125 L 243.789062 93.328125 L 243.789062 16.359375 Z M 559.425781 16.359375 "/>
<path style=" stroke:none;fill-rule:nonzero;fill:rgb(24.705882%,23.921569%,33.72549%);fill-opacity:1;" d="M 575.210938 197.6875 L 304.011719 197.6875 L 304.011719 196.578125 L 574.105469 196.578125 L 574.105469 9.414062 C 574.097656 4.828125 570.382812 1.113281 565.796875 1.109375 L 234.105469 1.109375 C 229.519531 1.113281 225.804688 4.828125 225.796875 9.414062 L 225.796875 92.609375 L 224.691406 92.609375 L 224.691406 9.414062 C 224.695312 4.21875 228.90625 0.00390625 234.105469 0 L 565.796875 0 C 570.996094 0.00390625 575.207031 4.21875 575.210938 9.414062 Z M 575.210938 197.6875 "/>
<path style=" stroke:none;fill-rule:nonzero;fill:rgb(24.705882%,23.921569%,33.72549%);fill-opacity:1;" d="M 549.515625 231.464844 L 304.011719 231.464844 L 304.011719 230.359375 L 549.515625 230.359375 C 563.089844 230.34375 574.089844 219.34375 574.105469 205.769531 L 574.105469 197.6875 L 304.011719 197.6875 L 304.011719 196.578125 L 575.210938 196.578125 L 575.210938 205.769531 C 575.195312 219.953125 563.699219 231.449219 549.515625 231.464844 Z M 549.515625 231.464844 "/>
<path style=" stroke:none;fill-rule:nonzero;fill:rgb(24.705882%,23.921569%,33.72549%);fill-opacity:1;" d="M 476.65625 285.734375 C 462.96875 272.589844 453.964844 255.445312 451.070312 231.464844 L 350.203125 231.464844 C 349.179688 253.898438 340.230469 270.726562 324.09375 285.675781 L 322.390625 285.734375 C 339.039062 270.644531 348.210938 253.695312 349.121094 230.890625 L 349.140625 230.359375 L 452.054688 230.359375 L 452.113281 230.847656 C 454.957031 255.234375 464.148438 272.492188 478.171875 285.644531 Z M 476.65625 285.734375 "/>
<path style=" stroke:none;fill-rule:nonzero;fill:rgb(24.705882%,23.921569%,33.72549%);fill-opacity:1;" d="M 291.476562 308.644531 L 136.097656 308.644531 L 136.097656 307.535156 L 291.476562 307.535156 C 298.089844 307.527344 303.449219 302.167969 303.457031 295.554688 L 303.457031 105.566406 C 303.449219 98.949219 298.089844 93.589844 291.476562 93.582031 L 136.097656 93.582031 C 129.480469 93.589844 124.121094 98.949219 124.113281 105.566406 L 124.113281 146.566406 L 123.003906 146.566406 L 123.003906 105.566406 C 123.015625 98.339844 128.871094 92.484375 136.097656 92.476562 L 291.476562 92.476562 C 298.703125 92.484375 304.558594 98.339844 304.566406 105.566406 L 304.566406 295.554688 C 304.558594 302.777344 298.703125 308.636719 291.476562 308.644531 Z M 291.476562 308.644531 "/>
<path style=" stroke:none;fill-rule:nonzero;fill:rgb(24.705882%,23.921569%,33.72549%);fill-opacity:1;" d="M 213.785156 106.488281 C 211.710938 106.488281 210.03125 104.804688 210.03125 102.730469 C 210.03125 100.660156 211.710938 98.976562 213.785156 98.976562 C 215.859375 98.976562 217.539062 100.65625 217.539062 102.730469 C 217.539062 104.804688 215.859375 106.484375 213.785156 106.488281 Z M 213.785156 99.84375 C 212.191406 99.84375 210.898438 101.136719 210.898438 102.730469 C 210.898438 104.328125 212.191406 105.621094 213.785156 105.617188 C 215.378906 105.617188 216.671875 104.328125 216.671875 102.730469 C 216.671875 101.136719 215.378906 99.847656 213.785156 99.84375 Z M 213.785156 99.84375 "/>
<path style=" stroke:none;fill-rule:nonzero;fill:rgb(24.705882%,23.921569%,33.72549%);fill-opacity:1;" d="M 213.785156 304.398438 C 211.140625 304.398438 208.996094 302.253906 208.996094 299.605469 C 208.996094 296.960938 211.140625 294.816406 213.785156 294.816406 C 216.433594 294.816406 218.578125 296.960938 218.578125 299.605469 C 218.574219 302.25 216.429688 304.394531 213.785156 304.398438 Z M 213.785156 295.921875 C 211.75 295.921875 210.101562 297.574219 210.101562 299.605469 C 210.101562 301.640625 211.75 303.289062 213.785156 303.289062 C 215.820312 303.289062 217.46875 301.640625 217.46875 299.605469 C 217.46875 297.574219 215.820312 295.925781 213.785156 295.921875 Z M 213.785156 295.921875 "/>
<path style=" stroke:none;fill-rule:nonzero;fill:rgb(24.705882%,23.921569%,33.72549%);fill-opacity:1;" d="M 134.535156 308.964844 L 83.101562 308.964844 C 75.039062 308.953125 68.503906 302.421875 68.496094 294.359375 L 68.496094 161.171875 C 68.503906 153.109375 75.039062 146.574219 83.101562 146.566406 L 134.535156 146.566406 C 142.597656 146.574219 149.132812 153.109375 149.140625 161.171875 L 149.140625 185.003906 C 149.675781 185.230469 150.027344 185.753906 150.027344 186.335938 L 150.027344 201.84375 C 150.027344 202.425781 149.675781 202.949219 149.140625 203.171875 L 149.140625 294.359375 C 149.132812 302.421875 142.597656 308.953125 134.535156 308.964844 Z M 83.101562 147.671875 C 75.648438 147.683594 69.613281 153.71875 69.601562 161.171875 L 69.601562 294.359375 C 69.613281 301.808594 75.648438 307.847656 83.101562 307.855469 L 134.535156 307.855469 C 141.988281 307.847656 148.023438 301.808594 148.03125 294.359375 L 148.03125 202.175781 L 148.585938 202.175781 C 148.769531 202.175781 148.917969 202.027344 148.917969 201.84375 L 148.917969 186.335938 C 148.917969 186.152344 148.769531 186.003906 148.585938 186.003906 L 148.03125 186.003906 L 148.03125 161.171875 C 148.023438 153.71875 141.988281 147.683594 134.535156 147.671875 Z M 83.101562 147.671875 "/>
<path style=" stroke:none;fill-rule:nonzero;fill:rgb(42.352941%,38.823529%,100%);fill-opacity:1;" d="M 135.101562 150.777344 L 128.386719 150.777344 C 129.015625 152.3125 128.835938 154.0625 127.910156 155.4375 C 126.984375 156.816406 125.433594 157.644531 123.773438 157.644531 L 94.304688 157.644531 C 92.644531 157.644531 91.09375 156.816406 90.167969 155.4375 C 89.242188 154.0625 89.0625 152.3125 89.691406 150.777344 L 83.417969 150.777344 C 77.625 150.777344 72.925781 155.472656 72.925781 161.269531 L 72.925781 294.261719 C 72.925781 300.058594 77.625 304.753906 83.417969 304.753906 L 135.101562 304.753906 C 140.898438 304.753906 145.597656 300.058594 145.597656 294.261719 L 145.597656 161.269531 C 145.597656 155.472656 140.898438 150.777344 135.101562 150.777344 Z M 135.101562 150.777344 "/>
<path style=" stroke:none;fill-rule:nonzero;fill:rgb(24.705882%,23.921569%,33.72549%);fill-opacity:1;" d="M 689.421875 308.746094 L 0.660156 308.746094 C 0.421875 308.75 0.203125 308.621094 0.0859375 308.417969 C -0.03125 308.214844 -0.03125 307.960938 0.0859375 307.757812 C 0.203125 307.554688 0.421875 307.429688 0.660156 307.429688 L 689.421875 307.429688 C 689.660156 307.429688 689.875 307.554688 689.996094 307.757812 C 690.113281 307.960938 690.113281 308.214844 689.996094 308.417969 C 689.875 308.621094 689.660156 308.75 689.421875 308.746094 Z M 689.421875 308.746094 "/>
<path style=" stroke:none;fill-rule:nonzero;fill:rgb(24.705882%,23.921569%,33.72549%);fill-opacity:1;" d="M 476.996094 308.4375 L 323.609375 308.4375 C 317.183594 308.441406 311.96875 303.234375 311.96875 296.808594 C 311.96875 290.382812 317.183594 285.175781 323.609375 285.179688 L 476.996094 285.179688 C 483.414062 285.183594 488.617188 290.390625 488.617188 296.808594 C 488.617188 303.226562 483.414062 308.433594 476.996094 308.4375 Z M 323.609375 286.285156 C 317.796875 286.285156 313.085938 290.996094 313.085938 296.808594 C 313.085938 302.617188 317.796875 307.328125 323.609375 307.328125 L 476.996094 307.328125 C 482.808594 307.328125 487.519531 302.617188 487.519531 296.808594 C 487.519531 290.996094 482.808594 286.285156 476.996094 286.285156 Z M 323.609375 286.285156 "/>
<path style=" stroke:none;fill-rule:nonzero;fill:rgb(100%,72.156863%,72.156863%);fill-opacity:1;" d="M 588.371094 219.898438 L 592.667969 228.878906 L 629.355469 216.582031 L 623.015625 203.328125 Z M 588.371094 219.898438 "/>
<path style=" stroke:none;fill-rule:nonzero;fill:rgb(18.431373%,18.039216%,25.490196%);fill-opacity:1;" d="M 592.613281 250.191406 L 579.109375 221.960938 L 590.015625 216.746094 L 598.699219 234.902344 C 601.363281 240.464844 599.007812 247.128906 593.445312 249.789062 Z M 592.613281 250.191406 "/>
<path style=" stroke:none;fill-rule:nonzero;fill:rgb(100%,72.156863%,72.156863%);fill-opacity:1;" d="M 579.722656 300.105469 L 589.671875 299.769531 L 590.089844 261.035156 L 578.429688 261.726562 Z M 579.722656 300.105469 "/>
<path style=" stroke:none;fill-rule:nonzero;fill:rgb(18.431373%,18.039216%,25.490196%);fill-opacity:1;" d="M 608.980469 308.894531 L 577.691406 308.894531 L 577.691406 296.804688 L 597.816406 296.804688 C 603.980469 296.804688 608.980469 301.800781 608.980469 307.96875 Z M 608.980469 308.894531 "/>
<path style=" stroke:none;fill-rule:nonzero;fill:rgb(18.431373%,18.039216%,25.490196%);fill-opacity:1;" d="M 580.542969 294.285156 C 578.824219 294.289062 577.328125 293.113281 576.917969 291.449219 C 571.46875 269.546875 551.183594 159.199219 569.121094 137.523438 L 569.277344 137.335938 L 569.515625 137.277344 C 570.773438 136.957031 594.507812 129.609375 608.433594 141.078125 L 608.597656 141.214844 L 616.347656 163.648438 L 637.242188 194.664062 C 639.554688 198.097656 640.378906 202.320312 639.523438 206.367188 C 638.671875 210.417969 636.21875 213.949219 632.71875 216.15625 L 605.28125 233.46875 C 603.921875 234.289062 602.195312 234.167969 600.964844 233.164062 C 600.460938 232.75 600.074219 232.207031 599.839844 231.597656 L 594.074219 217.183594 C 593.363281 215.371094 594.144531 213.316406 595.878906 212.433594 L 608.734375 206.007812 C 609.445312 205.613281 609.949219 204.929688 610.105469 204.128906 C 610.179688 203.40625 609.890625 202.695312 609.335938 202.222656 L 594.414062 189.359375 C 593.734375 188.773438 592.777344 188.648438 591.96875 189.035156 C 591.164062 189.425781 590.664062 190.253906 590.695312 191.148438 L 594.394531 288.800781 C 594.464844 290.699219 593.109375 292.347656 591.234375 292.644531 L 581.140625 294.238281 C 580.941406 294.269531 580.742188 294.289062 580.542969 294.285156 Z M 580.542969 294.285156 "/>
<path style=" stroke:none;fill-rule:nonzero;fill:rgb(24.705882%,23.921569%,33.72549%);fill-opacity:1;" d="M 606.28125 145.058594 C 606.199219 145.058594 606.113281 145.054688 606.027344 145.050781 L 568.816406 142.292969 C 567.769531 142.21875 566.816406 141.65625 566.242188 140.78125 C 565.664062 139.902344 565.53125 138.804688 565.878906 137.816406 C 568.167969 131.214844 568.449219 124.085938 566.6875 117.328125 C 564.261719 107.769531 564.207031 90.003906 564.386719 80.261719 C 564.472656 76.835938 567.175781 74.054688 570.597656 73.871094 L 570.597656 73.855469 L 571.347656 73.867188 C 577.410156 73.949219 588.535156 74.382812 597.636719 76.277344 C 603.957031 77.585938 608.523438 83.101562 608.632812 89.550781 C 608.839844 98.597656 608.871094 110.835938 607.84375 117.796875 C 606.976562 123.664062 608.578125 134.9375 609.605469 141.136719 C 609.769531 142.113281 609.492188 143.113281 608.851562 143.867188 C 608.210938 144.621094 607.273438 145.058594 606.28125 145.058594 Z M 606.28125 145.058594 "/>
<path style=" stroke:none;fill-rule:nonzero;fill:rgb(100%,72.156863%,72.156863%);fill-opacity:1;" d="M 619.566406 180.53125 C 617.558594 179.570312 616.082031 177.769531 615.53125 175.617188 C 614.980469 173.460938 615.410156 171.171875 616.707031 169.363281 L 599.523438 95.25 L 612.515625 95.25 L 627.683594 167.902344 C 630.640625 170.339844 631.304688 174.601562 629.234375 177.824219 C 627.164062 181.046875 623.011719 182.210938 619.566406 180.53125 Z M 619.566406 180.53125 "/>
<path style=" stroke:none;fill-rule:nonzero;fill:rgb(100%,72.156863%,72.156863%);fill-opacity:1;" d="M 538.167969 103.277344 L 558.746094 83.8125 L 566.496094 94.667969 L 547.117188 111.722656 L 572.53125 131.902344 C 572.714844 131.890625 572.898438 131.875 573.085938 131.875 C 577.441406 131.871094 581.027344 135.296875 581.226562 139.648438 C 581.421875 144 578.15625 147.734375 573.820312 148.121094 C 569.480469 148.511719 565.605469 145.414062 565.027344 141.097656 L 564.945312 141.179688 L 538.496094 118.253906 C 536.339844 116.382812 535.074219 113.691406 535.011719 110.839844 C 534.949219 107.984375 536.097656 105.238281 538.167969 103.277344 Z M 538.167969 103.277344 "/>
<path style=" stroke:none;fill-rule:nonzero;fill:rgb(24.705882%,23.921569%,33.72549%);fill-opacity:1;" d="M 600.890625 100 C 599.59375 100.003906 598.410156 99.257812 597.851562 98.082031 C 596.210938 94.621094 595.082031 90.941406 594.5 87.15625 C 593.609375 80.972656 597.90625 77.292969 602.28125 76.492188 C 606.53125 75.714844 611.714844 77.582031 613.039062 83.53125 C 613.148438 84.035156 613.234375 84.542969 613.292969 85.054688 C 613.824219 89.5625 614.324219 93.070312 614.777344 95.476562 C 614.957031 96.433594 614.714844 97.421875 614.109375 98.1875 C 613.507812 98.953125 612.601562 99.417969 611.628906 99.464844 L 601.0625 99.996094 C 601.007812 99.996094 600.949219 100 600.890625 100 Z M 600.890625 100 "/>
<path style=" stroke:none;fill-rule:nonzero;fill:rgb(18.431373%,18.039216%,25.490196%);fill-opacity:1;" d="M 608.65625 44.984375 C 608.65625 57.414062 598.585938 67.484375 586.15625 67.484375 C 573.730469 67.484375 563.65625 57.414062 563.65625 44.984375 C 563.65625 32.558594 573.730469 22.484375 586.15625 22.484375 C 598.585938 22.484375 608.65625 32.558594 608.65625 44.984375 Z M 608.65625 44.984375 "/>
<path style=" stroke:none;fill-rule:nonzero;fill:rgb(100%,72.156863%,72.156863%);fill-opacity:1;" d="M 604.714844 50.828125 C 604.714844 61 596.46875 69.246094 586.292969 69.246094 C 576.121094 69.246094 567.871094 61 567.871094 50.828125 C 567.871094 40.652344 576.121094 32.40625 586.292969 32.40625 C 596.46875 32.40625 604.714844 40.652344 604.714844 50.828125 Z M 604.714844 50.828125 "/>
<path style=" stroke:none;fill-rule:nonzero;fill:rgb(24.705882%,23.921569%,33.72549%);fill-opacity:1;" d="M 553.597656 91.035156 C 552.640625 90.160156 552.269531 88.808594 552.652344 87.570312 C 553.78125 83.910156 555.4375 80.433594 557.566406 77.25 C 561.085938 72.085938 566.738281 72.28125 570.503906 74.644531 C 574.167969 76.941406 576.722656 81.820312 573.679688 87.101562 C 573.421875 87.546875 573.140625 87.980469 572.839844 88.398438 C 570.183594 92.078125 568.183594 95 566.890625 97.082031 C 566.378906 97.910156 565.53125 98.472656 564.570312 98.628906 C 563.605469 98.785156 562.625 98.519531 561.875 97.894531 L 553.730469 91.148438 C 553.683594 91.109375 553.640625 91.074219 553.597656 91.035156 Z M 553.597656 91.035156 "/>
<path style=" stroke:none;fill-rule:nonzero;fill:rgb(18.431373%,18.039216%,25.490196%);fill-opacity:1;" d="M 581.789062 24.890625 C 577.261719 22.191406 576.28125 15.460938 578.976562 10.933594 C 581.675781 6.402344 587.125 4.039062 592.394531 3.882812 C 599.921875 3.660156 607.195312 7.410156 612.460938 12.789062 C 617.730469 18.171875 621.207031 25.058594 623.859375 32.109375 C 626.507812 39.15625 628.410156 46.46875 631.019531 53.53125 C 632.359375 57.15625 634.011719 60.878906 637.074219 63.234375 C 640.140625 65.585938 645.011719 66.011719 647.632812 63.171875 C 647.621094 67.71875 644.136719 71.847656 639.816406 73.257812 C 635.492188 74.664062 630.601562 73.601562 626.8125 71.089844 C 620.238281 66.734375 617.066406 58.78125 615.25 51.105469 C 613.4375 43.433594 612.542969 35.390625 608.898438 28.398438 C 607.386719 25.5 605.316406 22.75 602.402344 21.273438 C 599.488281 19.792969 595.605469 19.890625 593.261719 22.167969 C 592.175781 23.222656 591.472656 24.660156 590.238281 25.539062 C 588.660156 26.527344 586.710938 26.730469 584.960938 26.085938 C 583.242188 25.441406 581.632812 24.53125 580.191406 23.394531 "/>
<path style=" stroke:none;fill-rule:nonzero;fill:rgb(18.431373%,18.039216%,25.490196%);fill-opacity:1;" d="M 567.054688 38.378906 C 570.644531 43.203125 576.046875 46.351562 582.007812 47.097656 C 587.972656 47.839844 593.984375 46.117188 598.648438 42.324219 C 600.4375 40.867188 602.097656 38.863281 601.984375 36.558594 C 601.871094 34.199219 599.941406 32.347656 597.972656 31.042969 C 592.792969 27.640625 586.566406 26.207031 580.417969 27.011719 C 576.914062 27.480469 573.398438 28.757812 570.914062 31.277344 C 568.429688 33.800781 567.195312 37.71875 568.472656 41.015625 "/>
</g>
</svg>
