<?xml version="1.0" encoding="UTF-8"?>
<svg xmlns="http://www.w3.org/2000/svg" xmlns:xlink="http://www.w3.org/1999/xlink" width="192px" height="82px" viewBox="0 0 191 82" version="1.1">
<defs>
<filter id="alpha" filterUnits="objectBoundingBox" x="0%" y="0%" width="100%" height="100%">
  <feColorMatrix type="matrix" in="SourceGraphic" values="0 0 0 0 1 0 0 0 0 1 0 0 0 0 1 0 0 0 1 0"/>
</filter>
<mask id="mask0">
  <g filter="url(#alpha)">
<rect x="0" y="0" width="191" height="82" style="fill:rgb(0%,0%,0%);fill-opacity:0.101961;stroke:none;"/>
  </g>
</mask>
<clipPath id="clip1">
  <rect x="0" y="0" width="191" height="82"/>
</clipPath>
<g id="surface5" clip-path="url(#clip1)">
<path style=" stroke:none;fill-rule:nonzero;fill:rgb(0%,0%,0%);fill-opacity:1;" d="M 59.011719 61.160156 L 54.222656 64.316406 L 47.074219 70.765625 L 46.535156 69.867188 L 45.023438 62.296875 L 45.402344 62.296875 L 49.308594 55.109375 Z M 59.011719 61.160156 "/>
</g>
</defs>
<g id="surface1">
<path style=" stroke:none;fill-rule:nonzero;fill:rgb(100%,72.54902%,72.54902%);fill-opacity:1;" d="M 41.941406 45.710938 C 41.949219 45.027344 41.570312 44.394531 40.960938 44.078125 C 40.355469 43.761719 39.621094 43.808594 39.0625 44.203125 C 38.503906 44.597656 38.210938 45.273438 38.304688 45.953125 L 33.054688 52.835938 C 32.597656 53.753906 32.730469 54.855469 33.398438 55.636719 L 33.808594 56.117188 L 35.699219 55.738281 L 37.84375 53.847656 L 37.589844 51.703125 L 40.238281 47.539062 L 40.234375 47.535156 C 41.195312 47.476562 41.941406 46.675781 41.941406 45.710938 Z M 41.941406 45.710938 "/>
<path style=" stroke:none;fill-rule:nonzero;fill:rgb(100%,72.156863%,72.156863%);fill-opacity:1;" d="M 5.628906 79.367188 L 4.773438 76.179688 L 16.644531 71.355469 L 17.910156 76.058594 Z M 5.628906 79.367188 "/>
<path style=" stroke:none;fill-rule:nonzero;fill:rgb(18.431373%,18.039216%,25.490196%);fill-opacity:1;" d="M 2.761719 81.011719 L 0 70.734375 L 0.128906 70.699219 C 2.335938 70.105469 4.605469 71.414062 5.199219 73.625 L 6.890625 79.898438 Z M 2.761719 81.011719 "/>
<path style=" stroke:none;fill-rule:nonzero;fill:rgb(100%,72.156863%,72.156863%);fill-opacity:1;" d="M 21.984375 78.859375 L 19.316406 76.917969 L 25.527344 65.699219 L 29.460938 68.5625 Z M 21.984375 78.859375 "/>
<path style=" stroke:none;fill-rule:nonzero;fill:rgb(18.431373%,18.039216%,25.490196%);fill-opacity:1;" d="M 20.78125 81.941406 L 12.1875 75.679688 L 12.265625 75.574219 C 13.609375 73.722656 16.195312 73.3125 18.042969 74.660156 L 23.296875 78.480469 Z M 20.78125 81.941406 "/>
<path style=" stroke:none;fill-rule:nonzero;fill:rgb(18.431373%,18.039216%,25.490196%);fill-opacity:1;" d="M 44.644531 63.179688 L 37.9375 56.65625 C 36.726562 55.476562 34.835938 55.371094 33.5 56.40625 L 20.832031 70.496094 L 21.964844 72.261719 L 34.0625 64.0625 L 42.253906 74.785156 L 50.0625 70.875 Z M 44.644531 63.179688 "/>
<path style=" stroke:none;fill-rule:nonzero;fill:rgb(100%,72.54902%,72.54902%);fill-opacity:1;" d="M 41.75 64.566406 L 36.835938 64.1875 L 33.277344 63.324219 C 32.863281 62.683594 32.097656 62.363281 31.351562 62.523438 C 30.605469 62.683594 30.039062 63.292969 29.929688 64.046875 C 29.816406 64.804688 30.1875 65.546875 30.855469 65.917969 C 31.523438 66.285156 32.351562 66.199219 32.929688 65.699219 L 32.929688 65.703125 L 35.070312 66.585938 L 44.269531 69.738281 L 45.402344 68.855469 Z M 41.75 64.566406 "/>
<path style=" stroke:none;fill-rule:nonzero;fill:rgb(18.431373%,18.039216%,25.490196%);fill-opacity:1;" d="M 53.59375 78.191406 L 50.820312 79.957031 L 47.542969 79.957031 L 32.296875 74.28125 L 9.996094 78.316406 L 9.367188 73.523438 L 29.777344 64.566406 L 47.671875 70.496094 Z M 53.59375 78.191406 "/>
<path style=" stroke:none;fill-rule:nonzero;fill:rgb(100%,72.54902%,72.54902%);fill-opacity:1;" d="M 52.585938 42.621094 C 52.585938 45.335938 50.382812 47.539062 47.671875 47.539062 C 44.957031 47.539062 42.757812 45.335938 42.757812 42.621094 C 42.757812 39.902344 44.957031 37.699219 47.671875 37.699219 C 50.382812 37.699219 52.585938 39.902344 52.585938 42.621094 Z M 52.585938 42.621094 "/>
<path style=" stroke:none;fill-rule:nonzero;fill:rgb(80%,80%,80%);fill-opacity:1;" d="M 60.386719 62.261719 C 60.386719 65.230469 59.917969 68.179688 59 71.003906 L 58.632812 72.136719 L 56.867188 80.207031 L 54.976562 80.714844 L 53.59375 78.949219 L 50.820312 76.929688 L 48.804688 73.648438 L 47.074219 70.765625 L 46.535156 69.867188 L 44.644531 60.40625 L 37.464844 56.367188 L 35.070312 55.992188 L 35.574219 54.601562 L 37.714844 51.703125 L 39.859375 51.449219 L 40.488281 50.945312 L 40.992188 51.195312 L 43.769531 52.269531 L 52.777344 48.457031 L 54.097656 48.675781 L 58.632812 52.457031 C 59.792969 55.597656 60.386719 58.914062 60.386719 62.261719 Z M 60.386719 62.261719 "/>
<use xlink:href="#surface5" mask="url(#mask0)"/>
<path style=" stroke:none;fill-rule:nonzero;fill:rgb(80%,80%,80%);fill-opacity:1;" d="M 49.308594 54.351562 L 45.402344 61.539062 L 43.132812 64.0625 L 41.117188 64.566406 L 46.535156 70.496094 L 54.222656 63.558594 L 59.011719 60.40625 Z M 49.308594 54.351562 "/>
<path style=" stroke:none;fill-rule:nonzero;fill:rgb(18.431373%,18.039216%,25.490196%);fill-opacity:1;" d="M 43.847656 38.960938 L 43.316406 39.167969 C 42.976562 38.9375 42.886719 38.472656 43.117188 38.132812 C 43.121094 38.128906 43.121094 38.125 43.125 38.121094 L 42.140625 38.074219 C 43.417969 36.371094 45.367188 35.296875 47.488281 35.128906 C 49.605469 34.957031 51.699219 35.703125 53.234375 37.179688 C 53.277344 37.027344 53.765625 37.328125 53.964844 37.632812 C 54.03125 37.378906 54.492188 38.59375 54.652344 39.453125 C 54.726562 39.167969 55.015625 39.628906 54.761719 40.070312 C 54.921875 40.046875 54.996094 40.457031 54.871094 40.6875 C 55.046875 40.605469 55.015625 41.09375 54.828125 41.421875 C 55.078125 41.398438 54.804688 46.550781 51.058594 46.171875 C 50.796875 44.972656 50.871094 45.046875 50.5625 43.503906 C 50.417969 43.351562 50.261719 43.214844 50.105469 43.074219 L 49.261719 42.328125 C 48.277344 41.460938 47.382812 40.386719 46.074219 40.0625 C 45.171875 39.839844 44.601562 39.789062 45.09375 38.773438 C 44.648438 38.957031 44.234375 39.234375 43.789062 39.40625 C 43.792969 39.261719 43.855469 39.105469 43.847656 38.960938 Z M 43.847656 38.960938 "/>
<path style=" stroke:none;fill-rule:nonzero;fill:rgb(100%,72.54902%,72.54902%);fill-opacity:1;" d="M 51.007812 43.1875 C 51.007812 43.675781 50.613281 44.070312 50.128906 44.070312 C 49.640625 44.070312 49.246094 43.675781 49.246094 43.1875 C 49.246094 42.699219 49.640625 42.304688 50.128906 42.304688 C 50.613281 42.304688 51.007812 42.699219 51.007812 43.1875 Z M 51.007812 43.1875 "/>
<path style=" stroke:none;fill-rule:nonzero;fill:rgb(90.196078%,90.196078%,90.196078%);fill-opacity:1;" d="M 8.726562 26.378906 L 8.996094 22.332031 L 13.039062 22.601562 L 12.769531 26.648438 Z M 8.726562 26.378906 "/>
<path style=" stroke:none;fill-rule:nonzero;fill:rgb(80%,80%,80%);fill-opacity:1;" d="M 6.390625 24.480469 L 11.296875 24.808594 L 10.96875 29.722656 L 6.0625 29.394531 Z M 11.070312 25.007812 L 6.589844 24.710938 L 6.289062 29.195312 L 10.769531 29.496094 Z M 11.070312 25.007812 "/>
<path style=" stroke:none;fill-rule:nonzero;fill:rgb(90.196078%,90.196078%,90.196078%);fill-opacity:1;" d="M 27.875 11.1875 L 31.835938 10.335938 L 32.6875 14.300781 L 28.726562 15.152344 Z M 27.875 11.1875 "/>
<path style=" stroke:none;fill-rule:nonzero;fill:rgb(80%,80%,80%);fill-opacity:1;" d="M 29.058594 8.414062 L 30.089844 13.230469 L 25.28125 14.265625 L 24.25 9.449219 Z M 29.835938 13.066406 L 28.894531 8.671875 L 24.503906 9.613281 L 25.445312 14.011719 Z M 29.835938 13.066406 "/>
<path style=" stroke:none;fill-rule:nonzero;fill:rgb(90.196078%,90.196078%,90.196078%);fill-opacity:1;" d="M 24.71875 32.148438 L 27.675781 29.375 L 30.445312 32.335938 L 27.488281 35.105469 Z M 24.71875 32.148438 "/>
<path style=" stroke:none;fill-rule:nonzero;fill:rgb(80%,80%,80%);fill-opacity:1;" d="M 30.65625 28.960938 L 27.066406 32.328125 L 23.703125 28.734375 L 27.292969 25.367188 Z M 27.078125 32.023438 L 30.355469 28.949219 L 27.285156 25.667969 L 24.007812 28.742188 Z M 27.078125 32.023438 "/>
<path style=" stroke:none;fill-rule:nonzero;fill:rgb(24.705882%,23.921569%,33.72549%);fill-opacity:1;" d="M 180.554688 0 L 60.710938 0 C 58.886719 0 57.410156 1.476562 57.410156 3.300781 L 57.410156 70.152344 C 57.410156 71.972656 58.886719 73.453125 60.710938 73.453125 L 180.554688 73.453125 C 182.378906 73.453125 183.855469 71.972656 183.855469 70.152344 L 183.855469 3.300781 C 183.855469 1.476562 182.378906 0 180.554688 0 Z M 180.554688 0 "/>
<path style=" stroke:none;fill-rule:nonzero;fill:rgb(100%,100%,100%);fill-opacity:1;" d="M 61.835938 5.835938 L 179.429688 5.835938 L 179.429688 72.246094 L 61.835938 72.246094 Z M 61.835938 5.835938 "/>
<path style=" stroke:none;fill-rule:nonzero;fill:rgb(100%,100%,100%);fill-opacity:1;" d="M 121.738281 2.816406 C 121.738281 3.484375 121.199219 4.023438 120.53125 4.023438 C 119.867188 4.023438 119.328125 3.484375 119.328125 2.816406 C 119.328125 2.152344 119.867188 1.609375 120.53125 1.609375 C 121.199219 1.609375 121.738281 2.152344 121.738281 2.816406 Z M 121.738281 2.816406 "/>
<path style=" stroke:none;fill-rule:nonzero;fill:rgb(94.901961%,94.901961%,94.901961%);fill-opacity:1;" d="M 145.800781 72.246094 L 61.835938 72.246094 L 61.835938 5.835938 Z M 145.800781 72.246094 "/>
<path style=" stroke:none;fill-rule:nonzero;fill:rgb(42.352941%,38.823529%,100%);fill-opacity:1;" d="M 91.539062 55.960938 C 91.539062 62.210938 86.476562 67.277344 80.234375 67.277344 C 73.992188 67.277344 68.929688 62.210938 68.929688 55.960938 C 68.929688 49.710938 73.992188 44.644531 80.234375 44.644531 C 86.476562 44.644531 91.539062 49.710938 91.539062 55.960938 Z M 91.539062 55.960938 "/>
<path style=" stroke:none;fill-rule:nonzero;fill:rgb(24.705882%,23.921569%,33.72549%);fill-opacity:1;" d="M 82.75 64.464844 C 74.984375 64.464844 68.691406 58.164062 68.691406 50.390625 C 68.691406 42.613281 74.984375 36.3125 82.75 36.3125 C 90.515625 36.3125 96.8125 42.613281 96.8125 50.390625 C 96.8125 58.164062 90.515625 64.464844 82.75 64.464844 Z M 82.75 36.496094 C 75.085938 36.496094 68.875 42.714844 68.875 50.390625 C 68.875 58.0625 75.085938 64.28125 82.75 64.28125 C 90.414062 64.28125 96.628906 58.0625 96.628906 50.390625 C 96.628906 42.714844 90.414062 36.496094 82.75 36.496094 Z M 82.75 36.496094 "/>
<path style=" stroke:none;fill-rule:nonzero;fill:rgb(24.705882%,23.921569%,33.72549%);fill-opacity:1;" d="M 141.222656 40.335938 L 152.207031 40.335938 L 152.207031 42.636719 L 141.222656 42.636719 Z M 141.222656 40.335938 "/>
<path style=" stroke:none;fill-rule:nonzero;fill:rgb(24.705882%,23.921569%,33.72549%);fill-opacity:1;" d="M 130.832031 27.890625 L 162.601562 27.890625 L 162.601562 28.875 L 130.832031 28.875 Z M 130.832031 27.890625 "/>
<path style=" stroke:none;fill-rule:nonzero;fill:rgb(24.705882%,23.921569%,33.72549%);fill-opacity:1;" d="M 130.832031 31.757812 L 162.601562 31.757812 L 162.601562 32.742188 L 130.832031 32.742188 Z M 130.832031 31.757812 "/>
<path style=" stroke:none;fill-rule:nonzero;fill:rgb(24.705882%,23.921569%,33.72549%);fill-opacity:1;" d="M 130.832031 35.625 L 162.601562 35.625 L 162.601562 36.613281 L 130.832031 36.613281 Z M 130.832031 35.625 "/>
<path style=" stroke:none;fill-rule:nonzero;fill:rgb(42.352941%,38.823529%,100%);fill-opacity:1;" d="M 166.519531 9.808594 L 171.113281 9.808594 L 171.113281 14.40625 L 166.519531 14.40625 Z M 166.519531 9.808594 "/>
<path style=" stroke:none;fill-rule:nonzero;fill:rgb(80%,80%,80%);fill-opacity:1;" d="M 173.242188 16.539062 L 167.667969 16.539062 L 167.667969 10.960938 L 173.242188 10.960938 Z M 167.910156 16.296875 L 173 16.296875 L 173 11.203125 L 167.910156 11.203125 Z M 167.910156 16.296875 "/>
<path style=" stroke:none;fill-rule:nonzero;fill:rgb(24.705882%,23.921569%,33.72549%);fill-opacity:1;" d="M 187.15625 71.039062 L 175.679688 71.039062 L 175.679688 70.210938 C 175.679688 70.121094 175.605469 70.046875 175.515625 70.046875 L 171.582031 70.046875 C 171.488281 70.046875 171.417969 70.121094 171.417969 70.210938 L 171.417969 71.039062 L 168.957031 71.039062 L 168.957031 70.210938 C 168.957031 70.121094 168.882812 70.046875 168.792969 70.046875 L 164.859375 70.046875 C 164.769531 70.046875 164.695312 70.121094 164.695312 70.210938 L 164.695312 71.039062 L 162.234375 71.039062 L 162.234375 70.210938 C 162.234375 70.121094 162.160156 70.046875 162.070312 70.046875 L 158.136719 70.046875 C 158.046875 70.046875 157.972656 70.121094 157.972656 70.210938 L 157.972656 71.039062 L 155.511719 71.039062 L 155.511719 70.210938 C 155.511719 70.121094 155.441406 70.046875 155.347656 70.046875 L 151.414062 70.046875 C 151.324219 70.046875 151.25 70.121094 151.25 70.210938 L 151.25 71.039062 L 148.789062 71.039062 L 148.789062 70.210938 C 148.789062 70.121094 148.71875 70.046875 148.625 70.046875 L 144.691406 70.046875 C 144.601562 70.046875 144.527344 70.121094 144.527344 70.210938 L 144.527344 71.039062 L 142.070312 71.039062 L 142.070312 70.210938 C 142.070312 70.121094 141.996094 70.046875 141.90625 70.046875 L 137.96875 70.046875 C 137.878906 70.046875 137.804688 70.121094 137.804688 70.210938 L 137.804688 71.039062 L 135.347656 71.039062 L 135.347656 70.210938 C 135.347656 70.121094 135.273438 70.046875 135.183594 70.046875 L 104.359375 70.046875 C 104.269531 70.046875 104.195312 70.121094 104.195312 70.210938 L 104.195312 71.039062 L 101.734375 71.039062 L 101.734375 70.210938 C 101.734375 70.121094 101.664062 70.046875 101.570312 70.046875 L 97.636719 70.046875 C 97.546875 70.046875 97.472656 70.121094 97.472656 70.210938 L 97.472656 71.039062 L 95.015625 71.039062 L 95.015625 70.210938 C 95.015625 70.121094 94.941406 70.046875 94.851562 70.046875 L 90.914062 70.046875 C 90.824219 70.046875 90.75 70.121094 90.75 70.210938 L 90.75 71.039062 L 88.292969 71.039062 L 88.292969 70.210938 C 88.292969 70.121094 88.21875 70.046875 88.128906 70.046875 L 84.191406 70.046875 C 84.101562 70.046875 84.027344 70.121094 84.027344 70.210938 L 84.027344 71.039062 L 81.570312 71.039062 L 81.570312 70.210938 C 81.570312 70.121094 81.496094 70.046875 81.40625 70.046875 L 77.472656 70.046875 C 77.378906 70.046875 77.308594 70.121094 77.308594 70.210938 L 77.308594 71.039062 L 74.847656 71.039062 L 74.847656 70.210938 C 74.847656 70.121094 74.773438 70.046875 74.683594 70.046875 L 70.75 70.046875 C 70.660156 70.046875 70.585938 70.121094 70.585938 70.210938 L 70.585938 71.039062 L 68.125 71.039062 L 68.125 70.210938 C 68.125 70.121094 68.050781 70.046875 67.960938 70.046875 L 64.027344 70.046875 C 63.9375 70.046875 63.863281 70.121094 63.863281 70.210938 L 63.863281 71.039062 L 56.320312 71.039062 C 54.148438 71.039062 52.386719 72.800781 52.386719 74.976562 L 52.386719 76.757812 C 52.386719 78.933594 54.148438 80.699219 56.320312 80.699219 L 187.15625 80.699219 C 189.328125 80.699219 191.089844 78.933594 191.089844 76.757812 L 191.089844 74.976562 C 191.089844 72.800781 189.328125 71.039062 187.15625 71.039062 Z M 187.15625 71.039062 "/>
</g>
</svg>
