<?xml version="1.0" encoding="UTF-8"?>
<svg xmlns="http://www.w3.org/2000/svg" xmlns:xlink="http://www.w3.org/1999/xlink" width="264px" height="590px" viewBox="0 0 198 442" version="1.1">
<g id="surface1">
<path style=" stroke:none;fill-rule:nonzero;fill:rgb(62.745098%,100%,94.117647%);fill-opacity:1;" d="M 153.125 295.628906 C 156.238281 311.414062 142.308594 328.238281 126.203125 328.140625 C 115.507812 328.078125 104.863281 329.820312 94.167969 329.820312 C 83.472656 329.820312 72.296875 327.867188 63.828125 321.335938 C 55.363281 314.808594 50.507812 302.796875 54.75 292.988281 C 32.5625 331.867188 18.566406 374.863281 13.621094 419.335938 C 13.234375 422.84375 15.5625 426.074219 19.015625 426.816406 C 22.46875 427.558594 25.921875 425.570312 27.015625 422.21875 L 56.609375 331.226562 C 52.117188 336.28125 58.082031 344.199219 64.457031 346.460938 C 70.835938 348.71875 78.539062 349.070312 82.804688 354.320312 C 98.796875 374.007812 131.324219 377.320312 150.964844 361.261719 C 170.605469 345.203125 173.785156 312.699219 153.125 295.628906 Z M 153.125 295.628906 "/>
<path style=" stroke:none;fill-rule:nonzero;fill:rgb(0%,0%,0%);fill-opacity:1;" d="M 83.941406 116.332031 C 79.570312 116.441406 79.582031 122.835938 83.941406 122.957031 C 88.3125 122.847656 88.300781 116.453125 83.941406 116.332031 Z M 83.941406 116.332031 "/>
<path style=" stroke:none;fill-rule:nonzero;fill:rgb(0%,0%,0%);fill-opacity:1;" d="M 146.8125 115.351562 C 142.441406 115.457031 142.453125 121.855469 146.8125 121.976562 C 151.183594 121.867188 151.171875 115.46875 146.8125 115.351562 Z M 146.8125 115.351562 "/>
<path style=" stroke:none;fill-rule:nonzero;fill:rgb(0%,0%,0%);fill-opacity:1;" d="M 68.714844 86.773438 C 73.703125 87.25 78.738281 86.921875 83.621094 85.796875 C 78.628906 85.421875 73.613281 85.75 68.714844 86.773438 Z M 68.714844 86.773438 "/>
<path style=" stroke:none;fill-rule:nonzero;fill:rgb(0%,0%,0%);fill-opacity:1;" d="M 129.621094 84.320312 C 136.660156 85.4375 145.234375 85.820312 151.621094 84.734375 C 144.382812 83.179688 136.914062 83.039062 129.621094 84.320312 Z M 129.621094 84.320312 "/>
<path style=" stroke:none;fill-rule:nonzero;fill:rgb(0%,0%,0%);fill-opacity:1;" d="M 116.851562 150.0625 C 113.605469 153.449219 110.621094 158.054688 112.832031 162.800781 C 112.1875 158.128906 115.011719 154.125 116.851562 150.0625 Z M 116.851562 150.0625 "/>
<path style=" stroke:none;fill-rule:nonzero;fill:rgb(0%,0%,0%);fill-opacity:1;" d="M 141.960938 171.769531 C 140.15625 174.589844 138 177.171875 135.539062 179.449219 C 127.980469 186.175781 118.921875 189.695312 108.308594 189.058594 C 103.03125 188.832031 97.898438 187.015625 92.78125 185.386719 C 97.347656 188.234375 102.070312 191.042969 107.40625 192.144531 C 120.117188 194.964844 131.800781 189.984375 138.890625 179.144531 C 140.4375 176.558594 141.648438 173.789062 142.496094 170.894531 C 142.316406 171.1875 142.140625 171.480469 141.960938 171.769531 Z M 141.960938 171.769531 "/>
<path style=" stroke:none;fill-rule:nonzero;fill:rgb(0%,0%,0%);fill-opacity:1;" d="M 182.453125 148.660156 C 182.417969 148.410156 182.378906 148.15625 182.34375 147.90625 C 182.261719 149.617188 182.144531 151.324219 182.003906 153.03125 C 181.546875 158.410156 180.945312 163.753906 180.3125 168.007812 C 177.597656 190.308594 172.796875 200.183594 157.570312 214.890625 C 150.203125 222.246094 142.695312 226.535156 132.121094 231.621094 C 127.410156 233.839844 118.238281 236.425781 112.089844 236.207031 C 106.402344 236.171875 102.882812 235.167969 96.101562 233.503906 C 85.632812 230.160156 76.933594 226.722656 67.253906 219.386719 C 65.363281 217.796875 63.550781 216.136719 61.820312 214.378906 C 59.140625 211.679688 56.609375 208.839844 54.246094 205.863281 C 51.875 202.78125 50.023438 199.332031 48.769531 195.652344 C 44.777344 182.941406 42.492188 173.371094 42.480469 161.511719 C 42.492188 155.417969 42.929688 149.253906 45.628906 143.683594 C 42.609375 148.265625 40.726562 153.503906 40.144531 158.957031 C 38.179688 169.457031 39.351562 180.207031 41.480469 190.585938 C 42.539062 195.3125 43.8125 200.058594 46.070312 204.367188 C 48.609375 208.710938 51.648438 212.742188 55.128906 216.378906 C 64.121094 226.765625 76.105469 233.3125 88.871094 237.972656 C 107.089844 244.582031 120.148438 244.300781 135.566406 237.503906 C 134.203125 244.015625 133.066406 250.570312 132.355469 257.183594 C 131.566406 266.152344 131.261719 275.160156 131.433594 284.160156 C 135.515625 269.859375 136.6875 252.835938 136.640625 237.023438 C 139.472656 235.730469 142.386719 234.222656 145.433594 232.5 C 153.523438 228.183594 160.554688 222.167969 166.820312 215.53125 C 176.535156 206.03125 182.886719 194.496094 183.613281 180.757812 C 184.292969 170.046875 183.902344 159.292969 182.453125 148.660156 Z M 182.453125 148.660156 "/>
<path style=" stroke:none;fill-rule:nonzero;fill:rgb(0%,0%,0%);fill-opacity:1;" d="M 197.457031 85.273438 C 197.578125 83.035156 198 80.816406 197.359375 78.613281 C 196.488281 74.871094 196.042969 74.394531 194.585938 70.535156 C 193.558594 67.882812 192.238281 65.289062 191.605469 62.503906 C 192.074219 61.261719 193.355469 57.605469 193.207031 54.269531 C 192.78125 49.496094 191.972656 48.933594 193.703125 44.246094 C 194.300781 41.125 194.808594 37.660156 193.332031 34.707031 C 189.558594 28.703125 182.570312 25.910156 177.09375 21.746094 C 166.449219 13.015625 176.09375 12.96875 154.246094 10.980469 C 150.015625 10.453125 147.660156 10.515625 145.847656 9.433594 C 145.824219 9.417969 145.8125 9.410156 145.792969 9.398438 C 143.074219 7.074219 139.839844 5.433594 136.355469 4.625 C 131.613281 3.769531 126.757812 3.949219 121.988281 3.339844 C 121.15625 3.253906 120.328125 3.109375 119.515625 2.90625 C 118.710938 2.789062 117.9375 2.519531 117.234375 2.121094 C 114.289062 0.0195312 110.449219 -0.378906 106.957031 0.308594 C 98.976562 2.878906 91.082031 9.042969 84.875 10.769531 C 84.433594 10.902344 83.988281 11.007812 83.535156 11.089844 C 83.367188 11.101562 83.195312 11.105469 83.027344 11.09375 C 82.789062 11.050781 82.554688 10.988281 82.324219 10.914062 C 79.679688 9.632812 76.761719 9.023438 73.824219 9.128906 C 69.835938 9.09375 66.070312 10.894531 63.117188 13.492188 C 59.652344 16.640625 57.671875 21.019531 56.027344 25.320312 C 52.0625 35.597656 52.585938 46.949219 54.921875 57.550781 C 55.015625 57.953125 55.324219 59.535156 55.464844 60.203125 C 53.949219 62.03125 53.226562 63.257812 50.800781 67.445312 C 46.65625 73.957031 44.230469 80.941406 42.179688 88.34375 C 41.871094 89.328125 41.949219 90.390625 42.402344 91.3125 C 42.402344 91.378906 42.40625 91.445312 42.421875 91.507812 C 42.421875 91.929688 42.367188 92.347656 42.261719 92.753906 C 41.558594 95.367188 41.007812 98.019531 40.625 100.699219 C 40.382812 102.785156 40.007812 105.042969 40.84375 107.035156 C 42.761719 109.667969 46.015625 106.695312 48.101562 105.707031 C 46.210938 106.292969 42.335938 108.695312 41.710938 106.226562 C 41.5625 101.6875 43.792969 97.46875 45.183594 93.25 C 45.496094 92.363281 45.609375 91.421875 45.511719 90.492188 C 45.496094 90.273438 45.429688 90.058594 45.3125 89.871094 C 46.410156 86.199219 47.605469 84.207031 49.285156 80.304688 C 50.4375 77.03125 51.953125 74.859375 54.386719 71.164062 C 55.234375 69.902344 56.0625 68.625 56.902344 67.355469 C 53.898438 77.507812 51.488281 87.820312 49.675781 98.25 C 47.476562 113.324219 46.558594 128.558594 45.175781 143.722656 C 50.328125 126.476562 53.554688 108.742188 55.863281 90.910156 C 56.648438 84.902344 58.234375 74.050781 59.070312 64.289062 C 60.039062 63.304688 61.195312 62.359375 61.148438 60.84375 C 61.128906 57.644531 59.941406 54.546875 59.574219 51.371094 C 59.019531 47.699219 58.796875 43.988281 58.90625 40.277344 C 58.921875 38.832031 59.089844 37.394531 59.246094 35.960938 C 60.816406 27.707031 63.089844 21.101562 67.792969 17.007812 C 69.890625 15.246094 72.609375 14.398438 75.335938 14.660156 C 78.859375 14.886719 77.324219 14.753906 81.09375 16.125 C 84.179688 16.960938 87.210938 15.527344 89.980469 14.289062 C 94.304688 12.285156 98.433594 9.898438 102.632812 7.660156 C 106.792969 5.648438 106.933594 5.039062 110.828125 5.222656 C 110.90625 5.230469 110.984375 5.238281 111.0625 5.25 C 111.523438 5.3125 111.980469 5.40625 112.429688 5.53125 C 112.609375 5.578125 112.78125 5.640625 112.953125 5.703125 C 112.601562 5.574219 112.386719 5.40625 112.953125 5.703125 C 113.007812 5.722656 113.066406 5.738281 113.117188 5.757812 C 113.0625 5.742188 113.007812 5.722656 112.953125 5.703125 L 112.996094 5.726562 C 115.296875 7.304688 117.96875 8.257812 120.753906 8.484375 C 126.984375 9.320312 134.546875 9.125 136.984375 10.484375 C 138.308594 11.125 139.582031 11.871094 140.789062 12.714844 C 141.5625 13.480469 142.425781 14.148438 143.367188 14.695312 C 146.058594 16.125 149.203125 15.878906 152.140625 16.316406 C 157.925781 17 159.886719 17.03125 165.390625 18.214844 C 165.628906 18.277344 165.859375 18.359375 166.089844 18.445312 C 166.15625 18.480469 166.226562 18.515625 166.292969 18.554688 C 166.710938 18.972656 166.65625 19.1875 167.921875 20.6875 C 171.707031 25.253906 176.867188 28.34375 181.710938 31.652344 C 184.300781 33.339844 184.839844 33.851562 187.628906 36.738281 C 187.695312 36.839844 187.746094 36.90625 187.785156 36.957031 C 187.914062 37.15625 188.03125 37.367188 188.132812 37.578125 C 188.171875 37.707031 188.21875 37.871094 188.257812 38.042969 C 188.25 41.191406 188.34375 41.410156 187.851562 43.261719 C 186.390625 46.542969 186.84375 50.097656 187.21875 53.546875 C 187.25 54.074219 187.238281 54.601562 187.183594 55.125 C 186.984375 56.457031 186.707031 57.777344 186.351562 59.078125 C 185.765625 60.660156 185.308594 62.316406 185.78125 63.996094 C 187.328125 69.277344 191.148438 75.011719 192.527344 80.777344 C 192.574219 80.984375 192.625 81.195312 192.667969 81.402344 C 192.691406 81.875 192.648438 82.347656 192.65625 82.820312 C 192.6875 84.390625 192.808594 85.957031 193.019531 87.511719 C 193.398438 90.804688 194.019531 94.0625 194.65625 97.316406 C 194.882812 99.132812 194.847656 100.972656 194.554688 102.777344 C 193.480469 104.941406 190.773438 105.425781 188.683594 106.167969 C 187.347656 106.585938 186.019531 107.023438 184.6875 107.441406 C 185.296875 107.363281 185.902344 107.285156 186.507812 107.210938 C 190.347656 106.675781 196.183594 106.800781 196.996094 101.964844 C 197.570312 99.773438 197.765625 97.496094 197.574219 95.238281 C 197.398438 91.917969 197.34375 88.59375 197.457031 85.273438 Z M 197.457031 85.273438 "/>
<path style=" stroke:none;fill-rule:nonzero;fill:rgb(0%,0%,0%);fill-opacity:1;" d="M 180.339844 65.761719 C 180.9375 65.742188 181.535156 65.71875 182.132812 65.699219 C 184.054688 65.652344 182.179688 65.574219 181.257812 65.425781 C 180.9375 65.382812 180.617188 65.339844 180.292969 65.300781 C 180.226562 64.636719 180.160156 63.972656 180.089844 63.308594 C 180.011719 62.605469 179.929688 61.898438 179.84375 61.195312 C 179.695312 62.523438 179.570312 63.855469 179.433594 65.1875 C 177.773438 64.988281 176.125 64.6875 174.503906 64.285156 C 173.242188 63.871094 172.015625 63.34375 170.738281 62.976562 C 168.03125 62.089844 165.148438 62.011719 162.449219 61.089844 C 157.992188 59.710938 155.148438 57.929688 150.203125 56.382812 C 139.660156 53.445312 128.589844 51.417969 117.628906 52.710938 C 113.804688 53.34375 110.183594 54.832031 106.378906 55.5625 C 102.773438 56.5 96.398438 55.917969 90.984375 57.417969 C 80.082031 60.566406 75.058594 62.375 63.71875 58.914062 C 72 62.828125 77.710938 63.597656 86.730469 61.957031 C 91.316406 61.191406 93.476562 60.5625 98.320312 60.726562 C 102.070312 61.042969 105.84375 60.871094 109.546875 60.203125 C 112.46875 59.726562 115.304688 58.835938 118.226562 58.371094 C 122.707031 58.070312 127.203125 58.058594 131.683594 58.335938 C 138.960938 58.796875 143.101562 59.519531 150.644531 60.964844 C 156.410156 62.582031 162.109375 64.664062 168.179688 64.601562 C 170.105469 64.722656 172.027344 65.265625 174.4375 65.683594 C 176.078125 65.824219 177.726562 65.859375 179.375 65.789062 C 179.039062 69.128906 178.730469 72.472656 178.480469 75.824219 C 177.277344 90.957031 177.71875 106.152344 178.960938 121.265625 C 179.59375 130.875 180.269531 140.484375 181.316406 150.058594 C 182.515625 138.132812 183.683594 126.164062 183.617188 114.164062 C 183.4375 97.988281 181.996094 81.847656 180.339844 65.761719 Z M 180.339844 65.761719 "/>
<path style=" stroke:none;fill-rule:nonzero;fill:rgb(0%,0%,0%);fill-opacity:1;" d="M 103.242188 213.910156 C 110.691406 213.707031 118.0625 212.339844 125.089844 209.855469 C 117.640625 210.058594 110.269531 211.425781 103.242188 213.910156 Z M 103.242188 213.910156 "/>
<path style=" stroke:none;fill-rule:nonzero;fill:rgb(0%,0%,0%);fill-opacity:1;" d="M 142.644531 284.796875 C 140.277344 283.625 137.71875 282.894531 135.085938 282.640625 C 136.058594 282.9375 137.394531 283.5 138.089844 283.78125 C 145.175781 286.867188 148.394531 293.320312 144.011719 299.328125 C 138.804688 305.792969 124.632812 308.121094 117.382812 308.847656 C 109.386719 309.363281 101.367188 309.339844 93.378906 308.777344 C 85.859375 308.273438 81.78125 308.054688 75.054688 306.480469 C 70.566406 305.300781 68.328125 304.738281 64.851562 302.847656 C 62.707031 301.871094 61.226562 299.859375 60.929688 297.527344 C 60.707031 295.53125 61.339844 293.539062 62.671875 292.035156 C 63.757812 292.226562 64.839844 292.425781 65.914062 292.589844 C 64.992188 292.226562 64.09375 291.878906 63.210938 291.558594 C 66.453125 289.710938 70.226562 290.375 73.789062 290.777344 C 73.78125 290.898438 73.773438 291.019531 73.761719 291.140625 C 73.800781 291.023438 73.839844 290.902344 73.878906 290.785156 C 74.242188 290.828125 74.601562 290.863281 74.960938 290.894531 C 74.625 290.800781 74.28125 290.703125 73.9375 290.601562 C 74 290.414062 74.0625 290.226562 74.125 290.039062 C 79.605469 273.960938 82.1875 257.035156 81.746094 240.058594 C 78.792969 253.394531 75.707031 266.742188 74.609375 280.390625 C 74.304688 283.777344 74.074219 287.171875 73.804688 290.5625 C 69.871094 289.414062 65.578125 288.082031 61.75 290.089844 C 61.445312 290.296875 61.15625 290.527344 60.882812 290.773438 C 55.816406 289.210938 51.128906 288.894531 45.589844 291.730469 C 38.652344 294.894531 33.695312 300.875 30.070312 307.421875 C 25.085938 316.042969 21.75 325.480469 19.199219 335.078125 C 14.960938 350.96875 11.445312 367.066406 8.226562 383.195312 C 6.878906 391.015625 5.949219 401.199219 5.042969 406.917969 C 3.640625 417.1875 1.785156 427.382812 0.28125 437.632812 C 0.183594 438.316406 0.09375 439.003906 0 439.6875 C 0.316406 438.667969 0.644531 437.652344 0.972656 436.636719 C 5.011719 424.785156 8.773438 412.824219 11.355469 400.558594 C 14.519531 383.921875 17.980469 367.347656 21.746094 350.832031 C 25.121094 336.132812 29.011719 321.816406 34.847656 309.960938 C 37.632812 304.40625 39.445312 300.882812 43.660156 297.21875 C 46.476562 294.773438 49.703125 292.613281 53.378906 291.753906 C 55.582031 291.3125 57.847656 291.273438 60.066406 291.628906 C 57.234375 295.191406 57.226562 300.226562 60.042969 303.800781 C 65.101562 309.3125 74.609375 311.839844 81.789062 313.210938 C 90.363281 314.648438 99.085938 314.878906 107.761719 314.960938 C 115.308594 315.035156 122.902344 314.296875 130.089844 311.910156 C 135.652344 310.164062 141.273438 307.726562 145.464844 303.574219 C 151.277344 297.605469 150.148438 288.703125 142.644531 284.796875 Z M 142.644531 284.796875 "/>
<path style=" stroke:none;fill-rule:nonzero;fill:rgb(0%,0%,0%);fill-opacity:1;" d="M 168.785156 296.324219 C 166.996094 293.84375 165.039062 291.207031 162.207031 289.867188 C 157.726562 287.863281 152.75 287.238281 147.914062 288.070312 C 152.667969 288.070312 157.320312 289.472656 161.28125 292.101562 C 163.066406 293.492188 164.183594 295.5625 165.28125 297.5 C 170.640625 306.996094 167.335938 323.804688 166.210938 335.96875 C 164.882812 348.414062 163.21875 360.835938 162.457031 373.332031 C 161.652344 387.875 161.714844 402.453125 161.558594 417.015625 C 161.554688 417.847656 161.550781 418.683594 161.542969 419.515625 C 161.640625 419.046875 161.738281 418.578125 161.835938 418.109375 C 165.152344 402.320312 167.097656 386.296875 168.980469 370.289062 C 170.386719 358.699219 171.476562 347.078125 172.863281 335.484375 C 174.0625 323.457031 175.855469 306.769531 168.785156 296.324219 Z M 168.785156 296.324219 "/>
<path style=" stroke:none;fill-rule:nonzero;fill:rgb(0%,0%,0%);fill-opacity:1;" d="M 57.648438 370.058594 C 47.347656 392.039062 39.214844 415.238281 36.503906 439.460938 C 42.210938 423.246094 49.074219 407.394531 53.261719 390.6875 C 55.15625 383.5 56.648438 376.210938 58.238281 368.953125 C 58.460938 368.121094 57.792969 369.816406 57.648438 370.058594 Z M 57.648438 370.058594 "/>
<path style=" stroke:none;fill-rule:nonzero;fill:rgb(0%,0%,0%);fill-opacity:1;" d="M 136.535156 368.585938 C 132.300781 380.210938 129.238281 392.226562 127.390625 404.457031 C 125.664062 416.984375 125.4375 429.664062 125.859375 442.285156 C 130.277344 421.582031 133.542969 403.589844 135.414062 383.554688 C 135.9375 378.367188 136.269531 373.160156 136.867188 367.980469 C 137.003906 367.171875 136.667969 368.320312 136.535156 368.585938 Z M 136.535156 368.585938 "/>
<path style=" stroke:none;fill-rule:nonzero;fill:rgb(0%,0%,0%);fill-opacity:1;" d="M 131.558594 346.679688 C 129.007812 351.882812 124.699219 356.515625 120.425781 358.089844 C 116.367188 359.554688 112.957031 359.191406 112.082031 358.21875 C 112.476562 350.875 113.765625 341.363281 113.980469 333.261719 C 112.253906 340.089844 110.550781 346.925781 109.042969 353.808594 C 108.738281 355.757812 107.882812 357.878906 108.628906 359.804688 C 110.535156 363.550781 115.679688 363.59375 119.242188 362.597656 C 129.621094 359.703125 133.316406 348.164062 135.636719 338.796875 C 135.742188 338.359375 135.835938 337.917969 135.929688 337.480469 C 134.605469 340.605469 133.15625 343.679688 131.558594 346.679688 Z M 131.558594 346.679688 "/>
</g>
</svg>
