<?xml version="1.0" encoding="UTF-8"?>
<svg xmlns="http://www.w3.org/2000/svg" xmlns:xlink="http://www.w3.org/1999/xlink" width="600px" height="379px" viewBox="0 0 600 379" version="1.1">
<g id="surface1">
<path style=" stroke:none;fill-rule:nonzero;fill:rgb(94.901961%,94.901961%,94.901961%);fill-opacity:1;" d="M 528.082031 346.757812 L 528.667969 333.621094 C 534.753906 330.363281 541.546875 328.644531 548.449219 328.609375 C 538.949219 336.382812 540.136719 351.363281 533.695312 361.8125 C 529.574219 368.386719 522.6875 372.726562 514.984375 373.609375 L 507.035156 378.480469 C 504.824219 366.164062 508.117188 353.5 516.042969 343.820312 C 518.269531 341.160156 520.816406 338.789062 523.632812 336.765625 C 525.539062 341.789062 528.082031 346.757812 528.082031 346.757812 Z M 528.082031 346.757812 "/>
<path style=" stroke:none;fill-rule:nonzero;fill:rgb(94.901961%,94.901961%,94.901961%);fill-opacity:1;" d="M 126.125 332.359375 L 106.9375 326.546875 C 104.421875 316.320312 104.4375 305.632812 106.988281 295.410156 C 114.890625 312.386719 137.46875 316.273438 150.480469 329.734375 C 158.636719 338.300781 162.453125 350.117188 160.855469 361.839844 L 165.058594 375.429688 C 146.035156 374.054688 128.566406 364.417969 117.253906 349.050781 C 114.160156 344.761719 111.621094 340.101562 109.691406 335.175781 C 117.828125 334.25 126.125 332.359375 126.125 332.359375 Z M 126.125 332.359375 "/>
<path style=" stroke:none;fill-rule:nonzero;fill:rgb(90.196078%,90.196078%,90.196078%);fill-opacity:1;" d="M 461.59375 376.332031 C 461.589844 376.730469 461.433594 377.109375 461.152344 377.394531 C 460.875 377.671875 460.496094 377.828125 460.097656 377.828125 L 454.09375 377.828125 C 453.695312 377.828125 453.3125 377.671875 453.035156 377.390625 C 452.753906 377.109375 452.597656 376.726562 452.597656 376.332031 L 452.597656 194.574219 C 452.597656 190.570312 451.253906 187.316406 449.601562 187.308594 L 75.636719 187.308594 C 73.976562 187.316406 72.640625 190.570312 72.632812 194.574219 L 72.632812 375.21875 C 72.628906 375.988281 72.046875 376.628906 71.28125 376.707031 C 70.070312 376.824219 68.859375 376.929688 67.65625 377.027344 C 67.625 377.027344 67.597656 377.035156 67.566406 377.035156 C 66.910156 377.09375 66.25 377.140625 65.59375 377.191406 L 65.585938 377.191406 C 65.242188 376.570312 64.914062 375.933594 64.578125 375.300781 C 64.46875 375.082031 64.414062 374.847656 64.414062 374.605469 L 64.414062 185.148438 C 64.414062 184.042969 64.457031 182.929688 64.53125 181.832031 C 64.640625 180.320312 64.828125 178.820312 65.09375 177.332031 C 66.355469 170.386719 69.210938 165.683594 72.453125 165.667969 L 452.777344 165.667969 C 453.25 165.671875 453.71875 165.769531 454.152344 165.960938 C 454.789062 166.242188 455.363281 166.644531 455.847656 167.148438 C 456.503906 167.832031 457.0625 168.597656 457.515625 169.429688 C 459.113281 172.246094 460.257812 176.449219 460.660156 181.335938 C 460.660156 181.382812 460.667969 181.425781 460.667969 181.472656 C 460.773438 182.683594 460.824219 183.917969 460.816406 185.148438 L 460.921875 201.167969 L 460.988281 210.722656 L 461.191406 240.699219 L 461.265625 251.34375 Z M 461.59375 376.332031 "/>
<path style=" stroke:none;fill-rule:nonzero;fill:rgb(80%,80%,80%);fill-opacity:1;" d="M 322.800781 110.25 L 284.691406 110.25 C 283.570312 110.253906 282.660156 111.164062 282.660156 112.289062 L 282.660156 172.519531 L 324.839844 172.519531 L 324.839844 112.289062 C 324.839844 111.746094 324.625 111.230469 324.242188 110.847656 C 323.859375 110.464844 323.34375 110.25 322.800781 110.25 Z M 303.875 144.472656 C 301.394531 144.460938 299.386719 142.453125 299.375 139.972656 L 299.375 133.023438 C 299.375 130.539062 301.390625 128.523438 303.875 128.523438 C 306.359375 128.523438 308.375 130.539062 308.375 133.023438 L 308.375 139.972656 C 308.363281 142.453125 306.355469 144.460938 303.875 144.472656 Z M 303.875 144.472656 "/>
<path style=" stroke:none;fill-rule:nonzero;fill:rgb(24.705882%,23.921569%,33.72549%);fill-opacity:1;" d="M 282.53125 170.59375 L 282.53125 176.402344 C 282.53125 177.03125 283.039062 177.539062 283.664062 177.539062 L 323.832031 177.539062 C 324.460938 177.535156 324.964844 177.03125 324.96875 176.402344 L 324.96875 170.59375 Z M 282.53125 170.59375 "/>
<path style=" stroke:none;fill-rule:nonzero;fill:rgb(90.196078%,90.196078%,90.196078%);fill-opacity:1;" d="M 385.910156 16.253906 L 223 16.253906 C 220.085938 16.257812 217.726562 18.621094 217.71875 21.535156 L 217.71875 131.519531 C 217.722656 134.433594 220.085938 136.796875 223 136.800781 L 385.910156 136.800781 C 388.828125 136.796875 391.1875 134.433594 391.191406 131.519531 L 391.191406 21.535156 C 391.1875 18.621094 388.824219 16.257812 385.910156 16.253906 Z M 385.910156 16.253906 "/>
<path style=" stroke:none;fill-rule:nonzero;fill:rgb(100%,100%,100%);fill-opacity:1;" d="M 384.550781 20.066406 L 224.363281 20.066406 C 222.800781 20.070312 221.539062 21.339844 221.539062 22.898438 L 221.539062 130.15625 C 221.539062 131.714844 222.804688 132.976562 224.363281 132.980469 L 384.550781 132.980469 C 386.109375 132.976562 387.371094 131.714844 387.375 130.15625 L 387.375 22.898438 C 387.375 21.339844 386.113281 20.070312 384.550781 20.066406 Z M 384.550781 20.066406 "/>
<path style=" stroke:none;fill-rule:nonzero;fill:rgb(80%,80%,80%);fill-opacity:1;" d="M 353.347656 179.5625 L 258.046875 179.5625 C 257.515625 179.5625 257.015625 179.324219 256.683594 178.914062 C 256.351562 178.503906 256.21875 177.964844 256.328125 177.445312 L 257.808594 170.421875 C 257.980469 169.609375 258.695312 169.03125 259.523438 169.027344 L 351.871094 169.027344 C 352.699219 169.03125 353.414062 169.609375 353.585938 170.421875 L 355.066406 177.445312 C 355.171875 177.964844 355.042969 178.503906 354.710938 178.914062 C 354.378906 179.324219 353.878906 179.5625 353.347656 179.5625 Z M 353.347656 179.5625 "/>
<path style=" stroke:none;fill-rule:nonzero;fill:rgb(90.196078%,90.196078%,90.196078%);fill-opacity:1;" d="M 260.566406 170.292969 L 262.769531 170.292969 C 262.972656 170.292969 263.136719 170.457031 263.136719 170.65625 L 263.136719 171.691406 C 263.136719 171.890625 262.972656 172.054688 262.769531 172.054688 L 260.566406 172.054688 C 260.363281 172.054688 260.199219 171.890625 260.199219 171.691406 L 260.199219 170.65625 C 260.199219 170.457031 260.363281 170.292969 260.566406 170.292969 Z M 260.566406 170.292969 "/>
<path style=" stroke:none;fill-rule:nonzero;fill:rgb(90.196078%,90.196078%,90.196078%);fill-opacity:1;" d="M 266.4375 170.292969 L 268.640625 170.292969 C 268.84375 170.292969 269.007812 170.457031 269.007812 170.65625 L 269.007812 171.691406 C 269.007812 171.890625 268.84375 172.054688 268.640625 172.054688 L 266.4375 172.054688 C 266.234375 172.054688 266.070312 171.890625 266.070312 171.691406 L 266.070312 170.65625 C 266.070312 170.457031 266.234375 170.292969 266.4375 170.292969 Z M 266.4375 170.292969 "/>
<path style=" stroke:none;fill-rule:nonzero;fill:rgb(90.196078%,90.196078%,90.196078%);fill-opacity:1;" d="M 272.304688 170.292969 L 274.511719 170.292969 C 274.714844 170.292969 274.875 170.457031 274.875 170.65625 L 274.875 171.691406 C 274.875 171.890625 274.714844 172.054688 274.511719 172.054688 L 272.304688 172.054688 C 272.105469 172.054688 271.941406 171.890625 271.941406 171.691406 L 271.941406 170.65625 C 271.941406 170.457031 272.105469 170.292969 272.304688 170.292969 Z M 272.304688 170.292969 "/>
<path style=" stroke:none;fill-rule:nonzero;fill:rgb(90.196078%,90.196078%,90.196078%);fill-opacity:1;" d="M 278.175781 170.292969 L 280.382812 170.292969 C 280.582031 170.292969 280.746094 170.457031 280.746094 170.65625 L 280.746094 171.691406 C 280.746094 171.890625 280.582031 172.054688 280.382812 172.054688 L 278.175781 172.054688 C 277.976562 172.054688 277.8125 171.890625 277.8125 171.691406 L 277.8125 170.65625 C 277.8125 170.457031 277.976562 170.292969 278.175781 170.292969 Z M 278.175781 170.292969 "/>
<path style=" stroke:none;fill-rule:nonzero;fill:rgb(90.196078%,90.196078%,90.196078%);fill-opacity:1;" d="M 284.046875 170.292969 L 286.253906 170.292969 C 286.453125 170.292969 286.617188 170.457031 286.617188 170.65625 L 286.617188 171.691406 C 286.617188 171.890625 286.453125 172.054688 286.253906 172.054688 L 284.046875 172.054688 C 283.847656 172.054688 283.683594 171.890625 283.683594 171.691406 L 283.683594 170.65625 C 283.683594 170.457031 283.847656 170.292969 284.046875 170.292969 Z M 284.046875 170.292969 "/>
<path style=" stroke:none;fill-rule:nonzero;fill:rgb(90.196078%,90.196078%,90.196078%);fill-opacity:1;" d="M 289.917969 170.292969 L 292.125 170.292969 C 292.324219 170.292969 292.488281 170.457031 292.488281 170.65625 L 292.488281 171.691406 C 292.488281 171.890625 292.324219 172.054688 292.125 172.054688 L 289.917969 172.054688 C 289.714844 172.054688 289.554688 171.890625 289.554688 171.691406 L 289.554688 170.65625 C 289.554688 170.457031 289.714844 170.292969 289.917969 170.292969 Z M 289.917969 170.292969 "/>
<path style=" stroke:none;fill-rule:nonzero;fill:rgb(90.196078%,90.196078%,90.196078%);fill-opacity:1;" d="M 295.789062 170.292969 L 297.996094 170.292969 C 298.195312 170.292969 298.359375 170.457031 298.359375 170.65625 L 298.359375 171.691406 C 298.359375 171.890625 298.195312 172.054688 297.996094 172.054688 L 295.789062 172.054688 C 295.585938 172.054688 295.421875 171.890625 295.421875 171.691406 L 295.421875 170.65625 C 295.421875 170.457031 295.585938 170.292969 295.789062 170.292969 Z M 295.789062 170.292969 "/>
<path style=" stroke:none;fill-rule:nonzero;fill:rgb(90.196078%,90.196078%,90.196078%);fill-opacity:1;" d="M 301.660156 170.292969 L 303.863281 170.292969 C 304.066406 170.292969 304.230469 170.457031 304.230469 170.65625 L 304.230469 171.691406 C 304.230469 171.890625 304.066406 172.054688 303.863281 172.054688 L 301.660156 172.054688 C 301.457031 172.054688 301.292969 171.890625 301.292969 171.691406 L 301.292969 170.65625 C 301.292969 170.457031 301.457031 170.292969 301.660156 170.292969 Z M 301.660156 170.292969 "/>
<path style=" stroke:none;fill-rule:nonzero;fill:rgb(90.196078%,90.196078%,90.196078%);fill-opacity:1;" d="M 307.53125 170.292969 L 309.734375 170.292969 C 309.9375 170.292969 310.101562 170.457031 310.101562 170.65625 L 310.101562 171.691406 C 310.101562 171.890625 309.9375 172.054688 309.734375 172.054688 L 307.53125 172.054688 C 307.328125 172.054688 307.164062 171.890625 307.164062 171.691406 L 307.164062 170.65625 C 307.164062 170.457031 307.328125 170.292969 307.53125 170.292969 Z M 307.53125 170.292969 "/>
<path style=" stroke:none;fill-rule:nonzero;fill:rgb(90.196078%,90.196078%,90.196078%);fill-opacity:1;" d="M 313.398438 170.292969 L 315.605469 170.292969 C 315.808594 170.292969 315.96875 170.457031 315.96875 170.65625 L 315.96875 171.691406 C 315.96875 171.890625 315.808594 172.054688 315.605469 172.054688 L 313.398438 172.054688 C 313.199219 172.054688 313.035156 171.890625 313.035156 171.691406 L 313.035156 170.65625 C 313.035156 170.457031 313.199219 170.292969 313.398438 170.292969 Z M 313.398438 170.292969 "/>
<path style=" stroke:none;fill-rule:nonzero;fill:rgb(90.196078%,90.196078%,90.196078%);fill-opacity:1;" d="M 319.269531 170.292969 L 321.476562 170.292969 C 321.679688 170.292969 321.839844 170.457031 321.839844 170.65625 L 321.839844 171.691406 C 321.839844 171.890625 321.679688 172.054688 321.476562 172.054688 L 319.269531 172.054688 C 319.070312 172.054688 318.90625 171.890625 318.90625 171.691406 L 318.90625 170.65625 C 318.90625 170.457031 319.070312 170.292969 319.269531 170.292969 Z M 319.269531 170.292969 "/>
<path style=" stroke:none;fill-rule:nonzero;fill:rgb(90.196078%,90.196078%,90.196078%);fill-opacity:1;" d="M 325.140625 170.292969 L 327.347656 170.292969 C 327.546875 170.292969 327.710938 170.457031 327.710938 170.65625 L 327.710938 171.691406 C 327.710938 171.890625 327.546875 172.054688 327.347656 172.054688 L 325.140625 172.054688 C 324.941406 172.054688 324.777344 171.890625 324.777344 171.691406 L 324.777344 170.65625 C 324.777344 170.457031 324.941406 170.292969 325.140625 170.292969 Z M 325.140625 170.292969 "/>
<path style=" stroke:none;fill-rule:nonzero;fill:rgb(90.196078%,90.196078%,90.196078%);fill-opacity:1;" d="M 331.011719 170.292969 L 333.21875 170.292969 C 333.417969 170.292969 333.582031 170.457031 333.582031 170.65625 L 333.582031 171.691406 C 333.582031 171.890625 333.417969 172.054688 333.21875 172.054688 L 331.011719 172.054688 C 330.808594 172.054688 330.648438 171.890625 330.648438 171.691406 L 330.648438 170.65625 C 330.648438 170.457031 330.808594 170.292969 331.011719 170.292969 Z M 331.011719 170.292969 "/>
<path style=" stroke:none;fill-rule:nonzero;fill:rgb(90.196078%,90.196078%,90.196078%);fill-opacity:1;" d="M 336.882812 170.292969 L 339.089844 170.292969 C 339.289062 170.292969 339.453125 170.457031 339.453125 170.65625 L 339.453125 171.691406 C 339.453125 171.890625 339.289062 172.054688 339.089844 172.054688 L 336.882812 172.054688 C 336.679688 172.054688 336.515625 171.890625 336.515625 171.691406 L 336.515625 170.65625 C 336.515625 170.457031 336.679688 170.292969 336.882812 170.292969 Z M 336.882812 170.292969 "/>
<path style=" stroke:none;fill-rule:nonzero;fill:rgb(90.196078%,90.196078%,90.196078%);fill-opacity:1;" d="M 342.753906 170.292969 L 344.957031 170.292969 C 345.160156 170.292969 345.324219 170.457031 345.324219 170.65625 L 345.324219 171.691406 C 345.324219 171.890625 345.160156 172.054688 344.957031 172.054688 L 342.753906 172.054688 C 342.550781 172.054688 342.386719 171.890625 342.386719 171.691406 L 342.386719 170.65625 C 342.386719 170.457031 342.550781 170.292969 342.753906 170.292969 Z M 342.753906 170.292969 "/>
<path style=" stroke:none;fill-rule:nonzero;fill:rgb(90.196078%,90.196078%,90.196078%);fill-opacity:1;" d="M 348.625 170.292969 L 350.828125 170.292969 C 351.03125 170.292969 351.195312 170.457031 351.195312 170.65625 L 351.195312 171.691406 C 351.195312 171.890625 351.03125 172.054688 350.828125 172.054688 L 348.625 172.054688 C 348.421875 172.054688 348.257812 171.890625 348.257812 171.691406 L 348.257812 170.65625 C 348.257812 170.457031 348.421875 170.292969 348.625 170.292969 Z M 348.625 170.292969 "/>
<path style=" stroke:none;fill-rule:nonzero;fill:rgb(90.196078%,90.196078%,90.196078%);fill-opacity:1;" d="M 260.496094 173.230469 L 262.703125 173.230469 C 262.902344 173.230469 263.066406 173.394531 263.066406 173.59375 L 263.066406 174.625 C 263.066406 174.828125 262.902344 174.992188 262.703125 174.992188 L 260.496094 174.992188 C 260.292969 174.992188 260.132812 174.828125 260.132812 174.625 L 260.132812 173.59375 C 260.132812 173.394531 260.292969 173.230469 260.496094 173.230469 Z M 260.496094 173.230469 "/>
<path style=" stroke:none;fill-rule:nonzero;fill:rgb(90.196078%,90.196078%,90.196078%);fill-opacity:1;" d="M 266.367188 173.230469 L 268.570312 173.230469 C 268.773438 173.230469 268.9375 173.394531 268.9375 173.59375 L 268.9375 174.625 C 268.9375 174.828125 268.773438 174.992188 268.570312 174.992188 L 266.367188 174.992188 C 266.164062 174.992188 266 174.828125 266 174.625 L 266 173.59375 C 266 173.394531 266.164062 173.230469 266.367188 173.230469 Z M 266.367188 173.230469 "/>
<path style=" stroke:none;fill-rule:nonzero;fill:rgb(90.196078%,90.196078%,90.196078%);fill-opacity:1;" d="M 272.238281 173.230469 L 274.441406 173.230469 C 274.644531 173.230469 274.808594 173.394531 274.808594 173.59375 L 274.808594 174.625 C 274.808594 174.828125 274.644531 174.992188 274.441406 174.992188 L 272.238281 174.992188 C 272.035156 174.992188 271.871094 174.828125 271.871094 174.625 L 271.871094 173.59375 C 271.871094 173.394531 272.035156 173.230469 272.238281 173.230469 Z M 272.238281 173.230469 "/>
<path style=" stroke:none;fill-rule:nonzero;fill:rgb(90.196078%,90.196078%,90.196078%);fill-opacity:1;" d="M 278.105469 173.230469 L 280.3125 173.230469 C 280.515625 173.230469 280.679688 173.394531 280.679688 173.59375 L 280.679688 174.625 C 280.679688 174.828125 280.515625 174.992188 280.3125 174.992188 L 278.105469 174.992188 C 277.90625 174.992188 277.742188 174.828125 277.742188 174.625 L 277.742188 173.59375 C 277.742188 173.394531 277.90625 173.230469 278.105469 173.230469 Z M 278.105469 173.230469 "/>
<path style=" stroke:none;fill-rule:nonzero;fill:rgb(90.196078%,90.196078%,90.196078%);fill-opacity:1;" d="M 283.976562 173.230469 L 286.183594 173.230469 C 286.386719 173.230469 286.546875 173.394531 286.546875 173.59375 L 286.546875 174.625 C 286.546875 174.828125 286.386719 174.992188 286.183594 174.992188 L 283.976562 174.992188 C 283.777344 174.992188 283.613281 174.828125 283.613281 174.625 L 283.613281 173.59375 C 283.613281 173.394531 283.777344 173.230469 283.976562 173.230469 Z M 283.976562 173.230469 "/>
<path style=" stroke:none;fill-rule:nonzero;fill:rgb(90.196078%,90.196078%,90.196078%);fill-opacity:1;" d="M 289.847656 173.230469 L 292.054688 173.230469 C 292.253906 173.230469 292.417969 173.394531 292.417969 173.59375 L 292.417969 174.625 C 292.417969 174.828125 292.253906 174.992188 292.054688 174.992188 L 289.847656 174.992188 C 289.648438 174.992188 289.484375 174.828125 289.484375 174.625 L 289.484375 173.59375 C 289.484375 173.394531 289.648438 173.230469 289.847656 173.230469 Z M 289.847656 173.230469 "/>
<path style=" stroke:none;fill-rule:nonzero;fill:rgb(90.196078%,90.196078%,90.196078%);fill-opacity:1;" d="M 295.71875 173.230469 L 297.925781 173.230469 C 298.125 173.230469 298.289062 173.394531 298.289062 173.59375 L 298.289062 174.625 C 298.289062 174.828125 298.125 174.992188 297.925781 174.992188 L 295.71875 174.992188 C 295.519531 174.992188 295.355469 174.828125 295.355469 174.625 L 295.355469 173.59375 C 295.355469 173.394531 295.519531 173.230469 295.71875 173.230469 Z M 295.71875 173.230469 "/>
<path style=" stroke:none;fill-rule:nonzero;fill:rgb(90.196078%,90.196078%,90.196078%);fill-opacity:1;" d="M 301.589844 173.230469 L 303.796875 173.230469 C 303.996094 173.230469 304.160156 173.394531 304.160156 173.59375 L 304.160156 174.625 C 304.160156 174.828125 303.996094 174.992188 303.796875 174.992188 L 301.589844 174.992188 C 301.386719 174.992188 301.226562 174.828125 301.226562 174.625 L 301.226562 173.59375 C 301.226562 173.394531 301.386719 173.230469 301.589844 173.230469 Z M 301.589844 173.230469 "/>
<path style=" stroke:none;fill-rule:nonzero;fill:rgb(90.196078%,90.196078%,90.196078%);fill-opacity:1;" d="M 307.460938 173.230469 L 309.664062 173.230469 C 309.867188 173.230469 310.03125 173.394531 310.03125 173.59375 L 310.03125 174.625 C 310.03125 174.828125 309.867188 174.992188 309.664062 174.992188 L 307.460938 174.992188 C 307.257812 174.992188 307.09375 174.828125 307.09375 174.625 L 307.09375 173.59375 C 307.09375 173.394531 307.257812 173.230469 307.460938 173.230469 Z M 307.460938 173.230469 "/>
<path style=" stroke:none;fill-rule:nonzero;fill:rgb(90.196078%,90.196078%,90.196078%);fill-opacity:1;" d="M 313.332031 173.230469 L 315.535156 173.230469 C 315.738281 173.230469 315.902344 173.394531 315.902344 173.59375 L 315.902344 174.625 C 315.902344 174.828125 315.738281 174.992188 315.535156 174.992188 L 313.332031 174.992188 C 313.128906 174.992188 312.964844 174.828125 312.964844 174.625 L 312.964844 173.59375 C 312.964844 173.394531 313.128906 173.230469 313.332031 173.230469 Z M 313.332031 173.230469 "/>
<path style=" stroke:none;fill-rule:nonzero;fill:rgb(90.196078%,90.196078%,90.196078%);fill-opacity:1;" d="M 319.203125 173.230469 L 321.40625 173.230469 C 321.609375 173.230469 321.773438 173.394531 321.773438 173.59375 L 321.773438 174.625 C 321.773438 174.828125 321.609375 174.992188 321.40625 174.992188 L 319.203125 174.992188 C 319 174.992188 318.835938 174.828125 318.835938 174.625 L 318.835938 173.59375 C 318.835938 173.394531 319 173.230469 319.203125 173.230469 Z M 319.203125 173.230469 "/>
<path style=" stroke:none;fill-rule:nonzero;fill:rgb(90.196078%,90.196078%,90.196078%);fill-opacity:1;" d="M 325.070312 173.230469 L 327.277344 173.230469 C 327.480469 173.230469 327.640625 173.394531 327.640625 173.59375 L 327.640625 174.625 C 327.640625 174.828125 327.480469 174.992188 327.277344 174.992188 L 325.070312 174.992188 C 324.871094 174.992188 324.707031 174.828125 324.707031 174.625 L 324.707031 173.59375 C 324.707031 173.394531 324.871094 173.230469 325.070312 173.230469 Z M 325.070312 173.230469 "/>
<path style=" stroke:none;fill-rule:nonzero;fill:rgb(90.196078%,90.196078%,90.196078%);fill-opacity:1;" d="M 330.941406 173.230469 L 333.148438 173.230469 C 333.347656 173.230469 333.511719 173.394531 333.511719 173.59375 L 333.511719 174.625 C 333.511719 174.828125 333.347656 174.992188 333.148438 174.992188 L 330.941406 174.992188 C 330.742188 174.992188 330.578125 174.828125 330.578125 174.625 L 330.578125 173.59375 C 330.578125 173.394531 330.742188 173.230469 330.941406 173.230469 Z M 330.941406 173.230469 "/>
<path style=" stroke:none;fill-rule:nonzero;fill:rgb(90.196078%,90.196078%,90.196078%);fill-opacity:1;" d="M 336.8125 173.230469 L 339.019531 173.230469 C 339.21875 173.230469 339.382812 173.394531 339.382812 173.59375 L 339.382812 174.625 C 339.382812 174.828125 339.21875 174.992188 339.019531 174.992188 L 336.8125 174.992188 C 336.613281 174.992188 336.449219 174.828125 336.449219 174.625 L 336.449219 173.59375 C 336.449219 173.394531 336.613281 173.230469 336.8125 173.230469 Z M 336.8125 173.230469 "/>
<path style=" stroke:none;fill-rule:nonzero;fill:rgb(90.196078%,90.196078%,90.196078%);fill-opacity:1;" d="M 342.683594 173.230469 L 344.890625 173.230469 C 345.089844 173.230469 345.253906 173.394531 345.253906 173.59375 L 345.253906 174.625 C 345.253906 174.828125 345.089844 174.992188 344.890625 174.992188 L 342.683594 174.992188 C 342.480469 174.992188 342.320312 174.828125 342.320312 174.625 L 342.320312 173.59375 C 342.320312 173.394531 342.480469 173.230469 342.683594 173.230469 Z M 342.683594 173.230469 "/>
<path style=" stroke:none;fill-rule:nonzero;fill:rgb(90.196078%,90.196078%,90.196078%);fill-opacity:1;" d="M 348.554688 173.230469 L 350.761719 173.230469 C 350.960938 173.230469 351.125 173.394531 351.125 173.59375 L 351.125 174.625 C 351.125 174.828125 350.960938 174.992188 350.761719 174.992188 L 348.554688 174.992188 C 348.351562 174.992188 348.1875 174.828125 348.1875 174.625 L 348.1875 173.59375 C 348.1875 173.394531 348.351562 173.230469 348.554688 173.230469 Z M 348.554688 173.230469 "/>
<path style=" stroke:none;fill-rule:nonzero;fill:rgb(90.196078%,90.196078%,90.196078%);fill-opacity:1;" d="M 288.675781 176.753906 L 311.425781 176.753906 C 311.628906 176.753906 311.792969 176.917969 311.792969 177.117188 L 311.792969 178.152344 C 311.792969 178.351562 311.628906 178.515625 311.425781 178.515625 L 288.675781 178.515625 C 288.472656 178.515625 288.308594 178.351562 288.308594 178.152344 L 288.308594 177.117188 C 288.308594 176.917969 288.472656 176.753906 288.675781 176.753906 Z M 288.675781 176.753906 "/>
<path style=" stroke:none;fill-rule:nonzero;fill:rgb(79.215686%,79.215686%,79.215686%);fill-opacity:1;" d="M 376.5 34.847656 L 226.609375 34.847656 C 226.285156 34.839844 226.027344 34.574219 226.027344 34.25 C 226.027344 33.925781 226.285156 33.660156 226.609375 33.652344 L 376.5 33.652344 C 376.824219 33.660156 377.082031 33.925781 377.082031 34.25 C 377.082031 34.574219 376.824219 34.839844 376.5 34.847656 Z M 376.5 34.847656 "/>
<path style=" stroke:none;fill-rule:nonzero;fill:rgb(80%,80%,80%);fill-opacity:1;" d="M 240.304688 27.035156 C 240.304688 25.0625 238.742188 23.464844 236.8125 23.464844 C 234.882812 23.464844 233.320312 25.0625 233.320312 27.035156 C 233.320312 29.007812 234.882812 30.609375 236.8125 30.609375 C 238.742188 30.609375 240.304688 29.007812 240.304688 27.035156 Z M 240.304688 27.035156 "/>
<path style=" stroke:none;fill-rule:nonzero;fill:rgb(80%,80%,80%);fill-opacity:1;" d="M 252.375 27.035156 C 252.375 25.0625 250.808594 23.464844 248.878906 23.464844 C 246.953125 23.464844 245.386719 25.0625 245.386719 27.035156 C 245.386719 29.007812 246.953125 30.609375 248.878906 30.609375 C 250.808594 30.609375 252.375 29.007812 252.375 27.035156 Z M 252.375 27.035156 "/>
<path style=" stroke:none;fill-rule:nonzero;fill:rgb(80%,80%,80%);fill-opacity:1;" d="M 264.441406 27.035156 C 264.441406 25.0625 262.878906 23.464844 260.949219 23.464844 C 259.019531 23.464844 257.453125 25.0625 257.453125 27.035156 C 257.453125 29.007812 259.019531 30.609375 260.949219 30.609375 C 262.878906 30.609375 264.441406 29.007812 264.441406 27.035156 Z M 264.441406 27.035156 "/>
<path style=" stroke:none;fill-rule:nonzero;fill:rgb(80%,80%,80%);fill-opacity:1;" d="M 369.234375 24.347656 L 360.660156 24.347656 C 360.308594 24.355469 360.023438 24.644531 360.023438 24.996094 C 360.023438 25.351562 360.308594 25.640625 360.660156 25.648438 L 369.234375 25.648438 C 369.585938 25.640625 369.871094 25.351562 369.871094 24.996094 C 369.871094 24.644531 369.585938 24.355469 369.234375 24.347656 Z M 369.234375 24.347656 "/>
<path style=" stroke:none;fill-rule:nonzero;fill:rgb(80%,80%,80%);fill-opacity:1;" d="M 369.234375 26.785156 L 360.660156 26.785156 C 360.308594 26.792969 360.023438 27.082031 360.023438 27.433594 C 360.023438 27.789062 360.308594 28.078125 360.660156 28.085938 L 369.234375 28.085938 C 369.585938 28.078125 369.871094 27.789062 369.871094 27.433594 C 369.871094 27.082031 369.585938 26.792969 369.234375 26.785156 Z M 369.234375 26.785156 "/>
<path style=" stroke:none;fill-rule:nonzero;fill:rgb(80%,80%,80%);fill-opacity:1;" d="M 369.234375 29.21875 L 360.660156 29.21875 C 360.308594 29.226562 360.023438 29.515625 360.023438 29.871094 C 360.023438 30.222656 360.308594 30.511719 360.660156 30.519531 L 369.234375 30.519531 C 369.585938 30.511719 369.871094 30.222656 369.871094 29.871094 C 369.871094 29.515625 369.585938 29.226562 369.234375 29.21875 Z M 369.234375 29.21875 "/>
<path style=" stroke:none;fill-rule:nonzero;fill:rgb(24.705882%,23.921569%,33.72549%);fill-opacity:1;" d="M 301.402344 43.886719 L 300.917969 42.472656 L 362.828125 10.289062 L 363.3125 11.703125 Z M 301.402344 43.886719 "/>
<path style=" stroke:none;fill-rule:nonzero;fill:rgb(24.705882%,23.921569%,33.72549%);fill-opacity:1;" d="M 488.199219 103.496094 L 487.714844 102.082031 L 524.96875 70.0625 L 525.453125 71.476562 Z M 488.199219 103.496094 "/>
<path style=" stroke:none;fill-rule:nonzero;fill:rgb(24.705882%,23.921569%,33.72549%);fill-opacity:1;" d="M 416.625 110.953125 L 354.714844 78.769531 L 355.199219 77.351562 L 417.109375 109.535156 Z M 416.625 110.953125 "/>
<path style=" stroke:none;fill-rule:nonzero;fill:rgb(24.705882%,23.921569%,33.72549%);fill-opacity:1;" d="M 448.320312 88.558594 L 412.023438 28.945312 L 413.171875 27.984375 L 449.464844 87.597656 Z M 448.320312 88.558594 "/>
<path style=" stroke:none;fill-rule:nonzero;fill:rgb(24.705882%,23.921569%,33.72549%);fill-opacity:1;" d="M 476.644531 10.878906 L 441.296875 10.714844 L 441.296875 9.222656 L 476.644531 9.382812 Z M 476.644531 10.878906 "/>
<path style=" stroke:none;fill-rule:nonzero;fill:rgb(42.352941%,38.823529%,100%);fill-opacity:1;" d="M 540.675781 20.152344 L 501.074219 20.152344 C 495.710938 20.152344 491.359375 15.800781 491.359375 10.433594 C 491.359375 5.066406 495.710938 0.71875 501.074219 0.71875 L 540.675781 0.71875 C 546.039062 0.71875 550.390625 5.066406 550.390625 10.433594 C 550.390625 15.800781 546.039062 20.152344 540.675781 20.152344 Z M 540.675781 20.152344 "/>
<path style=" stroke:none;fill-rule:nonzero;fill:rgb(42.352941%,38.823529%,100%);fill-opacity:1;" d="M 589.992188 76.964844 L 550.390625 76.964844 C 545.023438 76.964844 540.675781 72.613281 540.675781 67.246094 C 540.675781 61.878906 545.023438 57.53125 550.390625 57.53125 L 589.992188 57.53125 C 595.355469 57.53125 599.703125 61.878906 599.703125 67.246094 C 599.703125 72.613281 595.355469 76.964844 589.992188 76.964844 Z M 589.992188 76.964844 "/>
<path style=" stroke:none;fill-rule:nonzero;fill:rgb(24.705882%,23.921569%,33.72549%);fill-opacity:1;" d="M 525.957031 117.027344 L 490.609375 116.867188 L 490.609375 115.371094 L 525.957031 115.535156 Z M 525.957031 117.027344 "/>
<path style=" stroke:none;fill-rule:nonzero;fill:rgb(42.352941%,38.823529%,100%);fill-opacity:1;" d="M 589.992188 126.304688 L 550.390625 126.304688 C 545.023438 126.304688 540.675781 121.953125 540.675781 116.585938 C 540.675781 111.21875 545.023438 106.867188 550.390625 106.867188 L 589.992188 106.867188 C 595.355469 106.867188 599.703125 111.21875 599.703125 116.585938 C 599.703125 121.953125 595.355469 126.304688 589.992188 126.304688 Z M 589.992188 126.304688 "/>
<path style=" stroke:none;fill-rule:nonzero;fill:rgb(42.352941%,38.823529%,100%);fill-opacity:1;" d="M 474.175781 119.605469 L 434.574219 119.605469 C 429.210938 119.605469 424.859375 115.253906 424.859375 109.886719 C 424.859375 104.519531 429.210938 100.167969 434.574219 100.167969 L 474.175781 100.167969 C 479.539062 100.167969 483.890625 104.519531 483.890625 109.886719 C 483.890625 115.253906 479.539062 119.605469 474.175781 119.605469 Z M 474.175781 119.605469 "/>
<path style=" stroke:none;fill-rule:nonzero;fill:rgb(42.352941%,38.823529%,100%);fill-opacity:1;" d="M 420.378906 19.4375 L 380.777344 19.4375 C 375.410156 19.4375 371.0625 15.085938 371.0625 9.71875 C 371.0625 4.351562 375.410156 0 380.777344 0 L 420.378906 0 C 425.742188 0 430.089844 4.351562 430.089844 9.71875 C 430.089844 15.085938 425.742188 19.4375 420.378906 19.4375 Z M 420.378906 19.4375 "/>
<path style=" stroke:none;fill-rule:nonzero;fill:rgb(24.705882%,23.921569%,33.72549%);fill-opacity:1;" d="M 231.089844 186.269531 L 186.257812 186.269531 C 182.957031 186.269531 180.28125 188.949219 180.28125 192.25 C 180.28125 195.554688 182.957031 198.230469 186.257812 198.230469 L 202.699219 198.230469 L 202.699219 244.578125 L 214.652344 244.578125 L 214.652344 198.230469 L 231.089844 198.230469 C 234.390625 198.230469 237.070312 195.554688 237.070312 192.25 C 237.070312 188.949219 234.390625 186.269531 231.089844 186.269531 Z M 231.089844 186.269531 "/>
<path style=" stroke:none;fill-rule:nonzero;fill:rgb(24.705882%,23.921569%,33.72549%);fill-opacity:1;" d="M 260.679688 270.246094 L 140.769531 270.246094 C 116.738281 270.160156 96.410156 252.453125 93.011719 228.65625 L 88.765625 213.035156 C 79.980469 180.667969 66.597656 149.726562 49.027344 121.164062 C 40.996094 108.113281 36.863281 95.484375 46.253906 83.324219 C 46.332031 83.222656 46.410156 83.121094 46.488281 83.019531 C 54.019531 73.214844 91.496094 71.09375 103.714844 70.679688 C 104.195312 70.664062 104.679688 70.65625 105.167969 70.65625 L 179.75 70.65625 C 180.238281 70.65625 180.722656 70.664062 181.203125 70.679688 C 194.621094 71.070312 206.742188 78.800781 212.761719 90.804688 C 219.1875 103.058594 218.367188 117.851562 210.628906 129.324219 C 184.429688 168.695312 176.40625 193.386719 184.621094 209.375 C 192.5625 224.839844 216.914062 232.746094 261.253906 234.253906 C 273.167969 234.660156 278.636719 243.945312 278.671875 252.394531 C 278.710938 260.628906 273.453125 269.71875 261.820312 270.222656 C 261.445312 270.238281 261.0625 270.246094 260.679688 270.246094 Z M 260.679688 270.246094 "/>
<path style=" stroke:none;fill-rule:nonzero;fill:rgb(24.705882%,23.921569%,33.72549%);fill-opacity:1;" d="M 161.136719 376.769531 L 205.96875 376.769531 C 209.273438 376.769531 211.949219 374.09375 211.949219 370.789062 C 211.949219 367.488281 209.273438 364.808594 205.96875 364.808594 L 189.53125 364.808594 L 189.53125 263.890625 L 177.578125 263.890625 L 177.578125 364.808594 L 161.136719 364.808594 C 157.835938 364.808594 155.160156 367.488281 155.160156 370.789062 C 155.160156 374.09375 157.835938 376.769531 161.136719 376.769531 Z M 161.136719 376.769531 "/>
<path style=" stroke:none;fill-rule:nonzero;fill:rgb(62.745098%,38.039216%,41.568627%);fill-opacity:1;" d="M 201.714844 336.085938 L 209.4375 340.28125 L 229.882812 312.003906 L 218.484375 305.808594 Z M 201.714844 336.085938 "/>
<path style=" stroke:none;fill-rule:nonzero;fill:rgb(18.431373%,18.039216%,25.490196%);fill-opacity:1;" d="M 205.433594 326.007812 L 219.453125 330.398438 L 217.222656 336.277344 L 226.835938 350.238281 C 227.8125 351.652344 227.753906 353.535156 226.691406 354.890625 C 225.632812 356.242188 223.816406 356.746094 222.210938 356.136719 L 205.890625 349.933594 L 205.28125 343.050781 L 201.976562 348.445312 L 195.824219 346.105469 Z M 205.433594 326.007812 "/>
<path style=" stroke:none;fill-rule:nonzero;fill:rgb(62.745098%,38.039216%,41.568627%);fill-opacity:1;" d="M 221.230469 50.890625 C 221.601562 53.429688 220.824219 56.007812 219.117188 57.925781 C 217.40625 59.839844 214.933594 60.902344 212.367188 60.820312 L 182.589844 124.207031 L 173.25 111.179688 L 203.902344 51.238281 C 204.335938 46.835938 207.992188 43.453125 212.410156 43.367188 C 216.832031 43.277344 220.621094 46.507812 221.230469 50.890625 Z M 221.230469 50.890625 "/>
<path style=" stroke:none;fill-rule:nonzero;fill:rgb(42.352941%,38.823529%,100%);fill-opacity:1;" d="M 122.414062 137.023438 C 122.414062 137.023438 121.613281 148.097656 134.132812 150.269531 C 146.648438 152.441406 180.113281 131.269531 185.609375 128.019531 C 191.105469 124.769531 201.347656 83.871094 201.347656 83.871094 L 192.441406 68.796875 C 181.445312 82.714844 172.808594 95.546875 172.285156 104.65625 Z M 122.414062 137.023438 "/>
<path style=" stroke:none;fill-rule:nonzero;fill:rgb(62.745098%,38.039216%,41.568627%);fill-opacity:1;" d="M 136.863281 175.167969 L 139.566406 186.789062 C 139.566406 186.789062 139.59375 197.503906 141.492188 199.480469 C 143.375 201.445312 184.792969 197.5 184.792969 197.5 C 184.792969 197.5 180.402344 180.230469 180.460938 167.164062 Z M 136.863281 175.167969 "/>
<path style=" stroke:none;fill-rule:nonzero;fill:rgb(18.431373%,18.039216%,25.490196%);fill-opacity:1;" d="M 224.367188 323.816406 L 209.421875 315.59375 C 209.136719 296.140625 220.835938 269.8125 234.707031 242.238281 C 203.679688 247.574219 174.410156 249.285156 149.09375 242.828125 C 140.445312 240.542969 135.234375 231.734375 137.390625 223.050781 C 137.488281 222.640625 137.601562 222.234375 137.730469 221.832031 C 140.761719 212.585938 133.96875 206.785156 140.21875 196.613281 C 156.652344 191 172.265625 189.414062 186.542969 194.371094 L 195.488281 214.160156 L 239.828125 208.417969 C 244.15625 207.902344 248.511719 209.132812 251.925781 211.84375 C 255.339844 214.550781 257.535156 218.507812 258.019531 222.84375 C 258.078125 223.324219 258.117188 223.808594 258.136719 224.292969 C 249.171875 266.34375 239.117188 304.179688 224.367188 323.816406 Z M 224.367188 323.816406 "/>
<path style=" stroke:none;fill-rule:nonzero;fill:rgb(42.352941%,38.823529%,100%);fill-opacity:1;" d="M 130.84375 101.59375 L 147.925781 100.585938 C 149.402344 100.496094 150.773438 101.355469 151.335938 102.722656 L 156.164062 114.433594 L 176.226562 131.019531 C 176.226562 131.019531 184.167969 141.132812 184.1875 154.195312 C 184.207031 167.253906 187.007812 197.484375 187.007812 197.484375 C 187.007812 197.484375 175.414062 181.160156 168.257812 185.5 C 167.039062 186.238281 166.613281 187.75 165.335938 188.511719 C 164.703125 188.894531 163.230469 188.523438 162.589844 188.90625 C 152.730469 194.761719 142.445312 200.480469 141.484375 199.480469 C 139.597656 197.507812 137.3125 187.445312 137.3125 187.445312 L 121.675781 129.96875 C 119.957031 123.847656 121.070312 117.277344 124.699219 112.058594 C 125.792969 110.519531 126.9375 109.375 128 109.183594 C 130.390625 108.675781 129.117188 103.320312 130.84375 101.59375 Z M 130.84375 101.59375 "/>
<path style=" stroke:none;fill-rule:nonzero;fill:rgb(62.745098%,38.039216%,41.568627%);fill-opacity:1;" d="M 276.152344 360.429688 L 283.363281 355.417969 L 267.027344 324.585938 L 256.386719 331.988281 Z M 276.152344 360.429688 "/>
<path style=" stroke:none;fill-rule:nonzero;fill:rgb(18.431373%,18.039216%,25.490196%);fill-opacity:1;" d="M 277.242188 339.746094 L 265.941406 349.847656 C 247.972656 329.820312 234.390625 301.726562 222.878906 269.824219 C 192.714844 260.988281 169.972656 246.734375 150.113281 229.8125 C 143.378906 224.109375 138.328125 216.78125 144.074219 209.835938 C 144.34375 209.511719 144.621094 209.199219 144.914062 208.894531 C 151.699219 201.917969 168.898438 203.25 178.976562 196.859375 L 201.480469 220.925781 L 200.066406 227.378906 L 242.339844 241.707031 C 246.449219 243.144531 249.8125 246.167969 251.683594 250.101562 C 253.554688 254.035156 253.777344 258.550781 252.304688 262.648438 C 252.148438 263.109375 251.96875 263.558594 251.773438 264.003906 Z M 277.242188 339.746094 "/>
<path style=" stroke:none;fill-rule:nonzero;fill:rgb(18.431373%,18.039216%,25.490196%);fill-opacity:1;" d="M 271.949219 358.398438 L 283.488281 349.304688 L 287.078125 354.464844 L 304.019531 354.414062 C 305.738281 354.410156 307.261719 355.523438 307.777344 357.160156 C 308.292969 358.800781 307.683594 360.585938 306.273438 361.566406 L 291.9375 371.535156 L 285.917969 368.148438 L 288.5 373.925781 L 283.097656 377.683594 Z M 271.949219 358.398438 "/>
<path style=" stroke:none;fill-rule:nonzero;fill:rgb(62.745098%,38.039216%,41.568627%);fill-opacity:1;" d="M 156.070312 246.441406 C 153.703125 245.4375 151.90625 243.4375 151.15625 240.980469 C 150.410156 238.523438 150.789062 235.859375 152.191406 233.707031 L 113.519531 175.324219 L 129.5 174.109375 L 164.769531 231.449219 C 168.304688 234.105469 169.296875 238.984375 167.074219 242.8125 C 164.855469 246.636719 160.128906 248.195312 156.070312 246.441406 Z M 156.070312 246.441406 "/>
<path style=" stroke:none;fill-rule:nonzero;fill:rgb(42.352941%,38.823529%,100%);fill-opacity:1;" d="M 133.835938 117.222656 C 133.835938 117.222656 124.789062 110.785156 116.433594 120.359375 C 108.074219 129.933594 108.773438 169.539062 108.695312 175.925781 C 108.671875 177.925781 111.558594 182.238281 115.535156 187.222656 C 117.320312 189.460938 119.324219 191.835938 121.386719 194.195312 C 122.578125 195.558594 121.550781 198.398438 122.746094 199.726562 C 123.9375 201.046875 127.351562 200.851562 128.484375 202.074219 C 133.859375 207.886719 138.226562 212.3125 138.226562 212.3125 L 155.726562 212.527344 C 155.925781 199.511719 147.015625 187.894531 135.570312 176.667969 Z M 133.835938 117.222656 "/>
<path style=" stroke:none;fill-rule:nonzero;fill:rgb(18.431373%,18.039216%,25.490196%);fill-opacity:1;" d="M 116.195312 60.554688 C 114.539062 61.753906 112.796875 62.984375 110.773438 63.28125 C 108.753906 63.578125 106.386719 62.601562 105.824219 60.632812 C 105.140625 58.230469 107.3125 56.042969 109.261719 54.480469 L 115.445312 49.523438 C 116.578125 48.519531 117.855469 47.695312 119.238281 47.074219 C 120.640625 46.453125 122.25 46.507812 123.609375 47.21875 C 124.960938 48.132812 125.742188 49.679688 125.675781 51.3125 C 125.585938 52.917969 125.058594 54.46875 124.144531 55.792969 C 121.824219 59.410156 118.128906 61.921875 113.914062 62.75 "/>
<path style=" stroke:none;fill-rule:nonzero;fill:rgb(24.705882%,23.921569%,33.72549%);fill-opacity:1;" d="M 163.097656 189.261719 L 118.265625 189.261719 C 114.960938 189.261719 112.285156 191.9375 112.285156 195.242188 C 112.285156 198.542969 114.960938 201.222656 118.265625 201.222656 L 134.703125 201.222656 L 134.703125 247.570312 L 146.65625 247.570312 L 146.65625 201.222656 L 163.097656 201.222656 C 166.398438 201.222656 169.074219 198.542969 169.074219 195.242188 C 169.074219 191.9375 166.398438 189.261719 163.097656 189.261719 Z M 163.097656 189.261719 "/>
<path style=" stroke:none;fill-rule:nonzero;fill:rgb(18.431373%,18.039216%,25.490196%);fill-opacity:1;" d="M 118.941406 48.007812 C 119.121094 43.527344 114.347656 39.976562 109.871094 40.253906 C 105.394531 40.535156 101.546875 43.6875 99.011719 47.386719 C 96.472656 51.082031 94.949219 55.363281 92.949219 59.378906 C 90.953125 63.390625 88.289062 67.320312 84.316406 69.402344 C 80.347656 71.476562 74.820312 71.109375 72.074219 67.5625 C 70.34375 70.1875 69.96875 73.480469 71.0625 76.429688 C 72.183594 79.34375 74.28125 81.773438 76.992188 83.316406 C 78.070312 83.957031 79.226562 84.464844 80.425781 84.828125 C 80.921875 83.488281 81.617188 82.234375 82.492188 81.109375 C 82.097656 82.441406 81.949219 83.835938 82.046875 85.226562 C 83.898438 85.582031 85.804688 85.550781 87.644531 85.136719 C 91.308594 84.316406 94.371094 81.816406 95.910156 78.394531 C 97.589844 74.417969 96.734375 69.886719 97.09375 65.585938 C 97.449219 61.285156 100.039062 56.375 104.351562 56.304688 C 107.636719 56.25 107.203125 56.523438 109.285156 59.0625 "/>
<path style=" stroke:none;fill-rule:nonzero;fill:rgb(18.431373%,18.039216%,25.490196%);fill-opacity:1;" d="M 148.769531 71.570312 C 148.769531 82.304688 140.074219 91.007812 129.34375 91.007812 C 118.613281 91.007812 108.421875 78.566406 108.421875 67.832031 C 108.421875 57.097656 118.613281 52.132812 129.34375 52.132812 C 140.074219 52.132812 148.769531 60.835938 148.769531 71.570312 Z M 148.769531 71.570312 "/>
<path style=" stroke:none;fill-rule:nonzero;fill:rgb(62.745098%,38.039216%,41.568627%);fill-opacity:1;" d="M 153.359375 72.980469 C 155.410156 83.011719 148.945312 92.808594 138.917969 94.863281 C 128.886719 96.914062 119.09375 90.445312 117.042969 80.414062 C 114.992188 70.378906 121.457031 60.582031 131.484375 58.53125 C 141.515625 56.476562 151.308594 62.945312 153.359375 72.980469 Z M 153.359375 72.980469 "/>
<path style=" stroke:none;fill-rule:nonzero;fill:rgb(18.431373%,18.039216%,25.490196%);fill-opacity:1;" d="M 158.484375 73.8125 C 152.996094 75.3125 147.457031 76.882812 145.320312 73.8125 C 144.902344 71.777344 144.117188 69.835938 142.996094 68.085938 C 142.785156 70.046875 142.324219 71.96875 141.628906 73.8125 C 134.695312 75.320312 128.21875 75.679688 122.617188 73.8125 C 121.847656 75.207031 121.402344 76.753906 121.3125 78.34375 C 121.035156 78.167969 120.746094 78.015625 120.445312 77.886719 C 120.085938 77.683594 119.652344 77.644531 119.265625 77.78125 C 118.996094 77.945312 118.816406 78.222656 118.777344 78.539062 C 118.742188 78.847656 118.757812 79.164062 118.824219 79.472656 C 118.902344 80.542969 119.222656 81.578125 119.757812 82.507812 C 120.1875 83.152344 120.867188 83.589844 121.632812 83.710938 C 122.410156 88.082031 128.597656 93.996094 128.597656 93.996094 C 109.917969 94.742188 109.917969 82.066406 109.917969 70.074219 L 112.15625 65.589844 L 119.628906 65.589844 L 119.628906 55.871094 L 140.550781 55.871094 C 150.453125 55.875 158.480469 63.90625 158.484375 73.8125 Z M 158.484375 73.8125 "/>
<path style=" stroke:none;fill-rule:nonzero;fill:rgb(79.215686%,79.215686%,79.215686%);fill-opacity:1;" d="M 328.722656 378.933594 L 0.890625 379.164062 C 0.570312 379.164062 0.277344 378.996094 0.117188 378.71875 C -0.0429688 378.445312 -0.0429688 378.101562 0.117188 377.828125 C 0.277344 377.550781 0.570312 377.382812 0.890625 377.382812 L 328.722656 377.152344 C 329.214844 377.152344 329.613281 377.550781 329.613281 378.042969 C 329.613281 378.535156 329.214844 378.933594 328.722656 378.933594 Z M 328.722656 378.933594 "/>
<path style=" stroke:none;fill-rule:nonzero;fill:rgb(79.215686%,79.215686%,79.215686%);fill-opacity:1;" d="M 547.652344 378.933594 L 378.226562 379.164062 C 377.90625 379.164062 377.613281 378.996094 377.453125 378.71875 C 377.292969 378.445312 377.292969 378.101562 377.453125 377.828125 C 377.613281 377.550781 377.90625 377.382812 378.226562 377.382812 L 547.652344 377.152344 C 548.144531 377.152344 548.542969 377.550781 548.542969 378.042969 C 548.542969 378.535156 548.144531 378.933594 547.652344 378.933594 Z M 547.652344 378.933594 "/>
<path style=" stroke:none;fill-rule:nonzero;fill:rgb(90.196078%,90.196078%,90.196078%);fill-opacity:1;" d="M 336.214844 110.636719 L 271.992188 110.636719 C 266.414062 110.628906 261.894531 106.105469 261.886719 100.527344 L 261.886719 57.953125 C 261.894531 52.371094 266.414062 47.847656 271.992188 47.84375 L 336.214844 47.84375 C 341.792969 47.847656 346.3125 52.371094 346.320312 57.953125 L 346.320312 100.527344 C 346.3125 106.105469 341.792969 110.628906 336.214844 110.636719 Z M 271.992188 49.335938 C 267.238281 49.34375 263.386719 53.195312 263.382812 57.953125 L 263.382812 100.527344 C 263.386719 105.28125 267.238281 109.132812 271.992188 109.140625 L 336.214844 109.140625 C 340.96875 109.132812 344.820312 105.28125 344.824219 100.527344 L 344.824219 57.953125 C 344.820312 53.195312 340.96875 49.34375 336.214844 49.335938 Z M 271.992188 49.335938 "/>
<path style=" stroke:none;fill-rule:nonzero;fill:rgb(90.196078%,90.196078%,90.196078%);fill-opacity:1;" d="M 273.839844 61.296875 L 291.019531 61.296875 L 291.019531 62.792969 L 273.839844 62.792969 Z M 273.839844 61.296875 "/>
<path style=" stroke:none;fill-rule:nonzero;fill:rgb(90.196078%,90.196078%,90.196078%);fill-opacity:1;" d="M 273.839844 67.277344 L 311.949219 67.277344 L 311.949219 68.773438 L 273.839844 68.773438 Z M 273.839844 67.277344 "/>
<path style=" stroke:none;fill-rule:nonzero;fill:rgb(90.196078%,90.196078%,90.196078%);fill-opacity:1;" d="M 273.839844 72.511719 L 311.949219 72.511719 L 311.949219 74.007812 L 273.839844 74.007812 Z M 273.839844 72.511719 "/>
<path style=" stroke:none;fill-rule:nonzero;fill:rgb(90.196078%,90.196078%,90.196078%);fill-opacity:1;" d="M 273.839844 77.742188 L 322.410156 77.742188 L 322.410156 79.238281 L 273.839844 79.238281 Z M 273.839844 77.742188 "/>
<path style=" stroke:none;fill-rule:nonzero;fill:rgb(90.196078%,90.196078%,90.196078%);fill-opacity:1;" d="M 273.839844 82.976562 L 299.246094 82.976562 L 299.246094 84.472656 L 273.839844 84.472656 Z M 273.839844 82.976562 "/>
<path style=" stroke:none;fill-rule:nonzero;fill:rgb(90.196078%,90.196078%,90.196078%);fill-opacity:1;" d="M 273.839844 88.210938 L 320.167969 88.210938 L 320.167969 89.703125 L 273.839844 89.703125 Z M 273.839844 88.210938 "/>
<path style=" stroke:none;fill-rule:nonzero;fill:rgb(90.196078%,90.196078%,90.196078%);fill-opacity:1;" d="M 273.839844 93.441406 L 282.0625 93.441406 L 282.0625 94.9375 L 273.839844 94.9375 Z M 273.839844 93.441406 "/>
</g>
</svg>
